<?xml version="1.0" encoding="utf-8"?>
<!-- Generator: Adobe Illustrator 16.0.0, SVG Export Plug-In . SVG Version: 6.00 Build 0)  -->
<!DOCTYPE svg PUBLIC "-//W3C//DTD SVG 1.1//EN" "http://www.w3.org/Graphics/SVG/1.1/DTD/svg11.dtd">
<svg version="1.1"
	 id="svg2" xmlns:dc="http://purl.org/dc/elements/1.1/" xmlns:cc="http://creativecommons.org/ns#" xmlns:svg="http://www.w3.org/2000/svg" xmlns:rdf="http://www.w3.org/1999/02/22-rdf-syntax-ns#"
	 xmlns="http://www.w3.org/2000/svg" xmlns:xlink="http://www.w3.org/1999/xlink" x="0px" y="0px" width="100px" height="100px"
	 viewBox="0 0 100 100" enable-background="new 0 0 100 100" xml:space="preserve">
<path id="path2988-9" d="M45.556,0c6.935,9.185,11.424,16.548,14.167,22.465c-10.35-7.039-33.633-8.973-48.473-4.688
	c12.523,1.786,21.398,4.007,27.674,6.528C26.575,25.671,7.712,41.312,0,55.243c9.345-6.936,16.786-11.419,22.778-14.132
	c-6.857,10.469-8.672,33.166-4.41,47.674c1.674-11.542,3.754-19.98,6.076-26.111C26.735,74.906,41.862,92.624,55.417,100
	c-7.221-9.563-11.809-17.188-14.514-23.229c10.298,7.095,33.689,9.091,48.577,4.792c-10.873-1.55-18.999-3.468-25.069-5.59
	C76.605,72.58,92.955,58.421,100,45.694c-8.975,6.66-16.181,11.076-22.049,13.819c6.832-10.489,8.631-33.118,4.375-47.604
	c-1.606,11.083-3.621,19.316-5.833,25.382C74.171,25.06,59.091,7.366,45.556,0z M47.535,22.222
	c7.52,4.092,15.897,13.934,17.188,20.729c1.229-3.37,2.336-7.975,3.229-14.132c2.363,8.048,1.365,20.631-2.431,26.458
	c3.26-1.523,7.271-3.973,12.257-7.673c-3.913,7.071-12.981,14.957-19.757,16.84c3.373,1.179,7.884,2.229,13.924,3.091
	c-8.271,2.388-21.258,1.302-26.979-2.64c1.503,3.356,4.009,7.569,8.021,12.882c-7.53-4.097-15.915-13.932-17.188-20.729
	c-1.291,3.406-2.438,8.066-3.368,14.479c-2.368-8.06-1.379-20.642,2.431-26.458c-3.329,1.507-7.448,3.994-12.639,7.848
	c4.285-7.74,14.771-16.429,21.632-17.188c-3.486-1.4-8.425-2.654-15.382-3.646c8.245-2.381,21.195-1.307,26.945,2.604
	C53.894,31.4,51.387,27.325,47.535,22.222z"/>
<path id="path2988-9-1-1" d="M48.507,33.333c2.312,3.062,3.808,5.528,4.723,7.5c-3.45-2.346-11.2-2.991-16.146-1.562
	c4.174,0.595,7.144,1.313,9.236,2.153c-4.116,0.455-10.416,5.668-12.986,10.312c3.115-2.312,5.607-3.783,7.604-4.688
	c-2.286,3.489-2.914,11.031-1.493,15.868c0.558-3.848,1.274-6.638,2.049-8.681c0.763,4.077,5.794,9.972,10.312,12.431
	c-2.407-3.188-3.925-5.729-4.827-7.743c3.433,2.365,11.217,3.029,16.181,1.597c-3.625-0.517-6.345-1.167-8.368-1.875
	c4.064-1.13,9.526-5.826,11.875-10.069c-2.992,2.221-5.406,3.67-7.361,4.584c2.276-3.497,2.876-11.04,1.458-15.869
	c-0.536,3.694-1.206,6.45-1.944,8.472C58.045,41.687,53.019,35.789,48.507,33.333z M49.514,44.444
	c1.504,0.818,3.18,2.773,3.438,4.132c0.245-0.674,0.447-1.581,0.625-2.812c0.474,1.61,0.273,4.113-0.486,5.278
	c0.652-0.306,1.469-0.788,2.466-1.528c-0.783,1.414-2.604,2.992-3.958,3.368c0.675,0.236,1.568,0.452,2.777,0.625
	c-1.653,0.478-4.238,0.267-5.382-0.521c0.3,0.67,0.795,1.507,1.597,2.569c-1.506-0.82-3.183-2.772-3.437-4.132
	c-0.258,0.682-0.474,1.6-0.66,2.882c-0.474-1.612-0.276-4.115,0.486-5.278c-0.666,0.302-1.496,0.792-2.535,1.562
	c0.857-1.547,2.968-3.285,4.34-3.437c-0.697-0.28-1.699-0.531-3.09-0.729c1.649-0.477,4.232-0.262,5.382,0.521
	C50.771,46.287,50.284,45.465,49.514,44.444z"/>
<path id="path3205" d="M52.656,50c0,1.534-1.189,2.777-2.656,2.777c-1.468,0-2.657-1.243-2.657-2.777s1.189-2.778,2.657-2.778
	C51.467,47.222,52.656,48.466,52.656,50z"/>
</svg>
