<svg xmlns:dc="http://purl.org/dc/elements/1.1/" xmlns:cc="http://creativecommons.org/ns#" xmlns:rdf="http://www.w3.org/1999/02/22-rdf-syntax-ns#" xmlns:svg="http://www.w3.org/2000/svg" xmlns="http://www.w3.org/2000/svg" xmlns:sodipodi="http://sodipodi.sourceforge.net/DTD/sodipodi-0.dtd" xmlns:inkscape="http://www.inkscape.org/namespaces/inkscape" width="100" height="100" id="svg3836" version="1.1" inkscape:version="0.48.2 r9819" sodipodi:docname="New document 4">
  <defs id="defs3838"/>
  <sodipodi:namedview id="base" pagecolor="#ffffff" bordercolor="#666666" borderopacity="1.0" inkscape:pageopacity="0.0" inkscape:pageshadow="2" inkscape:zoom="5.5" inkscape:cx="50" inkscape:cy="50" inkscape:document-units="px" inkscape:current-layer="layer3" showgrid="false" inkscape:window-width="1121" inkscape:window-height="740" inkscape:window-x="22" inkscape:window-y="22" inkscape:window-maximized="0"/>
  <metadata id="metadata3841">
    <rdf:RDF>
      <cc:Work rdf:about="">
        <dc:format>image/svg+xml</dc:format>
        <dc:type rdf:resource="http://purl.org/dc/dcmitype/StillImage"/>
        <dc:title/>
      </cc:Work>
    </rdf:RDF>
  </metadata>
  <g inkscape:groupmode="layer" id="layer3" inkscape:label="Layer" transform="translate(0,-952.36218)">
    <path style="font-size:medium;font-style:normal;font-variant:normal;font-weight:normal;font-stretch:normal;text-indent:0;text-align:start;text-decoration:none;line-height:normal;letter-spacing:normal;word-spacing:normal;text-transform:none;direction:ltr;block-progression:tb;writing-mode:lr-tb;text-anchor:start;baseline-shift:baseline;color:#000000;fill:#000000;fill-opacity:1;stroke:none;stroke-width:1;marker:none;visibility:visible;display:inline;overflow:visible;enable-background:accumulate;font-family:Sans;-inkscape-font-specification:Sans" d="m 35.433275,955.37573 c -0.79879,0 -1.44143,0.6598 -1.44143,1.45859 0,0.79879 0.64264,1.44143 1.44143,1.44143 0.79879,0 1.44143,-0.64264 1.44143,-1.44143 0,-0.79879 -0.64264,-1.45859 -1.44143,-1.45859 z m -1.52723,2.5225 -0.72071,0.82368 0.41183,0.36035 0.72072,-0.82367 -0.41184,-0.36036 z m -1.09823,1.23551 -0.72071,0.82368 0.41183,0.36035 0.72072,-0.82367 -0.41184,-0.36036 z m -1.08107,1.23551 -0.63492,0.70356 c -0.15959,-0.0606 -0.33393,-0.10296 -0.51479,-0.10296 -0.79879,0 -1.44143,0.64264 -1.44143,1.44143 0,0.40793 0.15734,0.78381 0.429,1.04675 l -0.27456,0.6006 0.49763,0.24023 0.2574,-0.53195 c 0.16373,0.0643 0.34541,0.10296 0.53196,0.10296 0.79879,0 1.44143,-0.6598 1.44143,-1.45859 0,-0.41592 -0.1651,-0.7829 -0.44616,-1.04675 l 0.56628,-0.63492 -0.41184,-0.36036 z m -2.67694,4.18701 -0.46332,0.99527 0.49764,0.24024 0.46332,-0.99527 -0.49764,-0.24024 z m -0.70355,1.49291 -0.46332,0.99527 0.49764,0.22308 0.46331,-0.97811 -0.49763,-0.24024 z m -0.70356,1.49291 -0.48048,0.97811 0.49764,0.24024 0.48048,-0.99527 -0.49764,-0.22308 z m -1.02959,1.16687 c -0.79879,0 -1.45859,0.6598 -1.45859,1.45859 0,0.79879 0.6598,1.44143 1.45859,1.44143 0.15976,0 0.30247,-0.038 0.44616,-0.0858 l 0.10295,0.2574 0.5148,-0.20592 -0.12012,-0.32604 c 0.30278,-0.26511 0.49764,-0.64701 0.49764,-1.08107 0,-0.79879 -0.64264,-1.45859 -1.44143,-1.45859 z m 1.25267,3.38049 -0.5148,0.20592 0.39468,1.01243 0.5148,-0.18875 -0.39468,-1.0296 z m 0.58343,1.54439 -0.51479,0.18876 0.39468,1.02959 0.51479,-0.18876 -0.39468,-1.02959 z m 0.58344,1.54439 -0.5148,0.18876 0.39468,1.02959 0.49764,-0.18876 -0.37752,-1.02959 z m 0.58344,1.54439 -0.5148,0.18876 0.20592,0.56627 c -0.58315,0.18646 -1.01243,0.71061 -1.01243,1.35563 0,0.63903 0.42052,1.18146 0.99527,1.37279 l -0.24024,0.61776 0.49764,0.18875 0.29171,-0.73787 c 0.74959,-0.054 1.35563,-0.67808 1.35563,-1.44143 0,-0.75176 -0.58792,-1.35413 -1.32131,-1.42427 l -0.25739,-0.68639 z m -0.7722,4.616 -0.39468,1.01243 0.5148,0.20592 0.39468,-1.02959 -0.5148,-0.18876 z m -0.60059,1.52723 -0.39468,1.02959 0.5148,0.18876 0.39467,-1.01243 -0.51479,-0.20592 z m -0.58344,1.54439 -0.39468,1.01243 0.5148,0.20592 0.39468,-1.02959 -0.5148,-0.18876 z m -0.60059,1.52723 -0.39468,1.02959 0.51479,0.18876 0.39468,-1.01244 -0.51479,-0.20591 z m -0.58344,1.54438 -0.39468,1.01244 0.49764,0.20591 0.41184,-1.02959 -0.5148,-0.18876 z m -0.6006,1.52723 -0.39467,1.02959 0.51479,0.20592 0.39468,-1.02959 -0.5148,-0.20592 z m -0.60059,1.54439 -0.39468,1.02959 0.5148,0.18876 0.39468,-1.02959 -0.5148,-0.18876 z m -0.58344,1.52723 -0.39467,1.02959 0.51479,0.20592 0.39468,-1.02959 -0.5148,-0.20592 z m -0.60059,1.54439 -0.39468,1.02959 0.5148,0.18876 0.39467,-1.0296 -0.51479,-0.18875 z m -0.58344,1.54438 -0.0343,0.0858 c -0.0675,-0.01 -0.13572,-0.0172 -0.20591,-0.0172 -0.79879,0 -1.44143,0.64264 -1.44143,1.44143 0,0.79879 0.64264,1.45859 1.44143,1.45859 0.79878,0 1.45858,-0.6598 1.45858,-1.45859 0,-0.53534 -0.30557,-0.98543 -0.73787,-1.23551 l 0.0343,-0.0858 -0.5148,-0.18876 z m -1.20119,3.07162 -0.39467,1.01243 0.51479,0.20592 0.39468,-1.02959 -0.5148,-0.18876 z m -0.58343,1.52723 -0.39468,1.02959 0.49764,0.1888 0.39467,-1.01247 -0.49763,-0.20592 z m -0.6006,1.54439 -0.39468,1.0124 0.5148,0.2059 0.39468,-1.0295 -0.5148,-0.1888 z m -0.60059,1.5272 -0.39468,1.0296 0.5148,0.1887 0.39467,-1.0124 -0.51479,-0.2059 z m -0.82368,1.4757 c -0.79879,0 -1.45859,0.6427 -1.45859,1.4415 0,0.7988 0.6598,1.4414 1.45859,1.4414 0.79879,0 1.44143,-0.6426 1.44143,-1.4414 0,-0.7988 -0.64264,-1.4415 -1.44143,-1.4415 z m -0.94379,3.1403 -0.39468,1.0296 0.5148,0.1887 0.39468,-1.0295 -0.5148,-0.1888 z m -0.58344,1.5444 -0.37751,1.0296 0.49763,0.1887 0.39468,-1.0296 -0.5148,-0.1887 z m -0.58343,1.5444 -0.37752,1.0296 0.5148,0.1887 0.37752,-1.0296 -0.5148,-0.1887 z m -0.58344,1.5444 -0.37751,1.0124 0.51479,0.2059 0.37752,-1.0296 -0.5148,-0.1887 z m -0.58343,1.5272 -0.37752,1.0296 0.5148,0.2059 0.37751,-1.0296 -0.51479,-0.2059 z m -0.56628,1.5444 -0.39467,1.0296 0.51479,0.1887 0.39468,-1.0296 -0.5148,-0.1887 z m -0.58343,1.5444 -0.39468,1.0296 0.5148,0.1887 0.39467,-1.0296 -0.51479,-0.1887 z m -0.58344,1.5444 -0.39468,1.0295 0.5148,0.1888 0.39468,-1.0296 -0.5148,-0.1887 z m -0.58343,1.5443 -0.39468,1.0125 0.5148,0.2059 0.39467,-1.0296 -0.51479,-0.1888 z m -0.58344,1.5273 -0.39468,1.0296 0.5148,0.2059 0.39468,-1.0296 -0.5148,-0.2059 z m -0.58343,1.5444 -0.37752,1.0295 0.49763,0.1888 0.39468,-1.0124 -0.51479,-0.2059 z m -0.58344,1.5443 -0.3432,0.9438 c -0.13062,-0.039 -0.26864,-0.052 -0.41183,-0.052 -0.79879,0 -1.44143,0.6427 -1.44143,1.4415 0,0.5269 0.28251,0.9826 0.70355,1.2355 l -0.20592,0.4461 0.49764,0.2403 0.24024,-0.4977 c 0.0675,0.01 0.13572,0.017 0.20592,0.017 0.79878,0 1.45858,-0.6426 1.45858,-1.4414 0,-0.4603 -0.23123,-0.8677 -0.56627,-1.1325 l 0.37752,-1.0125 -0.5148,-0.1887 z m 23.1315,2.1107 c -1.01855,0 -1.8587,0.7562 -2.0077,1.7332 l -0.75504,0.034 0.0343,0.5491 0.72072,-0.034 c 0.12451,1.0043 0.96962,1.7846 2.0077,1.7846 1.12372,0 2.02486,-0.9012 2.02486,-2.0249 0,-1.1237 -0.90114,-2.042 -2.02486,-2.042 z m -7.70478,0.1888 c -1.06956,0 -1.93906,0.8695 -1.93906,1.939 0,1.0696 0.8695,1.9391 1.93906,1.9391 0.94741,0 1.73699,-0.68 1.90475,-1.5787 l 0.87515,-0.052 -0.0343,-0.5491 -0.82367,0.052 c -0.0992,-0.9766 -0.9192,-1.7503 -1.92191,-1.7503 z m 14.07109,0.7378 c -0.89192,0 -1.63694,0.5976 -1.88758,1.4071 l -0.65208,-0.1029 -0.0686,0.5491 0.61776,0.086 c -4.6e-4,0.017 0,0.034 0,0.052 0,1.0966 0.8939,1.9905 1.99054,1.9905 1.09664,0 1.99055,-0.8939 1.99055,-1.9905 0,-1.0966 -0.89391,-1.9905 -1.99055,-1.9905 z m -9.67816,0.8752 -1.09824,0.052 0.0343,0.5491 1.09824,-0.051 -0.0343,-0.5491 z m 5.50831,0.2059 -0.0686,0.532 1.08108,0.1544 0.0858,-0.532 -1.09823,-0.1544 z m -27.26703,0.3947 -0.4633105,0.9953 0.4976305,0.2402 0.46332,-0.9953 -0.49764,-0.2402 z m 33.78778,0.3947 -0.0343,0.5319 1.09823,0.086 0.0343,-0.5491 -1.09823,-0.069 z m 1.64735,0.1201 -0.0343,0.5319 1.08107,0.086 0.0515,-0.5491 -1.09823,-0.069 z m 1.64735,0.1201 -0.0515,0.5491 1.09823,0.069 0.0343,-0.5491 -1.08107,-0.069 z m 1.63018,0.1201 -0.0343,0.5491 1.09824,0.069 0.0343,-0.5491 -1.09824,-0.069 z m 1.64735,0.1201 -0.0343,0.5492 1.09823,0.069 0.0343,-0.5492 -1.09823,-0.069 z m 17.31431,0 c -0.69894,0 -1.28941,0.5078 -1.42427,1.1669 l -1.09823,-0.086 -0.0515,0.5491 1.09823,0.086 0.0172,-0.2231 c 0.0184,0.7828 0.67139,1.4072 1.45859,1.4072 0.45139,0 0.85015,-0.208 1.11539,-0.532 l 0.32604,0.2231 0.30887,-0.4633 -0.37751,-0.2574 c 0.0388,-0.1307 0.0686,-0.2687 0.0686,-0.4119 0,-0.7988 -0.64264,-1.4586 -1.44143,-1.4586 z m -15.66696,0.1202 -0.0343,0.5491 1.08107,0.069 0.0515,-0.5491 -1.09823,-0.069 z m 1.64735,0.1201 -0.0515,0.5491 1.09823,0.069 0.0343,-0.5491 -1.08107,-0.069 z m -28.07355,0.1201 -0.82367,0.7207 0.36036,0.4118 0.82367,-0.7207 -0.36036,-0.4118 z m 29.70373,0 -0.0343,0.5491 1.09824,0.069 0.0343,-0.5491 -1.09823,-0.069 z m 1.64735,0.1201 -0.0343,0.5491 1.09823,0.069 0.0343,-0.5319 -1.09823,-0.086 z m 1.64735,0.1201 -0.0515,0.5492 1.09823,0.069 0.0515,-0.532 -1.09823,-0.086 z m -49.2831405,0.017 -0.46332,0.9953 0.49764,0.2402 0.4633205,-0.9952 -0.4976405,-0.2403 z m 50.9304905,0.103 -0.0515,0.5491 1.09823,0.086 0.0343,-0.5491 -1.08107,-0.086 z m 1.63018,0.1201 -0.0343,0.5491 1.09823,0.086 0.0343,-0.5491 -1.09823,-0.086 z m 1.64735,0.1201 -0.0343,0.5491 1.09823,0.086 0.0343,-0.5491 -1.09823,-0.086 z m -39.17598,0.4805 -0.82367,0.7036 0.36036,0.429 0.82367,-0.7208 -0.36036,-0.4118 z m -15.7184305,0.6692 -0.46332,0.9953 0.49764,0.2403 0.46331,-0.9953 -0.49763,-0.2403 z m 76.7560805,0 c -0.79879,0 -1.44143,0.6598 -1.44143,1.4586 0,0.2391 0.0517,0.4534 0.15444,0.6521 l -0.20592,0.086 0.22308,0.4976 0.3432,-0.1544 c 0.25269,0.216 0.56816,0.3604 0.92663,0.3604 0.0586,0 0.11481,-0.01 0.1716,-0.017 l 0.0686,0.1544 0.49763,-0.2059 -0.0515,-0.1201 c 0.45086,-0.245 0.75504,-0.7035 0.75504,-1.2527 0,-0.7988 -0.64264,-1.4586 -1.44143,-1.4586 z m -15.49536,0.3261 -0.30888,0.4633 0.90948,0.6178 0.30887,-0.4462 -0.90947,-0.6349 z m -46.7778,0.069 -0.84083,0.7207 0.36036,0.4118 0.84083,-0.7035 -0.36036,-0.429 z m 48.13343,0.8751 -0.30888,0.4462 0.90948,0.6349 0.30887,-0.4633 -0.90947,-0.6178 z m -51.06776,0.103 c -0.93418,0 -1.68167,0.7646 -1.68167,1.6988 0,0.2743 0.0557,0.526 0.1716,0.7551 l -0.30888,0.1716 0.27456,0.4804 0.3432,-0.2059 c 0.30609,0.3061 0.7341,0.4805 1.20119,0.4805 0.93417,0 1.69882,-0.7475 1.69882,-1.6817 0,-0.2607 -0.0663,-0.5002 -0.1716,-0.7207 l 0.5148,-0.4633 -0.36036,-0.4118 -0.46331,0.4118 c -0.30732,-0.316 -0.74272,-0.5148 -1.21835,-0.5148 z m -12.2521505,0.1201 -0.46332,0.9953 0.49764,0.2402 0.46332,-0.9952 -0.49764,-0.2403 z m 64.6927005,0.7036 -0.32604,0.4633 0.90947,0.6177 0.30888,-0.4461 -0.89231,-0.6349 z m 10.7764,0.2059 -1.01244,0.4461 0.22308,0.5148 1.01243,-0.4461 -0.22307,-0.5148 z m -76.1726505,0.5834 -0.46332,0.9953 0.49764,0.2402 0.46331,-0.9952 -0.49763,-0.2403 z m 74.6625805,0.086 -0.99527,0.4462 0.22307,0.4976 0.99528,-0.429 -0.22308,-0.5148 z m -7.9107,0.069 -0.32604,0.4462 0.90947,0.6177 0.30888,-0.4461 -0.89231,-0.6178 z m 12.3551,0.2059 -0.49763,0.206 0.41183,1.0124 0.5148,-0.2059 -0.429,-1.0125 z m -5.95447,0.3947 -0.99527,0.4462 0.22308,0.4976 0.99527,-0.4461 -0.22308,-0.4977 z m -3.36333,0.1888 c -0.44932,0 -0.85012,0.2105 -1.1154,0.5319 l -0.56627,-0.3946 -0.32604,0.4633 0.61776,0.429 c -0.0388,0.1306 -0.0686,0.2686 -0.0686,0.4118 0,0.7988 0.6598,1.4414 1.45859,1.4414 0.79878,0 1.44142,-0.6426 1.44142,-1.4414 0,-0.059 -0.0104,-0.1148 -0.0172,-0.1716 l 0.66924,-0.2917 -0.22308,-0.4976 -0.61775,0.2745 c -0.24493,-0.4508 -0.70351,-0.755 -1.25267,-0.755 z m -59.13291,0.3432 -0.94379,0.5491 0.27456,0.4805 0.94379,-0.5492 -0.27456,-0.4804 z m -11.3598305,0.2059 -0.46331,0.9953 0.49763,0.2402 0.46332,-0.9953 -0.49764,-0.2402 z m 80.4454605,0.3947 -0.5148,0.2059 0.429,1.0124 0.49763,-0.2059 -0.41183,-1.0124 z m -70.5099,0.223 -0.96095,0.5492 0.27456,0.4804 0.96095,-0.5491 -0.27456,-0.4805 z m -1.42426,0.8237 -0.96096,0.5491 0.27456,0.4805 0.96095,-0.5491 -0.27455,-0.4805 z m -9.1976905,0.051 -0.46332,0.9953 0.49764,0.2231 0.46331,-0.9781 -0.49763,-0.2403 z m 81.7496005,0.4119 -0.49763,0.223 0.41183,1.0125 0.5148,-0.206 -0.429,-1.0295 z m -73.97618,0.3603 -0.96096,0.5491 0.27456,0.4805 0.96095,-0.5491 -0.27455,-0.4805 z m -8.4769805,0.7207 -0.46331,0.9953 0.49763,0.2231 0.46332,-0.9953 -0.49764,-0.2231 z m 7.0527105,0.103 -0.96095,0.5491 0.27455,0.4805 0.96096,-0.5491 -0.27456,-0.4805 z m 76.03537,0.3432 -0.5148,0.2059 0.41184,1.0296 0.5148,-0.2231 -0.41184,-1.0124 z m -77.4768,0.4805 -0.94379,0.5491 0.27455,0.4805 0.9438,-0.5492 -0.27456,-0.4804 z m -6.3148305,0.5662 -0.46332,0.9953 0.49764,0.2231 0.46331,-0.9953 -0.49763,-0.2231 z m 4.89056,0.2574 -0.94379,0.5491 0.27456,0.4805 0.94379,-0.5491 -0.27456,-0.4805 z m 79.5188205,0.2231 -0.49763,0.2059 0.41183,1.0125 0.5148,-0.206 -0.429,-1.0124 z m -80.9430905,0.6006 -0.94379,0.5491 0.27456,0.4805 0.94379,-0.5491 -0.27456,-0.4805 z m 88.9739105,0.017 c -0.79879,0 -1.45859,0.6426 -1.45859,1.4414 0,0.1507 0.0431,0.2925 0.0858,0.429 l -0.90947,0.103 0.0515,0.5319 1.09823,-0.1029 -0.0172,-0.086 c 0.26428,0.3458 0.68091,0.5834 1.14971,0.5834 0.79879,0 1.44143,-0.6598 1.44143,-1.4586 0,-0.7988 -0.64264,-1.4414 -1.44143,-1.4414 z m -93.1437605,0.3947 -0.46331,0.9953 0.49763,0.223 0.46332,-0.9952 -0.49764,-0.2231 z m 2.74558,0.4118 -0.94379,0.5491 0.27456,0.4805 0.94379,-0.5491 -0.27456,-0.4805 z m 83.0022805,0.103 -0.5148,0.2059 0.13728,0.326 c -0.24197,0.2586 -0.39468,0.5961 -0.39468,0.9781 0,0.7988 0.64265,1.4586 1.44143,1.4586 0.6499,0 1.20759,-0.4396 1.38995,-1.0296 l 0.92664,-0.1029 -0.0515,-0.5491 -0.82368,0.086 c -0.0701,-0.7334 -0.68967,-1.3042 -1.44143,-1.3042 -0.20814,0 -0.40461,0.058 -0.58343,0.1373 l -0.0858,-0.2059 z m -87.1549705,0.4118 c -1.11018,0 -2.00769995,0.8975 -2.00769995,2.0077 0,1.1102 0.89751995,2.0077 2.00769995,2.0077 1.11018,0 2.00771,-0.8975 2.00771,-2.0077 0,-1.1102 -0.89753,-2.0077 -2.00771,-2.0077 z m 2.72842,0.3089 -0.96095,0.5491 0.27456,0.4805 0.96095,-0.5491 -0.27456,-0.4805 z m 88.9910705,0.3947 -1.09823,0.1201 0.0686,0.5491 1.08107,-0.1201 -0.0515,-0.5491 z" id="path3856" inkscape:connector-curvature="0"/>
  </g>
</svg>