<svg xmlns:dc="http://purl.org/dc/elements/1.1/" xmlns:cc="http://creativecommons.org/ns#" xmlns:rdf="http://www.w3.org/1999/02/22-rdf-syntax-ns#" xmlns:svg="http://www.w3.org/2000/svg" xmlns="http://www.w3.org/2000/svg" xmlns:sodipodi="http://sodipodi.sourceforge.net/DTD/sodipodi-0.dtd" xmlns:inkscape="http://www.inkscape.org/namespaces/inkscape" width="100" height="100" id="svg2" version="1.1" inkscape:version="0.48.2 r9819" sodipodi:docname="New document 1">
  <defs id="defs4"/>
  <sodipodi:namedview id="base" pagecolor="#ffffff" bordercolor="#666666" borderopacity="1.0" inkscape:pageopacity="0.0" inkscape:pageshadow="2" inkscape:zoom="4.88" inkscape:cx="50" inkscape:cy="50" inkscape:document-units="px" inkscape:current-layer="layer2" showgrid="false" inkscape:window-width="1140" inkscape:window-height="678" inkscape:window-x="66" inkscape:window-y="66" inkscape:window-maximized="0"/>
  <metadata id="metadata7">
    <rdf:RDF>
      <cc:Work rdf:about="">
        <dc:format>image/svg+xml</dc:format>
        <dc:type rdf:resource="http://purl.org/dc/dcmitype/StillImage"/>
        <dc:title/>
      </cc:Work>
    </rdf:RDF>
  </metadata>
  <g inkscape:groupmode="layer" id="layer2" inkscape:label="Layer" transform="translate(0,-952.36218)">
    <path style="font-size:medium;font-style:normal;font-variant:normal;font-weight:normal;font-stretch:normal;text-indent:0;text-align:start;text-decoration:none;line-height:normal;letter-spacing:normal;word-spacing:normal;text-transform:none;direction:ltr;block-progression:tb;writing-mode:lr-tb;text-anchor:start;baseline-shift:baseline;color:#000000;fill:#000000;fill-opacity:1;stroke:none;stroke-width:1;marker:none;visibility:visible;display:inline;overflow:visible;enable-background:accumulate;font-family:Sans;-inkscape-font-specification:Sans" d="m 37.284743,953.49351 c -1.43767,0 -2.60042,1.18174 -2.60042,2.61941 0,1.43767 1.16275,2.60042 2.60042,2.60042 0.47502,0 0.92634,-0.13839 1.30971,-0.36064 l 0.58842,0.74027 0.47453,-0.37963 -0.56944,-0.72128 c 0.49405,-0.47379 0.79721,-1.14058 0.79721,-1.87914 0,-1.43767 -1.16275,-2.61941 -2.60043,-2.61941 z m 2.75228,5.69436 -0.47453,0.37963 0.75925,0.94906 0.47453,-0.37963 -0.75925,-0.94906 z m 1.13887,1.42359 -0.47453,0.37963 0.038,0.0569 c -0.37959,0.30825 -0.62638,0.76364 -0.62638,1.29073 0,0.9285 0.74184,1.68932 1.67034,1.68932 0.9285,0 1.68933,-0.76082 1.68933,-1.68932 0,-0.92851 -0.76083,-1.67035 -1.68933,-1.67035 -0.17713,0 -0.33318,0.0251 -0.49351,0.0759 l -0.11389,-0.13287 z m 2.06896,3.037 -0.53148,0.32268 0.62638,1.006 c -0.44789,0.40211 -0.74027,0.96412 -0.74027,1.61341 0,1.21303 0.98879,2.20182 2.20182,2.20182 0.76717,0 1.4484,-0.39103 1.84118,-0.98703 l 1.04397,0.41759 0.22777,-0.55045 -1.02498,-0.43657 c 0.0624,-0.20368 0.11389,-0.42126 0.11389,-0.64536 0,-1.21304 -0.98879,-2.18284 -2.20183,-2.18284 -0.34875,0 -0.67517,0.0831 -0.96804,0.22777 l -0.58841,-0.98702 z m 10.28781,0.53147 c -1.27294,0 -2.29672,1.04277 -2.29672,2.31571 0,1.27294 1.02378,2.29673 2.29672,2.29673 0.70429,0 1.32349,-0.31837 1.74627,-0.81619 l 0.24676,0.18981 0.36064,-0.47453 -0.26573,-0.2088 c 0.14275,-0.29983 0.20879,-0.63283 0.20879,-0.98702 0,-1.27294 -1.02379,-2.31571 -2.29673,-2.31571 z m -4.09994,3.037 c -0.9285,0 -1.67035,0.76082 -1.67035,1.68932 0,0.9285 0.74185,1.67035 1.67035,1.67035 0.045,0 0.0888,0.003 0.13287,0 l 0.038,0.0759 0.56944,-0.2088 -0.019,-0.038 c 0.56966,-0.26918 0.96804,-0.82764 0.96804,-1.49952 0,-0.9285 -0.76083,-1.68932 -1.68933,-1.68932 z m 6.94712,0.85415 -0.37962,0.47453 0.94906,0.75925 0.37963,-0.47453 -0.94907,-0.75925 z m 1.4236,1.11989 -0.37963,0.49351 0.94906,0.74027 0.37963,-0.47453 -0.94906,-0.75925 z m 1.42359,1.13888 -0.36065,0.47453 0.94906,0.75924 0.37963,-0.49351 -0.96804,-0.74026 z m -8.84525,0.7023 -0.56943,0.18981 0.3986,1.15786 0.56944,-0.2088 -0.39861,-1.13887 z m 10.28782,0.41759 -0.37963,0.47453 0.94906,0.75925 0.37963,-0.47453 -0.94906,-0.75925 z m 1.42359,1.13887 -0.36064,0.47453 0.94906,0.74027 0.37962,-0.47453 -0.96804,-0.74027 z m -11.12299,0.15185 -0.56944,0.20879 0.39861,1.13888 0.58842,-0.18982 -0.41759,-1.15785 z m 12.56556,0.96804 -0.37962,0.47453 0.94906,0.75925 0.37962,-0.47453 -0.94906,-0.75925 z m -11.95816,0.75925 -0.56944,0.18981 0.39861,1.15786 0.56943,-0.2088 -0.3986,-1.13887 z m 13.38175,0.36064 -0.37962,0.47453 0.96804,0.75925 0.36064,-0.47453 -0.94906,-0.75925 z m -36.72864,1.11989 c -1.52753,0 -2.77126,1.24373 -2.77126,2.77126 0,1.52753 1.24373,2.77126 2.77126,2.77126 1.52753,0 2.77125,-1.24373 2.77125,-2.77126 0,-1.52753 -1.24372,-2.77126 -2.77125,-2.77126 z m 38.17121,0.019 -0.37962,0.47453 0.94906,0.74026 0.37963,-0.47453 -0.94907,-0.74026 z m -14.21692,0.20879 -0.56944,0.20879 0.39861,1.13887 0.56943,-0.18981 -0.3986,-1.15785 z m 15.64052,0.9111 -0.37963,0.47453 0.96804,0.75925 0.36065,-0.47453 -0.94906,-0.75925 z m -15.05211,0.81619 -0.56943,0.20879 0.3986,1.13888 0.58842,-0.18982 -0.41759,-1.15785 z m 16.49468,0.3037 -0.37963,0.49351 0.94906,0.74027 0.37963,-0.47453 -0.94906,-0.75925 z m 1.42359,1.13887 -0.37963,0.47453 0.96805,0.74027 0.36064,-0.47453 -0.94906,-0.74027 z m -17.31087,0.28472 -0.56943,0.18981 0.3986,1.15786 0.56944,-0.2088 -0.39861,-1.13887 z m 20.63258,0.0569 c -0.72515,0 -1.36558,0.34365 -1.80321,0.85416 l -0.0949,-0.0759 -0.36064,0.47453 0.11388,0.0949 c -0.15497,0.31641 -0.24675,0.6679 -0.24675,1.04397 0,1.31786 1.07376,2.39163 2.39163,2.39163 0.23985,0 0.46494,-0.0481 0.68332,-0.11389 l 0.038,0.0569 0.55045,-0.24676 -0.038,-0.0569 c 0.68682,-0.41896 1.13887,-1.16762 1.13887,-2.03099 0,-1.31787 -1.05478,-2.39164 -2.37265,-2.39164 z m -48.2882,0.39861 -1.00601,0.66434 0.34166,0.51249 1.00601,-0.66434 -0.34166,-0.51249 z m 5.37168,0 -0.34166,0.51249 1.006,0.68333 0.34166,-0.49352 -1.006,-0.7023 z m -6.89018,1.006 -1.006,0.66435 0.34166,0.51249 1.006,-0.68333 -0.34166,-0.49351 z m 8.3897,0.038 -0.34167,0.49351 1.00601,0.7023 0.34166,-0.51249 -1.006,-0.68332 z m 21.39182,0.20879 -0.56943,0.20879 0.0759,0.22778 c -1.21584,0.35616 -2.10691,1.47821 -2.10691,2.80922 0,0.73145 0.2779,1.38488 0.72128,1.89812 l -0.7023,0.7023 0.41758,0.43657 0.70231,-0.72129 c 0.49499,0.38288 1.11002,0.6074 1.78423,0.6074 1.61738,0 2.94209,-1.30572 2.94209,-2.9231 0,-1.61739 -1.32471,-2.94209 -2.94209,-2.94209 -0.0743,0 -0.13593,0.0136 -0.20879,0.019 l -0.11389,-0.32268 z m -31.30002,0.75925 -1.006,0.66434 0.32268,0.51249 1.02498,-0.68332 -0.34166,-0.49351 z m 11.40771,0.0569 -0.34166,0.51249 1.006,0.68333 0.34167,-0.49351 -1.00601,-0.70231 z m -12.9262,0.94906 -1.00601,0.66434 0.32268,0.5125 1.02499,-0.68333 -0.34166,-0.49351 z m 14.42572,0.0949 -0.34166,0.49351 1.006,0.7023 0.34166,-0.51249 -1.006,-0.68332 z m -15.94422,0.9111 -1.00601,0.66434 0.32268,0.51249 1.02499,-0.68332 -0.34166,-0.49351 z m 17.44373,0.13286 -0.34166,0.49352 1.00601,0.68332 0.34166,-0.49351 -1.00601,-0.68333 z m 38.45594,0.47453 -0.56944,0.24676 0.5125,1.11989 0.55045,-0.26574 -0.49351,-1.10091 z m -57.41817,0.39861 -1.006,0.66434 0.32268,0.5125 1.02498,-0.68333 -0.34166,-0.49351 z m 20.46175,0.15185 -0.34166,0.51249 1.006,0.68333 0.34166,-0.49352 -1.006,-0.7023 z m 18.92427,0.22777 -0.24676,0.55046 1.10091,0.51249 0.26574,-0.55045 -1.11989,-0.5125 z m 3.72031,0 c -0.72776,0 -1.38081,0.34634 -1.80321,0.87314 l -0.24676,-0.11389 -0.26573,0.55046 0.18981,0.0949 c -0.11663,0.27575 -0.18981,0.59287 -0.18981,0.9111 0,0.67038 0.30236,1.24918 0.75925,1.67035 l -0.58842,0.53147 0.3986,0.43657 0.68333,-0.6074 c 0.31632,0.16331 0.68241,0.26574 1.06294,0.26574 1.27294,0 2.29673,-1.02379 2.29673,-2.29673 0,-1.27294 -1.02379,-2.31571 -2.29673,-2.31571 z m -44.62483,0.6074 -1.02498,0.68333 0.34166,0.49351 1.02499,-0.66434 -0.34167,-0.5125 z m 23.47976,0.2088 -0.34166,0.49351 1.00601,0.7023 0.34166,-0.51249 -1.00601,-0.68332 z m 36.19718,0.0569 -0.55046,0.26574 0.51249,1.10091 0.55046,-0.24676 -0.51249,-1.11989 z m -61.19543,0.74027 -1.02499,0.68332 0.34166,0.49351 1.00601,-0.66434 -0.32268,-0.51249 z m 26.49777,0.22777 -0.34166,0.51249 0.98702,0.68333 0.36064,-0.49351 -1.006,-0.70231 z m 9.37672,0.28472 -0.85416,0.85415 0.41759,0.41759 0.87314,-0.85415 -0.43657,-0.41759 z m 26.08018,0.41759 -0.55045,0.24675 0.51249,1.10091 0.55046,-0.24675 -0.5125,-1.10091 z m -63.47317,0.0759 -1.02499,0.68333 0.34167,0.49351 1.006,-0.66435 -0.32268,-0.51249 z m 29.51579,0.26574 -0.34167,0.49351 0.98703,0.7023 0.36064,-0.51249 -1.006,-0.68332 z m -33.3499897,0.038 c -1.25797,0 -2.27775,1.01978 -2.27775,2.27775 0,1.23844 0.98982,2.24677 2.2208,2.27774 l 0,0.038 0.6073997,-0.019 0,-0.0759 c 0.99113,-0.24682 1.72729,-1.15328 1.72729,-2.2208 0,-0.25844 -0.0726,-0.48974 -0.15185,-0.72129 l 0.51249,-0.34166 -0.32268,-0.51249 -0.43656,0.3037 c -0.40933,-0.60589 -1.09292,-1.00601 -1.8791397,-1.00601 z m 53.9445997,0.28472 -0.24675,0.55045 1.10091,0.5125 0.24675,-0.55046 -1.10091,-0.51249 z m -14.00813,0.18981 -0.62638,0.64536 c -0.47935,-0.37652 -1.07047,-0.62638 -1.72729,-0.62638 -0.83223,0 -1.57175,0.3757 -2.08794,0.94906 l -0.64536,-0.43656 -0.34166,0.49351 0.62638,0.43656 c -0.23237,0.40993 -0.37962,0.88078 -0.37962,1.38563 0,1.55748 1.27072,2.80922 2.8282,2.80922 0.38936,0 0.76352,-0.0661 1.10091,-0.20879 l 0.18981,0.3037 0.51249,-0.34166 -0.17083,-0.26574 c 0.71841,-0.51114 1.17684,-1.34788 1.17684,-2.29673 0,-0.6814 -0.24307,-1.29676 -0.64537,-1.78423 l 0.62638,-0.62638 -0.43656,-0.43657 z m 15.6595,0.56944 -0.24676,0.55045 1.10091,0.5125 0.24676,-0.55046 -1.10091,-0.51249 z m 12.47065,0.22777 -0.55045,0.24676 0.51249,1.11989 0.55046,-0.26574 -0.5125,-1.10091 z m -10.81929,0.53148 -0.24675,0.55045 1.10091,0.51249 0.26573,-0.55045 -1.11989,-0.51249 z m -8.35173,0.18981 -0.89212,0.83517 0.39861,0.43657 0.9111,-0.81619 -0.41759,-0.45555 z m 10.02208,0.56943 -0.26574,0.55046 1.10091,0.51249 0.26574,-0.55045 -1.10091,-0.5125 z m 9.90819,0.36065 -0.55045,0.26573 0.51249,1.10091 0.55045,-0.24675 -0.51249,-1.11989 z m -21.27794,0.3037 -0.89211,0.83517 0.41758,0.43657 0.89212,-0.81619 -0.41759,-0.45555 z m 13.02111,0.0949 -0.26573,0.55046 1.11989,0.51249 0.24675,-0.55045 -1.10091,-0.5125 z m 1.65137,0.75925 -0.24676,0.55046 1.10091,0.51249 0.24676,-0.55046 -1.10091,-0.51249 z m -16.02014,0.37963 -0.89212,0.81619 0.41759,0.45555 0.89211,-0.8162 -0.41758,-0.45554 z m 23.38485,0.13286 -0.55045,0.24676 0.47453,1.006 c -0.77276,0.47778 -1.29073,1.32146 -1.29073,2.29673 0,1.49758 1.21674,2.71431 2.71432,2.71431 1.49757,0 2.71431,-1.21673 2.71431,-2.71431 0,-1.49758 -1.21674,-2.71431 -2.71431,-2.71431 -0.31137,0 -0.61363,0.0553 -0.89212,0.15185 l -0.45555,-0.98703 z m -5.71334,0.24676 -0.24676,0.56944 1.10091,0.49351 0.24676,-0.55046 -1.10091,-0.51249 z m -63.30235,0.34166 -0.6073997,0.019 0.057,1.2148 0.6073997,-0.038 -0.057,-1.19582 z m 64.97269,0.43657 -0.26573,0.55046 1.10091,0.49351 0.26573,-0.55046 -1.10091,-0.49351 z m -20.67054,0.0759 -0.9111,0.8162 0.41759,0.45555 0.89212,-0.8162 -0.39861,-0.45555 z m 22.32191,0.68333 -0.26574,0.55045 1.11989,0.49352 0.24676,-0.55046 -1.10091,-0.49351 z m -27.4848,0.019 -0.51249,0.34166 0.66434,1.00601 0.17083,-0.11389 c -0.34461,0.4101 -0.55045,0.94091 -0.55045,1.5185 0,1.30288 1.05078,2.35367 2.35367,2.35367 1.30289,0 2.35367,-1.05079 2.35367,-2.35367 0,-0.57759 -0.20585,-1.1084 -0.55046,-1.5185 l 0.28472,-0.26574 -0.3986,-0.43657 -0.32268,0.3037 c -0.38508,-0.27331 -0.85849,-0.43656 -1.36665,-0.43656 -0.57474,0 -1.09028,0.20888 -1.49952,0.55045 l -0.62638,-0.94906 z m -39.06333,0.58842 -0.6073997,0.038 0.038,1.2148 0.6073997,-0.038 -0.038,-1.21479 z m 80.40441,1.21479 c -1.39274,0 -2.5245,1.13176 -2.5245,2.52451 0,1.39274 1.13176,2.52454 2.5245,2.52454 1.39275,0 2.5245,-1.1318 2.5245,-2.52454 0,-1.39275 -1.13175,-2.52451 -2.5245,-2.52451 z m -80.34747,0.6074 -0.6073997,0.038 0.0569,1.21479 0.6073897,-0.038 -0.0569,-1.2148 z m 73.19156,0.038 -0.15185,0.58841 1.15785,0.3037 0.17083,-0.58841 -1.17683,-0.3037 z m 1.76525,0.45555 -0.17083,0.58841 1.17683,0.32268 0.15185,-0.58841 -1.15785,-0.32268 z m 1.74627,0.47453 -0.15185,0.58841 1.17684,0.3037 0.15185,-0.58842 -1.17684,-0.30369 z m -76.62715,0.85415 -0.6073997,0.038 0.038,1.19582 0.6073997,-0.019 -0.038,-1.2148 z m 68.693,0.3037 -0.41758,1.13892 0.58841,0.2088 0.39861,-1.13893 -0.56944,-0.20879 z m -68.61708,1.51852 -0.6073997,0.019 0.038,1.2148 0.6074,-0.019 -0.038,-1.2148 z m 68.00968,0.1898 -0.41758,1.1389 0.56943,0.2088 0.41759,-1.1389 -0.56944,-0.2088 z m -67.95274,1.6324 -0.6074,0.019 0.057,1.2148 0.6074,-0.019 -0.0569,-1.2148 z m 67.32636,0.095 -0.3986,1.1388 0.56944,0.2088 0.41758,-1.1578 -0.58842,-0.1898 z m -0.60739,1.7083 -0.39861,1.1389 0.56944,0.2087 0.3986,-1.1388 -0.56943,-0.2088 z m -66.64304,0.019 -0.6074,0.019 0.038,1.2148 0.6074,-0.019 -0.038,-1.2148 z m 66.03564,1.6893 -0.41759,1.1579 0.56944,0.1898 0.41758,-1.1389 -0.56943,-0.2088 z m -65.95972,0.1329 -0.6074,0.019 0.038,1.2148 0.6074,-0.019 -0.038,-1.2148 z m 65.35232,1.5944 -0.0949,0.2657 c -0.22828,-0.053 -0.45801,-0.076 -0.7023,-0.076 -1.73719,0 -3.15088,1.3947 -3.15088,3.1319 0,1.7372 1.41369,3.1509 3.15088,3.1509 1.73719,0 3.15088,-1.4137 3.15088,-3.1509 0,-1.2876 -0.7713,-2.3794 -1.87914,-2.8661 l 0.0949,-0.2468 -0.56943,-0.2088 z m -65.29537,0.2278 -0.6074,0.019 0.038,0.8541 c -1.2696697,0.021 -2.2967297,1.06 -2.2967297,2.3347 0,1.2879 1.04678,2.3347 2.3346897,2.3347 1.28792,0 2.33469,-1.0468 2.33469,-2.3347 0,-1.091 -0.75327,-1.9852 -1.76525,-2.2398 l -0.038,-0.968 z m 0.7023,5.3337 -0.6074,0.1518 0.24676,0.9491 c -0.97274,0.3212 -1.6893297,1.2164 -1.6893297,2.2967 0,1.3478 1.1007597,2.4486 2.4485797,2.4486 0.0519,0 0.10075,-0.016 0.15185,-0.019 l 0.11388,0.8352 0.6074,-0.076 -0.11388,-0.8731 c 0.97395,-0.3205 1.68932,-1.2345 1.68932,-2.3158 0,-1.3478 -1.10075,-2.4296 -2.44857,-2.4296 -0.0585,0 -0.11339,0.015 -0.17083,0.019 l -0.22778,-0.987 z m 65.95972,0.5694 -0.45555,0.3986 0.79721,0.9111 0.45555,-0.3986 -0.79721,-0.9111 z m 1.19581,1.3667 -0.45555,0.3986 0.79721,0.9111 0.45555,-0.3986 -0.79721,-0.9111 z m 2.69533,1.3097 c -0.45443,0 -0.88453,0.1313 -1.25276,0.3416 l -0.24675,-0.2847 -0.45555,0.3986 0.20879,0.2468 c -0.47936,0.459 -0.77823,1.1061 -0.77823,1.8222 0,1.3927 1.13176,2.5245 2.5245,2.5245 1.39275,0 2.50552,-1.1318 2.50552,-2.5245 0,-1.3928 -1.11277,-2.5245 -2.50552,-2.5245 z m -68.50319,3.9291 -0.6074,0.095 0.18981,1.1958 0.58842,-0.076 -0.17083,-1.2148 z m 0.26573,1.8032 -0.60739,0.095 0.17083,1.1958 0.6074,-0.076 -0.17084,-1.2148 z m 0.26574,1.8032 -0.6074,0.095 0.17083,1.1958 0.6074,-0.076 -0.17083,-1.2148 z m 0.24676,1.8032 -0.58842,0.095 0.17083,1.1959 0.58842,-0.076 -0.17083,-1.2148 z m 0.26573,1.8032 -0.60739,0.095 0.17083,1.1959 0.6074,-0.076 -0.17084,-1.2148 z m 0.26574,1.8033 -0.6074,0.095 0.17083,1.1958 0.6074,-0.076 -0.17083,-1.2148 z m 0.24676,1.8032 -0.58842,0.095 0.17083,1.1958 0.58842,-0.076 -0.17083,-1.2148 z m 21.67654,1.6324 c -1.1681,0 -2.10691,0.9388 -2.10691,2.1069 l -0.28472,0.038 0.0759,0.5884 0.3037,-0.038 c 0.25322,0.8844 1.04624,1.5375 2.01201,1.5375 1.16811,0 2.1259,-0.9578 2.1259,-2.1259 0,-1.1681 -0.95779,-2.1069 -2.1259,-2.1069 z m -21.41081,0.1708 -0.60739,0.095 0.17083,1.1958 0.6074,-0.076 -0.17084,-1.2148 z m 0.26574,1.8222 -0.6074,0.076 0.13287,0.949 c -0.7528,0.4156 -1.25276,1.2052 -1.25276,2.1259 0,1.3479 1.08178,2.4486 2.4296,2.4486 0.9116,0 1.70687,-0.5122 2.12589,-1.2527 l 0.0759,0.019 0.17083,-0.5885 -0.019,0 c 0.0534,-0.2007 0.0949,-0.4088 0.0949,-0.6263 0,-0.033 -0.0177,-0.062 -0.019,-0.095 l 0.68333,-0.095 -0.0949,-0.6074 -0.68332,0.095 c -0.30265,-1.0039 -1.23218,-1.7273 -2.33469,-1.7273 -0.20428,0 -0.39879,0.029 -0.58842,0.076 l -0.11389,-0.7972 z m 18.14604,0.2278 -1.19582,0.1898 0.0759,0.5884 1.2148,-0.1708 -0.0949,-0.6074 z m -1.80321,0.2657 -1.19582,0.1898 0.0949,0.5884 1.19582,-0.1708 -0.0949,-0.6074 z m -1.80322,0.2657 -1.19582,0.1898 0.0949,0.5885 1.19582,-0.1709 -0.0949,-0.6074 z m -1.80322,0.2658 -1.19581,0.1898 0.0949,0.5884 1.19582,-0.1708 -0.0949,-0.6074 z m -1.80321,0.2657 -1.19582,0.1898 0.0949,0.5884 1.19582,-0.1708 -0.0949,-0.6074 z m -1.80322,0.2657 -1.19581,0.1899 0.0949,0.5884 1.19582,-0.1709 -0.0949,-0.6074 z m -1.80321,0.2658 -1.19582,0.1898 0.0949,0.5884 1.19582,-0.1708 -0.0949,-0.6074 z m -1.80322,0.2657 -1.19581,0.1898 0.0949,0.5885 1.19582,-0.1709 -0.0949,-0.6074 z m -1.86015,1.8602 -0.18982,0.5884 1.15786,0.3606 0.18981,-0.5884 -1.15785,-0.3606 z m 1.72729,0.5504 -0.17084,0.5695 1.15786,0.3606 0.18981,-0.5884 -1.17683,-0.3417 z m 1.74627,0.5315 -0.17083,0.5694 1.15785,0.3607 0.17083,-0.5884 -1.15785,-0.3417 z m 1.74627,0.5315 -0.17083,0.5694 1.15785,0.3607 0.17083,-0.5695 -1.15785,-0.3606 z m 1.74627,0.5315 -0.18981,0.5884 1.17683,0.3416 0.17083,-0.5694 -1.15785,-0.3606 z m 1.74627,0.5314 -0.18981,0.5884 1.15785,0.3417 0.18982,-0.5694 -1.15786,-0.3607 z m 1.72729,0.5315 -0.17083,0.5884 1.15786,0.3417 0.18981,-0.5695 -1.17684,-0.3606 z m 1.74627,0.5315 -0.17083,0.5884 1.15786,0.3606 0.17083,-0.5884 -1.15786,-0.3606 z m 7.09898,0.2467 c -0.94348,0 -1.73506,0.6668 -1.91711,1.5565 l -0.13286,0.3796 0.0949,0.038 c 0.0203,1.0607 0.88953,1.9171 1.95507,1.9171 1.07825,0 1.93608,-0.8768 1.93608,-1.9551 0,-1.0782 -0.85783,-1.936 -1.93608,-1.936 z m -5.3527,0.2848 -0.17084,0.5884 1.15786,0.3606 0.17083,-0.5884 -1.15785,-0.3606 z m 1.74627,0.5314 -0.18982,0.5884 1.17684,0.3607 0.17083,-0.5884 -1.15785,-0.3607 z m 2.75227,3.1699 -0.038,0.2278 c -1.15949,0.01 -2.10691,0.964 -2.10691,2.1259 0,1.1681 0.95778,2.1069 2.12589,2.1069 1.16811,0 2.10692,-0.9388 2.10692,-2.1069 0,-0.9588 -0.64399,-1.7526 -1.5185,-2.012 l 0.038,-0.2468 -0.6074,-0.095 z" id="path2997" inkscape:connector-curvature="0"/>
  </g>
</svg>