<svg xmlns:dc="http://purl.org/dc/elements/1.1/" xmlns:cc="http://creativecommons.org/ns#" xmlns:rdf="http://www.w3.org/1999/02/22-rdf-syntax-ns#" xmlns:svg="http://www.w3.org/2000/svg" xmlns="http://www.w3.org/2000/svg" xmlns:sodipodi="http://sodipodi.sourceforge.net/DTD/sodipodi-0.dtd" xmlns:inkscape="http://www.inkscape.org/namespaces/inkscape" width="100" height="100" id="svg2" version="1.1" inkscape:version="0.48.2 r9819" sodipodi:docname="taurus.svg">
  <defs id="defs4"/>
  <sodipodi:namedview id="base" pagecolor="#ffffff" bordercolor="#666666" borderopacity="1.0" inkscape:pageopacity="0.0" inkscape:pageshadow="2" inkscape:zoom="5.6" inkscape:cx="56.669747" inkscape:cy="48.235934" inkscape:document-units="px" inkscape:current-layer="layer2" showgrid="false" inkscape:window-width="1246" inkscape:window-height="810" inkscape:window-x="189" inkscape:window-y="7" inkscape:window-maximized="0"/>
  <metadata id="metadata7">
    <rdf:RDF>
      <cc:Work rdf:about="">
        <dc:format>image/svg+xml</dc:format>
        <dc:type rdf:resource="http://purl.org/dc/dcmitype/StillImage"/>
        <dc:title/>
      </cc:Work>
    </rdf:RDF>
  </metadata>
  <g inkscape:groupmode="layer" id="layer2" inkscape:label="Layer" transform="translate(0,-952.36218)">
    <path style="font-size:medium;font-style:normal;font-variant:normal;font-weight:normal;font-stretch:normal;text-indent:0;text-align:start;text-decoration:none;line-height:normal;letter-spacing:normal;word-spacing:normal;text-transform:none;direction:ltr;block-progression:tb;writing-mode:lr-tb;text-anchor:start;baseline-shift:baseline;color:#000000;fill:#000000;fill-opacity:1;stroke:none;stroke-width:1;marker:none;visibility:visible;display:inline;overflow:visible;enable-background:accumulate;font-family:Sans;-inkscape-font-specification:Sans" d="m 61.904612,953.35001 c -0.935274,0 -1.684714,0.74943 -1.684714,1.6847 0,0.8931 0.68573,1.62051 1.562431,1.68471 l 0,0.0408 0.434769,0.0272 0,-0.0815 c 0.790586,-0.14291 1.385799,-0.83935 1.385799,-1.67113 0,-0.93527 -0.763014,-1.6847 -1.698285,-1.6847 z m -20.162111,2.16023 c -0.791257,0 -1.426566,0.64889 -1.426566,1.44015 0,0.79126 0.635309,1.42656 1.426566,1.42656 0.791258,0 1.44015,-0.6353 1.44015,-1.42656 0,-0.79126 -0.648892,-1.44015 -1.44015,-1.44015 z m 20.012654,1.6847 -0.05431,0.86953 0.434758,0.0272 0.0543,-0.86954 -0.434768,-0.0272 z m -0.06796,1.30428 -0.0543,0.86953 0.434756,0.0272 0.05432,-0.86953 -0.434769,-0.0272 z m -19.278991,0.0136 -0.434759,0.068 0.135855,0.85593 0.434767,-0.068 z m 0.203796,1.29069 -0.434768,0.068 0.135864,0.85595 0.434768,-0.068 z m 18.99368,0 -0.04076,0.86952 0.43476,0.0272 0.04076,-0.86952 z m -18.789883,1.2907 -0.434769,0.0543 0.135865,0.86953 0.421175,-0.068 -0.122271,-0.85594 z m 18.721952,0.0136 -0.04076,0.86951 0.434758,0.0272 0.04076,-0.86953 -0.434768,-0.0272 z m -18.531747,1.26352 -0.421176,0.068 0.135864,0.86952 0.421174,-0.068 z m 18.463813,0.0408 -0.04076,0.86953 0.434756,0.0136 0.04076,-0.86953 -0.43477,-0.0136 z m -18.260017,1.24994 -0.421175,0.068 0.122272,0.85595 0.434766,-0.068 z m 18.192086,0.0543 -0.0543,0.86953 0.434758,0.0136 0.05431,-0.86952 -0.434769,-0.0136 z m -17.988289,1.23635 -0.434769,0.068 0.135865,0.85594 0.434769,-0.068 z m 17.920356,0.0543 -0.05432,0.86952 0.434759,0.0272 0.0543,-0.86952 -0.434768,-0.0272 z m -17.71657,1.23635 -0.434758,0.068 0.135865,0.85594 0.434758,-0.068 z m 17.648636,0.068 -0.05429,0.86952 0.434759,0.0272 0.04076,-0.86953 -0.421177,-0.0272 z m -17.444839,1.22277 -0.434758,0.068 0.135865,0.85595 0.421174,-0.068 z m 17.363327,0.0815 -0.04076,0.86953 0.434757,0.0272 0.04076,-0.86953 z m -17.173113,1.20919 -0.421176,0.068 0.135865,0.85593 0.421176,-0.068 z m 17.10518,0.0951 -0.04076,0.86952 0.434759,0.0272 0.04076,-0.86952 -0.434769,-0.0272 z m -16.901383,1.19559 -0.421176,0.0541 0.122272,0.86953 0.434758,-0.068 -0.135854,-0.85595 z m 16.833451,0.10869 -0.05431,0.86953 0.434759,0.0272 0.0543,-0.86953 -0.434769,-0.0272 z m -16.629664,1.16842 -0.434758,0.068 0.135864,0.86953 0.434758,-0.068 z m 16.561731,0.13586 -0.0543,0.86953 0.434758,0.0136 0.05432,-0.86951 -0.434769,-0.0136 z m -16.357934,1.15484 -0.434758,0.068 0.135863,0.85594 0.434758,-0.068 z m 16.290002,0.14945 -0.0543,0.86953 0.434758,0.0135 0.05431,-0.86953 -0.434768,-0.0136 z m -16.086206,1.14126 -0.434758,0.068 0.135855,0.85593 0.421186,-0.068 z m 16.004692,0.14945 -0.04076,0.86952 0.434757,0.0272 0.04076,-0.86953 z m -15.814488,1.14125 -0.421176,0.068 0.135864,0.85593 0.421177,-0.068 z m 15.746555,0.16303 -0.04076,0.86953 0.434758,0.0272 0.04076,-0.86953 z m -15.542758,1.12767 -0.421176,0.068 0.122283,0.85594 0.434758,-0.068 z m 15.474826,0.17662 -0.04076,0.86952 0.434759,0.0272 0.04076,-0.86951 z m -15.271029,1.11408 -0.434759,0.068 0.135865,0.85595 0.434758,-0.068 z m 15.203097,0.19021 -0.05432,0.86952 0.434759,0.0272 0.0543,-0.86953 -0.434767,-0.0272 z m -14.999302,1.0869 -0.434767,0.068 0.135863,0.86952 0.43477,-0.068 z m 14.93137,0.21738 -0.05431,0.86953 0.434758,0.0272 0.0543,-0.86952 -0.434768,-0.0272 z m -14.727573,1.07333 -0.434768,0.068 0.135864,0.85593 0.43477,-0.0543 -0.135866,-0.86952 z m 14.646057,0.23096 -0.04076,0.86952 0.434757,0.0136 0.04076,-0.85595 -0.434759,-0.0272 z m -14.455851,1.05974 -0.421176,0.068 0.135863,0.85593 0.421176,-0.068 z m 14.38792,0.24455 -0.04076,0.86953 0.434761,0.0136 0.04076,-0.86953 z m -14.184125,1.04615 -0.421174,0.068 0.135863,0.85595 0.421176,-0.068 z m 14.129776,0.1902 c -0.730617,0 -1.317868,0.58726 -1.317868,1.31788 0,0.5412 0.32255,1.00429 0.788001,1.20918 l -0.298893,0.81517 0.407583,0.14946 0.298905,-0.81518 -0.135865,-0.0543 c 0.08614,0.0177 0.166809,0.0272 0.258137,0.0272 0.730626,0 1.331459,-0.60085 1.331459,-1.33147 0,-0.73062 -0.600833,-1.31788 -1.331459,-1.31788 z m -13.925979,1.10049 -0.434768,0.068 0.135864,0.85595 0.43477,-0.068 z m 0.203797,1.2907 -0.434768,0.068 0.135864,0.85594 0.434759,-0.068 z m 0.203787,1.29071 -0.434758,0.068 0.135865,0.85593 0.434758,-0.068 z m 12.540177,0.068 -0.312474,0.81518 0.40758,0.14946 0.312488,-0.81519 z m -12.349964,1.20919 -0.421175,0.068 0.135865,0.86951 0.421176,-0.068 z m 11.888032,0.0136 -0.298893,0.81518 0.407582,0.14945 0.298904,-0.81518 z m -0.448351,1.22277 -0.298893,0.81518 0.407592,0.14945 0.298893,-0.81519 z m -11.235884,0.0543 -0.421175,0.068 0.135865,0.85595 0.421176,-0.0543 -0.135866,-0.86953 z m 10.773951,1.16843 -0.298894,0.81519 0.407583,0.14945 0.298905,-0.81519 z m -10.570163,0.12228 -0.434758,0.068 0.135864,0.85594 0.434758,-0.068 z m 10.121813,1.1005 -0.298895,0.81518 0.407595,0.14944 0.298893,-0.81518 z m -9.918016,0.1902 -0.434758,0.068 0.135863,0.85593 0.434759,-0.068 z m 9.469675,1.03257 -0.312487,0.81517 0.407584,0.14945 0.312486,-0.81517 z m -9.265879,0.25814 -0.434758,0.068 0.122271,0.77442 c -0.724344,0.22904 -1.263527,0.8982 -1.263527,1.69829 0,0.97889 0.790943,1.76468 1.766229,1.77981 l 0.05431,0.47553 0.434768,-0.0546 -0.05431,-0.46198 c 0.793685,-0.18316 1.38581,-0.88966 1.38581,-1.739 0,-0.98835 -0.805071,-1.7934 -1.793403,-1.7934 -0.0334,0 -0.06219,0.0118 -0.09507,0.0136 l -0.122283,-0.76084 z m 8.803935,0.96462 -0.298893,0.81518 0.407593,0.14945 0.298894,-0.81517 z m -0.448341,1.22277 -0.01355,0.0543 c -0.08803,-0.0248 -0.175717,-0.0408 -0.271717,-0.0408 -0.563879,0 -1.018986,0.4551 -1.018986,1.01897 0,0.34545 0.172212,0.64402 0.43477,0.82877 l -0.04076,0.0543 0.366826,0.21734 0.05431,-0.0956 c 0.06649,0.0136 0.133311,0.0136 0.203797,0.0136 0.563868,0 1.018973,-0.45519 1.018973,-1.01905 0,-0.31369 -0.144215,-0.58714 -0.366836,-0.77442 l 0.04076,-0.10869 -0.407584,-0.14946 z m -1.141255,2.28246 -0.258137,0.39402 c -0.136264,-0.0672 -0.286047,-0.10862 -0.44835,-0.10862 -0.563868,0 -1.018973,0.45506 -1.018973,1.01894 0,0.56387 0.455105,1.01888 1.018973,1.01888 0.563868,0 1.018974,-0.45501 1.018974,-1.01888 0,-0.23625 -0.08266,-0.45201 -0.217379,-0.62502 l 0.271728,-0.44832 z m -6.480677,0.69298 -0.434758,0.0546 0.10869,0.86945 0.434758,-0.0548 z m 0.163039,1.30423 -0.434768,0.0546 0.108688,0.85591 0.43477,-0.055 z m 5.257906,0.43481 -0.01355,0.462 c -0.521167,0.046 -0.937449,0.4857 -0.937449,1.019 0,0.5638 0.468688,1.0188 1.032556,1.0188 0.563869,0 1.018971,-0.455 1.018971,-1.0188 0,-0.4425 -0.285813,-0.8094 -0.679309,-0.9512 l 0.01355,-0.5162 -0.434761,-0.014 z m -5.094876,0.8559 -0.434758,0.055 0.108689,0.8559 0.434757,-0.055 z m 0.163039,1.2907 -0.434758,0.055 0.108689,0.8696 0.434759,-0.055 z m 4.171002,0.096 -0.502691,0.7066 0.353244,0.258 0.50269,-0.7064 z m -0.747245,1.0598 -0.502701,0.7199 0.353254,0.2446 0.50269,-0.7064 z m -3.260717,0.1359 -0.434769,0.055 0.10869,0.8695 0.434769,-0.055 z m 2.459123,0.7606 c -0.54516,0 -0.990014,0.4268 -1.018974,0.9647 l -0.529866,0.1222 c -0.148847,-0.2797 -0.421701,-0.4811 -0.747254,-0.5298 l 0,-0.014 -0.05431,0 c -0.03193,0 -0.0624,0 -0.09507,0 -0.563869,0 -1.018975,0.4551 -1.018975,1.019 0,0.5639 0.455106,1.0191 1.018975,1.0191 0.02342,0 0.04496,0 0.06796,0 l 0.0543,0.7608 0.434758,-0.027 -0.05431,-0.8695 c 0.308274,-0.1758 0.516283,-0.5029 0.516283,-0.8831 0,-0.023 0.0011,-0.045 0,-0.068 l 0.489109,-0.096 c 0.152176,0.3725 0.510096,0.6385 0.937459,0.6385 0.563868,0 1.018972,-0.4552 1.018972,-1.019 0,-0.5639 -0.455104,-1.019 -1.018972,-1.019 z m -1.861326,3.75 -0.434768,0.027 0.0543,0.8694 0.434758,-0.027 -0.05431,-0.8694 z m 0.08152,1.3042 -0.434758,0.027 0.0543,0.8696 0.434768,-0.027 -0.0543,-0.8696 z m 0.08152,1.3043 -0.434758,0.027 0.0543,0.8695 0.434759,-0.027 z m 0.08151,1.3043 -0.434769,0.027 0.06797,0.8561 0.434768,-0.027 z m 0.09507,1.2908 -0.434758,0.027 0.05431,0.8696 0.434758,-0.027 z m 0.08152,1.3042 -0.434769,0.027 0.05432,0.8695 0.434757,-0.027 -0.0543,-0.8695 z m 0.08152,1.3042 -0.434758,0.027 0.0543,0.8694 0.434769,-0.027 -0.05431,-0.8695 z m 0.08152,1.3044 -0.434757,0.027 0.0543,0.8696 0.434758,-0.027 z m -0.149446,1.1004 c -0.563868,0 -1.018973,0.4551 -1.018973,1.019 0,0.5639 0.455105,1.0191 1.018973,1.0191 0.563868,0 1.018974,-0.4552 1.018974,-1.0191 0,-0.5639 -0.455106,-1.019 -1.018974,-1.019 z m 0.271729,2.3777 -0.421176,0.055 0.122273,0.8558 0.421175,-0.055 -0.122272,-0.856 z m 0.190204,1.2907 -0.434758,0.055 0.122271,0.856 0.43477,-0.055 z m 0.176622,1.2907 -0.421176,0.055 0.122282,0.8559 0.421176,-0.055 z m 0.190215,1.2908 -0.434769,0.055 0.122282,0.8694 0.434758,-0.068 -0.122271,-0.8559 z m -16.425868,1.1819 c -0.563869,0 -1.018973,0.4685 -1.018973,1.0324 0,0.5639 0.455104,1.0192 1.018973,1.0192 0.236224,0 0.451975,-0.083 0.624972,-0.2176 l 0.122272,0.1087 0.285312,-0.326 -0.135865,-0.1087 c 0.07679,-0.1433 0.122283,-0.3015 0.122283,-0.4756 0,-0.5639 -0.455106,-1.0324 -1.018974,-1.0324 z m 16.602489,0.1086 -0.421175,0.055 0.122271,0.8695 0.434768,-0.068 z m -0.01355,1.1276 c -0.563868,0 -1.032556,0.4552 -1.032556,1.0192 0,0.5637 0.468688,1.0325 1.032556,1.0325 0.07049,0 0.137336,-0.014 0.203797,-0.027 l 0.122283,0.3261 0.407582,-0.1359 -0.122272,-0.3668 c 0.248736,-0.1862 0.407595,-0.4942 0.407595,-0.8286 0,-0.564 -0.455107,-1.0192 -1.018985,-1.0192 z m -15.230262,0.6522 -0.271729,0.3397 0.665731,0.557 0.271728,-0.3261 z m 1.005381,0.8425 -0.285311,0.3395 0.66573,0.5572 0.285311,-0.3397 z m 0.991809,0.8423 -0.285311,0.3397 0.665729,0.5569 0.285312,-0.3396 z m 14.116192,0.2853 -0.407593,0.1495 0.28531,0.8151 0.421176,-0.1495 z m -13.124393,0.557 -0.27173,0.3396 0.66573,0.5571 0.27173,-0.3396 z m 13.559151,0.6658 -0.407593,0.1494 0.298904,0.8151 0.407593,-0.1358 z m -12.553761,0.1766 -0.285311,0.3261 0.66573,0.5705 0.285311,-0.3396 z m 0.991799,0.8423 -0.285311,0.3261 0.66573,0.5706 0.285311,-0.3395 z m 12.010313,0.2174 -0.421176,0.136 0.298893,0.8286 0.407593,-0.1495 z m -11.018514,0.625 -0.271718,0.3261 0.665729,0.5707 0.271719,-0.3397 z m 11.453272,0.5979 -0.407584,0.1493 0.285312,0.8152 0.407583,-0.1494 z m -10.447881,0.2445 -0.285312,0.326 0.66573,0.5706 0.285311,-0.3396 z m 0.991798,0.8424 -0.285311,0.326 0.66573,0.5706 0.285311,-0.3396 z m 9.890852,0.1493 -0.407594,0.136 0.285311,0.8287 0.421176,-0.1494 z m -8.899043,0.693 -0.271729,0.3261 0.66573,0.557 0.271729,-0.3261 z m 9.333801,0.5299 -0.407584,0.1494 0.298894,0.8152 0.407594,-0.1496 z m -8.32842,0.3124 -0.285311,0.326 0.665729,0.5571 0.285312,-0.326 z m 0.991809,0.8423 -0.271729,0.3261 0.652147,0.557 0.285311,-0.326 z m 7.77138,0.068 -0.407595,0.1494 0.298895,0.8152 0.407593,-0.1358 z m -6.766,0.7744 -0.285311,0.326 0.66573,0.5571 0.271729,-0.3261 z m 7.214339,0.462 -0.407584,0.1493 0.285312,0.8154 0.407593,-0.1496 z m -6.22253,0.3669 -0.285311,0.3395 0.66573,0.5571 0.285311,-0.3261 z m 0.991799,0.8422 -0.27173,0.3397 0.652148,0.557 0.285312,-0.3261 z m 5.6655,0.014 -0.407594,0.1495 0.285311,0.8151 0.407595,-0.1359 z m -4.660109,0.8287 -0.285312,0.3397 0.66573,0.5571 0.27172,-0.326 z m 5.067693,0.2039 c -0.56387,0 -1.018974,0.455 -1.018974,1.0189 0,0.2584 0.09979,0.4995 0.258146,0.6794 l -0.190215,0.2173 0.32608,0.2853 0.217379,-0.2445 c 0.126568,0.056 0.260152,0.096 0.407584,0.096 0.563878,0 1.018983,-0.4686 1.018983,-1.0324 0,-0.5639 -0.455105,-1.0191 -1.018983,-1.0191 z m -4.075895,0.6385 -0.285311,0.3397 0.66573,0.557 0.285311,-0.326 z m 0.991799,0.8423 -0.271718,0.3397 0.66573,0.5571 0.271718,-0.3396 z m 1.16843,0.5572 c -0.563867,0 -1.018973,0.455 -1.018973,1.0189 0,0.1474 0.02532,0.281 0.08152,0.4076 l -0.733662,0.2038 0.108689,0.4213 0.842352,-0.2447 -0.02721,-0.096 c 0.186423,0.2005 0.451922,0.3261 0.747255,0.3261 0.563866,0 1.018974,-0.4551 1.018974,-1.019 0,-0.1581 -0.04454,-0.3012 -0.10869,-0.4347 l 0.09507,-0.096 -0.326068,-0.2853 -0.02721,0.041 c -0.177544,-0.1493 -0.401961,-0.2445 -0.652135,-0.2445 z m -2.092296,1.7526 -0.842352,0.2309 0.122271,0.4212 0.842353,-0.2445 z m -1.263528,0.3532 -0.828769,0.231 0.122282,0.4211 0.828759,-0.2445 z m -1.249945,0.3534 -0.842352,0.2308 0.122283,0.4212 0.842351,-0.231 z m -1.249934,0.3531 -0.842362,0.231 0.122281,0.4212 0.82877,-0.2309 z m -1.263539,0.3532 -0.828759,0.231 0.10869,0.4213 0.842351,-0.231 z m -1.249934,0.3534 -0.842352,0.2309 0.122272,0.4211 0.842351,-0.2309 z m -1.263528,0.3532 -0.82877,0.231 0.122283,0.421 0.828759,-0.2309 z m -1.249946,0.3532 -0.842351,0.2309 0.122272,0.4211 0.842362,-0.2309 z m -1.249944,0.3532 -0.842352,0.231 0.122283,0.4211 0.828758,-0.2309 z m -1.263528,0.3532 -0.828759,0.2445 0.108689,0.4078 0.842353,-0.2311 z m -1.249935,0.3533 -0.842351,0.2445 0.122272,0.4075 0.842351,-0.2308 z m -1.249945,0.3532 -0.842351,0.2446 0.122272,0.4075 0.828769,-0.231 z m -1.263527,0.3533 -0.82877,0.2445 0.10869,0.4212 0.842352,-0.2446 z m -1.249946,0.3532 -0.842351,0.2446 0.122282,0.4211 0.828759,-0.2444 z m -1.263527,0.3532 -0.828769,0.2445 0.1087,0.4213 0.842351,-0.2446 z m -3.383,0.055 c -0.563867,0 -1.032555,0.4551 -1.032555,1.019 0,0.5639 0.468688,1.0189 1.032555,1.0189 0.563879,0 1.018985,-0.455 1.018985,-1.0189 0,-0.5639 -0.455106,-1.019 -1.018985,-1.019 z m 2.133055,0.3125 -0.842352,0.2309 0.122282,0.4211 0.842352,-0.2445 z" id="path2997" inkscape:connector-curvature="0" sodipodi:nodetypes="csccccsccsssssccccccccccccccccccccccccccccccccccccccccccccccccccccccccccccccccccccccccccccccccccccccccccccccccccccccccccccccccccccccccccccccccccccccccccccccccccccccccccccccccccccccccccccccccccccccccccccccccccccccccccccccccccccccccccscccccsscccccccccccccccccccccccccccccccccccccccccccccccccccccccccccccccccccccccsccccssccccccccccssccccssccccccsssscccccccccccccccsssccccccccccccccccccccccccccccccccccssssccccsccssccccccccccccccccccccccccccccccccccccccccccccccsssssccccccccccccccccccccccsssccccssccccccssccccsccccccccccccccccccccccccccccccccccccccccccccccccccccccccccccccccccccccccccccccccccccccccccccccccccccccccccccccccccccccccccccccccsccccsscccccccccccccscccccsscccccccccccccccccccccccccccccccccccccccccccccccccccccccccccccccccccccccccccccccccsssssccccc"/>
  </g>
</svg>