<svg xmlns:dc="http://purl.org/dc/elements/1.1/" xmlns:cc="http://creativecommons.org/ns#" xmlns:rdf="http://www.w3.org/1999/02/22-rdf-syntax-ns#" xmlns:svg="http://www.w3.org/2000/svg" xmlns="http://www.w3.org/2000/svg" xmlns:sodipodi="http://sodipodi.sourceforge.net/DTD/sodipodi-0.dtd" xmlns:inkscape="http://www.inkscape.org/namespaces/inkscape" width="100" height="100" id="svg2" version="1.1" inkscape:version="0.48.2 r9819" sodipodi:docname="New document 1">
  <defs id="defs4"/>
  <sodipodi:namedview id="base" pagecolor="#ffffff" bordercolor="#666666" borderopacity="1.0" inkscape:pageopacity="0.0" inkscape:pageshadow="2" inkscape:zoom="3.959798" inkscape:cx="90.102268" inkscape:cy="28.768339" inkscape:document-units="px" inkscape:current-layer="layer2" showgrid="false" inkscape:window-width="1600" inkscape:window-height="853" inkscape:window-x="-4" inkscape:window-y="-4" inkscape:window-maximized="1"/>
  <metadata id="metadata7">
    <rdf:RDF>
      <cc:Work rdf:about="">
        <dc:format>image/svg+xml</dc:format>
        <dc:type rdf:resource="http://purl.org/dc/dcmitype/StillImage"/>
        <dc:title/>
      </cc:Work>
    </rdf:RDF>
  </metadata>
  <g inkscape:groupmode="layer" id="layer2" inkscape:label="Layer" transform="translate(0,-952.36218)">
    <path style="font-size:medium;font-style:normal;font-variant:normal;font-weight:normal;font-stretch:normal;text-indent:0;text-align:start;text-decoration:none;line-height:normal;letter-spacing:normal;word-spacing:normal;text-transform:none;direction:ltr;block-progression:tb;writing-mode:lr-tb;text-anchor:start;baseline-shift:baseline;color:#000000;fill:#000000;fill-opacity:1;stroke:none;stroke-width:1;marker:none;visibility:visible;display:inline;overflow:visible;enable-background:accumulate;font-family:Sans;-inkscape-font-specification:Sans" d="m 54.445674,953.57562 c -0.79137,0 -1.44139,0.66529 -1.44139,1.48597 0,0.39533 0.15845,0.75911 0.40121,1.02533 l -0.47551,0.75784 0.40121,0.25262 0.46065,-0.72813 c 0.0555,0.0297 0.10402,0.067 0.16346,0.0892 l 0,0.0446 0.19318,0.0149 c 0.0887,0.0188 0.18853,0.0287 0.28233,0.0297 0.005,5e-5 0.01,0 0.0149,0 0.79137,0 1.42654,-0.66529 1.42654,-1.48598 0,-0.82068 -0.63517,-1.48597 -1.42654,-1.48597 z m -0.53495,3.40288 -0.10402,0.93616 0.47551,0.0594 0.0892,-0.95102 -0.46065,-0.0446 z m -1.23336,0.26748 -0.50523,0.80242 0.40121,0.25262 0.50524,-0.80243 -0.40122,-0.25261 z m 1.08476,1.1442 -0.10401,0.95102 0.47551,0.0446 0.0892,-0.93616 -0.46066,-0.0594 z m -1.8426,0.0594 -0.50524,0.81728 0.40122,0.25262 0.50523,-0.81729 -0.40121,-0.25261 z m -0.75785,1.21849 -0.50523,0.80243 0.40121,0.25262 0.50523,-0.80243 -0.40121,-0.25262 z m 2.45186,0.1486 -0.10402,0.93617 0.47551,0.0594 0.10402,-0.95102 -0.47551,-0.0446 z m -3.20971,1.05504 -0.50523,0.80243 0.41607,0.25262 0.49037,-0.80243 -0.40121,-0.25262 z m 3.06111,0.35664 -0.10402,0.95102 0.47551,0.0446 0.10402,-0.93616 -0.47551,-0.0594 z m -3.81896,0.86186 -0.49037,0.80243 0.40122,0.25261 0.50523,-0.80242 -0.41608,-0.25262 z m 3.67036,0.56467 -0.10402,0.93617 0.47551,0.0594 0.10402,-0.95103 -0.47551,-0.0446 z m -4.41334,0.63897 -0.50523,0.80243 0.40121,0.25261 0.50523,-0.80242 -0.40121,-0.25262 z m 4.26474,0.77271 -0.10401,0.95102 0.47551,0.0446 0.10402,-0.95102 -0.47552,-0.0446 z m -5.02259,0.43093 -0.50523,0.81729 0.40121,0.25261 0.50523,-0.81728 -0.40121,-0.25262 z m 4.874,0.9956 -0.10402,0.93617 0.47551,0.0594 0.10402,-0.95103 -0.47551,-0.0446 z m -5.63185,0.2229 -0.50523,0.80243 0.40122,0.25261 0.50523,-0.80242 -0.40122,-0.25262 z m 32.632,0.26747 c -0.47482,0 -0.86187,0.39918 -0.86187,0.89159 0,0.49241 0.38705,0.89158 0.86187,0.89158 0.0449,0 0.0907,-0.0228 0.13374,-0.0297 l 0.38635,0.56467 0.40121,-0.26747 -0.35663,-0.50523 c 0.1777,-0.16334 0.29719,-0.38821 0.29719,-0.65383 0,-0.49241 -0.38704,-0.89159 -0.86186,-0.89159 z m -27.14875,0.92131 -0.10402,0.95102 0.47551,0.0446 0.10402,-0.95102 -0.47551,-0.0446 z m -6.24109,0.0149 -0.26748,0.43093 c -0.15607,-0.0605 -0.31396,-0.10402 -0.49037,-0.10402 -0.79137,0 -1.44139,0.6653 -1.44139,1.48598 0,0.5254 0.27182,0.98398 0.66868,1.24822 l -0.14859,0.38635 0.44579,0.16346 0.13374,-0.35664 c 0.1075,0.0267 0.22636,0.0446 0.34177,0.0446 0.341,0 0.64556,-0.12066 0.89158,-0.32691 l -0.11887,0.10402 0.63897,0.6984 0.34177,-0.31205 -0.63897,-0.71327 c 0.19889,-0.25513 0.31206,-0.58253 0.31206,-0.93616 0,-0.46528 -0.21215,-0.87173 -0.53496,-1.1442 l 0.26748,-0.41608 -0.40121,-0.25261 z m 25.21698,0.75785 c -0.6063,0 -1.08476,0.50058 -1.08476,1.12934 0,0.62875 0.47846,1.1442 1.08476,1.1442 0.6063,0 1.09962,-0.51545 1.09962,-1.1442 0,-0.62876 -0.49332,-1.12934 -1.09962,-1.12934 z m 9.64397,0.41607 c -0.67831,0 -1.2185,0.5745 -1.2185,1.27794 0,0.14925 0.014,0.29784 0.0594,0.43093 l -0.17831,0.11888 0.26747,0.40121 0.16346,-0.10402 c 0.22496,0.26214 0.54143,0.43093 0.90644,0.43093 0.67832,0 1.23336,-0.5745 1.23336,-1.27793 0,-0.70344 -0.55504,-1.27794 -1.23336,-1.27794 z m -28.76846,0.23775 -0.10402,0.93617 0.47552,0.0594 0.10401,-0.95103 -0.47551,-0.0446 z m -0.1486,1.41168 -0.0891,0.95102 0.46065,0.0446 0.10402,-0.95102 -0.47552,-0.0446 z m 27.17847,0.44579 -0.78756,0.52009 0.26747,0.40122 0.78757,-0.53495 -0.26748,-0.38636 z m -31.79985,0.53495 -0.35663,0.32692 0.63897,0.6984 0.35663,-0.31205 -0.63897,-0.71327 z m -3.16512,0.0892 -0.32692,0.89159 0.4458,0.16345 0.32691,-0.89158 -0.44579,-0.16346 z m 33.79105,0.16346 -0.80242,0.53495 0.26747,0.40121 0.78757,-0.53495 -0.25262,-0.40121 z m -26.15314,0.19317 -0.0892,0.93617 0.46065,0.0594 0.10402,-0.95103 -0.47551,-0.0446 z m 24.96436,0.60925 -0.78756,0.53495 0.26747,0.38636 0.78757,-0.53495 -0.26748,-0.38636 z m -28.48612,0.0149 -0.34178,0.31206 0.63897,0.69841 0.34178,-0.31206 -0.63897,-0.69841 z m -4.60652,0.35664 -0.32692,0.89158 0.4458,0.17832 0.32691,-0.90645 -0.44579,-0.16345 z m 31.90386,0.41607 -0.78756,0.53495 0.26747,0.40121 0.78757,-0.53495 -0.26748,-0.40121 z m -23.92418,0.0149 -0.0892,0.95102 0.47551,0.0446 0.0892,-0.95102 -0.47551,-0.0446 z m -2.40728,0.26748 -0.35663,0.31205 0.63897,0.69841 0.35663,-0.31206 -0.63897,-0.6984 z m 25.14268,0.52009 -0.78756,0.53495 0.26747,0.38635 0.78757,-0.53495 -0.26748,-0.38635 z m -31.20545,0.11887 -0.32692,0.90645 0.44579,0.16346 0.32692,-0.89159 -0.44579,-0.17832 z m 7.02865,0.41608 -0.35663,0.31205 0.63897,0.69841 0.35663,-0.31205 -0.63897,-0.69841 z m 1.2928,0.10402 -0.0743,0.847 c -0.0942,0.0245 -0.18166,0.0613 -0.26747,0.10402 l -0.0149,0.0149 c -0.47115,0.2434 -0.80243,0.73958 -0.80243,1.32252 0,0.53027 0.28051,0.98524 0.68355,1.24821 l -0.0446,0.20804 0.47551,0.0892 0.0149,-0.0892 c 0.0976,0.0218 0.20819,0.0297 0.31206,0.0297 0.79137,0 1.42653,-0.66529 1.42653,-1.48597 0,-0.7774 -0.57429,-1.40599 -1.30766,-1.47112 l 0.0743,-0.77271 -0.47551,-0.0446 z m 21.71009,0.14859 -0.78757,0.53495 0.25261,0.40122 0.80243,-0.53495 -0.26747,-0.40122 z m -30.52192,0.68355 -0.32691,0.89159 0.44579,0.16345 0.32692,-0.89158 -0.4458,-0.16346 z m 29.33314,0.11888 -0.78757,0.53495 0.26747,0.38635 0.78757,-0.53495 -0.26747,-0.38635 z m -1.18878,0.78757 -0.78757,0.53495 0.26748,0.40121 0.78756,-0.53495 -0.26747,-0.40121 z m -1.81289,0.16345 c -0.64063,0 -1.18369,0.43874 -1.3671,1.04018 l -0.0743,0 -0.0149,0.47552 0.0149,0 c 0.0156,0.80664 0.65982,1.45625 1.4414,1.45625 0.79137,0 1.42653,-0.66529 1.42653,-1.48597 0,-0.82068 -0.63516,-1.48598 -1.42653,-1.48598 z m -15.67703,0.17832 -0.0297,0.47551 0.95102,0.0594 0.0297,-0.47551 -0.95102,-0.0594 z m -11.14481,0.0892 -0.32691,0.89158 0.44579,0.16346 0.32692,-0.89158 -0.4458,-0.16346 z m 12.57135,0 -0.0297,0.47551 0.95102,0.0594 0.0297,-0.47551 -0.95102,-0.0594 z m 1.42653,0.0892 -0.0297,0.47551 0.95102,0.0594 0.0297,-0.47551 -0.95102,-0.0594 z m 1.42654,0.0892 -0.0297,0.47552 0.95102,0.0446 0.0297,-0.47552 -0.95102,-0.0446 z m 1.42653,0.0743 -0.0297,0.47552 0.93617,0.0594 0.0297,-0.47551 -0.93616,-0.0594 z m 1.41168,0.0892 -0.0297,0.47551 0.95102,0.0594 0.0297,-0.47551 -0.95102,-0.0594 z m 1.42653,0.0892 -0.0297,0.47551 0.95103,0.0594 0.0297,-0.47551 -0.95103,-0.0594 z m 1.42654,0.0892 -0.0297,0.47551 0.95102,0.0446 0.0297,-0.47551 -0.95102,-0.0446 z m 1.42653,0.0743 -0.0297,0.47551 0.95103,0.0594 0.0297,-0.47551 -0.95103,-0.0594 z m 1.42654,0.0892 -0.0297,0.47551 0.95102,0.0594 0.0297,-0.47551 -0.95102,-0.0594 z m -24.45914,0.65382 -0.34177,0.89159 0.46065,0.16346 0.32691,-0.89159 -0.44579,-0.16346 z m 9.18332,0.69841 -0.16345,0.93617 0.46065,0.0892 0.17831,-0.93616 -0.47551,-0.0892 z m -9.68855,0.63897 -0.32691,0.89159 0.44579,0.16345 0.32691,-0.89158 -0.44579,-0.16346 z m 9.43594,0.75785 -0.17832,0.93616 0.46065,0.0892 0.17832,-0.93616 -0.46065,-0.0892 z m -9.92631,0.57953 -0.32692,0.89158 0.4458,0.16346 0.32691,-0.89158 -0.44579,-0.16346 z m 9.65883,0.83214 -0.17832,0.93617 0.46066,0.0892 0.17831,-0.93617 -0.46065,-0.0892 z m -10.1492,0.50524 -0.32692,0.89158 0.4458,0.16346 0.32691,-0.89159 -0.44579,-0.16345 z m 9.88173,0.89158 -0.17832,0.93616 0.46065,0.0892 0.17832,-0.93616 -0.46065,-0.0892 z m -10.3721,0.44579 -0.32692,0.89159 0.44579,0.16345 0.32692,-0.89158 -0.44579,-0.16346 z m 10.10462,0.95103 -0.17832,0.93616 0.47552,0.0892 0.16345,-0.93617 -0.46065,-0.0891 z m -10.595,0.38635 -0.32691,0.89158 0.44579,0.16346 0.32692,-0.89158 -0.4458,-0.16346 z m 10.32753,1.02532 -0.17832,0.93616 0.47551,0.0743 0.17832,-0.9213 -0.47551,-0.0892 z m -10.8179,0.31206 -0.32691,0.89158 0.44579,0.17832 0.32692,-0.90645 -0.4458,-0.16345 z m 10.55042,1.08476 -0.17832,0.93616 0.47551,0.0892 0.17832,-0.93616 -0.47551,-0.0892 z m -11.04079,0.26747 -0.32691,0.89159 0.44579,0.16345 0.32691,-0.89158 -0.44579,-0.16346 z m 10.77331,1.12934 -0.17831,0.93617 0.47551,0.0892 0.17832,-0.93616 -0.47552,-0.0892 z m -11.26368,0.20804 -0.34177,0.89158 c -0.28589,-0.13368 -0.6022,-0.22289 -0.93617,-0.22289 -1.26033,0 -2.2884,1.07055 -2.2884,2.37756 0,1.30701 1.02807,2.3627 2.2884,2.3627 0.76074,0 1.42796,-0.38727 1.84261,-0.98075 l 0.44579,0.31206 0.26748,-0.38636 -0.47551,-0.34177 c 0.1285,-0.29609 0.20803,-0.62012 0.20803,-0.96588 0,-0.95596 -0.55063,-1.78122 -1.33737,-2.15467 l 0.44579,0.16346 0.32691,-0.89158 -0.44579,-0.16346 z m 11.01107,1.20364 -0.17832,0.93616 0.46065,0.0743 0.17832,-0.9213 -0.46065,-0.0892 z m -0.26748,1.39681 -0.17831,0.93617 0.46065,0.0892 0.17832,-0.93617 -0.46066,-0.0892 z m -0.26747,1.39682 -0.17832,0.93616 0.46065,0.0892 0.17832,-0.93616 -0.46065,-0.0892 z m -8.81183,0.62411 -0.26747,0.38635 0.78756,0.54977 0.26748,-0.38631 -0.78757,-0.54981 z m -3.5069,0.78757 -0.26747,0.92125 0.46065,0.1338 0.26747,-0.9213 -0.46065,-0.13375 z m 12.05125,0 -0.17831,0.92125 0.46065,0.089 0.17831,-0.9213 -0.46065,-0.0892 z m -7.37043,0.0297 -0.26747,0.38635 0.7727,0.5498 0.28234,-0.3863 -0.78757,-0.54985 z m 1.17392,0.81725 -0.28233,0.3864 0.78756,0.5498 0.26748,-0.3864 -0.77271,-0.5498 z m -6.24109,0.5201 -0.26748,0.9213 0.4458,0.1338 0.26747,-0.9213 -0.44579,-0.1338 z m 12.17013,0.03 -0.17832,0.9362 0.47551,0.089 0.16346,-0.9362 -0.46065,-0.089 z m -4.76998,0.2675 -0.26747,0.3864 0.7727,0.5498 0.28234,-0.3864 -0.78757,-0.5498 z m 1.17392,0.8173 -0.26748,0.3863 0.77271,0.5499 0.26748,-0.3864 -0.77271,-0.5498 z m 2.91251,0.089 c -0.65778,0 -1.24719,0.3135 -1.63457,0.8024 l -0.10402,-0.074 -0.28234,0.4012 0.13374,0.089 c -0.14108,0.2937 -0.23775,0.6155 -0.23775,0.9659 0,1.2098 0.9584,2.19915 2.12494,2.19915 1.16654,0 2.11008,-0.98935 2.11008,-2.19915 0,-1.2097 -0.94354,-2.1844 -2.11008,-2.1844 z m -11.88779,0.1783 -0.26748,0.9064 0.46065,0.1338 0.26748,-0.9065 -0.46065,-0.1337 z m 46.09492,0.074 c -0.79137,0 -1.42654,0.6653 -1.42654,1.486 0,0.8207 0.63517,1.4859 1.42654,1.4859 0.16981,0 0.33921,-0.033 0.49037,-0.089 l 0.1486,0.2081 0.38635,-0.2675 -0.13374,-0.1783 c 0.32993,-0.2723 0.54981,-0.6879 0.54981,-1.1591 0,-0.8207 -0.65002,-1.4859 -1.44139,-1.4859 z m -46.49614,1.2928 -0.26747,0.9064 0.46065,0.1338 0.26747,-0.9065 -0.46065,-0.1337 z m -0.38635,1.3671 -0.26748,0.92125 0.46066,0.1337 0.25261,-0.92125 -0.44579,-0.1337 z m 48.19014,0.5349 -0.38635,0.2824 0.46065,0.63885 c -0.46733,0.3554 -0.7727,0.9281 -0.7727,1.5752 0,0.5048 0.18727,0.961 0.49037,1.3076 l -0.0594,0.045 0.31205,0.3567 0.10402,-0.089 c 0.29848,0.2061 0.6547,0.3269 1.04018,0.3269 1.04009,0 1.88719,-0.868 1.88719,-1.9466 0,-1.0786 -0.8471,-1.9615 -1.88719,-1.9615 -0.24314,0 -0.47018,0.062 -0.68355,0.1486 l -0.50523,-0.68355 z m -48.59135,0.83215 -0.26748,0.9213 0.46065,0.1337 0.26748,-0.9213 -0.46065,-0.1337 z m 12.37816,0.015 -0.32691,0.8916 0.44579,0.1783 0.32691,-0.8916 -0.44579,-0.1783 z m -0.49037,1.3522 -0.32691,0.8916 0.44579,0.1635 0.32691,-0.8916 -0.44579,-0.1635 z m -12.28901,0.015 -0.25261,0.9065 0.44579,0.1337 0.26748,-0.9213 -0.46066,-0.1189 z m 11.78378,1.3225 -0.32692,0.8916 0.4458,0.1635 0.32691,-0.8916 -0.44579,-0.1635 z m -12.17013,0.045 -0.26748,0.9065 0.46066,0.1337 0.25261,-0.9064 -0.44579,-0.1338 z m 48.75481,0.5796 -0.71326,0.6241 0.29719,0.3566 0.72813,-0.6241 -0.31206,-0.3566 z m -37.07505,0.7132 -0.32692,0.8916 0.4458,0.1635 0.32691,-0.8916 -0.44579,-0.1635 z m -12.08097,0.074 -0.26748,0.9214 0.46065,0.1188 0.26748,-0.9064 -0.46065,-0.1338 z m 48.07126,0.1486 -0.71326,0.6093 0.31205,0.3715 0.71327,-0.6241 -0.31206,-0.3567 z m -1.0699,0.9214 -0.72813,0.6241 0.31206,0.3566 0.71327,-0.6093 -0.2972,-0.3714 z m -35.41076,0.1931 -0.32692,0.8916 0.44579,0.1635 0.32692,-0.8916 -0.44579,-0.1635 z m -11.99182,0.104 -0.25261,0.9214 0.44579,0.1337 0.26748,-0.9213 -0.46066,-0.1338 z m 46.31782,0.639 -0.72813,0.6241 0.31206,0.3567 0.72813,-0.6242 -0.31206,-0.3566 z m -34.81638,0.5944 -0.34177,0.8916 0.44579,0.1634 0.34178,-0.8915 -0.4458,-0.1635 z m -11.88779,0.1486 -0.26747,0.9064 0.46065,0.1338 0.25261,-0.9213 -0.44579,-0.1189 z m 45.61941,0.1932 -0.71327,0.6092 0.2972,0.3715 0.72812,-0.6241 -0.31205,-0.3566 z m -1.08476,0.9213 -0.71327,0.6241 0.31206,0.3566 0.71326,-0.6092 -0.31205,-0.3715 z m -33.15209,0.074 -0.32691,0.8916 0.44579,0.1634 0.32692,-0.8916 -0.4458,-0.1634 z m -11.78377,0.1783 -0.26748,0.9064 0.46065,0.1338 0.26748,-0.9065 -0.46065,-0.1337 z m 43.86596,0.6835 -0.72813,0.6242 0.31205,0.3566 0.72813,-0.6241 -0.31205,-0.3567 z m -32.57256,0.4756 -0.32691,0.8915 0.44579,0.1635 0.32691,-0.8916 -0.44579,-0.1634 z m -11.69462,0.208 -0.25261,0.9064 0.44579,0.1338 0.26748,-0.9065 -0.46066,-0.1337 z m 43.18242,0.2526 -0.72813,0.6093 0.31205,0.3715 0.72813,-0.6242 -0.31205,-0.3566 z m -31.97817,0.8767 -0.34177,0.8916 0.44579,0.1635 0.34177,-0.8916 -0.44579,-0.1635 z m 30.8934,0.045 -0.71326,0.6241 0.31205,0.3567 0.71327,-0.6093 -0.31206,-0.3715 z m -42.484,0.1932 -0.26747,0.9213 0.46065,0.1338 0.26747,-0.9214 -0.46065,-0.1337 z m 41.39924,0.743 -0.71326,0.6241 0.31205,0.3566 0.71327,-0.6241 -0.31206,-0.3566 z m -30.31387,0.3566 -0.32692,0.8768 c -0.16446,-0.042 -0.32838,-0.074 -0.50523,-0.074 -1.07022,0 -1.95704,0.8117 -2.12494,1.8723 l -0.0892,-0.015 -0.0446,0.4606 0.11888,0.015 c 0.0469,1.1911 0.97976,2.1398 2.1398,2.1398 1.18999,0 2.15467,-0.9949 2.15467,-2.2289 0,-0.8748 -0.49748,-1.6244 -1.20364,-1.9912 l 0.32691,-0.8916 -0.44579,-0.1635 z m -11.48658,0.2675 -0.0594,0.2229 c -0.0933,-0.02 -0.18342,-0.03 -0.28234,-0.03 -0.79137,0 -1.44139,0.6653 -1.44139,1.486 0,0.3836 0.15619,0.7319 0.38635,0.9956 l -0.41607,0.4309 0.35663,0.3269 0.43094,-0.4606 c 0.2038,0.1155 0.43492,0.1932 0.68354,0.1932 0.79137,0 1.42654,-0.6653 1.42654,-1.486 0,-0.544 -0.27788,-1.019 -0.69841,-1.278 l 0.0743,-0.2674 -0.46065,-0.1338 z m 40.73055,0.3121 -0.72813,0.6092 0.31206,0.3715 0.72813,-0.6241 -0.31206,-0.3566 z m -1.08476,0.9213 -0.71327,0.6241 0.2972,0.3566 0.72813,-0.6092 -0.31206,-0.3715 z m -1.94663,0.4012 c -0.79137,0 -1.44139,0.6653 -1.44139,1.486 0,0.8206 0.65002,1.4859 1.44139,1.4859 0.79137,0 1.42654,-0.6653 1.42654,-1.4859 0,-0.8207 -0.63517,-1.486 -1.42654,-1.486 z m -36.36179,0.074 -0.0446,0.4755 0.95102,0.089 0.0446,-0.4755 -0.95103,-0.089 z m 1.42654,0.1337 -0.0446,0.4755 0.93616,0.089 0.0594,-0.4755 -0.95102,-0.089 z m 1.41168,0.1338 -0.0446,0.4755 0.95102,0.089 0.0446,-0.4755 -0.95102,-0.089 z m 1.42653,0.1337 -0.0446,0.4755 0.95103,0.089 0.0446,-0.4755 -0.95102,-0.089 z m 1.41168,0.1337 -0.0446,0.4755 0.95102,0.089 0.0446,-0.4606 -0.95102,-0.104 z m -9.13874,1.2037 -0.65383,0.6984 0.34177,0.3269 0.65383,-0.6984 -0.34177,-0.3269 z m 38.33813,0.1337 -0.87672,0.3715 0.17831,0.4458 0.87673,-0.3864 -0.17832,-0.4309 z m -23.35951,0.3269 -0.23776,0.4012 0.81729,0.4904 0.23775,-0.4161 -0.81728,-0.4755 z m 22.03699,0.2378 -0.86186,0.3715 0.17831,0.4309 0.87673,-0.3715 -0.19318,-0.4309 z m -37.99636,0.3566 -0.65383,0.6836 0.35664,0.3269 0.63897,-0.6984 -0.34178,-0.3121 z m 17.19272,0.1337 -0.25261,0.4013 0.81728,0.4903 0.23776,-0.4012 -0.80243,-0.4904 z m 19.49599,0.074 -0.87673,0.3715 0.19318,0.431 0.87672,-0.3715 -0.19317,-0.431 z m -1.30766,0.5499 -0.87673,0.3863 0.19318,0.4309 0.87672,-0.3715 -0.19317,-0.4457 z m -16.96983,0.104 -0.23775,0.4012 0.80242,0.4904 0.25262,-0.4013 -0.81729,-0.4903 z m -19.3771,0.1783 -0.65383,0.6984 0.34177,0.3121 0.65383,-0.6836 -0.34177,-0.3269 z m 35.03927,0.2823 -0.87672,0.3715 0.17831,0.4458 0.87673,-0.3715 -0.17832,-0.4458 z m -14.44367,0.2675 -0.23775,0.4161 0.81728,0.4903 0.23776,-0.416 -0.81729,-0.4904 z m 13.12115,0.2972 -0.86186,0.3715 0.17832,0.4458 0.87672,-0.3864 -0.19318,-0.4309 z m -34.69749,0.1932 -0.65383,0.6984 0.35663,0.3269 0.63897,-0.6984 -0.34177,-0.3269 z m 22.8097,0.2377 -0.25262,0.4161 0.81729,0.4904 0.25262,-0.4161 -0.81729,-0.4904 z m 10.58014,0.1338 -0.87673,0.3715 0.19318,0.4309 0.87672,-0.3715 -0.19317,-0.4309 z m -1.30766,0.5646 -0.87673,0.3715 0.19318,0.431 0.87673,-0.3715 -0.19318,-0.431 z m -8.05398,0.045 -0.23776,0.4012 0.81729,0.4904 0.23775,-0.4161 -0.81728,-0.4755 z m -24.99409,0.059 -0.65383,0.6984 0.34178,0.327 0.65383,-0.6985 -0.34178,-0.3269 z m 31.74041,0.4458 -0.87672,0.3864 0.17831,0.4309 0.87673,-0.3715 -0.17832,-0.4458 z m -5.51296,0.2229 -0.25262,0.4012 0.81729,0.4904 0.25261,-0.4012 -0.81728,-0.4904 z m 2.37756,0.1486 c -0.45439,0 -0.86224,0.2507 -1.08476,0.6241 l -0.0743,-0.045 -0.23776,0.4161 0.1486,0.089 c -0.0134,0.076 -0.0149,0.1573 -0.0149,0.2378 0,0.7234 0.5655,1.3076 1.26308,1.3076 0.69758,0 1.26307,-0.5842 1.26307,-1.3076 0,-0.1178 -0.0313,-0.2332 -0.0594,-0.3418 l 0.80242,-0.3418 -0.19318,-0.4458 -0.80242,0.3418 c -0.23004,-0.3229 -0.5936,-0.535 -1.01046,-0.535 z m -29.58575,0.2229 -0.65383,0.6984 0.35663,0.3269 0.63897,-0.6984 -0.34177,-0.3269 z m -0.96588,1.0551 -0.62411,0.6538 c -0.29556,-0.1491 -0.61514,-0.2378 -0.96589,-0.2378 -1.23688,0 -2.24382,1.0355 -2.24382,2.3182 0,0.2989 0.0643,0.5845 0.16346,0.847 l -0.0446,0.045 0.13374,0.1634 c 0.37046,0.7527 1.12037,1.2631 1.9912,1.2631 1.23689,0 2.22897,-1.0354 2.22897,-2.3181 0,-0.7431 -0.3383,-1.3878 -0.86187,-1.8129 l 0.56467,-0.6093 -0.34177,-0.312 z m 31.889,0.5052 -0.13373,0.4606 0.90644,0.2675 0.1486,-0.4458 -0.92131,-0.2823 z m 1.3671,0.4161 -0.13374,0.4606 0.90645,0.2675 0.13373,-0.4458 -0.90644,-0.2823 z m 1.3671,0.416 -0.13374,0.4607 0.90644,0.2823 0.13374,-0.4606 -0.90644,-0.2824 z m 1.36709,0.4161 -0.1486,0.4607 0.92131,0.2823 0.13374,-0.4607 -0.90645,-0.2823 z m 1.3671,0.4161 -0.1486,0.4606 0.90645,0.2824 0.14859,-0.4607 -0.90644,-0.2823 z m 1.35223,0.4161 -0.13373,0.4606 0.90644,0.2823 0.1486,-0.4606 -0.92131,-0.2823 z m 1.3671,0.4309 -0.13374,0.4458 0.90645,0.2823 0.13374,-0.4606 -0.90645,-0.2675 z m 1.3671,0.4161 -0.13374,0.4458 0.90644,0.2823 0.13374,-0.4607 -0.90644,-0.2674 z m 1.36709,0.416 -0.14859,0.4458 0.9213,0.2824 0.13374,-0.4458 -0.90645,-0.2824 z m -46.88248,0.1041 -0.72813,0.6241 0.31205,0.3566 0.72813,-0.6241 -0.31205,-0.3566 z m 48.24958,0.312 -0.1486,0.4607 0.90645,0.2674 0.14859,-0.4458 -0.90644,-0.2823 z m 1.35224,0.4161 -0.13374,0.4606 0.90644,0.2675 0.1486,-0.4458 -0.9213,-0.2823 z m -50.68658,0.208 -0.71327,0.6241 0.31205,0.3567 0.71327,-0.6242 -0.31205,-0.3566 z m 52.05367,0.2081 -0.13373,0.4606 0.90644,0.2675 0.13374,-0.4458 -0.90645,-0.2823 z m 1.3671,0.416 -0.13374,0.4607 0.90645,0.2823 0.13373,-0.4606 -0.90644,-0.2824 z m -54.49068,0.3121 -0.71326,0.6241 0.31205,0.3566 0.71327,-0.6241 -0.31206,-0.3566 z m 55.85778,0.104 -0.1486,0.4606 0.9213,0.2824 0.13374,-0.4607 -0.90644,-0.2823 z m 1.36709,0.4161 -0.1486,0.4606 0.90645,0.2824 0.1486,-0.4607 -0.90645,-0.2823 z m -58.294769,0.416 -0.71326,0.6242 0.31205,0.3566 0.713269,-0.6241 -0.312059,-0.3567 z m 59.647009,0.015 -0.13374,0.4458 0.90644,0.2824 0.1486,-0.4607 -0.9213,-0.2675 z m 1.36709,0.4161 -0.13373,0.4458 0.90644,0.2823 0.13374,-0.4606 -0.90645,-0.2675 z m -63.436239,0.015 c -1.26619,0 -2.2884,1.0645 -2.2884,2.3776 0,0.9848 0.57396,1.8234 1.39682,2.1844 l -0.0743,0.4755 0.47551,0.074 0.0594,-0.4012 c 0.14067,0.028 0.2824,0.045 0.43093,0.045 1.2662,0 2.30326,-1.0645 2.30326,-2.3776 0,-1.3131 -1.03706,-2.3776 -2.30326,-2.3776 z m 64.803339,0.4012 -0.13374,0.4458 0.90645,0.2824 0.13374,-0.4458 -0.90645,-0.2824 z m 1.3671,0.4161 -0.1486,0.4607 0.9213,0.2674 0.13374,-0.4458 -0.90644,-0.2823 z m 1.36709,0.4161 -0.14859,0.4606 0.90644,0.2675 0.1486,-0.4458 -0.90645,-0.2823 z m 1.35224,0.416 -0.13374,0.4607 0.90645,0.2675 0.14859,-0.4458 -0.9213,-0.2824 z m 1.3671,0.4161 -0.13374,0.4607 0.90644,0.2823 0.13374,-0.4606 -0.90644,-0.2824 z m 1.36709,0.4161 -0.13374,0.4606 0.90645,0.2824 0.13374,-0.4607 -0.90645,-0.2823 z m 1.3671,0.4161 -0.1486,0.4606 0.92131,0.2824 0.13373,-0.4607 -0.90644,-0.2823 z m 2.91251,0.074 c -0.37986,0 -0.71321,0.2226 -0.87673,0.5498 l -0.66868,-0.1932 -0.1486,0.4458 0.71327,0.2229 c 0,0.5627 0.43808,1.0104 0.98074,1.0104 0.54265,0 0.98074,-0.4477 0.98074,-1.0104 0,-0.5628 -0.43809,-1.0253 -0.98074,-1.0253 z m 3.59606,1.3522 c -0.62156,0 -1.15378,0.4218 -1.35224,0.9956 l -0.0892,0.1635 0.0297,0.015 c -0.021,0.1012 -0.0297,0.2043 -0.0297,0.312 0,0.8207 0.65003,1.486 1.4414,1.486 0.79137,0 1.42653,-0.6653 1.42653,-1.486 0,-0.8207 -0.63516,-1.486 -1.42653,-1.486 z m -2.46672,0.045 -0.2229,0.4309 0.83215,0.4458 0.23775,-0.4161 -0.847,-0.4606 z m -78.073089,1.1293 -0.16345,0.9362 0.47551,0.089 0.16345,-0.951 -0.47551,-0.074 z m -0.23775,1.4117 -0.1486,0.9362 0.46065,0.074 0.16346,-0.9362 -0.47551,-0.074 z m -0.23776,1.4117 -0.1486,0.9362 0.46066,0.074 0.16345,-0.9362 -0.47551,-0.074 z m -0.22289,1.3968 -0.16346,0.9362 0.47551,0.089 0.1486,-0.9362 -0.46065,-0.089 z m -0.23776,1.4117 -0.16346,0.9361 0.47551,0.074 0.1486,-0.9361 -0.46065,-0.074 z m -0.23776,1.4117 -0.14859,0.9361 0.46065,0.074 0.16346,-0.9361 -0.47552,-0.074 z m -0.23775,1.3968 -0.1486,0.9361 0.46065,0.089 0.16346,-0.9361 -0.47551,-0.089 z m -0.2229,1.4116 -0.16346,0.9362 0.47552,0.074 0.14859,-0.9361 -0.46065,-0.074 z m -0.23775,1.4117 -0.16346,0.9362 0.47551,0.074 0.1486,-0.9362 -0.46065,-0.074 z m -0.23776,1.3968 -0.11888,0.7133 c -0.065001,-0.01 -0.1256905,-0.015 -0.1931805,-0.015 -0.79137,0 -1.44139,0.6653 -1.44139,1.486 0,0.8207 0.65002,1.486 1.44139,1.486 0.7913805,0 1.4265405,-0.6653 1.4265405,-1.486 0,-0.5736 -0.31383,-1.0748 -0.77271,-1.3225 l 0.13374,-0.7727 -0.47551,-0.089 z" id="path2997" inkscape:connector-curvature="0"/>
  </g>
</svg>