<svg xmlns:dc="http://purl.org/dc/elements/1.1/" xmlns:cc="http://creativecommons.org/ns#" xmlns:rdf="http://www.w3.org/1999/02/22-rdf-syntax-ns#" xmlns:svg="http://www.w3.org/2000/svg" xmlns="http://www.w3.org/2000/svg" xmlns:sodipodi="http://sodipodi.sourceforge.net/DTD/sodipodi-0.dtd" xmlns:inkscape="http://www.inkscape.org/namespaces/inkscape" width="100" height="100" id="svg2" version="1.1" inkscape:version="0.48.2 r9819" sodipodi:docname="New document 1">
  <defs id="defs4"/>
  <sodipodi:namedview id="base" pagecolor="#ffffff" bordercolor="#666666" borderopacity="1.0" inkscape:pageopacity="0.0" inkscape:pageshadow="2" inkscape:zoom="6.63" inkscape:cx="50" inkscape:cy="50" inkscape:document-units="px" inkscape:current-layer="layer2" showgrid="false" inkscape:window-width="1600" inkscape:window-height="853" inkscape:window-x="-4" inkscape:window-y="-4" inkscape:window-maximized="1"/>
  <metadata id="metadata7">
    <rdf:RDF>
      <cc:Work rdf:about="">
        <dc:format>image/svg+xml</dc:format>
        <dc:type rdf:resource="http://purl.org/dc/dcmitype/StillImage"/>
        <dc:title/>
      </cc:Work>
    </rdf:RDF>
  </metadata>
  <g inkscape:groupmode="layer" id="layer2" inkscape:label="Layer" style="display:inline" transform="translate(0,-952.36218)">
    <path style="font-size:medium;font-style:normal;font-variant:normal;font-weight:normal;font-stretch:normal;text-indent:0;text-align:start;text-decoration:none;line-height:normal;letter-spacing:normal;word-spacing:normal;text-transform:none;direction:ltr;block-progression:tb;writing-mode:lr-tb;text-anchor:start;baseline-shift:baseline;color:#000000;fill:#000000;fill-opacity:1;stroke:none;stroke-width:1;marker:none;visibility:visible;display:inline;overflow:visible;enable-background:accumulate;font-family:Sans;-inkscape-font-specification:Sans" d="m 45.172493,956.64835 c -1.056562,0 -1.915733,0.84057 -1.915733,1.89713 0,1.05657 0.859171,1.91574 1.915733,1.91574 0.09219,0 0.171686,-0.006 0.260391,-0.0186 l 0.260391,1.09736 0.57658,-0.1488 -0.27899,-1.11596 c 0.644377,-0.30778 1.097362,-0.96801 1.097362,-1.72974 0,-1.05656 -0.859171,-1.89713 -1.915734,-1.89713 z m 1.246157,5.31941 -0.57658,0.1488 0.29759,1.15316 0.57658,-0.1488 -0.29759,-1.15316 z m 40.118804,1.15316 c -1.36472,0 -2.47371,1.109 -2.47371,2.47372 0,1.36473 1.10899,2.47371 2.47371,2.47371 0.57835,0 1.10415,-0.20654 1.52515,-0.53938 l 0.1116,0.093 0.39058,-0.44639 -0.093,-0.0744 c 0.32745,-0.41919 0.53938,-0.93341 0.53938,-1.50655 0,-1.36472 -1.10899,-2.47372 -2.47372,-2.47372 z m -39.672419,0.57658 -0.57658,0.1488 0.297589,1.15316 0.57658,-0.1488 -0.297589,-1.15316 z m 0.446384,1.72974 -0.57658,0.1488 0.278991,1.15316 0.57658,-0.1488 -0.278991,-1.15316 z m 36.547735,1.56235 -1.02297,0.59518 0.27899,0.52078 1.04157,-0.59518 -0.29759,-0.52078 z m -36.11995,0.16739 -0.57658,0.1488 0.29759,1.15316 0.57658,-0.1488 -0.29759,-1.15316 z m 41.27197,0.42779 -0.39059,0.42778 0.87417,0.79978 0.40919,-0.44639 -0.89277,-0.78117 z m -6.69577,0.29759 -1.04156,0.57658 0.29759,0.52078 1.04156,-0.59518 -0.29759,-0.50218 z m -1.56235,0.87417 -1.02296,0.57658 0.27899,0.52078 1.04156,-0.57658 -0.29759,-0.52078 z m 9.59727,0.0186 -0.40918,0.42778 0.89277,0.79978 0.39058,-0.44639 -0.87417,-0.78117 z m -42.164735,0.11159 -0.57658,0.1488 0.29759,1.15316 0.57658,-0.1488 -0.29759,-1.15316 z m 31.023725,0.74398 -1.04157,0.57658 0.29759,0.52078 1.02297,-0.57658 -0.27899,-0.52078 z m 12.46157,0.33479 -0.39059,0.44638 0.87417,0.78117 0.40919,-0.42778 -0.89277,-0.79977 z m -14.02392,0.53938 -1.04156,0.59518 0.29759,0.52078 1.04156,-0.59518 -0.29759,-0.52078 z m -29.014991,0.11159 -0.57658,0.1488 0.278991,1.15316 0.57658,-0.1488 -0.278991,-1.15316 z m 44.359458,0.53939 -0.390587,0.44638 0.892767,0.79977 0.39059,-0.44638 -0.89277,-0.79977 z m -16.888207,0.22319 -1.04157,0.59518 0.29759,0.52078 1.02297,-0.59518 -0.27899,-0.52078 z m -1.56235,0.89277 -1.04156,0.57658 0.29759,0.52078 1.04156,-0.57658 -0.29759,-0.52078 z m -25.481115,0.0744 -0.57658,0.1488 0.297589,1.15316 0.57658,-0.1488 -0.297589,-1.15316 z m 45.270822,0 -0.40918,0.44639 0.89277,0.79977 0.39058,-0.44638 -0.87417,-0.79978 z m 2.49232,0.76258 c -1.23266,0 -2.23193,0.99927 -2.23193,2.23192 0,0.97114 0.62199,1.79484 1.48795,2.10173 l -0.0558,0.26039 0.57658,0.14879 0.0744,-0.29759 c 0.0507,0.003 0.0973,0.0186 0.1488,0.0186 1.23266,0 2.23192,-0.99926 2.23192,-2.23192 0,-1.23265 -0.99926,-2.23192 -2.23192,-2.23192 z m -23.844377,0.0372 -1.02296,0.57658 0.27899,0.52078 1.04156,-0.57658 -0.29759,-0.52078 z m -1.54374,0.87417 -1.04157,0.59518 0.29759,0.52078 1.04157,-0.59518 -0.29759,-0.52078 z m -21.928641,0.0558 -0.57658,0.1488 0.29759,1.15316 0.57658,-0.1488 -0.29759,-1.15316 z m 20.366291,0.81838 -1.02296,0.59517 0.27899,0.52079 1.04156,-0.59518 -0.29759,-0.52078 z m -1.54374,0.89276 -1.04157,0.57658 0.29759,0.52079 1.02297,-0.57658 -0.27899,-0.52079 z m -18.376166,0.0186 -0.57658,0.1488 0.27899,1.15316 0.57658,-0.1488 -0.27899,-1.15316 z m 16.813816,0.85557 -1.04156,0.57658 0.29759,0.52079 1.04156,-0.57658 -0.29759,-0.52079 z m -1.54375,0.87417 -1.04156,0.59518 0.29759,0.50219 1.02296,-0.57658 -0.27899,-0.52079 z m -14.842281,0.0186 -0.57658,0.1302 0.297589,1.15316 0.57658,-0.1302 -0.297589,-1.15316 z m 45.494018,0.72538 -0.27899,1.15316 0.57658,0.14879 0.27899,-1.15316 -0.57658,-0.14879 z m -32.214077,0.13019 -1.04157,0.59518 0.29759,0.52078 1.04157,-0.59517 -0.29759,-0.52079 z m -12.833557,0.87417 -0.57658,0.1302 0.29759,1.15316 0.57658,-0.1302 -0.29759,-1.15316 z m 11.271207,0.0186 -1.02296,0.57658 0.27899,0.52078 1.04156,-0.59517 -0.29759,-0.50219 z m 33.367237,0.72538 -0.29759,1.15316 0.59518,0.13019 0.27899,-1.15316 -0.57658,-0.13019 z m -34.910977,0.14879 -1.04157,0.57658 0.29759,0.52078 1.04157,-0.57658 -0.29759,-0.52078 z m -9.281082,0.83697 -0.59518,0.1302 0.29759,1.17176 0.57658,-0.1488 -0.27899,-1.15316 z m 7.718732,0.0372 -1.02296,0.59518 0.27899,0.50218 1.04156,-0.57658 -0.29759,-0.52078 z m 36.045547,0.70678 -0.27899,1.15316 0.57658,0.14879 0.27899,-1.17176 -0.57658,-0.13019 z m -37.589297,0.16739 -1.04156,0.59518 0.29759,0.52078 1.02296,-0.59518 -0.27899,-0.52078 z m -5.747197,0.81837 -0.57658,0.1488 0.204593,0.78117 c -0.743724,0.28918 -1.264756,0.99537 -1.264756,1.84134 0,1.10058 0.889543,2.00873 1.990131,2.00873 0.312451,0 0.592358,-0.095 0.85557,-0.22319 l 0.241792,0.61377 0.55798,-0.22319 -0.297589,-0.72537 c 0.38345,-0.36321 0.632378,-0.8809 0.632378,-1.45075 0,-0.31489 -0.09314,-0.59081 -0.223193,-0.85557 l 0.799773,-0.44639 -0.278991,-0.52078 -0.85557,0.46498 c -0.363059,-0.38192 -0.863593,-0.63237 -1.43215,-0.63237 -0.05018,0 -0.09954,0.0149 -0.148795,0.0186 l -0.204593,-0.79978 z m 4.184857,0.0744 -1.041566,0.57658 0.29759,0.52078 1.041566,-0.59518 -0.29759,-0.50218 z m 38.723847,0.66958 -0.27899,1.15316 0.57658,0.14879 0.27899,-1.15316 -0.57658,-0.14879 z m -0.42778,1.72974 -0.27899,1.15316 0.57658,0.14879 0.27899,-1.15316 -0.57658,-0.14879 z m -44.471055,1.19036 -1.022965,0.63237 0.316189,0.50219 1.022965,-0.63238 -0.316189,-0.50218 z m 44.061865,0.55798 -0.29759,1.15316 0.57658,0.13019 0.29759,-1.15316 -0.57658,-0.13019 z m -45.587012,0.37198 -1.004365,0.63238 0.297589,0.50218 1.022965,-0.61377 -0.316189,-0.52079 z m 5.728601,0.91137 -0.539381,0.22319 0.446384,1.09737 0.539382,-0.2232 -0.446385,-1.09736 z m -7.253748,0.0372 -1.004365,0.61378 0.316189,0.52078 1.004365,-0.63238 -0.316189,-0.50218 z m 46.684379,0.40919 -0.27899,1.15316 0.57658,0.14879 0.27899,-1.17176 -0.57658,-0.13019 z m -48.190927,0.52078 -1.022964,0.63238 0.316189,0.50218 1.004365,-0.63238 -0.29759,-0.50218 z m 9.429873,0.68817 -0.557981,0.2232 0.446385,1.09736 0.55798,-0.22319 -0.446384,-1.09737 z m -10.95502,0.2418 -1.022965,0.63237 0.316189,0.50219 1.022965,-0.61378 -0.316189,-0.52078 z m 49.288284,0.27899 -0.278987,1.15316 0.576577,0.14879 0.27899,-1.15316 -0.57658,-0.14879 z m -50.813431,0.66957 -1.004365,0.61378 0.297589,0.52078 1.022965,-0.63237 -0.316189,-0.50219 z m 13.149744,0.46499 -0.557981,0.22319 0.446385,1.09736 0.557976,-0.22319 -0.44638,-1.09736 z m 36.93832,0.14879 c -1.17396,0 -2.12033,0.96497 -2.12033,2.13893 0,0.27882 0.0512,0.5372 0.1488,0.78117 l -0.59518,0.20459 0.20459,0.57658 0.70678,-0.26039 c 0.38939,0.49032 0.98057,0.81837 1.65534,0.81837 1.173957,0 2.138917,-0.94636 2.138917,-2.12032 0,-1.17396 -0.96496,-2.13893 -2.138917,-2.13893 z m -84.701463,0.1674 c -1.350053,0 -2.436516,1.08646 -2.436516,2.43651 0,1.35005 1.086463,2.45512 2.436516,2.45512 0.83421,0 1.567614,-0.42233 2.00873,-1.06017 l 0.539381,0.1674 0.185994,-0.55798 -0.446385,-0.1488 c 0.09992,-0.26677 0.148795,-0.55391 0.148795,-0.85557 0,-1.35005 -1.086463,-2.43651 -2.436515,-2.43651 z m 33.088252,0.14879 -1.004365,0.63238 0.316189,0.50218 1.004365,-0.63238 -0.316189,-0.50218 z m -1.506548,0.92997 -1.022964,0.63238 0.316189,0.50218 1.004365,-0.61378 -0.29759,-0.52078 z m 16.832419,0.26039 -0.539384,0.22319 0.427784,1.09736 0.55798,-0.22319 -0.44638,-1.09736 z m -18.357566,0.68818 -1.022965,0.61377 0.316189,0.50219 1.022965,-0.61378 -0.316189,-0.50218 z m -1.525147,0.92996 -1.004365,0.63238 0.297589,0.50218 1.022965,-0.63237 -0.316189,-0.50219 z m 20.552283,0.0372 -0.55798,0.22319 0.44639,1.09737 0.55798,-0.2046 -0.44639,-1.11596 z m 32.49308,0.1674 -1.11596,0.40918 0.20459,0.55798 1.11596,-0.40918 -0.20459,-0.55798 z m -78.284687,0.46498 -0.185994,0.55798 1.134561,0.37199 0.185993,-0.55798 -1.13456,-0.37199 z m 76.610737,0.1302 -1.13456,0.40918 0.2046,0.55798 1.11596,-0.39058 -0.186,-0.57658 z m -52.89656,0.13019 -1.004365,0.63238 0.316189,0.50218 1.004365,-0.61378 -0.316189,-0.52078 z m -22.021636,0.29759 -0.185994,0.55798 1.134561,0.37199 0.185993,-0.57658 -1.13456,-0.35339 z m 73.225656,0.18599 -1.11596,0.39059 0.20459,0.55798 1.11597,-0.39058 -0.2046,-0.55799 z m -28.45701,0.279 -0.55798,0.22319 0.44638,1.11596 0.55799,-0.22319 -0.44639,-1.11596 z m -43.057506,0.0744 -0.185993,0.57658 1.134561,0.37199 0.185993,-0.57658 -1.134561,-0.37199 z m 18.803948,0.1116 -1.022964,0.61378 0.316189,0.50218 1.004365,-0.61378 -0.29759,-0.50218 z m 51.036628,0.13019 -1.11596,0.39059 0.18599,0.57658 1.13456,-0.40919 -0.20459,-0.55798 z m -68.148034,0.31619 -0.185994,0.57658 1.134561,0.35339 0.185993,-0.55798 -1.13456,-0.37199 z m 66.455494,0.27899 -1.11596,0.40919 0.20459,0.55798 1.11596,-0.40919 -0.20459,-0.55798 z m -50.869235,0.2046 -1.022965,0.61378 0.316189,0.52078 1.022965,-0.63238 -0.316189,-0.50218 z m -13.893718,0.0744 -0.185994,0.55798 1.134561,0.37199 0.185994,-0.55798 -1.134561,-0.37199 z m 9.206681,0.31619 c -1.155616,0 -2.120535,0.82604 -2.343519,1.91574 l -0.0744,-0.0186 -0.185993,0.55801 0.241792,0.074 c 0.06907,1.2588 1.086085,2.2505 2.362118,2.2505 1.320703,0 2.399316,-1.06 2.399316,-2.3807 0,-1.32073 -1.078613,-2.39935 -2.399316,-2.39935 z m 53.882332,0 -1.11596,0.40919 0.20459,0.55798 1.11596,-0.39059 -0.20459,-0.57658 z m -22.76561,0.1488 -0.53938,0.22319 0.42778,1.11596 0.55798,-0.22319 -0.44638,-1.11596 z m -38.612262,0.093 -0.185994,0.55799 1.115961,0.37198 0.185994,-0.57658 -1.115961,-0.35339 z m 10.65743,0.29759 -1.022965,0.63238 0.316189,0.50218 1.022965,-0.61377 -0.316189,-0.52079 z m 49.046502,0.0744 -1.13456,0.39059 0.20459,0.55798 1.11596,-0.39059 -0.18599,-0.55798 z m -58.011391,0.1674 -0.185994,0.57658 1.134561,0.35338 0.185994,-0.55798 -1.134561,-0.37198 z m 51.594611,0.39058 c -1.04189,0 -1.89714,0.85528 -1.89714,1.89718 0,0.039 0.0162,0.073 0.0186,0.1116 l -1.02296,0.2046 0.1302,0.5951 1.00436,-0.2232 c 0.27713,0.6971 0.97109,1.1904 1.76694,1.1904 1.04189,0 1.87853,-0.8366 1.87853,-1.8785 0,-1.0419 -0.83664,-1.89718 -1.87853,-1.89718 z m 4.72423,0.0372 -1.11596,0.39059 0.2046,0.57659 1.11596,-0.4092 -0.2046,-0.55798 z m -54.6263,0.1302 -0.185993,0.55798 1.13456,0.372 0.185994,-0.558 -1.134561,-0.37198 z m 52.95236,0.46498 -1.13456,0.4092 0.2046,0.558 1.13456,-0.4092 -0.2046,-0.558 z m -17.05561,0.0186 -0.55798,0.2046 0.44639,1.116 0.55798,-0.2232 -0.44639,-1.0974 z m 0.66958,1.6553 -0.55798,0.2232 0.0744,0.186 c -0.83922,0.3793 -1.41355,1.214 -1.41355,2.1948 0,0.6676 0.26921,1.2735 0.70677,1.7111 l -0.093,0.093 0.44638,0.4092 0.1302,-0.1302 c 0.35926,0.2115 0.78048,0.3348 1.22755,0.3348 1.33538,0 2.41792,-1.0826 2.41792,-2.4179 0,-0.167 -0.0236,-0.3262 -0.0558,-0.4836 l 0.1116,-0.019 -0.1302,-0.5766 -0.16739,0.037 c -0.39197,-0.8064 -1.21924,-1.3764 -2.17613,-1.3764 -0.14791,0 -0.2872,0.03 -0.42778,0.056 l -0.093,-0.2417 z m 9.85766,0.037 -1.17176,0.2418 0.1302,0.5952 1.15316,-0.2604 -0.1116,-0.5766 z m -1.74834,0.372 -1.17176,0.2418 0.1302,0.5952 1.17176,-0.2604 -0.1302,-0.5766 z m -1.74834,0.372 -1.17176,0.2418 0.1302,0.5952 1.17176,-0.2604 -0.1302,-0.5766 z m -1.74834,0.372 -1.15316,0.2418 0.1116,0.5952 1.17176,-0.2604 -0.1302,-0.5766 z m -6.28658,3.7013 -0.81837,0.8741 0.44638,0.4092 0.79977,-0.8741 -0.42778,-0.4092 z m -1.20896,1.3205 -0.799771,0.8742 0.427781,0.4092 0.81838,-0.8928 -0.44639,-0.3906 z m -1.208956,1.3206 -0.799773,0.8742 0.446385,0.4091 0.799772,-0.8927 -0.446384,-0.3906 z m -1.208959,1.3205 -0.799772,0.8742 0.446385,0.3906 0.799772,-0.8742 -0.446385,-0.3906 z m -1.190358,1.3206 -0.799772,0.8742 0.427785,0.3905 0.799772,-0.8741 -0.427785,-0.3906 z m -1.208958,1.3019 -0.799773,0.8928 0.427786,0.3906 0.818371,-0.8742 -0.446384,-0.4092 z m -1.208958,1.3206 -0.799773,0.8928 0.446385,0.3906 0.799772,-0.8742 -0.446384,-0.4092 z m -1.190359,1.3205 -0.818372,0.8742 0.446385,0.4092 0.799772,-0.8742 -0.427785,-0.4092 z m -1.208958,1.3206 -0.799772,0.8742 0.427785,0.4092 0.799772,-0.8742 -0.427785,-0.4092 z m -1.208958,1.3206 -0.799772,0.8741 0.446384,0.4092 0.799772,-0.8742 -0.446384,-0.4091 z m -2.510913,0.4835 c -1.144607,0 -2.064528,0.92 -2.064528,2.0646 0,0.7541 0.402127,1.4229 1.004365,1.7855 l -0.520782,0.7998 0.502182,0.3348 0.59518,-0.9114 c 0.158169,0.039 0.31351,0.074 0.483583,0.074 1.144607,0 2.083128,-0.9385 2.083128,-2.0831 0,-1.1446 -0.938521,-2.0646 -2.083128,-2.0646 z m -1.915734,5.1521 -0.650977,1.0043 0.502183,0.3162 0.650977,-0.9858 -0.502183,-0.3347 z m -0.967166,1.5065 -0.650977,0.9858 0.502182,0.3348 0.650978,-1.0044 -0.502183,-0.3162 z m -0.985766,1.488 -0.650977,1.0043 0.502182,0.3162 0.650978,-0.9858 -0.502183,-0.3347 z m -0.967166,1.4879 -0.650978,1.0044 0.502183,0.3348 0.650977,-1.0044 -0.502182,-0.3348 z m -0.985766,1.5066 -0.632378,0.9857 0.483583,0.3348 0.650977,-1.0044 -0.502182,-0.3161 z m -0.967167,1.4879 -0.650977,1.0044 0.502183,0.3162 0.650977,-0.9858 -0.502183,-0.3348 z m -0.967166,1.5065 -0.650977,0.9858 0.483583,0.3348 0.650977,-1.0044 -0.483583,-0.3162 z m -0.985766,1.488 -0.650977,1.0044 0.502182,0.3162 0.650978,-0.9858 -0.502183,-0.3348 z m -0.967166,1.4879 -0.650978,1.0044 0.483584,0.3348 0.650977,-1.0044 -0.483583,-0.3348 z m -31.079522,1.3206 c -1.3060291,0 -2.3621181,1.0561 -2.3621181,2.3621 0,1.3061 1.056089,2.3621 2.3621181,2.3621 1.22476,0 2.2415,-0.9273 2.362118,-2.1203 l 0.464984,0.056 0.0744,-0.5952 -0.55798,-0.074 c -0.182903,-1.124 -1.167784,-1.9901 -2.343519,-1.9901 z m 30.093756,0.186 -0.650977,0.9858 0.502182,0.3347 0.650978,-1.0043 -0.502183,-0.3162 z m -2.752705,1.3577 c -1.759025,0 -3.193113,1.3635 -3.329284,3.0875 l -1.022965,-0.1302 -0.0744,0.5952 1.097362,0.1488 c 0.179822,1.6795 1.602107,2.9945 3.329284,2.9945 1.848986,0 3.347884,-1.4989 3.347884,-3.3479 0,-1.0549 -0.48372,-1.9902 -1.246156,-2.6039 l 0.185993,-0.279 -0.502182,-0.3348 -0.185994,0.279 c -0.474373,-0.2577 -1.021737,-0.4092 -1.599545,-0.4092 z m -23.862972,0.5952 -0.0558,0.5952 1.17176,0.1302 0.0744,-0.5766 -1.190359,-0.1488 z m 1.785538,0.2046 -0.0744,0.5952 1.171759,0.1488 0.0744,-0.5952 -1.17176,-0.1488 z m 1.766939,0.2232 -0.0744,0.5952 1.190358,0.1302 0.0558,-0.5766 -1.171759,-0.1488 z m 1.766939,0.2232 -0.0744,0.5766 1.190359,0.1488 0.0744,-0.5952 -1.190359,-0.1302 z m 1.785538,0.2046 -0.0744,0.5952 1.17176,0.1488 0.0744,-0.5952 -1.171759,-0.1488 z m 1.766939,0.2232 -0.0744,0.5952 1.190359,0.1302 0.0558,-0.5952 -1.171759,-0.1302 z m 1.766938,0.2046 -0.0744,0.5952 1.190359,0.1488 0.0744,-0.5952 -1.190359,-0.1488 z m 1.766939,0.2232 -0.0558,0.5952 1.171759,0.1301 0.0744,-0.5765 -1.190359,-0.1488 z m 1.785538,0.2046 -0.0744,0.5951 1.171759,0.1488 0.0744,-0.5951 -1.171759,-0.1488 z m 1.766939,0.2232 -0.0744,0.5951 1.190359,0.1488 0.0744,-0.5951 -1.190358,-0.1488 z m 1.766938,0.2232 -0.0744,0.5765 1.190359,0.1488 0.0744,-0.5952 -1.190359,-0.1301 z" id="path2997" inkscape:connector-curvature="0"/>
  </g>
</svg>