<svg xmlns="http://www.w3.org/2000/svg" xmlns:xlink="http://www.w3.org/1999/xlink" version="1.1" id="Calque_1" x="0px" y="0px" width="100px" height="100px" viewBox="0 0 100 100" enable-background="new 0 0 100 100" xml:space="preserve">
<path d="M75.437,30.234l-2.532-0.853c-2.021-0.548-6.535-0.832-6.535-0.832c6.189-4.427,22.767-7.592,27.279-1.425l0.082,0.115  c0.95,1.298,3.824-0.594,3.028-1.933c-9.915-16.665-41.285-2.149-48.293,1.866l-2.924,1.802c-2.907,1.852-5.975,4.872-5.975,4.872  c1.483-4.625,9.679-19.321,19.797-21.472l0.188-0.042c2.758-0.586,1.851-3.028,0.301-2.771c-20.267,1.024-33.306,24.7-35.753,37.875  l-0.362,2.658c-0.212,2.391,0.54,5.703,0.54,5.703c-5.519-1.636-13.088-11.729-7.48-20.048l0.104-0.155  c1.383-2.051-1.614-2.333-2.727-0.839c-14.759,15.953,0.381,31.213,12.532,36.006l2.566,0.863c2.535,0.853,6.518,0.828,6.518,0.828  c-4.623,3.308-22.767,7.59-27.277,1.424l-0.084-0.114c-0.95-1.298-3.768,0.563-3.027,1.933c9.023,16.693,39.385,4.507,48.274-1.854  l2.93-1.802c3.132-2.012,5.988-4.881,5.988-4.881c1.182,4.773-9.681,19.318-19.798,21.472l-0.186,0.04  c-2.757,0.586-1.851,3.028-0.3,2.771c20.265-1.023,33.304-24.698,35.751-37.873l0.361-2.658c0.377-3.079-0.537-5.703-0.537-5.703  c4.814-0.162,13.088,11.726,7.479,20.046l-0.105,0.153c-1.381,2.052,1.519,2.297,2.729,0.841  C102.502,48.773,87.551,33.618,75.437,30.234z"/>
</svg>