<svg xmlns:dc="http://purl.org/dc/elements/1.1/" xmlns:cc="http://creativecommons.org/ns#" xmlns:rdf="http://www.w3.org/1999/02/22-rdf-syntax-ns#" xmlns:svg="http://www.w3.org/2000/svg" xmlns="http://www.w3.org/2000/svg" xmlns:sodipodi="http://sodipodi.sourceforge.net/DTD/sodipodi-0.dtd" xmlns:inkscape="http://www.inkscape.org/namespaces/inkscape" width="100" height="100" id="svg2" version="1.1" inkscape:version="0.48.2 r9819" sodipodi:docname="New document 1">
  <defs id="defs4"/>
  <sodipodi:namedview id="base" pagecolor="#ffffff" bordercolor="#666666" borderopacity="1.0" inkscape:pageopacity="0.0" inkscape:pageshadow="2" inkscape:zoom="6.24" inkscape:cx="50" inkscape:cy="50" inkscape:document-units="px" inkscape:current-layer="layer2" showgrid="false" inkscape:window-width="1385" inkscape:window-height="814" inkscape:window-x="36" inkscape:window-y="15" inkscape:window-maximized="0"/>
  <metadata id="metadata7">
    <rdf:RDF>
      <cc:Work rdf:about="">
        <dc:format>image/svg+xml</dc:format>
        <dc:type rdf:resource="http://purl.org/dc/dcmitype/StillImage"/>
        <dc:title/>
      </cc:Work>
    </rdf:RDF>
  </metadata>
  <g inkscape:groupmode="layer" id="layer2" inkscape:label="Layer" transform="translate(0,-952.36218)">
    <path style="font-size:medium;font-style:normal;font-variant:normal;font-weight:normal;font-stretch:normal;text-indent:0;text-align:start;text-decoration:none;line-height:normal;letter-spacing:normal;word-spacing:normal;text-transform:none;direction:ltr;block-progression:tb;writing-mode:lr-tb;text-anchor:start;baseline-shift:baseline;color:#000000;fill:#000000;fill-opacity:1;stroke:none;stroke-width:1;marker:none;visibility:visible;display:inline;overflow:visible;enable-background:accumulate;font-family:Sans;-inkscape-font-specification:Sans" d="m 43.457718,953.69072 c -1.04134,0 -1.88552,0.84418 -1.88552,1.88552 0,1.04135 0.84418,1.88552 1.88552,1.88552 0.0384,0 0.08,-0.01 0.11784,-0.0118 l 0.0118,0.0943 0.3771,-0.0354 -0.0118,-0.11784 c 0.79865,-0.21912 1.39057,-0.9466 1.39057,-1.81482 0,-1.04134 -0.84418,-1.88552 -1.88552,-1.88552 z m 0.54209,4.19529 -0.37711,0.0353 0.0825,0.75421 0.37711,-0.0471 -0.0825,-0.74242 z m 0.11784,1.11952 -0.36532,0.0354 0.0707,0.75421 0.3771,-0.0354 -0.0825,-0.75421 z m 0.12963,1.11953 -0.3771,0.0471 0.0825,0.74243 0.36532,-0.0354 -0.0707,-0.75421 z m 0.11785,1.13132 -0.37711,0.0353 0.0825,0.75421 0.37711,-0.0353 -0.0825,-0.75421 z m 27.56397,0.29461 c -0.95079,0.0966 -1.68519,0.90926 -1.68519,1.88552 0,1.04135 0.84418,1.88552 1.88553,1.88552 1.04134,0 1.88552,-0.84417 1.88552,-1.88552 0,-1.04134 -0.84418,-1.88552 -1.88552,-1.88552 -0.0651,0 -0.13695,-0.006 -0.20034,0 z m -27.44613,0.82492 -0.3771,0.0471 0.0825,0.74243 0.3771,-0.0354 -0.0825,-0.7542 z m 0.11785,1.13131 -0.37711,0.0354 0.0825,0.75421 0.37711,-0.0471 -0.0825,-0.74242 z m 0.11784,1.11953 -0.36532,0.0471 0.0707,0.74243 0.3771,-0.0354 -0.0825,-0.75421 z m 26.43266,0.76599 -0.28283,0.70707 0.34175,0.14142 0.29462,-0.70708 -0.35354,-0.14141 z m -26.30303,0.36532 -0.3771,0.0353 0.0825,0.75421 0.3771,-0.0471 -0.0825,-0.74242 z m 25.87879,0.6835 -0.28283,0.69529 0.34175,0.1532 0.28283,-0.70707 -0.34175,-0.14142 z m -25.76094,0.43603 -0.37711,0.0471 0.0825,0.74242 0.37711,-0.0353 -0.0825,-0.75421 z m 25.32491,0.61279 -0.28283,0.69529 0.35354,0.14141 0.28283,-0.69528 -0.35354,-0.14142 z m -25.20707,0.51852 -0.3771,0.0354 0.0825,0.7542 0.3771,-0.0471 -0.0825,-0.74243 z m 24.78283,0.5303 -0.28283,0.69529 0.35354,0.14142 0.28282,-0.69529 -0.35353,-0.14142 z m -24.66498,0.58923 -0.36532,0.0353 0.0707,0.75421 0.37711,-0.0353 -0.0825,-0.75421 z m 24.24074,0.4596 -0.28283,0.69528 0.35353,0.14142 0.28283,-0.69529 -0.35353,-0.14141 z m -24.11111,0.67171 -0.37711,0.0354 0.0825,0.75421 0.36532,-0.0471 -0.0707,-0.74243 z m 23.68686,0.37711 -0.28282,0.69528 0.35353,0.14142 0.28283,-0.69529 -0.35354,-0.14141 z m -23.56902,0.74242 -0.3771,0.0354 0.0825,0.7542 0.3771,-0.0353 -0.0825,-0.75421 z m 23.14478,0.3064 -0.28283,0.69529 0.35354,0.14141 0.28283,-0.69529 -0.35354,-0.14141 z m -23.02693,0.81313 -0.37711,0.0471 0.0825,0.74242 0.37711,-0.0354 -0.0825,-0.75421 z m 22.60269,0.23569 -0.16498,0.41246 -0.11785,0.28283 0.35354,0.14141 0.10606,-0.28283 0.17677,-0.41245 -0.35354,-0.14142 z m -22.48485,0.89562 -0.3771,0.0354 0.0825,0.75421 0.3771,-0.0354 -0.0825,-0.75421 z m 22.06061,0.1532 -0.28283,0.69529 0.35353,0.14141 0.28283,-0.69528 -0.35353,-0.14142 z m -41.13973,0.95455 c -1.04135,0 -1.88553,0.84418 -1.88553,1.88552 0,1.04134 0.84418,1.88552 1.88553,1.88552 1.04134,0 1.88552,-0.84418 1.88552,-1.88552 0,-1.04134 -0.84418,-1.88552 -1.88552,-1.88552 z m 19.19697,0.0118 -0.36532,0.0471 0.0707,0.74242 0.37711,-0.0353 -0.0825,-0.75421 z m 21.51851,0.0825 -0.27104,0.70707 0.34175,0.12963 0.28283,-0.69528 -0.35354,-0.14142 z m -21.38888,1.04883 -0.37711,0.0354 0.0825,0.75421 0.36532,-0.0471 -0.0707,-0.74242 z m 20.97643,0 -0.28283,0.70707 0.35353,0.14141 0.27105,-0.70707 -0.34175,-0.14141 z m -0.42425,1.04882 -0.28282,0.70707 0.35353,0.14141 0.28283,-0.70707 -0.35354,-0.14141 z m -20.43434,0.0707 -0.3771,0.0471 0.0825,0.74243 0.3771,-0.0354 -0.0825,-0.75421 z m -17.48821,0.58923 -0.21213,0.3064 0.60101,0.43602 0.22391,-0.30639 -0.61279,-0.43603 z m 37.49831,0.38889 -0.28283,0.70707 0.35354,0.14141 0.28283,-0.70707 -0.35354,-0.14141 z m -19.89225,0.1532 -0.37711,0.0353 0.0825,0.75421 0.37711,-0.0471 -0.0825,-0.74242 z m -16.68687,0.11784 -0.22391,0.3064 0.6128,0.44781 0.2239,-0.3064 -0.61279,-0.44781 z m 0.91919,0.65994 -0.22391,0.30639 0.6128,0.44781 0.2239,-0.30639 -0.61279,-0.44781 z m 35.23569,0.12962 -0.27104,0.69529 0.35353,0.14142 0.27105,-0.70708 -0.35354,-0.12963 z m -19.35017,0.21213 -0.3771,0.0471 0.0825,0.74243 0.3771,-0.0354 -0.0825,-0.7542 z m -14.97811,0.32996 -0.21212,0.3064 0.61279,0.43603 0.21212,-0.3064 -0.61279,-0.43603 z m 33.91582,0.50674 -0.28283,0.69528 0.35354,0.14142 0.28283,-0.69529 -0.35354,-0.14141 z m -32.99663,0.1532 -0.22391,0.30639 0.6128,0.44781 0.2239,-0.30639 -0.61279,-0.44781 z m 14.17677,0.14141 -0.36532,0.0353 0.0707,0.75421 0.37711,-0.0471 -0.0825,-0.74242 z m -13.25758,0.51852 -0.2239,0.3064 0.61279,0.44781 0.22391,-0.3064 -0.6128,-0.44781 z m 31.66498,0.23569 -0.28282,0.70707 0.35353,0.12963 0.27104,-0.69529 -0.34175,-0.14141 z m -18.27777,0.36532 -0.37711,0.0353 0.0825,0.75421 0.36532,-0.0353 -0.0707,-0.75421 z m -12.46802,0.0707 -0.2239,0.3064 0.61279,0.43603 0.22391,-0.3064 -0.6128,-0.43603 z m 30.32155,0.6128 -0.27104,0.70707 0.34175,0.14141 0.28283,-0.70707 -0.35354,-0.14141 z m -29.41414,0.0471 -0.21212,0.30639 0.60101,0.44782 0.2239,-0.3064 -0.61279,-0.44781 z m 11.67845,0.40067 -0.3771,0.0353 0.0825,0.75421 0.3771,-0.0471 -0.0825,-0.74243 z m -10.75926,0.25926 -0.2239,0.3064 0.61279,0.44781 0.22391,-0.3064 -0.6128,-0.44781 z m 28.08249,0.35354 -0.28282,0.69528 0.35353,0.14142 0.28283,-0.70707 -0.35354,-0.12963 z m -27.1633,0.31818 -0.2239,0.30639 0.61279,0.43603 0.22391,-0.3064 -0.6128,-0.43602 z m 9.95792,0.18855 -0.37711,0.0353 0.0825,0.75421 0.37711,-0.0353 -0.0825,-0.75421 z m -9.03872,0.47138 -0.22391,0.3064 0.61279,0.44781 0.21213,-0.3064 -0.60101,-0.44781 z m 25.83165,0.0707 -0.14142,0.34175 -0.14141,0.36532 0.35353,0.12963 0.14142,-0.36532 0.12963,-0.32997 -0.34175,-0.14141 z m -45.72391,0.43604 c -1.04134,0 -1.88552,0.84418 -1.88552,1.88553 0,1.04134 0.84418,1.88552 1.88552,1.88552 0.93156,0 1.70916,-0.66762 1.86195,-1.55556 l 0.18856,0.0236 0.0589,-0.3771 -0.22391,-0.0354 c -0.0321,-1.01321 -0.86451,-1.8266 -1.88552,-1.8266 z m 29.04882,0.14142 -0.3771,0.0471 0.0825,0.74242 0.3771,-0.0353 -0.0825,-0.75421 z m -8.24916,0.0118 -0.21212,0.3064 0.60101,0.44781 0.22391,-0.3064 -0.6128,-0.44781 z m 24.51179,0.4596 -0.28283,0.70707 0.35353,0.14141 0.27105,-0.70707 -0.34175,-0.14141 z m -23.59259,0.21212 -0.22391,0.3064 0.61279,0.43602 0.22391,-0.30639 -0.61279,-0.43603 z m 7.44781,0.44781 -0.36532,0.0353 0.0707,0.75421 0.37711,-0.0353 -0.0825,-0.75421 z m -6.52862,0.21212 -0.22391,0.3064 0.6128,0.44781 0.2239,-0.3064 -0.61279,-0.44781 z m 22.26094,0.18855 -0.27104,0.70708 0.35353,0.12963 0.27105,-0.70708 -0.35354,-0.12963 z m -42.42424,0.24748 -0.0471,0.3771 0.74242,0.10606 0.0589,-0.3771 -0.75421,-0.10606 z m 1.11953,0.16498 -0.0471,0.37711 0.74242,0.10606 0.0589,-0.37711 -0.7542,-0.10606 z m 19.96296,0.0589 -0.22391,0.30639 0.6128,0.44781 0.21212,-0.30639 -0.60101,-0.44781 z m -18.84344,0.10606 -0.0471,0.3771 0.74242,0.10606 0.0589,-0.36532 -0.75421,-0.11784 z m 24.5825,0.14141 -0.37711,0.0471 0.0825,0.74242 0.36532,-0.0353 -0.0707,-0.75421 z m -23.46297,0.0236 -0.0471,0.3771 0.74242,0.10606 0.0589,-0.36532 -0.75421,-0.11784 z m 1.11953,0.16498 -0.0471,0.37711 0.74243,0.10606 0.0589,-0.36532 -0.75421,-0.11785 z m 37.53367,0.14142 -0.27104,0.70707 0.35353,0.14141 0.27105,-0.70707 -0.35354,-0.14141 z m -36.41414,0.0236 -0.0471,0.3771 0.74243,0.10606 0.0589,-0.36532 -0.75421,-0.11784 z m 16.39226,0.0707 -0.22391,0.3064 0.6128,0.43603 0.2239,-0.3064 -0.61279,-0.43603 z m -15.27273,0.10606 -0.0589,0.36532 0.75421,0.11785 0.0471,-0.37711 -0.74242,-0.10606 z m 59.8064,0.0825 c -1.04135,0 -1.88553,0.84418 -1.88553,1.88553 0,0.10563 0.007,0.20549 0.0236,0.30639 l -0.0471,0.0118 0.0707,0.36532 0.0825,-0.0118 c 0.27176,0.70746 0.95276,1.21381 1.7559,1.21381 1.04134,0 1.88552,-0.84418 1.88552,-1.88552 0,-1.04135 -0.84418,-1.88553 -1.88552,-1.88553 z m -58.68687,0.0825 -0.0589,0.36532 0.7542,0.11784 0.0471,-0.3771 -0.74242,-0.10606 z m 1.11953,0.16498 -0.0589,0.36532 0.75421,0.11784 0.0471,-0.3771 -0.74242,-0.10606 z m 1.11953,0.16498 -0.0589,0.36532 0.75421,0.11785 0.0471,-0.37711 -0.74242,-0.10606 z m 12.83333,0.0589 -0.22391,0.30639 0.6128,0.44781 0.2239,-0.30639 -0.61279,-0.44781 z m 4.0303,0.0471 -0.3771,0.0354 0.0707,0.63636 c -0.0201,-6.3e-4 -0.0387,0 -0.0589,0 -0.64481,0 -1.21555,0.31939 -1.55555,0.81313 l -0.28283,-0.20034 -0.21212,0.3064 0.31818,0.22391 c -0.0352,0.0819 -0.0591,0.17181 -0.0825,0.25926 l -0.12963,-0.0236 -0.0589,0.3771 0.12963,0.0236 c -0.002,0.0362 -0.0118,0.0693 -0.0118,0.10606 0,1.04135 0.84418,1.88552 1.88552,1.88552 0.0936,0 0.18108,-0.0104 0.27105,-0.0236 0.67698,-0.0992 1.24194,-0.56013 1.48484,-1.17845 l 0.62458,0.23569 0.14142,-0.35353 -0.65994,-0.24748 c 0.018,-0.10451 0.0236,-0.20853 0.0236,-0.31818 0,-0.8849 -0.61555,-1.62347 -1.43771,-1.8266 l -0.0825,-0.73064 z m -0.0943,4.41919 -0.10607,0.75421 0.37711,0.0471 0.0943,-0.74242 -0.36532,-0.0589 z m -15.64984,-4.36026 -0.0589,0.3771 0.75421,0.10606 0.0471,-0.3771 -0.74243,-0.10606 z m 1.11953,0.16498 -0.0589,0.3771 0.75421,0.10606 0.0471,-0.3771 -0.74243,-0.10606 z m 29.2963,0.0354 -0.27105,0.70707 0.34176,0.12963 0.27104,-0.69528 -0.34175,-0.14142 z m -28.17677,0.12963 -0.0589,0.37711 0.75421,0.10606 0.0471,-0.37711 -0.74243,-0.10606 z m 1.11953,0.16499 -0.0589,0.3771 0.75421,0.10606 0.0471,-0.36532 -0.74242,-0.11784 z m 9.27441,0.0589 -0.22391,0.30639 0.6128,0.44782 0.2239,-0.3064 -0.61279,-0.44781 z m -8.15488,0.10606 -0.0589,0.3771 0.74242,0.10606 0.0589,-0.36532 -0.74242,-0.11784 z m 1.11953,0.16498 -0.0589,0.37711 0.74243,0.10606 0.0589,-0.36532 -0.74242,-0.11785 z m 1.11953,0.16498 -0.0589,0.37711 0.74243,0.10606 0.0589,-0.36532 -0.74242,-0.11785 z m 1.11952,0.17677 -0.0589,0.36532 0.74243,0.11785 0.0589,-0.37711 -0.74243,-0.10606 z m 22.16667,0.0943 -0.0707,0.17677 -0.20033,0.5303 0.35353,0.12963 0.20034,-0.5303 0.0707,-0.17677 -0.35354,-0.12963 z m -21.04714,0.0707 -0.0589,0.36532 0.74242,0.11784 0.0589,-0.3771 -0.74243,-0.10606 z m 1.11953,0.16498 -0.0589,0.36532 0.74242,0.11784 0.0589,-0.3771 -0.74243,-0.10606 z m 1.11953,0.16498 -0.0589,0.36532 0.74242,0.11785 0.0589,-0.37711 -0.74242,-0.10606 z m 41.8468,0.0354 -0.73064,0.15319 0.0707,0.36532 0.74242,-0.15319 -0.0825,-0.36532 z m -40.72727,0.12962 -0.0589,0.37711 0.74242,0.10606 0.0589,-0.3771 -0.74242,-0.10607 z m 39.61953,0.0943 -0.73064,0.1532 0.0707,0.36532 0.74243,-0.14141 -0.0825,-0.37711 z m -1.10775,0.23569 -0.73064,0.14142 0.0707,0.3771 0.74242,-0.1532 -0.0825,-0.36532 z m -21.2239,0.16498 -0.25926,0.69529 0.35353,0.14141 0.25926,-0.70707 -0.35353,-0.12963 z m 20.11616,0.0589 -0.73064,0.1532 0.0707,0.36532 0.74242,-0.1532 -0.0825,-0.36532 z m -1.10775,0.2239 -0.73063,0.1532 0.0707,0.36532 0.74243,-0.1532 -0.0825,-0.36532 z m -1.10774,0.22391 -0.74242,0.1532 0.0825,0.36532 0.74242,-0.14142 -0.0825,-0.3771 z m -1.10774,0.2239 -0.74243,0.1532 0.0825,0.37711 0.74243,-0.1532 -0.0825,-0.37711 z m -28.1532,0.1532 -0.12963,0.35354 0.70707,0.25926 0.12963,-0.34175 -0.70707,-0.27105 z m 27.04545,0.0825 -0.74242,0.14142 0.0825,0.3771 0.73064,-0.1532 -0.0707,-0.36532 z m -16.07407,0.0825 -0.0589,0.15319 0,0.0118 -0.20034,0.55387 0.35353,0.12963 0.20034,-0.55387 0,-0.0118 0.0471,-0.14141 -0.34175,-0.14141 z m 14.96633,0.14141 -0.74243,0.1532 0.0825,0.36532 0.73064,-0.1532 -0.0707,-0.36532 z m -24.87711,0.0943 -0.12963,0.35353 0.70708,0.27105 0.12962,-0.35354 -0.70707,-0.27104 z m 23.76936,0.12963 -0.74242,0.15319 0.0825,0.36532 0.73064,-0.15319 -0.0707,-0.36532 z m -1.10774,0.2239 -0.74242,0.1532 0.0825,0.36532 0.73064,-0.14141 -0.0707,-0.37711 z m -21.60101,0.0471 -0.14141,0.35353 0.70707,0.27105 0.14141,-0.35354 -0.70707,-0.27104 z m 20.49327,0.17677 -0.74243,0.1532 0.0825,0.3771 0.73064,-0.1532 -0.0707,-0.3771 z m -19.43266,0.2239 -0.14142,0.35354 0.70707,0.27104 0.12963,-0.35353 -0.69528,-0.27105 z m 18.32491,0.0118 -0.74242,0.14141 0.0707,0.37711 0.74243,-0.1532 -0.0707,-0.36532 z m -10.92424,0.0236 -0.25926,0.70707 0.21212,0.0825 0.1532,0.0471 0.24747,-0.70707 -0.35353,-0.12963 z m -0.0471,0.78956 c -0.22558,-0.0954 -0.4703,-0.14142 -0.73064,-0.14142 -0.79414,0 -1.47805,0.48351 -1.75589,1.17846 l -0.64815,-0.24748 -0.12963,0.35354 0.67172,0.25926 c -0.0193,0.1081 -0.0236,0.2281 -0.0236,0.34175 0,1.04133 0.84418,1.88553 1.88552,1.88553 1.04135,0 1.88552,-0.8442 1.88552,-1.88553 0,-0.78101 -0.47813,-1.45787 -1.15488,-1.74411 z m 9.86364,-0.58923 -0.74243,0.1532 0.0707,0.36532 0.74242,-0.1532 -0.0707,-0.36532 z m -16.16835,0.16499 -0.12963,0.35353 0.70707,0.27105 0.12963,-0.35354 -0.70707,-0.27104 z m 15.0606,0.0589 -0.74242,0.1532 0.0707,0.36532 0.74242,-0.1532 -0.0707,-0.36532 z m -1.10774,0.2239 -0.74242,0.1532 0.0707,0.36532 0.74243,-0.14141 -0.0707,-0.37711 z m -12.89226,0.12963 -0.12963,0.35354 0.69529,0.25926 0.14141,-0.35354 -0.70707,-0.25926 z m 11.78452,0.0943 -0.74243,0.1532 0.0707,0.3771 0.74242,-0.1532 -0.0707,-0.3771 z m -19.82155,0.17677 -0.0943,0.74242 0.3771,0.0471 0.0943,-0.74242 -0.3771,-0.0471 z m 18.70202,0.0589 -0.73064,0.14141 0.0707,0.37711 0.74243,-0.1532 -0.0825,-0.36532 z m -9.60438,0.0707 -0.14141,0.35353 0.70707,0.25926 0.14141,-0.34175 -0.70707,-0.27104 z m 8.49663,0.1532 -0.73064,0.1532 0.0707,0.36531 0.74242,-0.15319 -0.0825,-0.36532 z m -1.10774,0.2239 -0.73064,0.1532 0.0707,0.36532 0.74242,-0.1532 -0.0825,-0.36532 z m -1.10775,0.22391 -0.73064,0.1532 0.0707,0.36532 0.74243,-0.14142 -0.0825,-0.3771 z m -15.5202,0.38889 -0.0943,0.74242 0.36532,0.0471 0.10606,-0.74239 -0.37711,-0.0471 z m -0.14141,1.11948 -0.10606,0.7425 0.3771,0.059 0.0943,-0.7542 -0.36532,-0.047 z m -0.1532,1.1196 -0.0943,0.7542 0.37711,0.047 0.0943,-0.7542 -0.3771,-0.047 z m 13.39899,0.1296 -0.3771,0.035 0.0825,0.7542 0.3771,-0.047 -0.0825,-0.7424 z m -13.5404,0.9899 -0.0943,0.7542 0.36532,0.047 0.10606,-0.7424 -0.3771,-0.059 z m 13.67003,0.1296 -0.37711,0.047 0.0825,0.7424 0.3771,-0.035 -0.0825,-0.7542 z m -13.81145,1.0017 -0.10606,0.74242 0.37711,0.047 0.0943,-0.74242 -0.36532,-0.047 z m 13.92929,0.1296 -0.3771,0.035 0.0825,0.75432 0.37711,-0.047 -0.0825,-0.74252 z m -14.08249,0.98992 -0.0943,0.7425 0.3771,0.047 0.0943,-0.7425 -0.37711,-0.047 z m 14.21212,0.1297 -0.3771,0.047 0.0825,0.7424 0.37711,-0.035 -0.0825,-0.7542 z m -14.35353,0.9899 -0.0943,0.7542 0.36532,0.047 0.10606,-0.7542 -0.3771,-0.047 z m 14.47138,0.1414 -0.36532,0.035 0.0825,0.7542 0.36532,-0.047 -0.0825,-0.7424 z m -14.6128,0.9781 -0.10606,0.7542 0.37711,0.047 0.0943,-0.7542 -0.36532,-0.047 z m 14.74243,0.1414 -0.37711,0.035 0.0825,0.7542 0.3771,-0.035 -0.0825,-0.7542 z m -14.89562,0.9781 -0.0825,0.7071 c -0.0362,0 -0.0693,-0.012 -0.10606,-0.012 -1.04134,0 -1.88552,0.8442 -1.88552,1.8855 0,0.3965 0.12088,0.7688 0.32997,1.0724 l -0.3064,0.1178 0.12963,0.3536 0.4596,-0.165 c 0.0164,0.015 0.0302,0.033 0.0471,0.047 l -0.12963,0.1061 0.17677,0.2121 -0.0118,0.024 0.32996,0.1885 0.11785,-0.2121 c 0.22808,0.098 0.47848,0.1414 0.74242,0.1414 0.78101,0 1.44609,-0.4663 1.73233,-1.1431 l 0.34175,0 -0.0118,-0.3771 -0.21212,0 c 0.0235,-0.119 0.0354,-0.2394 0.0354,-0.3653 0,-0.876 -0.6045,-1.603 -1.41415,-1.8148 l 0.0943,-0.7071 -0.3771,-0.059 z m 15.02525,0.1414 -0.37711,0.047 0.0825,0.7542 0.3771,-0.047 -0.0825,-0.7542 z m 0.25926,0.8367 c -1.04135,0 -1.88552,0.8442 -1.88552,1.8856 0,1.0413 0.84417,1.8855 1.88552,1.8855 0.0692,0 0.1448,0.01 0.21212,0 l 0.24747,0.6128 0.35354,-0.1532 -0.23569,-0.5539 c 0.66385,-0.216 1.17242,-0.7805 1.28451,-1.4848 l 0.24748,0.035 0.0471,-0.3772 -0.27104,-0.035 c -0.0382,-1.0077 -0.86849,-1.8148 -1.88552,-1.8148 z m -2.09765,1.6852 -0.7542,0.024 0.0118,0.3771 0.75421,-0.024 -0.0118,-0.3771 z m -1.13131,0.024 -0.75421,0.024 0.0118,0.3771 0.75421,-0.024 -0.0118,-0.3771 z m -1.13131,0.035 -0.75421,0.012 0.0118,0.3771 0.75421,-0.012 -0.0118,-0.3771 z m -1.13131,0.024 -0.75421,0.024 0.0118,0.3771 0.75421,-0.024 -0.0118,-0.3771 z m -1.13132,0.035 -0.75421,0.012 0.0118,0.3771 0.75421,-0.012 -0.0118,-0.3771 z m -1.13131,0.024 -0.75421,0.012 0.0118,0.3771 0.75421,-0.012 -0.0118,-0.3771 z m -1.13131,0.024 -0.75421,0.024 0.0118,0.3771 0.75421,-0.024 -0.0118,-0.3771 z m -1.13132,0.035 -0.75421,0.012 0.0118,0.3771 0.75421,-0.012 -0.0118,-0.3771 z m 12.55051,0 -0.0471,0.3771 0.75421,0.094 0.0353,-0.3771 -0.74242,-0.094 z m -13.68182,0.024 -0.75421,0.024 0.0118,0.3771 0.7542,-0.024 -0.0118,-0.3771 z m 31.67677,0 c -1.02914,0 -1.86606,0.8257 -1.88552,1.8502 l -0.37711,-0.047 -0.0471,0.3653 0.44781,0.059 c 0.16187,0.8769 0.93826,1.5438 1.86196,1.5438 1.04134,0 1.88552,-0.8442 1.88552,-1.8855 0,-1.0414 -0.84418,-1.8856 -1.88552,-1.8856 z m -32.80808,0.024 -0.75421,0.024 0.0118,0.3771 0.75421,-0.024 -0.0118,-0.3771 z m 15.93266,0.083 -0.0471,0.3771 0.75421,0.094 0.0471,-0.3771 -0.75421,-0.094 z m 1.11952,0.1297 -0.0353,0.3771 0.74243,0.094 0.0471,-0.3772 -0.75421,-0.094 z m 1.13132,0.1296 -0.0471,0.3771 0.75421,0.094 0.0353,-0.3771 -0.74242,-0.094 z m 1.11953,0.1414 -0.0471,0.3653 0.75421,0.094 0.0471,-0.3771 -0.75421,-0.082 z m 1.11953,0.1296 -0.0354,0.3653 0.74243,0.094 0.0471,-0.3771 -0.7542,-0.083 z m 1.13131,0.1297 -0.0471,0.3653 0.75421,0.094 0.0353,-0.3771 -0.74242,-0.082 z m 1.11953,0.1296 -0.0354,0.3653 0.74243,0.094 0.0471,-0.3771 -0.75421,-0.082 z m -28.08249,0.1178 -0.70708,0.2593 0.12963,0.3535 0.70708,-0.2592 -0.12963,-0.3536 z m 29.2138,0.012 -0.0471,0.3653 0.75421,0.094 0.0354,-0.3771 -0.74242,-0.082 z m 1.11953,0.1297 -0.0471,0.3653 0.75421,0.094 0.0471,-0.3771 -0.75421,-0.083 z m 1.11953,0.1296 -0.0354,0.3653 0.74243,0.094 0.0471,-0.3771 -0.75421,-0.082 z m -32.51347,0.1178 -0.70707,0.2593 0.12963,0.3535 0.70707,-0.2592 -0.12963,-0.3536 z m 33.64478,0.012 -0.0471,0.3653 0.75421,0.094 0.0353,-0.3771 -0.74242,-0.082 z m -32.00673,0.059 -0.56566,0.495 0.24747,0.2828 0.56566,-0.4949 -0.24747,-0.2829 z m 33.12626,0.071 -0.0471,0.3653 0.75421,0.094 0.0471,-0.3771 -0.75421,-0.082 z m 1.11953,0.1297 -0.0354,0.3653 0.74243,0.094 0.0471,-0.3771 -0.75421,-0.083 z m -36.94445,0.1178 -0.70707,0.2593 0.12963,0.3535 0.70707,-0.2593 -0.12963,-0.3535 z m 2.95792,0 -0.36532,0.6599 0.32996,0.1886 0.36532,-0.66 -0.32996,-0.1885 z m -4.01852,0.3889 -0.70707,0.2592 0.12963,0.3536 0.70707,-0.2593 -0.12963,-0.3535 z m 2.91077,0.035 -0.57744,0.4949 0.24748,0.2829 0.57744,-0.495 -0.24748,-0.2828 z m -3.97138,0.3535 -0.70707,0.2593 0.12963,0.3535 0.70707,-0.2592 -0.12963,-0.3536 z m 22.88552,0.1061 -0.35353,0.1414 0.29461,0.6953 0.34175,-0.1414 -0.28283,-0.6953 z m -18.34848,0.106 -0.36532,0.66 0.32996,0.1885 0.36532,-0.6599 -0.32996,-0.1886 z m -5.60943,0.1768 -0.70707,0.2593 0.12963,0.3653 0.71885,-0.2711 -0.14141,-0.3535 z m 4.1835,0 -0.56565,0.495 0.24747,0.2828 0.56566,-0.495 -0.24748,-0.2828 z m -5.24411,0.3889 -0.70707,0.271 0.12963,0.3536 0.70707,-0.2593 -0.12963,-0.3653 z m 4.39563,0.3535 -0.57744,0.495 0.24747,0.2828 0.57744,-0.4949 -0.24747,-0.2829 z m 21.05892,0.024 -0.35354,0.1415 0.28283,0.6952 0.35354,-0.1414 -0.28283,-0.6953 z m -26.51515,0.024 -0.70707,0.2593 0.12963,0.3535 0.70707,-0.2592 -0.12963,-0.3536 z m 7.17677,0.024 -0.36532,0.66 0.32996,0.1885 0.36532,-0.6599 -0.32996,-0.1886 z m -8.23738,0.3654 -0.70707,0.2592 0.12963,0.3535 0.70707,-0.2592 -0.12963,-0.3535 z m 5.65657,0.3064 -0.56566,0.4949 0.24748,0.2828 0.56565,-0.4949 -0.24747,-0.2828 z m -6.71717,0.082 -0.70707,0.2592 0.12963,0.3535 0.70707,-0.2592 -0.12963,-0.3535 z m 8.75589,0.2356 -0.37711,0.66 0.32997,0.1885 0.3771,-0.6599 -0.32996,-0.1886 z m 20.30471,0 -0.34175,0.1532 0.28283,0.6953 0.35354,-0.1414 -0.29462,-0.7071 z m -30.12121,0.1532 -0.70707,0.2593 0.12963,0.3535 0.70707,-0.2592 -0.12963,-0.3536 z m 6.92929,0.2711 -0.56565,0.4949 0.24747,0.2829 0.56566,-0.495 -0.24748,-0.2828 z m -7.9899,0.1178 -0.70707,0.2593 0.12963,0.3535 0.70707,-0.2592 -0.12963,-0.3536 z m -1.0606,0.3889 -0.71886,0.2593 0.12963,0.3535 0.71886,-0.2592 -0.12963,-0.3536 z m 11.38384,0.059 -0.36532,0.6599 0.32996,0.1768 0.36532,-0.6481 -0.32996,-0.1886 z m 21.29461,0.059 -0.35354,0.1414 0.29462,0.6953 0.34175,-0.1414 -0.28283,-0.6953 z m -24.48822,0.1179 -0.56565,0.4949 0.24747,0.2828 0.56566,-0.4949 -0.24748,-0.2828 z m -9.26262,0.1532 -0.70707,0.2592 0.12963,0.3536 0.70707,-0.2593 -0.12963,-0.3535 z m -1.06061,0.3888 -0.70707,0.2593 0.12963,0.3535 0.70707,-0.2592 -0.12963,-0.3536 z m 9.47475,0.2004 -0.56566,0.4949 0.24748,0.2829 0.56565,-0.495 -0.24747,-0.2828 z m 3.48821,0.071 -0.36532,0.6599 0.32997,0.1768 0.36532,-0.66 -0.32997,-0.1767 z m -14.02356,0.1178 -0.70708,0.2593 0.12963,0.3535 0.70708,-0.2592 -0.12963,-0.3536 z m 36.29629,0 -0.34175,0.1414 0.28283,0.6953 0.35353,-0.1414 -0.29461,-0.6953 z m -37.3569,0.3889 -0.70707,0.2593 0.12963,0.3535 0.70707,-0.2592 -0.12963,-0.3536 z m 10.74747,0.165 -0.57744,0.4949 0.24748,0.2829 0.57744,-0.495 -0.24748,-0.2828 z m -11.80808,0.2239 -0.70707,0.2593 0.12963,0.3535 0.70707,-0.2593 -0.12963,-0.3535 z m 15.6027,0.094 -0.36532,0.6599 0.32996,0.1768 0.36532,-0.6599 -0.32996,-0.1768 z m 23.25084,0.1768 -0.34175,0.1414 0.28283,0.6953 0.35353,-0.1414 -0.29461,-0.6953 z m -39.91414,0.1178 -0.70707,0.2593 0.12963,0.3535 0.70707,-0.2593 -0.12963,-0.3535 z m 12.00841,0.1296 -0.56565,0.495 0.24747,0.2828 0.56566,-0.4949 -0.24748,-0.2829 z m -13.06902,0.2593 -0.71885,0.2593 0.12963,0.3535 0.71885,-0.2593 -0.12963,-0.3535 z m 17.17003,0.3064 -0.36531,0.6599 0.32996,0.1768 0.36532,-0.6599 -0.32997,-0.1768 z m -18.24242,0.083 -0.70707,0.2593 0.12963,0.3535 0.70707,-0.2593 -0.12963,-0.3535 z m 13.29293,0.094 -0.57744,0.4949 0.24747,0.2829 0.57744,-0.495 -0.24747,-0.2828 z m 29.19024,0.047 -0.35354,0.1532 0.29461,0.6953 0.34175,-0.1532 -0.28282,-0.6953 z m -43.54378,0.2475 -0.70707,0.2592 0.12963,0.3536 0.70707,-0.2593 -0.12963,-0.3535 z m -1.0606,0.3889 -0.70707,0.2592 0.12963,0.3536 0.70707,-0.2593 -0.12963,-0.3535 z m 14.55387,0.059 -0.56566,0.4949 0.24748,0.2828 0.56566,-0.4949 -0.24748,-0.2828 z m 5.25589,0.071 -0.36532,0.6599 0.32997,0.1768 0.36532,-0.66 -0.32997,-0.1767 z m -20.87037,0.2592 -0.70707,0.2593 0.12963,0.3535 0.70707,-0.2592 -0.12963,-0.3536 z m 46.08923,0.024 -0.34175,0.1414 0.28283,0.6953 0.35353,-0.1414 -0.29461,-0.6953 z m -47.14983,0.3653 -0.70707,0.2593 0.12963,0.3535 0.70707,-0.2592 -0.12963,-0.3536 z m 15.8266,0.024 -0.56566,0.495 0.24747,0.2828 0.56566,-0.4949 -0.24747,-0.2829 z m 5.56229,0.3182 -0.36532,0.6599 0.32996,0.1768 0.36532,-0.6599 -0.32996,-0.1768 z m -22.4495,0.047 -0.70707,0.2593 0.12963,0.3535 0.70707,-0.2592 -0.12963,-0.3536 z m 48.64647,0.2946 -0.35354,0.1414 0.29461,0.6953 0.34175,-0.1414 -0.28282,-0.6953 z m -32.61953,0.082 -0.56566,0.495 0.24747,0.2828 0.56566,-0.4949 -0.24747,-0.2829 z m -17.08755,0.012 -0.70707,0.2593 0.12963,0.3535 0.70707,-0.2592 -0.12963,-0.3536 z m 14.44782,0.012 c -0.95079,0.097 -1.69697,0.9093 -1.69697,1.8856 0,1.0413 0.84417,1.8855 1.88552,1.8855 1.04134,0 1.88552,-0.8442 1.88552,-1.8855 0,-0.27 -0.0628,-0.5339 -0.16498,-0.766 l 0.12963,-0.1179 -0.24748,-0.2828 -0.0707,0.059 c -0.34239,-0.4747 -0.90195,-0.7778 -1.53198,-0.7778 -0.0651,0 -0.12517,-0.01 -0.18855,0 z m -15.52021,0.3771 -0.70707,0.2593 0.12963,0.3535 0.70707,-0.2592 -0.12963,-0.3536 z m 24.02862,0.165 -0.36532,0.6482 0.32997,0.1885 0.36532,-0.6599 -0.32997,-0.1768 z m -29.4141399,0.024 c -1.0413404,0 -1.8855204,0.8442 -1.8855204,1.8855 0,1.0414 0.84418,1.8856 1.8855204,1.8856 1.0413499,0 1.8855199,-0.8442 1.8855199,-1.8856 0,-0.1301 -0.0102,-0.2543 -0.0353,-0.3771 l 0.48317,-0.1767 -0.12963,-0.3536 -0.47138,0.1768 c -0.28624,-0.6767 -0.95132,-1.1549 -1.7323299,-1.1549 z m 4.3249199,0.2004 -0.70707,0.2592 0.12963,0.3535 0.70707,-0.2592 -0.12963,-0.3535 z m 52.27609,0.1767 -0.35353,0.1414 0.28282,0.6953 0.35354,-0.1414 -0.28283,-0.6953 z m -53.3367,0.2121 -0.70707,0.2593 0.12963,0.3535 0.70707,-0.2592 -0.12963,-0.3536 z m 25.60775,0.3654 -0.36532,0.6599 0.31818,0.1885 0.3771,-0.6599 -0.32996,-0.1885 z m 28.15319,0.4596 -0.34175,0.1414 0.28283,0.707 0.35354,-0.1532 -0.29462,-0.6952 z m -28.70707,0.5303 -0.36532,0.6599 0.32997,0.1885 0.36532,-0.6599 -0.32997,-0.1885 z m 29.1431,0.5185 -0.35353,0.1414 0.29461,0.6953 0.34175,-0.1414 -0.28283,-0.6953 z m -29.69697,0.4714 -0.36532,0.6599 0.32997,0.1885 0.36532,-0.6599 -0.32997,-0.1885 z m 30.133,0.5774 -0.35354,0.1414 0.28283,0.6953 0.35354,-0.1414 -0.28283,-0.6953 z m -30.67509,0.4125 -0.36532,0.6599 0.32997,0.1885 0.36532,-0.6599 -0.32997,-0.1885 z m 31.09933,0.6245 -0.34175,0.1532 0.28283,0.6953 0.35353,-0.1414 -0.29461,-0.7071 z m -31.6532,0.3654 -0.36532,0.6599 0.32997,0.1885 0.36532,-0.6599 -0.32997,-0.1885 z m 32.08923,0.6835 -0.35354,0.1414 0.29462,0.707 0.34175,-0.1532 -0.28283,-0.6952 z m -32.6431,0.3064 -0.36532,0.6599 0.32997,0.1885 0.36532,-0.6599 -0.32997,-0.1885 z m 33.06734,0.7424 -0.34175,0.1414 0.28283,0.6953 0.35353,-0.1414 -0.29461,-0.6953 z m -33.60943,0.2475 -0.36532,0.6599 0.32997,0.1768 0.36532,-0.66 -0.32997,-0.1767 z m 34.04546,0.8013 -0.34175,0.1414 0.28282,0.6953 0.35354,-0.1414 -0.29461,-0.6953 z m -34.59933,0.1886 -0.36532,0.6599 0.32997,0.1768 0.36532,-0.66 -0.32997,-0.1767 z m 35.03535,0.8484 -0.35353,0.1532 0.29461,0.6953 0.34175,-0.1414 -0.28283,-0.7071 z m -35.57744,0.1415 -0.36532,0.6599 0.32997,0.1768 0.36532,-0.66 -0.32997,-0.1767 z m 36.00169,0.9074 -0.34175,0.1414 0.28282,0.6953 0.35354,-0.1415 -0.29461,-0.6952 z m -36.55556,0.082 -0.36532,0.6599 0.32997,0.1768 0.36532,-0.66 -0.32997,-0.1767 z m 36.99158,0.9663 -0.35353,0.1414 0.29461,0.6953 0.34175,-0.1414 -0.28283,-0.6953 z m -37.54545,0.024 -0.36532,0.6599 0.32997,0.1768 0.36532,-0.6599 -0.32997,-0.1768 z m -0.54209,0.9899 -0.36532,0.6481 0.32997,0.1886 0.36532,-0.6599 -0.32997,-0.1768 z m 38.52357,0.035 -0.35354,0.1414 0.28283,0.6953 0.35354,-0.1414 -0.28283,-0.6953 z m -39.07744,0.9427 -0.36532,0.66 0.32997,0.1885 0.36532,-0.6599 -0.32997,-0.1886 z m 39.50168,0.094 -0.34175,0.1532 0.28283,0.6953 0.35354,-0.1532 -0.29462,-0.6953 z m -40.04377,0.8957 -0.3771,0.6599 0.32996,0.1885 0.36532,-0.6599 -0.31818,-0.1885 z m 40.4798,0.1532 -0.35354,0.1414 0.29462,0.6953 0.34175,-0.1415 -0.28283,-0.6952 z m -42.51852,0.707 c -1.58045,0 -2.86364,1.2714 -2.86364,2.8519 0,1.5804 1.28319,2.8636 2.86364,2.8636 1.58045,0 2.86364,-1.2832 2.86364,-2.8636 0,-0.9479 -0.46857,-1.7772 -1.17845,-2.298 l 0.12963,-0.2357 -0.32997,-0.1885 -0.11785,0.2121 c -0.40547,-0.2203 -0.87311,-0.3418 -1.367,-0.3418 z m 42.95455,0.3418 -0.35354,0.1414 0.28283,0.6953 0.35353,-0.1414 -0.28282,-0.6953 z m 0.42424,1.0488 -0.34175,0.1414 0.28283,0.6953 0.35353,-0.1414 -0.29461,-0.6953 z m 0.43603,1.037 -0.35354,0.1415 0.29461,0.707 0.34175,-0.1532 -0.28282,-0.6953 z m 0.42424,1.0489 -0.34175,0.1414 0.28283,0.6953 0.35353,-0.1415 -0.29461,-0.6952 z m 0.43603,1.0488 -0.35354,0.1414 0.29461,0.6953 0.34175,-0.1414 -0.28282,-0.6953 z m 0.43602,1.037 -0.35353,0.1532 0.29461,0.6953 0.34175,-0.1414 -0.28283,-0.7071 z m 0.42424,1.0488 -0.34175,0.1415 0.28283,0.707 0.35354,-0.1532 -0.29462,-0.6953 z m 0.43603,1.0489 -0.35353,0.1414 0.29461,0.6953 0.34175,-0.1414 -0.28283,-0.6953 z m 0.43603,1.0488 -0.35354,0.1414 0.28283,0.6953 0.35354,-0.1414 -0.28283,-0.6953 z m 0.42424,1.037 -0.34175,0.1532 0.28283,0.6953 0.35353,-0.1414 -0.29461,-0.7071 z m 0.43603,1.0488 -0.35354,0.1415 0.29462,0.707 0.34175,-0.1532 -0.28283,-0.6953 z m 0.42424,1.0489 -0.34175,0.1414 0.28283,0.6953 0.35353,-0.1414 -0.29461,-0.6953 z m 1.56734,0.8131 c -0.50622,0 -0.98676,0.1278 -1.40236,0.3535 l -0.0707,0.024 0.0118,0.024 c -0.87801,0.5068 -1.47306,1.4471 -1.47306,2.5337 0,1.6199 1.31444,2.9343 2.93434,2.9343 1.6199,0 2.93434,-1.3144 2.93434,-2.9343 0,-1.6199 -1.31444,-2.9343 -2.93434,-2.9343 z" id="path2997" inkscape:connector-curvature="0"/>
  </g>
</svg>