<svg xmlns:dc="http://purl.org/dc/elements/1.1/" xmlns:cc="http://creativecommons.org/ns#" xmlns:rdf="http://www.w3.org/1999/02/22-rdf-syntax-ns#" xmlns:svg="http://www.w3.org/2000/svg" xmlns="http://www.w3.org/2000/svg" xmlns:sodipodi="http://sodipodi.sourceforge.net/DTD/sodipodi-0.dtd" xmlns:inkscape="http://www.inkscape.org/namespaces/inkscape" width="100" height="100" id="svg2" version="1.1" inkscape:version="0.48.2 r9819" sodipodi:docname="New document 1">
  <defs id="defs4"/>
  <sodipodi:namedview id="base" pagecolor="#ffffff" bordercolor="#666666" borderopacity="1.0" inkscape:pageopacity="0.0" inkscape:pageshadow="2" inkscape:zoom="3.959798" inkscape:cx="67.488492" inkscape:cy="39.021174" inkscape:document-units="px" inkscape:current-layer="layer2" showgrid="false" inkscape:window-width="1119" inkscape:window-height="732" inkscape:window-x="132" inkscape:window-y="24" inkscape:window-maximized="0"/>
  <metadata id="metadata7">
    <rdf:RDF>
      <cc:Work rdf:about="">
        <dc:format>image/svg+xml</dc:format>
        <dc:type rdf:resource="http://purl.org/dc/dcmitype/StillImage"/>
        <dc:title/>
      </cc:Work>
    </rdf:RDF>
  </metadata>
  <g inkscape:groupmode="layer" id="layer2" inkscape:label="Layer" transform="translate(0,-952.36218)">
    <path style="font-size:medium;font-style:normal;font-variant:normal;font-weight:normal;font-stretch:normal;text-indent:0;text-align:start;text-decoration:none;line-height:normal;letter-spacing:normal;word-spacing:normal;text-transform:none;direction:ltr;block-progression:tb;writing-mode:lr-tb;text-anchor:start;baseline-shift:baseline;color:#000000;fill:#000000;fill-opacity:1;stroke:none;stroke-width:1;marker:none;visibility:visible;display:inline;overflow:visible;enable-background:accumulate;font-family:Sans;-inkscape-font-specification:Sans" d="m 31.993286,963.10397 c -0.91416,0 -1.65523,0.74107 -1.65523,1.65523 0,0.45193 0.18228,0.87031 0.47588,1.169 l -0.33105,0.35174 0.23794,0.2276 0.35174,-0.36209 c 0.26194,0.17386 0.58278,0.26898 0.92072,0.26898 0.91416,0 1.65523,-0.74107 1.65523,-1.65523 0,-0.91416 -0.74107,-1.65523 -1.65523,-1.65523 z m 1.25177,2.907 -0.27932,0.17586 0.36208,0.55864 0.26898,-0.17586 -0.35174,-0.55864 z m -2.98976,0.50691 -0.45519,0.47588 0.23794,0.23794 0.45519,-0.48623 -0.23794,-0.22759 z m 3.52771,0.33105 -0.27932,0.17587 0.36208,0.55864 0.27932,-0.18622 -0.36208,-0.54829 z m -4.21049,0.39311 -0.46554,0.47588 0.23794,0.2276 0.46554,-0.47588 -0.23794,-0.2276 z m 4.74844,0.4345 -0.27932,0.17587 0.36208,0.55864 0.27932,-0.17587 -0.36208,-0.55864 z m -5.44157,0.27932 -0.36208,0.38277 c -0.27943,-0.21543 -0.62336,-0.34139 -1.00349,-0.34139 -0.91415,0 -1.65523,0.74108 -1.65523,1.65523 0,0.91416 0.74108,1.65523 1.65523,1.65523 0.1639,0 0.31605,-0.0384 0.46554,-0.0828 l 0.0724,0.17587 0.31036,-0.12414 -0.0724,-0.17587 c 0.51938,-0.27927 0.87935,-0.81733 0.87935,-1.44833 0,-0.41452 -0.16203,-0.79585 -0.41381,-1.08624 l 0.36208,-0.38277 -0.23794,-0.2276 z m 5.97952,0.55864 -0.27932,0.17587 0.36208,0.55864 0.27932,-0.18621 -0.36208,-0.5483 z m 11.43144,0.41381 c -0.91416,0 -1.65523,0.74107 -1.65523,1.65523 0,0.60351 0.32437,1.12809 0.80692,1.41729 l -0.2069,0.41381 0.28966,0.14483 0.21725,-0.41381 c 0.17294,0.0613 0.35435,0.0931 0.5483,0.0931 0.91415,0 1.65523,-0.74107 1.65523,-1.65523 0,-0.91416 -0.74108,-1.65523 -1.65523,-1.65523 z m -10.89349,0.41381 -0.26897,0.18621 0.35173,0.5483 0.27932,-0.17587 -0.36208,-0.55864 z m 0.5483,0.83796 -0.27932,0.17587 0.36208,0.55864 0.26897,-0.18622 -0.35173,-0.54829 z m -10.03484,0.25863 -0.58968,0.31035 0.15518,0.28967 0.58968,-0.31036 -0.15518,-0.28966 z m -0.87934,0.46553 -0.57933,0.31036 0.15518,0.30001 0.57933,-0.3207 -0.15518,-0.28967 z m 11.45213,0.10345 -0.27932,0.18622 0.36208,0.54829 0.27932,-0.17587 -0.36208,-0.55864 z m -12.33147,0.36209 -0.57933,0.3207 0.15517,0.28966 0.57933,-0.31035 -0.15517,-0.30001 z m 4.33463,0.2069 -0.31035,0.12414 0.24828,0.62071 0.31036,-0.12414 -0.24829,-0.62071 z m -5.20363,0.26897 -0.58967,0.31036 0.15517,0.28967 0.58968,-0.31036 -0.15518,-0.28967 z m 13.73842,0 -0.27932,0.17587 0.36208,0.55864 0.27932,-0.17587 -0.36208,-0.55864 z m -14.61776,0.46554 -0.58968,0.31035 0.16553,0.28967 0.57933,-0.31036 -0.15518,-0.28966 z m 6.4554,0.19656 -0.31036,0.12414 0.24829,0.61037 0.30001,-0.12415 -0.23794,-0.61036 z m 8.70031,0.16552 -0.27932,0.18621 0.36208,0.55864 0.27932,-0.18621 -0.36208,-0.55864 z m 7.52095,0.031 -0.30001,0.58967 0.28966,0.15518 0.31036,-0.58968 -0.30001,-0.15517 z m -23.556,0.0724 -0.57933,0.31036 0.15518,0.28966 0.57933,-0.31035 -0.15518,-0.28967 z m -2.82424,0.25863 c -0.91416,0 -1.65523,0.74107 -1.65523,1.65523 0,0.59291 0.30737,1.11463 0.77589,1.40695 l -0.1138,0.40346 0.3207,0.0828 0.0931,-0.34139 c 0.17896,0.0662 0.37735,0.10345 0.57933,0.10345 0.91416,0 1.65523,-0.74107 1.65523,-1.65523 0,-0.91416 -0.74107,-1.65523 -1.65523,-1.65523 z m 1.95524,0.20691 -0.58967,0.31035 0.15517,0.28967 0.58968,-0.31036 -0.15518,-0.28966 z m 8.56582,0.18621 -0.31035,0.12414 0.24828,0.61037 0.31036,-0.12415 -0.24829,-0.61036 z m 8.87618,0.0828 -0.26898,0.17587 0.35174,0.55864 0.27932,-0.17587 -0.36208,-0.55864 z m 6.52781,0.0828 -0.30001,0.58968 0.28967,0.14483 0.31035,-0.58968 -0.30001,-0.14483 z m -15.03156,0.7552 -0.31036,0.12414 0.24829,0.61037 0.31035,-0.12414 -0.24828,-0.61037 z m 9.05204,0 -0.27932,0.17587 0.36208,0.55864 0.26898,-0.18621 -0.35174,-0.5483 z m 5.52433,0.12414 -0.30001,0.58968 0.30001,0.15518 0.30001,-0.58968 -0.30001,-0.15518 z m -4.98638,0.70348 -0.27932,0.18621 0.36208,0.54829 0.27932,-0.17586 -0.36208,-0.55864 z m -9.22791,0.0931 -0.30001,0.12415 0.24828,0.61036 0.30001,-0.12414 -0.24828,-0.61037 z m 13.7591,0.0828 -0.30001,0.58968 0.30001,0.15518 0.30001,-0.58968 -0.30001,-0.15518 z m -3.99324,0.6621 -0.27932,0.17586 0.36208,0.55865 0.27932,-0.18622 -0.36208,-0.54829 z m -9.39343,0.17586 -0.31036,0.12415 0.24829,0.61036 0.31035,-0.11379 -0.24828,-0.62072 z m 12.94183,0.0517 -0.31035,0.58968 0.30001,0.14483 0.30001,-0.58968 -0.28967,-0.14483 z m -25.64573,0.57933 -0.16552,0.6414 0.3207,0.0828 0.16552,-0.6414 -0.3207,-0.0828 z m 22.63528,0.0207 -0.27932,0.18622 0.36208,0.54829 0.27932,-0.17587 -0.36208,-0.55864 z m -9.55896,0.26898 -0.31035,0.12414 0.24828,0.62071 0.31036,-0.12414 -0.24829,-0.62071 z m 12.11422,0.0103 -0.30001,0.58968 0.28967,0.15518 0.30001,-0.58968 -0.28967,-0.15518 z m -0.99314,0.53795 c -0.32094,0 -0.61529,0.0902 -0.86899,0.24829 l -0.14483,-0.2276 -0.27932,0.17587 0.16552,0.25863 c -0.32089,0.30189 -0.52761,0.7247 -0.52761,1.20004 0,0.91416 0.74108,1.65523 1.65523,1.65523 0.91416,0 1.65523,-0.74107 1.65523,-1.65523 0,-0.91415 -0.74107,-1.65523 -1.65523,-1.65523 z m -24.44568,0.12414 -0.17587,0.64141 0.3207,0.0828 0.17587,-0.6414 -0.3207,-0.0828 z m 13.68669,0.24829 -0.30002,0.12414 0.24829,0.62071 0.30001,-0.12414 -0.24828,-0.62071 z m -13.94532,0.71382 -0.16553,0.6414 0.3207,0.0828 0.16553,-0.6414 -0.3207,-0.0828 z m 14.31774,0.21725 -0.31035,0.11379 0.24828,0.62071 0.31036,-0.12414 -0.24829,-0.61036 z m -14.56603,0.74485 -0.17587,0.6414 0.3207,0.0828 0.17587,-0.6414 -0.3207,-0.0828 z m 14.93846,0.17587 -0.31036,0.12414 0.24829,0.61037 0.31035,-0.12415 -0.24828,-0.61036 z m 25.45952,0.16552 c -0.91416,0 -1.65524,0.74107 -1.65524,1.65523 0,0.91416 0.74108,1.65523 1.65524,1.65523 0.1634,0 0.32677,-0.0283 0.47587,-0.0724 l 0.0828,0.26897 0.3207,-0.0931 -0.0931,-0.31035 c 0.51937,-0.27928 0.869,-0.81733 0.869,-1.44833 0,-0.91416 -0.74108,-1.65523 -1.65523,-1.65523 z m -40.65661,0.61037 -0.16552,0.6414 0.3207,0.0828 0.16552,-0.63106 -0.3207,-0.0931 z m 15.55917,0.14483 -0.30001,0.12414 0.23794,0.61037 0.31036,-0.12414 -0.24829,-0.61037 z m -15.80745,0.81727 -0.16553,0.6414 0.31036,0.0828 0.17587,-0.6414 -0.3207,-0.0828 z m 16.17988,0.10345 -0.31036,0.12414 0.24829,0.61037 0.31035,-0.12414 -0.24828,-0.61037 z m 0.78623,0.5483 c -0.91416,0 -1.65523,0.74107 -1.65523,1.65523 0,0.91416 0.74107,1.65523 1.65523,1.65523 0.91416,0 1.65523,-0.74107 1.65523,-1.65523 0,-0.91416 -0.74107,-1.65523 -1.65523,-1.65523 z m -17.22474,0.31035 -0.16553,0.64141 0.32071,0.0828 0.16552,-0.64141 -0.3207,-0.0828 z m -13.0866705,0.35174 c -0.91416,0 -1.65523,0.74107 -1.65523,1.65523 0,0.91416 0.74107,1.65523 1.65523,1.65523 0.91416,0 1.65523,-0.74107 1.65523,-1.65523 0,-0.91416 -0.74107,-1.65523 -1.65523,-1.65523 z m 12.8383805,0.61037 -0.0931,0.36208 c -0.11475,-0.0252 -0.22943,-0.0517 -0.35174,-0.0517 -0.77333,0 -1.42175,0.53496 -1.6035,1.25177 l -0.0207,0 -0.0103,0.10345 c -0.0181,0.098 -0.0207,0.19674 -0.0207,0.30001 0,0.91416 0.74107,1.65523 1.65523,1.65523 0.91416,0 1.65523,-0.74107 1.65523,-1.65523 0,-0.67735 -0.41047,-1.25416 -0.99314,-1.5104 l 0.10345,-0.37242 -0.3207,-0.0828 z m 42.38425,0.22759 -0.3207,0.0931 0.18622,0.6414 0.3207,-0.0931 -0.18622,-0.6414 z m -53.3604905,0.67244 -0.031,0.33104 0.66209,0.0414 0.031,-0.33104 -0.66209,-0.0414 z m 0.99313,0.0724 -0.031,0.33105 0.6620903,0.0517 0.0207,-0.33105 -0.6517503,-0.0517 z m 0.9828003,0.0724 -0.0207,0.33105 0.66209,0.0517 0.0207,-0.33104 -0.66209,-0.0517 z m 0.99314,0.0724 -0.0207,0.33104 0.65175,0.0517 0.031,-0.33105 -0.66209,-0.0517 z m 50.6707402,0.0621 -0.3207,0.0931 0.19656,0.64141 0.31036,-0.0931 -0.18622,-0.6414 z m -49.6776102,0.0103 -0.031,0.33105 0.66209,0.0517 0.031,-0.33105 -0.6621,-0.0517 z m 0.9828,0.0724 -0.0207,0.33105 0.6620902,0.0517 0.0207,-0.33104 -0.6620902,-0.0517 z m 0.9931402,0.0828 -0.0207,0.33105 0.6621,0.0414 0.0207,-0.33105 -0.66209,-0.0414 z m 0.99313,0.0724 -0.0207,0.33104 0.65175,0.0414 0.031,-0.3207 -0.6621,-0.0517 z m 0.99314,0.0724 -0.031,0.33105 0.66209,0.0517 0.0207,-0.33105 -0.65175,-0.0517 z m 20.26623,0.5483 -0.0207,0.66209 0.33105,0.0104 0.0207,-0.6621 -0.33105,-0.0103 z m 25.72849,0.0931 -0.31035,0.0931 0.18621,0.6414 0.3207,-0.0931 -0.19656,-0.6414 z m -25.75952,0.90003 -0.0103,0.66209 0.33105,0.0103 0.0103,-0.66209 -0.33104,-0.0103 z m 26.04919,0.0517 -0.3207,0.0931 0.18621,0.6414 0.3207,-0.0931 -0.18621,-0.64141 z m -25.71815,0.7552 c -0.91415,0 -1.65523,0.74108 -1.65523,1.65523 0,0.72721 0.47564,1.3399 1.12763,1.56213 l -0.0517,0.58967 0.33105,0.031 0.0517,-0.53795 c 0.0656,0.008 0.12888,0.0103 0.19656,0.0103 0.91416,0 1.65523,-0.74107 1.65523,-1.65523 0,-0.91415 -0.74107,-1.65523 -1.65523,-1.65523 z m 25.99747,0.19656 -0.3207,0.10345 0.19656,0.63106 0.31035,-0.0931 -0.18621,-0.6414 z m 0.28966,0.95176 -0.3207,0.10345 0.18622,0.63106 0.3207,-0.0931 -0.18622,-0.6414 z m 0.27932,0.95176 -0.3207,0.10345 0.18622,0.63105 0.3207,-0.0931 -0.18622,-0.6414 z m 0.27932,0.95175 -0.31035,0.10346 0.18621,0.63105 0.31036,-0.0931 -0.18622,-0.64141 z m 0.28967,0.95176 -0.3207,0.10345 0.18621,0.63106 0.3207,-0.0931 -0.18621,-0.6414 z m -27.73546,0.13449 -0.0621,0.66209 0.33105,0.031 0.0621,-0.6621 -0.33105,-0.031 z m 28.01478,0.81727 -0.3207,0.10345 0.19656,0.63106 0.31035,-0.0931 -0.18621,-0.6414 z m -28.09754,0.17587 -0.0621,0.66209 0.33105,0.0207 0.0517,-0.66209 -0.3207,-0.0207 z m 28.37686,0.78623 -0.31036,0.0931 0.18622,0.63106 0.3207,-0.0931 -0.19656,-0.63106 z m -28.46997,0.19656 -0.0517,0.66209 0.33104,0.031 0.0517,-0.66209 -0.33105,-0.031 z m 28.75964,0.7552 -0.3207,0.0931 0.18621,0.63105 0.3207,-0.0931 -0.18621,-0.63106 z m -28.8424,0.23794 -0.0517,0.66209 0.33104,0.031 0.0517,-0.6621 -0.33105,-0.031 z m 29.12172,0.71382 -0.3207,0.0931 0.19655,0.63106 0.31036,-0.0931 -0.18621,-0.63105 z m -29.20448,0.27932 -0.0517,0.66209 0.33105,0.0207 0.0517,-0.66209 -0.33105,-0.0207 z m 29.4838,0.67243 -0.31036,0.0931 0.18621,0.63106 0.32071,-0.0931 -0.19656,-0.63106 z m -29.56656,0.31036 -0.0517,0.66209 0.3207,0.031 0.0621,-0.66209 -0.33104,-0.031 z m 29.85622,0.6414 -0.3207,0.0931 0.18621,0.63106 0.32071,-0.0931 -0.18622,-0.63106 z m -29.93898,0.35174 -0.0517,0.58967 c -0.0556,-0.006 -0.10839,0 -0.16552,0 -0.91416,0 -1.65523,0.74108 -1.65523,1.65524 0,0.91413 0.74107,1.65523 1.65523,1.65523 0.91416,0 1.65523,-0.7411 1.65523,-1.65523 0,-0.74223 -0.49595,-1.36246 -1.16901,-1.57247 l 0.0621,-0.64141 -0.33104,-0.031 z m 30.2183,0.60002 -0.3207,0.0931 0.19656,0.63105 0.31036,-0.0931 -0.18622,-0.63106 z m 0.27932,0.95176 -0.31035,0.0931 0.18621,0.63106 0.3207,-0.0931 -0.19656,-0.63105 z m 0.28967,0.95176 -0.3207,0.0931 0.18621,0.6311 0.3207,-0.093 -0.18621,-0.63109 z m 0.27932,0.9517 -0.3207,0.093 0.19656,0.6311 0.31035,-0.093 -0.18621,-0.6311 z m -30.36314,0.3104 -0.30001,0.1448 0.28967,0.5897 0.30001,-0.1448 -0.28967,-0.5897 z m 30.6528,0.6414 -0.3207,0.093 0.0517,0.1759 c -0.68435,0.2031 -1.1897,0.8222 -1.1897,1.5724 0,0.1143 0.009,0.2337 0.031,0.3414 l -0.25863,0.1345 0.14483,0.3 0.21725,-0.1138 c 0.25433,0.5872 0.84015,0.9932 1.52074,0.9932 0.91416,0 1.65523,-0.7411 1.65523,-1.6553 0,-0.9141 -0.74107,-1.6552 -1.65523,-1.6552 -0.0465,0 -0.089,0.01 -0.13449,0.01 l -0.0621,-0.1966 z m -30.2183,0.2483 -0.28967,0.1448 0.28967,0.5897 0.30001,-0.1448 -0.30001,-0.5897 z m 0.44484,0.8897 -0.30001,0.1448 0.30001,0.5897 0.28967,-0.1448 -0.28967,-0.5897 z m 0.44484,0.8897 -0.30001,0.1448 0.28967,0.5897 0.30001,-0.1449 -0.28967,-0.5896 z m 31.18041,0.4241 -0.16552,0.2897 0.57933,0.3207 0.16552,-0.2897 -0.57933,-0.3207 z m -3.83806,0.01 -0.58968,0.3 0.15518,0.3001 0.58967,-0.3001 -0.15517,-0.3 z m -26.90785,0.4552 -0.28966,0.1449 0.28966,0.5896 0.30001,-0.1448 -0.30001,-0.5897 z m 26.0285,0 -0.58967,0.3 0.14483,0.2897 0.58968,-0.3 -0.14484,-0.2897 z m 5.58641,0.021 -0.16552,0.2897 0.57933,0.3207 0.15517,-0.2897 -0.56898,-0.3207 z m -6.47609,0.4242 -0.58968,0.3 0.15518,0.3 0.58968,-0.3 -0.15518,-0.3 z m 7.33474,0.062 -0.15518,0.2896 0.57933,0.3207 0.15518,-0.2896 -0.57933,-0.3207 z m -32.02871,0.3827 -0.30001,0.1449 0.30001,0.5897 0.30001,-0.1449 -0.30001,-0.5897 z m 23.81463,0.01 -0.60002,0.3001 0.15517,0.2896 0.58968,-0.3 -0.14483,-0.2897 z m 9.08308,0.093 -0.15518,0.2897 0.56898,0.3207 0.16553,-0.2897 -0.57933,-0.3207 z m 2.28628,0.052 c -0.48098,0 -0.91831,0.2104 -1.22073,0.538 l -0.19656,-0.1035 -0.16552,0.2794 0.16552,0.093 c -0.15094,0.2496 -0.23794,0.5353 -0.23794,0.8483 0,0.9141 0.74108,1.6552 1.65523,1.6552 0.85013,0 1.55093,-0.6337 1.64489,-1.4587 l 0.21725,0.021 0.031,-0.331 -0.24828,-0.021 c -0.0701,-0.8496 -0.77719,-1.5208 -1.64489,-1.5208 z m -12.25905,0.3001 -0.58968,0.3 0.14484,0.3 0.58967,-0.3 -0.14483,-0.3 z m 20.24554,0.3207 c -0.80334,0 -1.46329,0.565 -1.61385,1.3241 l -0.19656,-0.021 -0.031,0.3311 0.18621,0.021 c 0,0.9141 0.74107,1.6552 1.65523,1.6552 0.91416,0 1.65523,-0.7411 1.65523,-1.6552 0,-0.9142 -0.74107,-1.6552 -1.65523,-1.6552 z m -42.72564,0.1138 -0.30001,0.1448 0.30001,0.5897 0.28966,-0.1449 -0.28966,-0.5896 z m 21.59041,0.021 -0.58967,0.3 0.15518,0.2896 0.58967,-0.3 -0.15518,-0.2896 z m -0.87934,0.4448 -0.58967,0.3 0.14483,0.3 0.58968,-0.3 -0.14484,-0.3 z m 16.2523,0.3724 -0.031,0.3311 0.6621,0.062 0.031,-0.3311 -0.66209,-0.062 z m -36.52887,0.052 -0.28967,0.1449 0.28967,0.5896 0.30001,-0.1448 -0.30001,-0.5897 z m 19.38689,0.031 -0.58968,0.3 0.15518,0.2897 0.58967,-0.3 -0.15517,-0.2897 z m 18.12477,0.01 -0.0207,0.3311 0.65175,0.052 0.031,-0.3311 -0.66209,-0.052 z m 0.99314,0.083 -0.031,0.3311 0.6621,0.062 0.031,-0.3311 -0.66209,-0.062 z m 0.99314,0.093 -0.031,0.3311 0.6621,0.052 0.0207,-0.3207 -0.65175,-0.062 z m -21.00074,0.2587 -0.58968,0.3 0.15518,0.2896 0.58968,-0.2896 -0.15518,-0.3 z m -18.05236,0.4138 -0.30001,0.1448 0.30001,0.5897 0.30001,-0.1449 -0.30001,-0.5896 z m 17.17302,0.031 -0.58968,0.3 0.14484,0.3 0.58967,-0.3 -0.14483,-0.3 z m -0.88969,0.4551 -0.58967,0.3001 0.15517,0.2896 0.58968,-0.3 -0.15518,-0.2897 z m -15.83849,0.4035 -0.30001,0.1448 0.30001,0.5897 0.28967,-0.1448 -0.28967,-0.5897 z m 14.95915,0.041 -0.58967,0.3 0.14483,0.3 0.58967,-0.3 -0.14483,-0.3 z m 25.40779,0.3207 -0.38277,0.538 0.26897,0.1862 0.38278,-0.538 -0.26898,-0.1862 z m -26.29748,0.1345 -0.58967,0.3 0.14483,0.2897 0.60002,-0.3 -0.15518,-0.2897 z m -13.63496,0.3931 -0.28966,0.1449 0.28966,0.5896 0.30001,-0.1448 -0.30001,-0.5897 z m 12.74528,0.052 -0.58968,0.3 0.15518,0.3 0.58968,-0.3 -0.15518,-0.3 z m 26.61818,0.2276 -0.38278,0.538 0.26898,0.1965 0.38277,-0.5483 -0.26897,-0.1862 z m -27.49752,0.2276 -0.58968,0.3 0.14483,0.2897 0.58968,-0.3 -0.14483,-0.2897 z m 26.12161,0.1035 c -0.91416,0 -1.65524,0.741 -1.65524,1.6552 0,0.9141 0.74108,1.6552 1.65524,1.6552 0.91415,0 1.65523,-0.7411 1.65523,-1.6552 0,-0.9142 -0.74108,-1.6552 -1.65523,-1.6552 z m -37.5427,0.2793 -0.30002,0.1448 0.30002,0.5897 0.30001,-0.1448 -0.30001,-0.5897 z m 10.5314,0.062 -0.58968,0.3 0.15518,0.3 0.58968,-0.3 -0.15518,-0.3 z m -0.87934,0.4552 -0.58968,0.2896 0.14484,0.3 0.58967,-0.3 -0.14483,-0.2896 z m -9.20722,0.3724 -0.30001,0.1448 0.30001,0.5897 0.28966,-0.1448 -0.28966,-0.5897 z m 8.31753,0.072 -0.58967,0.3 0.14483,0.2897 0.58968,-0.3 -0.14484,-0.2897 z m -0.88968,0.4448 -0.58968,0.3001 0.15518,0.3 0.58967,-0.3 -0.15517,-0.3001 z m 31.32524,0.3001 -0.0828,0.3207 0.64141,0.1655 0.0828,-0.3104 -0.6414,-0.1758 z m -38.31859,0.072 -0.28967,0.1448 0.28967,0.5897 0.30001,-0.1449 -0.30001,-0.5896 z m 6.114,0.083 -0.58967,0.3 0.14483,0.2896 0.58968,-0.3 -0.14484,-0.2896 z m 33.16669,0.1034 -0.0828,0.3207 0.63105,0.1655 0.0931,-0.3207 -0.6414,-0.1655 z m 0.9621,0.2586 -0.0931,0.3207 0.6414,0.1656 0.0828,-0.3207 -0.63106,-0.1656 z m -35.01847,0.083 -0.58968,0.3001 0.15518,0.3 0.58968,-0.3 -0.15518,-0.3001 z m 35.97023,0.1656 -0.0828,0.3207 0.6414,0.1758 0.0828,-0.3207 -0.6414,-0.1758 z m -40.74971,0.1965 -0.30001,0.1449 0.0414,0.083 c -0.57129,0.2609 -0.9621,0.8413 -0.9621,1.5104 0,0.3713 0.12451,0.7066 0.33104,0.9827 l -0.26897,0.1863 0.19656,0.2793 0.30001,-0.2173 c 0.29229,0.2598 0.67482,0.4242 1.09659,0.4242 0.91416,0 1.65523,-0.7411 1.65523,-1.6552 0,-0.1143 -0.0193,-0.2337 -0.0414,-0.3414 l 0.22759,-0.1138 -0.15518,-0.2897 -0.16552,0.083 c -0.25325,-0.5896 -0.83836,-0.9931 -1.52074,-0.9931 -0.1258,0 -0.25466,0.015 -0.37243,0.041 l -0.0621,-0.1242 z m 41.71181,0.062 -0.0828,0.3207 0.6414,0.1759 0.0828,-0.3207 -0.6414,-0.1759 z m -37.81167,0.031 -0.60002,0.3 0.15517,0.2897 0.58968,-0.3 -0.14483,-0.2897 z m 38.77378,0.2276 -0.0828,0.3207 0.63106,0.1655 0.0931,-0.3207 -0.6414,-0.1655 z m -39.66347,0.2173 -0.58968,0.3 0.14484,0.3 0.58967,-0.3 -0.14483,-0.3 z m 40.62557,0.041 -0.0931,0.3207 0.6414,0.1655 0.0828,-0.3207 -0.63105,-0.1655 z m 0.95176,0.2482 -0.0828,0.3208 0.64141,0.1758 0.0828,-0.3207 -0.6414,-0.1759 z m 0.9621,0.2587 -0.0828,0.3207 0.6414,0.1758 0.0828,-0.3207 -0.6414,-0.1758 z m 0.9621,0.2586 -0.0828,0.3207 0.63106,0.1655 0.0931,-0.3207 -0.6414,-0.1655 z m 0.9621,0.2586 -0.0931,0.3207 0.6414,0.1656 0.0828,-0.3207 -0.63106,-0.1656 z m 0.95176,0.2483 -0.0828,0.3207 0.6414,0.1759 0.0828,-0.3207 -0.6414,-0.1759 z m 0.9621,0.2587 -0.0828,0.3207 0.6414,0.1758 0.0828,-0.3207 -0.64141,-0.1758 z m 0.96211,0.2586 -0.0828,0.3207 0.63105,0.1655 0.0931,-0.3103 -0.6414,-0.1759 z m 0.9621,0.2586 -0.0931,0.3207 0.64141,0.1655 0.0828,-0.3207 -0.63106,-0.1655 z m 0.95176,0.2586 -0.0828,0.3104 0.6414,0.1759 0.0828,-0.3207 -0.6414,-0.1656 z m -53.69155,0.2173 -0.53795,0.3724 0.18622,0.269 0.53795,-0.3724 -0.18622,-0.269 z m 54.65365,0.031 -0.0828,0.3207 0.6414,0.1759 0.0828,-0.3207 -0.6414,-0.1759 z m 5.338124,0.1345 c -0.64362,0 -1.19522,0.3636 -1.46902,0.9 l -0.031,-0.01 -0.0828,0.3207 c -0.0389,0.1408 -0.0724,0.2917 -0.0724,0.4449 0,0.9141 0.74107,1.6552 1.65523,1.6552 0.91416,0 1.65523,-0.7411 1.65523,-1.6552 0,-0.9142 -0.74107,-1.6553 -1.65523,-1.6553 z m -59.122774,0.1241 -0.35174,0.5483 0.26898,0.1862 0.36208,-0.5586 -0.27932,-0.1759 z m 54.74675,0 -0.0828,0.3207 0.63106,0.1759 0.0931,-0.3207 -0.64141,-0.1759 z m 0.96211,0.2587 -0.0931,0.3207 0.6414,0.1655 0.0828,-0.3207 -0.63105,-0.1655 z m -57.39513,0.01 -0.53795,0.3827 0.18622,0.269 0.54829,-0.3724 -0.19656,-0.2793 z m 58.34688,0.2482 -0.0828,0.3207 0.6414,0.1656 0.0828,-0.3207 -0.64141,-0.1656 z m -57.19856,0.3104 -0.36208,0.5586 0.27932,0.1759 0.36208,-0.5586 -0.27932,-0.1759 z m -1.96559,0.01 -0.53795,0.3828 0.18622,0.2689 0.54829,-0.3827 -0.19656,-0.269 z m -0.80692,0.569 -0.5483,0.3724 0.18622,0.2793 0.54829,-0.3827 -0.18621,-0.269 z m 2.23456,0.2483 -0.36208,0.5586 0.27932,0.1862 0.36208,-0.5586 -0.27932,-0.1862 z m -3.05183,0.3103 -0.5483,0.3828 0.18622,0.269 0.54829,-0.3725 -0.18621,-0.2793 z m 2.50353,0.5276 -0.35173,0.5587 0.26897,0.1758 0.36208,-0.5586 -0.27932,-0.1759 z m -3.3208,0.041 -0.5483,0.3828 0.18622,0.269 0.54829,-0.3725 -0.18621,-0.2793 z m -0.81727,0.569 -0.5483,0.3724 0.19656,0.2794 0.53795,-0.3828 -0.18621,-0.269 z m 64.471234,0.1966 -0.19656,0.631 0.31036,0.1035 0.2069,-0.6311 -0.3207,-0.1034 z m -60.871114,0.021 -0.36208,0.5586 0.27932,0.1759 0.36208,-0.5483 -0.27932,-0.1862 z m -4.41739,0.3517 -0.53795,0.3724 0.18621,0.2794 0.53795,-0.3828 -0.18621,-0.269 z m 3.87944,0.4862 -0.36208,0.5483 0.27932,0.1862 0.36208,-0.5586 -0.27932,-0.1759 z m -4.69671,0.072 -0.53795,0.3828 0.18621,0.269 0.53795,-0.3724 -0.18621,-0.2794 z m 65.805764,0.021 -0.19656,0.6311 0.31036,0.1034 0.2069,-0.6414 -0.3207,-0.093 z m -66.623034,0.5483 -0.53795,0.3828 0.18621,0.269 0.5483,-0.3725 -0.19656,-0.2793 z m 4.96569,0.1862 -0.36208,0.5587 0.27932,0.1758 0.36208,-0.5482 -0.27932,-0.1863 z m 61.357334,0.2069 -0.19656,0.6311 0.31036,0.1035 0.2069,-0.6311 -0.3207,-0.1035 z m -67.129954,0.1759 -0.54829,0.3724 0.18621,0.2794 0.5483,-0.3828 -0.18622,-0.269 z m 5.23467,0.4552 -0.36208,0.5483 0.27932,0.1862 0.36208,-0.5586 -0.27932,-0.1759 z m -6.05194,0.1138 -0.54829,0.3724 0.18621,0.2793 0.5483,-0.3827 -0.18622,-0.269 z m 67.647214,0.2069 -0.19656,0.6311 0.31036,0.1034 0.2069,-0.631 -0.3207,-0.1035 z m -68.464484,0.3517 -0.54829,0.3828 0.18621,0.269 0.5483,-0.3724 -0.18622,-0.2794 z m 6.33126,0.1552 -0.36208,0.5587 0.27932,0.1758 0.35173,-0.5483 -0.26897,-0.1862 z m -7.14853,0.4138 -0.54829,0.3828 0.19656,0.269 0.53795,-0.3828 -0.18622,-0.269 z m 68.981744,0.021 -0.196564,0.6311 0.310364,0.1034 0.2069,-0.631 -0.3207,-0.1035 z m -62.381514,0.4035 -0.36208,0.5483 0.27932,0.1862 0.36208,-0.5586 -0.27932,-0.1759 z m -7.4175,0.1448 -0.54829,0.3724 0.19656,0.2794 0.53795,-0.3828 -0.18622,-0.269 z m 69.499,0.4035 -0.19656,0.631 0.31036,0.1035 0.206904,-0.6311 -0.320704,-0.1034 z m -70.31627,0.1655 -0.53795,0.3724 0.18622,0.269 0.53795,-0.3724 -0.18622,-0.269 z m 7.69682,0.1138 -0.36208,0.5586 0.27932,0.1759 0.36208,-0.5483 -0.27932,-0.1862 z m -8.51409,0.4448 -0.53795,0.3828 0.18621,0.269 0.5483,-0.3724 -0.19656,-0.2794 z m 70.83353,0.2173 -0.19656,0.6311 0.31036,0.1034 0.2069,-0.6311 -0.3207,-0.1034 z m -62.85739,0.1759 -0.36208,0.5483 0.27932,0.1862 0.35174,-0.5587 -0.26898,-0.1758 z m -8.79341,0.1758 -0.53795,0.3828 0.18621,0.269 0.5483,-0.3828 -0.19656,-0.269 z m -0.80692,0.569 -0.5483,0.3724 0.18621,0.2794 0.5483,-0.3828 -0.18621,-0.269 z m 72.15771,0.031 -0.19656,0.6311 0.31035,0.1034 0.20691,-0.631 -0.3207,-0.1035 z m -63.10567,0.052 -0.36208,0.5587 0.27932,0.1758 0.36208,-0.5483 -0.27932,-0.1862 z m -9.86931,0.4862 -0.5483,0.3725 0.18621,0.2689 0.5483,-0.3724 -0.18621,-0.269 z m 9.33136,0.3518 -0.36208,0.5483 0.27932,0.1862 0.36208,-0.5587 -0.27932,-0.1758 z m 63.34361,0.052 -0.19656,0.631 0.3207,0.1035 0.19656,-0.6311 -0.3207,-0.1034 z m -73.49224,0.1552 -0.5483,0.3827 0.19656,0.269 0.53795,-0.3724 -0.18621,-0.2793 z m -0.81727,0.5689 -0.5483,0.3828 0.19656,0.269 0.53795,-0.3828 -0.18621,-0.269 z m 10.42795,0.052 -0.36208,0.5587 0.26897,0.1758 0.36208,-0.5483 -0.26897,-0.1862 z m 63.58155,0.1759 -0.19656,0.6311 0.3207,0.1034 0.19656,-0.631 -0.3207,-0.1035 z m -74.82677,0.3414 -0.53795,0.3724 0.18621,0.2793 0.53795,-0.3827 -0.18621,-0.269 z m 10.69692,0.3207 -0.36208,0.5483 0.27932,0.1862 0.36208,-0.5586 -0.27932,-0.1759 z m -11.51419,0.2483 -0.53795,0.3724 0.18621,0.269 0.54829,-0.3724 -0.19655,-0.269 z m 75.34403,0.041 -0.19656,0.631 0.3207,0.093 0.19656,-0.631 -0.3207,-0.093 z m -76.1613,0.5172 -0.53795,0.3828 0.18621,0.269 0.54829,-0.3724 -0.19655,-0.2794 z m 11.79351,0.021 -0.36208,0.5587 0.27932,0.1758 0.36208,-0.5586 -0.27932,-0.1759 z m 64.06778,0.4035 -0.1138,0.3828 c -0.1276,-0.032 -0.25578,-0.052 -0.39312,-0.052 -0.91416,0 -1.65523,0.7411 -1.65523,1.6552 0,0.9142 0.74107,1.6552 1.65523,1.6552 0.91416,0 1.65523,-0.741 1.65523,-1.6552 0,-0.659 -0.39427,-1.2234 -0.95176,-1.4897 l 0.12415,-0.3931 -0.3207,-0.1035 z m -76.66822,0.1448 -0.54829,0.3828 0.18621,0.269 0.54829,-0.3828 -0.18621,-0.269 z m 12.05215,0.2794 -0.35174,0.5586 0.26898,0.1862 0.36208,-0.5586 -0.27932,-0.1862 z m -12.86942,0.2896 -0.54829,0.3724 0.18621,0.2794 0.54829,-0.3828 -0.18621,-0.269 z m 12.33147,0.5483 -0.36208,0.5587 0.27932,0.1758 0.36208,-0.5586 -0.27932,-0.1759 z m -13.14874,0.021 -0.54829,0.3724 0.19655,0.269 0.53795,-0.3724 -0.18621,-0.269 z m -0.81727,0.5587 -0.54829,0.3827 0.19655,0.269 0.53795,-0.3724 -0.18621,-0.2793 z m 11.92801,0.1655 c -1.30662,0 -2.36905,1.0624 -2.36905,2.369 0,1.3066 1.06243,2.3691 2.36905,2.3691 1.30662,0 2.3587,-1.0625 2.3587,-2.3691 0,-0.706 -0.30615,-1.3355 -0.79658,-1.769 l 0.21725,-0.331 -0.27932,-0.1863 -0.19656,0.3104 c -0.37377,-0.2472 -0.82181,-0.3931 -1.30349,-0.3931 z m -15.2902,0.1965 c -1.3297,0 -2.4104302,1.0808 -2.4104302,2.4105 0,1.3297 1.0807302,2.4104 2.4104302,2.4104 1.32971,0 2.40009,-1.0807 2.40009,-2.4104 0,-1.3297 -1.07038,-2.4105 -2.40009,-2.4105 z m 2.54492,0.2069 -0.53795,0.3828 0.18621,0.269 0.53795,-0.3828 -0.18621,-0.269 z m 78.9545,1.4484 -0.12414,0.6517 0.3207,0.062 0.13449,-0.6517 -0.33105,-0.062 z m -0.18621,0.9724 -0.13449,0.6518 0.33105,0.062 0.12414,-0.6414 -0.3207,-0.072 z m -0.19656,0.9828 -0.12414,0.6414 0.3207,0.072 0.12414,-0.6517 -0.3207,-0.062 z m -0.19656,0.9725 -0.12414,0.6517 0.3207,0.062 0.13449,-0.6517 -0.33105,-0.062 z m -0.18621,0.9724 -0.13449,0.6518 0.33105,0.062 0.12414,-0.6518 -0.3207,-0.062 z m -0.19656,0.9725 -0.12414,0.6517 0.3207,0.062 0.13449,-0.6518 -0.33105,-0.062 z m -0.37243,0.8586 c -0.91415,0 -1.65523,0.7411 -1.65523,1.6552 0,0.9142 0.74108,1.6553 1.65523,1.6553 0.91416,0 1.65523,-0.7411 1.65523,-1.6553 0,-0.9141 -0.74107,-1.6552 -1.65523,-1.6552 z" id="path2997" inkscape:connector-curvature="0"/>
  </g>
</svg>