<svg xmlns:dc="http://purl.org/dc/elements/1.1/" xmlns:cc="http://creativecommons.org/ns#" xmlns:rdf="http://www.w3.org/1999/02/22-rdf-syntax-ns#" xmlns:svg="http://www.w3.org/2000/svg" xmlns="http://www.w3.org/2000/svg" xmlns:sodipodi="http://sodipodi.sourceforge.net/DTD/sodipodi-0.dtd" xmlns:inkscape="http://www.inkscape.org/namespaces/inkscape" width="100" height="100" id="svg2" version="1.1" inkscape:version="0.48.2 r9819" sodipodi:docname="New document 1">
  <defs id="defs4"/>
  <sodipodi:namedview id="base" pagecolor="#ffffff" bordercolor="#666666" borderopacity="1.0" inkscape:pageopacity="0.0" inkscape:pageshadow="2" inkscape:zoom="6.63" inkscape:cx="50" inkscape:cy="50" inkscape:document-units="px" inkscape:current-layer="layer2" showgrid="false" inkscape:window-width="1600" inkscape:window-height="853" inkscape:window-x="-4" inkscape:window-y="-4" inkscape:window-maximized="1"/>
  <metadata id="metadata7">
    <rdf:RDF>
      <cc:Work rdf:about="">
        <dc:format>image/svg+xml</dc:format>
        <dc:type rdf:resource="http://purl.org/dc/dcmitype/StillImage"/>
        <dc:title/>
      </cc:Work>
    </rdf:RDF>
  </metadata>
  <g inkscape:groupmode="layer" id="layer2" inkscape:label="lines" style="display:inline" transform="translate(0,-952.36218)">
    <path style="font-size:medium;font-style:normal;font-variant:normal;font-weight:normal;font-stretch:normal;text-indent:0;text-align:start;text-decoration:none;line-height:normal;letter-spacing:normal;word-spacing:normal;text-transform:none;direction:ltr;block-progression:tb;writing-mode:lr-tb;text-anchor:start;baseline-shift:baseline;color:#000000;fill:#000000;fill-opacity:1;stroke:none;stroke-width:1;marker:none;visibility:visible;display:inline;overflow:visible;enable-background:accumulate;font-family:Sans;-inkscape-font-specification:Sans" d="m 34.706578,953.04014 c -1.94932,0 -3.52955,1.58024 -3.52955,3.52954 0,1.94932 1.58023,3.52955 3.52955,3.52955 1.08717,0 2.05485,-0.49547 2.7023,-1.26843 l 0.0368,0.0368 0.36766,-0.44119 -0.0735,-0.0552 c 0.31343,-0.52725 0.49634,-1.14364 0.49634,-1.80154 0,-1.9493 -1.58023,-3.52954 -3.52954,-3.52954 z m -17.84994,4.41193 c -1.94931,0 -3.52954,1.58024 -3.52954,3.52954 0,1.94932 1.58023,3.52955 3.52954,3.52955 0.82008,0 1.56995,-0.28452 2.1692,-0.75371 l 0.1103,0.14707 0.45957,-0.36766 -0.14706,-0.18383 c 0.5721,-0.62731 0.93754,-1.4555 0.93754,-2.37142 0,-1.9493 -1.58023,-3.52954 -3.52955,-3.52954 z m 21.41625,1.34196 -0.38605,0.45958 0.90077,0.7537 0.38604,-0.45957 -0.90076,-0.75371 z m 1.34196,1.13975 -0.36766,0.44119 0.90077,0.75371 0.36766,-0.44119 -0.90077,-0.75371 z m 3.18026,0.25736 c -1.5432,0 -2.79422,1.25102 -2.79422,2.79423 0,1.5432 1.25102,2.79422 2.79422,2.79422 0.39155,0 0.76472,-0.0752 1.10299,-0.2206 l 0.55149,0.91915 0.49634,-0.29412 -0.53311,-0.91916 c 0.71261,-0.50636 1.17652,-1.33874 1.17652,-2.27949 0,-1.54321 -1.25102,-2.79423 -2.79423,-2.79423 z m -22.83173,3.80529 -0.4412,0.36766 0.73532,0.90077 0.45958,-0.36766 -0.7537,-0.90077 z m 1.12136,1.36035 -0.44119,0.36766 0.7537,0.90077 0.4412,-0.36766 -0.75371,-0.90077 z m 24.1737,1.32358 -0.51472,0.31251 0.60664,1.01107 0.49634,-0.31252 -0.58826,-1.01106 z m -23.03395,0.0368 -0.45958,0.36766 0.75371,0.90077 0.44119,-0.36766 -0.73532,-0.90077 z m 1.12136,1.36035 -0.45957,0.36766 0.7537,0.90077 0.45958,-0.36766 -0.75371,-0.90077 z m 22.81336,0.12868 -0.51472,0.29413 0.60664,1.01107 0.49634,-0.29413 -0.58826,-1.01107 z m -34.67042,0.80885 c -1.31114,0 -2.3714102,1.06027 -2.3714102,2.37142 0,1.31115 1.0602702,2.37141 2.3714102,2.37141 1.31115,0 2.37141,-1.06026 2.37141,-2.37141 0,-1.31115 -1.06026,-2.37142 -2.37141,-2.37142 z m 12.97843,0.42281 -0.45958,0.36766 0.62503,0.75371 c -0.29414,0.27746 -0.50479,0.62241 -0.64341,1.01107 l -0.9743,-0.0919 -0.0551,0.58826 0.90077,0.0919 c -0.0102,0.0931 -0.0368,0.17992 -0.0368,0.27575 0,1.35959 1.05648,2.47114 2.3898,2.57363 l 0.0184,0.29412 0.58826,-0.0184 -0.0184,-0.29413 c 0.88442,-0.13496 1.61671,-0.71494 1.96698,-1.50741 l 0.31251,0.12868 0.2206,-0.55149 -0.36766,-0.14706 c 0.0298,-0.15711 0.0551,-0.31216 0.0551,-0.47796 0,-1.42718 -1.14645,-2.59201 -2.57363,-2.59201 -0.47676,0 -0.9218,0.14249 -1.30519,0.36766 l -0.64341,-0.77209 z m 22.59276,0.29413 -0.51473,0.29413 0.60665,1.01107 0.49634,-0.29413 -0.58826,-1.01107 z m -32.83211,0.91915 -0.0551,0.56988 1.17651,0.1103 0.0551,-0.56988 -1.17651,-0.1103 z m 1.76477,0.16545 -0.0551,0.56988 1.17651,0.12868 0.0551,-0.58826 -1.17651,-0.1103 z m 1.76477,0.16545 -0.0551,0.58826 1.15813,0.1103 0.0551,-0.58826 -1.15813,-0.1103 z m 1.74639,0.16545 -0.0551,0.58825 1.17651,0.1103 0.0551,-0.58825 -1.17651,-0.1103 z m 28.45695,0.0919 -0.51473,0.29413 0.60664,1.02945 0.49635,-0.31251 -0.58826,-1.01107 z m -26.69218,0.0735 -0.0552,0.58826 1.15813,0.1103 0.0552,-0.58826 -1.15813,-0.1103 z m 12.70268,1.26843 c -1.03231,0 -1.92066,0.61398 -2.33464,1.48903 l -0.16545,-0.0735 -0.23898,0.53311 0.20221,0.0919 c -0.0368,0.1737 -0.0551,0.36683 -0.0551,0.55149 0,1.42717 1.16484,2.57363 2.59201,2.57363 1.07038,0 1.97912,-0.65346 2.37142,-1.58094 l 1.12136,0.25736 0.12868,-0.56987 -1.06621,-0.25737 c 0.0233,-0.1396 0.0368,-0.27658 0.0368,-0.42281 0,-1.42717 -1.16483,-2.59201 -2.59201,-2.59201 z m 14.89027,0.18383 -0.51473,0.29413 0.60664,1.01107 0.49635,-0.29413 -0.58826,-1.01107 z m -19.00807,0.53311 -0.23898,0.55149 1.0846,0.45958 0.2206,-0.55149 -1.06622,-0.45958 z m 19.89045,0.9743 -0.49634,0.31252 0.60664,1.01106 0.49634,-0.31251 -0.60664,-1.01107 z m 0.90077,1.5258 -0.49634,0.29413 0.60664,1.01106 0.49634,-0.29413 -0.60664,-1.01106 z m -23.80604,0.0735 -0.58825,0.0184 0.0368,1.17652 0.58826,-0.0184 -0.0368,-1.17651 z m 11.32396,0.1103 -0.12868,0.56987 1.13974,0.25736 0.12869,-0.56987 -1.13975,-0.25736 z m 1.70962,0.38604 -0.12868,0.58826 1.15813,0.25736 0.12868,-0.56987 -1.15813,-0.27575 z m 1.72801,0.40443 -0.12869,0.56987 1.13975,0.27575 0.12868,-0.58826 -1.13974,-0.25736 z m 10.86437,0.0184 c -1.42717,0 -2.592,1.14645 -2.592,2.57363 0,1.42717 1.16483,2.59201 2.592,2.59201 1.42718,0 2.57363,-1.16484 2.57363,-2.59201 0,-1.42718 -1.14645,-2.57363 -2.57363,-2.57363 z m -9.13637,0.38604 -0.14706,0.56988 1.15813,0.25736 0.12868,-0.56987 -1.13975,-0.25737 z m 1.70963,0.38605 -0.12869,0.56987 1.13975,0.27575 0.12868,-0.56988 -1.13974,-0.27574 z m -18.16245,0.0735 -0.58826,0.0184 0.0368,1.17652 0.58826,-0.0184 -0.0368,-1.17652 z m 19.89045,0.3309 -0.14706,0.56987 1.15813,0.25736 0.12868,-0.56987 -1.13975,-0.25736 z m 1.70962,0.38604 -0.12868,0.56987 1.13975,0.27575 0.14707,-0.56987 -1.15814,-0.27575 z m -21.54492,1.04783 -0.58826,0.0184 0.0368,1.17651 0.58825,-0.0184 -0.0368,-1.17652 z m 28.43857,0.4412 -0.1103,0.56987 1.15813,0.2206 0.1103,-0.56988 -1.15813,-0.22059 z m 1.728,0.33089 -0.1103,0.56988 1.15813,0.22059 0.1103,-0.58826 -1.15813,-0.20221 z m 1.74639,0.31251 -0.1103,0.58826 1.15813,0.2206 0.0919,-0.58826 -1.13975,-0.2206 z m 1.72801,0.3309 -0.1103,0.58825 1.15813,0.20222 0.1103,-0.56988 -1.15813,-0.22059 z m 1.728,0.33089 -0.1103,0.56988 1.15814,0.22059 0.11029,-0.56987 -1.15813,-0.2206 z m -35.33221,0.0184 -0.58825,0.0184 0.0368,1.17651 0.58826,-0.0184 -0.0368,-1.17651 z m 51.12325,0.23897 c -1.30419,0 -2.37905,0.96874 -2.55525,2.22435 l -1.0846,-0.20221 -0.11029,0.58826 1.15813,0.22059 0.0184,-0.0919 c 0.0787,1.35636 1.19752,2.42656 2.57363,2.42656 1.42717,0 2.592,-1.14646 2.592,-2.57363 0,-1.42717 -1.16483,-2.59201 -2.592,-2.59201 z m -14.04465,0.0735 -0.1103,0.56987 1.15813,0.2206 0.0919,-0.56988 -1.13975,-0.22059 z m 1.72801,0.33089 -0.1103,0.56988 1.15813,0.22059 0.1103,-0.58825 -1.15813,-0.20222 z m -11.85707,0.27575 -0.55149,0.22059 0.4412,1.0846 0.5331,-0.20221 -0.42281,-1.10298 z m 13.58507,0.0368 -0.1103,0.58826 1.15814,0.2206 0.11029,-0.58826 -1.15813,-0.2206 z m 1.74639,0.3309 -0.1103,0.58826 1.15814,0.20221 0.0919,-0.56988 -1.13975,-0.22059 z m 1.72801,0.33089 -0.1103,0.56988 1.15813,0.22059 0.1103,-0.56987 -1.15813,-0.2206 z m -43.95386,0.14707 -0.58825,0.0184 0.0368,1.17652 0.56988,-0.0184 -0.0184,-1.17651 z m 45.68186,0.18383 -0.11029,0.56987 1.15813,0.2206 0.1103,-0.56988 -1.15814,-0.22059 z m -18.14406,0.60664 -0.55149,0.22059 0.44119,1.10299 0.55149,-0.2206 -0.44119,-1.10298 z m -27.50103,0.9743 -0.58826,0.0184 0.0368,1.17652 0.58826,-0.0184 -0.0368,-1.17651 z m 28.14444,0.68017 -0.53311,0.20222 0.42281,1.10298 0.55149,-0.2206 -0.44119,-1.0846 z m -28.08929,1.0846 -0.58826,0.0184 0.0184,1.17652 0.58826,-0.0184 -0.0184,-1.17652 z m 28.75108,0.55149 -0.55149,0.2206 0.42281,1.0846 0.55149,-0.2206 -0.42281,-1.0846 z m -28.71432,1.21328 -0.58825,0.0184 0.0368,1.17651 0.58826,-0.0184 -0.0368,-1.17652 z m 29.35772,0.42281 -0.55149,0.2206 0.4412,1.08457 0.5331,-0.2022 -0.42281,-1.10297 z m -29.30257,1.34197 -0.58825,0.018 0.0184,1.1765 0.58826,-0.018 -0.0184,-1.1765 z m 29.94598,0.2941 -0.55149,0.2206 0.44119,1.103 0.55149,-0.2206 -0.44119,-1.103 z m -29.90921,1.4707 -0.58826,0.018 0.0368,1.1765 0.58826,-0.018 -0.0368,-1.1765 z m 30.571,0.1838 -0.55149,0.2206 0.42281,1.0846 0.55149,-0.2206 -0.42281,-1.0846 z m -31.10411,1.5809 0.0184,1.0479 c -0.95121,0.3095 -1.63609,1.1882 -1.63609,2.2427 0,1.3112 1.06027,2.3714 2.37142,2.3714 0.28005,0 0.541,-0.058 0.79047,-0.147 l 0.38604,0.5882 0.49634,-0.3309 -0.34927,-0.5147 c 0.6315,-0.4266 1.04783,-1.1475 1.04783,-1.967 0,-1.3111 -1.06027,-2.3714 -2.37141,-2.3714 -0.0506,0 -0.0972,0.015 -0.14707,0.018 l -0.0184,-0.9375 -0.58826,0 z m 31.74752,0.055 -0.55149,0.2206 0.44119,1.0846 0.53311,-0.2022 -0.42281,-1.103 z m 0.6434,1.6361 -0.55149,0.2206 0.44119,1.103 0.5515,-0.2206 -0.4412,-1.103 z m 0.64341,1.6545 -0.53311,0.2022 0.42281,1.103 0.55149,-0.2206 -0.44119,-1.0846 z m 0.66179,1.6361 -0.55149,0.2206 0.44119,1.0846 0.53311,-0.2206 -0.42281,-1.0846 z m -30.95704,1.2868 -0.49635,0.33087 0.64341,0.9743 0.49634,-0.3125 -0.6434,-0.99267 z m 31.60045,0.34927 -0.5515,0.2206 0.4412,1.0846 0.55149,-0.2022 -0.44119,-1.103 z m -30.64454,1.1397 -0.49634,0.3126 0.64341,0.9926 0.49634,-0.3125 -0.64341,-0.9927 z m 31.28794,0.4964 -0.53311,0.2206 0.42281,1.103 0.55149,-0.2206 -0.44119,-1.103 z m -30.33202,0.9927 -0.49634,0.3125 0.64341,0.9927 0.49634,-0.3309 -0.64341,-0.9743 z m 30.99381,0.6618 -0.55149,0.2022 0.42281,1.103 0.55149,-0.2206 -0.42281,-1.0846 z m -30.03789,0.8088 -0.49634,0.3309 0.6434,0.9743 0.49635,-0.3125 -0.64341,-0.9927 z m 30.6813,0.8272 -0.55149,0.2206 0.44119,1.0846 0.53311,-0.2206 -0.42281,-1.0846 z m -29.72538,0.6618 -0.49634,0.3125 0.6434,0.9927 0.49634,-0.3125 -0.6434,-0.9927 z m 30.36878,0.9743 -0.55149,0.2206 0.4412,1.103 0.55149,-0.2206 -0.4412,-1.103 z m -29.41286,0.5148 -0.49635,0.3125 0.64341,0.9927 0.49634,-0.3126 -0.6434,-0.9926 z m 30.07465,1.1397 -0.55149,0.2022 0.42281,1.103 0.55149,-0.2206 -0.42281,-1.0846 z m -29.11874,0.3309 -0.49634,0.3309 0.64341,0.9927 0.49634,-0.3309 -0.64341,-0.9927 z m 29.76215,1.3052 -0.55149,0.2206 0.44119,1.0846 0.53311,-0.2206 -0.42281,-1.0846 z m -28.80623,0.1838 -0.49634,0.3125 0.64341,0.9927 0.49634,-0.3125 -0.64341,-0.9927 z m 29.44964,1.4523 -0.55149,0.2206 0.44119,1.0846 0.55149,-0.2022 -0.44119,-1.103 z m -28.49372,0.037 -0.47796,0.3125 0.49634,0.7721 0.0184,0.018 0,0.018 0.0184,0.055 c -0.6823,0.417 -1.13975,1.1823 -1.13975,2.0405 0,1.114 0.76669,2.0419 1.80154,2.2979 l 0,0.037 0.34928,0.018 c 0.0736,0.01 0.14523,0.018 0.22059,0.018 0.25935,0 0.50171,-0.052 0.73533,-0.1287 l 0.27574,0.6434 0.53311,-0.2573 -0.27575,-0.6251 c 0.66219,-0.4212 1.10299,-1.1608 1.10299,-2.0037 0,-1.3112 -1.06027,-2.3898 -2.37142,-2.3898 -0.23969,0 -0.46204,0.063 -0.68017,0.1287 l -0.0551,-0.1103 -0.0184,-0.037 0,-0.018 -0.53311,-0.7905 z m 29.13712,1.5993 -0.5331,0.2206 0.42281,1.103 0.55149,-0.2206 -0.4412,-1.103 z m 0.66179,1.6545 -0.55149,0.2022 0.0919,0.2206 c -0.72811,0.4055 -1.23167,1.1664 -1.23167,2.0589 0,1.2226 0.94454,2.2043 2.13244,2.3347 l 0.12868,1.1765 0.58825,-0.073 -0.14706,-1.103 c 1.16169,-0.1546 2.0589,-1.1307 2.0589,-2.3347 0,-1.3111 -1.06026,-2.3714 -2.37141,-2.3714 -0.21718,0 -0.42517,0.037 -0.62502,0.092 l -0.0735,-0.2022 z m -29.10035,2.8861 -0.0184,1.1765 0.58826,0.018 0.0184,-1.1765 -0.58825,-0.018 z m 2.38979,0.239 -0.53311,0.2574 0.47796,1.0662 0.53311,-0.239 -0.47796,-1.0846 z m -2.42656,1.5258 -0.0368,1.1765 0.58826,0 0.0368,-1.1765 -0.58826,0 z m 31.5453,0 -0.51472,0.2941 0.56987,1.0295 0.51473,-0.2941 -0.56988,-1.0295 z m -28.38342,0.092 -0.5331,0.239 0.47795,1.0662 0.53311,-0.239 -0.47796,-1.0662 z m 29.22904,1.4523 -0.51472,0.2941 0.56987,1.0294 0.51473,-0.2757 -0.56988,-1.0478 z m -28.49371,0.147 -0.53311,0.239 0.47796,1.0662 0.5331,-0.239 -0.47795,-1.0662 z m -3.95236,0.055 -0.0368,1.1765 0.58825,0.018 0.0368,-1.1765 -0.58826,-0.018 z m 30.42394,0.1103 -0.58826,0.055 0.12868,1.1765 0.58826,-0.073 -0.12868,-1.1581 z m 2.86775,1.2501 -0.51472,0.2757 0.56987,1.0295 0.51473,-0.2758 -0.56988,-1.0294 z m -28.60401,0.1838 -0.53311,0.2574 0.47796,1.0662 0.53311,-0.2574 -0.47796,-1.0662 z m -4.74283,0.2206 -0.0368,1.1765 0.58825,0.018 0.0368,-1.1765 -0.58826,-0.018 z m 30.6813,0.092 -0.58826,0.074 0.14707,1.1581 0.56987,-0.073 -0.12868,-1.1581 z m 3.51116,1.0478 -0.51472,0.2758 0.56987,1.0294 0.51473,-0.2757 -0.56988,-1.0295 z m -28.71431,0.2574 -0.55149,0.239 0.49634,1.0662 0.53311,-0.239 -0.47796,-1.0662 z m -5.5333,0.3676 -0.0368,1.1766 0.58825,0.018 0.0368,-1.1765 -0.58826,-0.018 z m 30.93866,0.073 -0.58825,0.073 0.14706,1.1766 0.58826,-0.073 -0.14707,-1.1766 z m 4.17295,0.8457 -0.51472,0.2757 0.55149,1.0295 0.51473,-0.2758 -0.5515,-1.0294 z m -28.84299,0.3125 -0.55149,0.239 0.49634,1.0662 0.53311,-0.239 -0.47796,-1.0662 z m -6.32377,0.5331 -0.0368,1.1765 0.58826,0.018 0.0368,-1.1765 -0.58826,-0.018 z m 31.19603,0.074 -0.56988,0.055 0.12868,1.1765 0.58826,-0.073 -0.14706,-1.1581 z m 4.81635,0.625 -0.51472,0.2941 0.56987,1.0295 0.51473,-0.2941 -0.56988,-1.0295 z m -28.97167,0.3677 -0.53311,0.2389 0.49634,1.0846 0.53311,-0.2573 -0.49634,-1.0662 z m -7.09586,0.6985 -0.0368,1.1765 0.58826,0.018 0.0368,-1.1765 -0.58826,-0.018 z m 31.47177,0.055 -0.58825,0.073 0.12868,1.1582 0.58825,-0.073 -0.12868,-1.1582 z m 5.44138,0.4228 -0.51472,0.2942 0.56987,1.0294 0.51473,-0.2941 -0.56988,-1.0295 z m -29.08197,0.4228 -0.53311,0.2574 0.49634,1.0662 0.53311,-0.239 -0.49634,-1.0846 z m -7.88632,0.864 -0.0368,1.1766 0.58826,0.018 0.0368,-1.1766 -0.58825,-0.018 z m 31.72913,0.037 -0.58826,0.073 0.14706,1.1766 0.56988,-0.073 -0.12868,-1.1766 z m 6.08478,0.2206 -0.51472,0.2942 0.56987,1.0294 0.51473,-0.2757 -0.56988,-1.0479 z m -29.19227,0.4964 -0.53311,0.239 0.49635,1.0662 0.5331,-0.239 -0.49634,-1.0662 z m -8.67679,1.011 -0.0184,1.1766 0.58826,0.018 0.0184,-1.1765 -0.58825,-0.018 z m 31.98649,0.037 -0.58826,0.055 0.14707,1.1766 0.58825,-0.073 -0.14706,-1.1582 z m 6.72819,0.018 -0.51472,0.2758 0.56987,1.0294 0.51473,-0.2757 -0.56988,-1.0295 z m -29.30257,0.5332 -0.5331,0.2389 0.49634,1.0846 0.53311,-0.2573 -0.49635,-1.0662 z m 30.16658,1.011 -0.51473,0.2758 0.55149,1.0294 0.51473,-0.2757 -0.55149,-1.0295 z m -39.61546,0.1655 -0.0368,1.1765 0.58826,0.018 0.0368,-1.1765 -0.58826,-0.018 z m 32.22547,0.018 -0.56987,0.073 0.12868,1.1581 0.58826,-0.055 -0.14707,-1.1765 z m -22.04126,0.4044 -0.53311,0.2574 0.49634,1.0662 0.53311,-0.239 -0.49634,-1.0846 z m 30.27687,0.9559 -0.51473,0.2758 0.55149,1.0294 0.53311,-0.2757 -0.56987,-1.0295 z m -40.51623,0.3861 -0.0368,1.1765 0.58825,0.018 0.0368,-1.1765 -0.58826,-0.018 z m 32.50122,0 -0.58826,0.073 0.12868,1.1765 0.58826,-0.073 -0.12868,-1.1765 z m -21.52654,0.2757 -0.53311,0.239 0.49634,1.0662 0.53311,-0.239 -0.49634,-1.0662 z m 30.38717,0.8824 -0.51473,0.2757 0.56988,1.0479 0.51472,-0.2942 -0.56987,-1.0294 z m -41.417,0.6066 -0.0368,1.1765 0.58825,0.018 0.0368,-1.1765 -0.58826,-0.018 z m 32.75858,0 -0.58825,0.055 0.14706,1.1765 0.58826,-0.073 -0.14707,-1.1581 z m -20.99343,0.1103 -0.53311,0.239 0.49634,1.0662 0.53311,-0.239 -0.49634,-1.0662 z m 31.3247,0.7905 c -0.26145,0 -0.52493,0.056 -0.7537,0.1471 l -0.0735,-0.1103 -0.51473,0.2941 0.0735,0.1287 c -0.44559,0.3655 -0.73532,0.9228 -0.73532,1.5441 0,1.1009 0.90291,1.9854 2.00375,1.9854 0.51815,0 0.96911,-0.209 1.32358,-0.5331 l 0.47796,0.4228 0.38605,-0.4412 -0.47796,-0.4228 c 0.17907,-0.299 0.27574,-0.6372 0.27574,-1.0111 0,-1.1008 -0.88452,-2.0037 -1.98537,-2.0037 z m -30.58938,0.8088 -0.53311,0.2574 0.49634,1.0662 0.53311,-0.2573 -0.49634,-1.0663 z m 20.46033,0.037 -0.58826,0.074 0.14706,1.1582 0.58826,-0.055 -0.14706,-1.1765 z m -33.01595,0.018 -0.0368,1.1766 0.58825,0.018 0.0368,-1.1766 -0.58826,-0.018 z m 13.29094,1.5626 -0.53311,0.239 0.47796,1.0662 0.55149,-0.239 -0.49634,-1.0662 z m 19.9456,0.1655 -0.58825,0.073 0.0551,0.5514 c -0.71541,0.3026 -1.21329,0.9943 -1.21329,1.82 0,1.1008 0.88453,2.0037 1.98537,2.0037 1.10084,0 1.98537,-0.9029 1.98537,-2.0037 0,-1.1009 -0.88453,-1.9854 -1.98537,-1.9854 -0.0626,0 -0.1227,0.013 -0.18383,0.018 l -0.0551,-0.478 z m -33.29169,0.037 -0.0368,1.1765 0.58826,0.018 0.0368,-1.1765 -0.58826,-0.018 z m 45.82893,1.1949 -0.38604,0.4411 0.88238,0.7905 0.38605,-0.4412 -0.88239,-0.7904 z m -31.74752,0.2022 -0.5331,0.2389 0.38604,0.8824 c -0.47551,0.3643 -0.77209,0.9357 -0.77209,1.581 0,1.1008 0.88453,1.9853 1.98537,1.9853 1.10084,0 1.98537,-0.8845 1.98537,-1.9853 0,-1.1009 -0.88453,-2.0038 -1.98537,-2.0038 -0.23986,0 -0.46718,0.051 -0.68017,0.1287 l -0.38605,-0.8272 z m -14.13656,0.3676 -0.0368,1.1765 0.58826,0.018 0.0368,-1.1765 -0.58826,-0.018 z m 47.20766,0.6067 -0.38605,0.4412 0.86401,0.7904 0.40442,-0.4412 -0.88238,-0.7904 z m -47.2628,1.1581 -0.0368,1.1765 0.58826,0.018 0.0368,-1.1765 -0.58825,-0.018 z m 48.58638,0.018 -0.40443,0.4412 0.88239,0.7721 0.38604,-0.4412 -0.864,-0.7721 z m 2.59201,0.5515 c -1.10085,0 -1.98537,0.8845 -1.98537,1.9854 0,1.1008 0.88452,2.0037 1.98537,2.0037 1.10084,0 2.00375,-0.9029 2.00375,-2.0037 0,-1.1009 -0.90291,-1.9854 -2.00375,-1.9854 z m -51.21516,1.1949 -0.0368,1.0846 c -0.9256,0.1722 -1.63609,0.9731 -1.63609,1.9486 0,1.1008 0.90291,1.9854 2.00375,1.9854 1.10084,0 1.98537,-0.8846 1.98537,-1.9854 0,-1.0255 -0.76887,-1.8562 -1.76477,-1.967 l 0.0184,-1.0478 -0.56987,-0.018 z" id="path2997" inkscape:connector-curvature="0"/>
  </g>
</svg>