<svg xmlns:dc="http://purl.org/dc/elements/1.1/" xmlns:cc="http://creativecommons.org/ns#" xmlns:rdf="http://www.w3.org/1999/02/22-rdf-syntax-ns#" xmlns:svg="http://www.w3.org/2000/svg" xmlns="http://www.w3.org/2000/svg" xmlns:sodipodi="http://sodipodi.sourceforge.net/DTD/sodipodi-0.dtd" xmlns:inkscape="http://www.inkscape.org/namespaces/inkscape" width="100" height="100" id="svg2" version="1.1" inkscape:version="0.48.2 r9819" sodipodi:docname="New document 1">
  <defs id="defs4"/>
  <sodipodi:namedview id="base" pagecolor="#ffffff" bordercolor="#666666" borderopacity="1.0" inkscape:pageopacity="0.0" inkscape:pageshadow="2" inkscape:zoom="4.688118" inkscape:cx="47.907066" inkscape:cy="60.750094" inkscape:document-units="px" inkscape:current-layer="layer2" showgrid="false" inkscape:window-width="1600" inkscape:window-height="853" inkscape:window-x="-4" inkscape:window-y="-4" inkscape:window-maximized="1"/>
  <metadata id="metadata7">
    <rdf:RDF>
      <cc:Work rdf:about="">
        <dc:format>image/svg+xml</dc:format>
        <dc:type rdf:resource="http://purl.org/dc/dcmitype/StillImage"/>
        <dc:title/>
      </cc:Work>
    </rdf:RDF>
  </metadata>
  <g inkscape:groupmode="layer" id="layer2" inkscape:label="Layer" transform="translate(0,-952.36218)">
    <path style="font-size:medium;font-style:normal;font-variant:normal;font-weight:normal;font-stretch:normal;text-indent:0;text-align:start;text-decoration:none;line-height:normal;letter-spacing:normal;word-spacing:normal;text-transform:none;direction:ltr;block-progression:tb;writing-mode:lr-tb;text-anchor:start;baseline-shift:baseline;color:#000000;fill:#000000;fill-opacity:1;stroke:none;stroke-width:1;marker:none;visibility:visible;display:inline;overflow:visible;enable-background:accumulate;font-family:Sans;-inkscape-font-specification:Sans" d="m 70.396499,953.27591 c -1.26537,0 -2.2893,1.02393 -2.2893,2.2893 0,0.93476 0.55542,1.73896 1.35806,2.09528 l -0.21988,0.50443 0.37508,0.16814 0.23281,-0.54323 c 0.17348,0.042 0.35685,0.0647 0.54323,0.0647 1.26536,0 2.28929,-1.02393 2.28929,-2.28929 0,-1.26537 -1.02393,-2.2893 -2.28929,-2.2893 z m -33.78329,1.62967 c -1.38782,0 -2.50918,1.12135 -2.50918,2.50917 0,0.88395 0.46109,1.66029 1.15112,2.10822 l -0.0647,0.16814 0.38801,0.15521 0.0517,-0.12934 c 0.30488,0.13146 0.62988,0.20694 0.98298,0.20694 1.38781,0 2.5221,-1.12135 2.5221,-2.50917 0,-1.38782 -1.13429,-2.50917 -2.5221,-2.50917 z m 32.46403,3.64735 -0.32335,0.75017 0.38802,0.16814 0.32335,-0.7631 -0.38802,-0.15521 z m -0.47855,1.13818 -0.33628,0.7631 0.38801,0.15521 0.32335,-0.7631 -0.37508,-0.15521 z m -33.56342,0.38802 -0.31041,0.7631 0.38802,0.15521 0.31041,-0.7631 -0.38802,-0.15521 z m 33.07193,0.75017 -0.32335,0.76309 0.37509,0.16814 0.32334,-0.76309 -0.37508,-0.16814 z m -33.53755,0.40095 -0.32334,0.76309 0.38801,0.15521 0.31041,-0.7631 -0.37508,-0.1552 z m 33.04606,0.73723 -0.32334,0.7631 0.37508,0.16814 0.32335,-0.7631 -0.37509,-0.16814 z m -33.52461,0.40095 -0.31041,0.77603 0.37508,0.15521 0.32335,-0.7631 -0.38802,-0.16814 z m 33.03313,0.75016 -0.32335,0.75017 0.37508,0.16814 0.33628,-0.7631 -0.38801,-0.15521 z m -33.49875,0.40095 -0.32335,0.7631 0.38802,0.15521 0.31041,-0.7631 -0.37508,-0.15521 z m 33.00726,0.73723 -0.32335,0.7631 0.37508,0.15521 0.33628,-0.7631 -0.38801,-0.15521 z m -33.48581,0.41389 -0.31042,0.7631 0.37509,0.1552 0.32334,-0.7631 -0.38801,-0.1552 z m 32.99432,0.72429 -0.21988,0.53029 c -0.16501,-0.0495 -0.33623,-0.0905 -0.51735,-0.0905 -1.00005,0 -1.81074,0.81069 -1.81074,1.81074 0,0.7042 0.40889,1.31726 0.99591,1.61673 l -0.12934,0.37509 0.38801,0.14227 0.12934,-0.37508 c 0.13892,0.0341 0.27737,0.0517 0.42682,0.0517 1.00005,0 1.81074,-0.81069 1.81074,-1.81074 0,-0.66962 -0.36495,-1.25171 -0.90537,-1.565 l 0.21988,-0.51736 -0.38802,-0.16814 z m -33.45994,0.42682 -0.32335,0.7631 0.38802,0.15521 0.31041,-0.7631 -0.37508,-0.15521 z m -0.47856,1.13818 -0.31041,0.77604 0.37508,0.1552 0.32335,-0.7631 -0.38802,-0.16814 z m -0.46562,1.15112 -0.32334,0.7631 0.38801,0.16814 0.31042,-0.77603 -0.37509,-0.15521 z m -0.47855,1.15111 -0.31041,0.7631 0.37508,0.15521 0.32335,-0.7631 -0.38802,-0.15521 z m 33.05899,0.7631 -0.28454,0.77604 0.40095,0.14227 0.27161,-0.77603 -0.38802,-0.14228 z m -33.52461,0.38802 -0.32335,0.7631 0.38802,0.1552 0.31041,-0.76309 -0.37508,-0.15521 z m 33.11073,0.77603 -0.28455,0.78897 0.38802,0.12934 0.28455,-0.77604 -0.38802,-0.14227 z m -33.58928,0.37508 -0.31042,0.7631 0.37509,0.15521 0.32334,-0.7631 -0.38801,-0.15521 z m 33.16246,0.80191 -0.27161,0.77603 0.38802,0.14227 0.27161,-0.78897 -0.38802,-0.12933 z m -33.62808,0.33628 -0.32335,0.77603 0.38802,0.15521 0.31041,-0.7631 -0.37508,-0.16814 z m 33.2142,0.82776 -0.28455,0.77604 0.38802,0.14227 0.28454,-0.77603 -0.38801,-0.14228 z m -33.69276,0.32335 -0.31041,0.7631 0.37508,0.16814 0.32335,-0.77603 -0.38802,-0.15521 z m 33.27887,0.8407 -0.28454,0.78897 0.38801,0.12934 0.28455,-0.77603 -0.38802,-0.14228 z m -33.75742,0.31042 -0.31041,0.7631 0.38801,0.1552 0.31042,-0.7631 -0.38802,-0.1552 z m 33.33061,0.86657 -0.14228,0.40095 c -0.0708,-0.007 -0.14717,-0.0129 -0.21987,-0.0129 -1.16332,0 -2.10823,0.94491 -2.10823,2.10822 0,0.0341 -0.002,0.0698 0,0.10348 l -0.42681,0.194 0.16814,0.37509 0.32334,-0.14228 c 0.23595,0.9054 1.06427,1.57794 2.04356,1.57794 0.0642,0 0.13128,-0.007 0.194,-0.0129 l 0.0388,0.51736 0.41388,-0.0259 -0.0388,-0.56909 c 0.8638,-0.26283 1.50033,-1.06796 1.50033,-2.01769 0,-0.94101 -0.62289,-1.74748 -1.47446,-2.01768 l 0.1164,-0.33628 -0.38801,-0.14227 z m -33.79623,0.28454 -0.31041,0.7631 0.37508,0.15521 0.32335,-0.7631 -0.38802,-0.15521 z m -0.47855,1.13818 -0.31042,0.77604 0.38802,0.1552 0.31041,-0.7631 -0.38801,-0.16814 z m -0.46562,1.15112 -0.31042,0.7631 0.37509,0.16814 0.32334,-0.77604 -0.38801,-0.1552 z m 31.45519,0.38801 -0.75016,0.32335 0.16814,0.38802 0.75016,-0.33628 -0.16814,-0.37509 z m -1.12525,0.49149 -0.7631,0.33628 0.16814,0.38802 0.7631,-0.33628 -0.16814,-0.38802 z m -31.22238,0.25868 c -0.96943,0 -1.75901,0.78957 -1.75901,1.75901 0,0.96943 0.78958,1.759 1.75901,1.759 0.96943,0 1.74607,-0.78957 1.74607,-1.759 0,-0.6853 -0.38444,-1.27593 -0.9571,-1.565 l 0.0129,-0.0259 -0.38802,-0.15521 -0.0129,0.0388 c -0.13012,-0.0308 -0.26143,-0.0517 -0.40095,-0.0517 z m 30.0842,0.24574 -0.7631,0.33628 0.16814,0.37509 0.7631,-0.32335 -0.16814,-0.38802 z m -1.13818,0.50442 -0.75016,0.33629 0.1552,0.37508 0.7631,-0.33628 -0.16814,-0.37509 z m -1.13818,0.50443 -0.75017,0.33628 0.16814,0.37508 0.75017,-0.33628 -0.16814,-0.37508 z m -1.13818,0.50442 -0.75017,0.33628 0.16814,0.37508 0.75017,-0.33628 -0.16814,-0.37508 z m -24.62611,0.0129 -0.0647,0.41389 0.81484,0.14227 0.0647,-0.41389 -0.81484,-0.14227 z m 33.8997,0.0129 -0.41389,0.0259 0.0647,0.82777 0.41389,-0.0388 -0.0647,-0.81484 z m -32.67098,0.19401 -0.0776,0.41389 0.81483,0.14227 0.0776,-0.41388 -0.81483,-0.14228 z m 1.21579,0.21988 -0.0647,0.40095 0.81483,0.14227 0.0647,-0.40095 -0.81483,-0.14227 z m 21.05635,0.0647 -0.7631,0.32335 0.16814,0.38801 0.7631,-0.33628 -0.16814,-0.37508 z m -19.82764,0.14227 -0.0647,0.40095 0.81484,0.14227 0.0647,-0.40095 -0.81484,-0.14227 z m 14.1238,0.0776 c -1.25516,0 -2.27636,1.00827 -2.27636,2.26343 0,1.25516 1.0212,2.27637 2.27636,2.27637 0.16114,0 0.31396,-0.007 0.46562,-0.0388 l 0.0129,0.0129 0.10347,-0.0517 c 0.97046,-0.2589 1.69434,-1.14671 1.69434,-2.19876 0,-0.17541 -0.027,-0.34042 -0.0647,-0.50442 l 0.24575,-0.10347 -0.16814,-0.37508 -0.19401,0.0905 c -0.34763,-0.80976 -1.15822,-1.371 -2.09529,-1.371 z m -12.89508,0.12934 -0.0776,0.41389 0.81483,0.14227 0.0776,-0.41388 -0.81484,-0.14228 z m 17.46074,0.14228 -0.7631,0.33628 0.16814,0.38801 0.7631,-0.33628 -0.16814,-0.38801 z m -16.24495,0.0647 -0.0647,0.41388 0.81483,0.14227 0.0647,-0.41388 -0.81483,-0.14227 z m 27.88544,0.194 -0.41388,0.0388 0.0647,0.82777 0.41389,-0.0388 -0.0647,-0.82777 z m -26.65672,0.0259 -0.0776,0.40095 0.82777,0.14227 0.0647,-0.41388 -0.81483,-0.12934 z m 1.21578,0.20694 -0.0647,0.40095 0.81483,0.14228 0.0776,-0.40095 -0.82777,-0.14228 z m 12.66227,0.0129 -0.75017,0.33628 0.16814,0.37508 0.75017,-0.33628 -0.16814,-0.37508 z m -11.43355,0.19401 -0.0647,0.41388 0.81483,0.14227 0.0647,-0.41388 -0.81483,-0.14227 z m 1.22872,0.20694 -0.0776,0.41388 0.81484,0.14227 0.0776,-0.41388 -0.81483,-0.14227 z m 1.21578,0.21987 -0.0647,0.40095 0.81484,0.14228 0.0647,-0.41389 -0.81484,-0.12934 z m 1.22872,0.20695 -0.0647,0.40095 0.81483,0.14227 0.0647,-0.40095 -0.81483,-0.14227 z m 20.62954,0.16814 -0.41389,0.0388 0.0647,0.81483 0.41389,-0.0259 -0.0647,-0.82776 z m -19.40082,0.0388 -0.0776,0.41388 0.81483,0.12934 0.0776,-0.40095 -0.81483,-0.14227 z m 19.50429,1.20285 -0.41389,0.0259 0.0647,0.82776 0.41389,-0.0259 -0.0647,-0.82777 z m 0.0905,1.22872 -0.41388,0.0388 0.0647,0.82777 0.41388,-0.0388 -0.0647,-0.82776 z m -15.45598,0.46562 -0.37508,0.18107 0.34921,0.75017 0.37508,-0.18108 -0.34921,-0.75016 z m 15.54652,0.77603 -0.40095,0.0388 0.0517,0.81483 0.41388,-0.0259 -0.0647,-0.82777 z m -15.02917,0.34921 -0.37508,0.18108 0.34922,0.75016 0.37508,-0.18107 -0.34922,-0.75017 z m 15.13264,0.89244 -0.41388,0.0259 0.0647,0.82777 0.41388,-0.0259 -0.0647,-0.82777 z m -14.60235,0.23281 -0.38801,0.18108 0.34921,0.75016 0.37508,-0.18107 -0.33628,-0.75017 z m 14.69289,1.00884 -0.41388,0.0259 0.0647,0.82777 0.41388,-0.0388 -0.0647,-0.81484 z m -14.17553,0.12934 -0.37508,0.16814 0.34921,0.75017 0.37508,-0.16814 -0.34921,-0.75017 z m 14.279,1.09938 -0.41388,0.0388 0.0647,0.82777 0.41388,-0.0388 -0.0647,-0.82777 z m -13.76165,0.0259 -0.37508,0.16814 0.34922,0.75017 0.37508,-0.16815 -0.34922,-0.75016 z m 0.53029,1.12525 -0.37508,0.16814 0.34922,0.75016 0.37508,-0.16814 -0.34922,-0.75016 z m 13.3219,0.0905 -0.41389,0.0388 0.0647,0.81483 0.41389,-0.0259 -0.0647,-0.82777 z m -12.80454,1.03471 -0.37508,0.16815 0.34921,0.75016 0.37508,-0.16814 -0.34921,-0.75017 z m 12.89508,0.20695 -0.40095,0.0259 0.0647,0.82777 0.40095,-0.0259 -0.0647,-0.82777 z m -12.36479,0.9183 -0.37509,0.16814 0.34922,0.75017 0.37508,-0.16814 -0.34921,-0.75017 z m 12.46826,0.31042 -0.41389,0.0388 0.0647,0.82777 0.41389,-0.0388 -0.0647,-0.82776 z m -11.95091,0.81483 -0.37508,0.16814 0.34921,0.75017 0.37509,-0.16815 -0.34922,-0.75016 z m 12.04144,0.42682 -0.41388,0.0388 0.0647,0.81483 0.20694,-0.0129 c -1.06293,0.1442 -1.9013,0.99406 -2.00475,2.06942 l -0.59496,0.15521 0.0905,0.40095 0.50442,-0.12934 c 0.10093,1.19265 1.0964,2.13405 2.31516,2.13405 0.14697,0 0.28741,-0.026 0.42682,-0.052 l 0.0905,0.3234 0.40095,-0.1164 -0.0905,-0.3104 c 0.87686,-0.3339 1.50033,-1.1789 1.50033,-2.17292 0,-1.28577 -1.04232,-2.3281 -2.3281,-2.3281 -0.0356,0 -0.0683,-0.002 -0.10347,0 l -0.0647,-0.81483 z m -11.52408,0.69843 -0.37508,0.16814 0.34921,0.75016 0.37508,-0.16814 -0.34921,-0.75016 z m 0.53029,1.12524 -0.37509,0.16815 0.34922,0.76309 0.37508,-0.18107 -0.34921,-0.75017 z m 0.51735,1.12525 -0.37508,0.18108 0.0905,0.194 c -0.84982,0.32288 -1.4486,1.14512 -1.4486,2.10822 0,1.245 1.00554,2.2505 2.2505,2.2505 1.24495,0 2.26343,-1.0055 2.26343,-2.2505 0,-1.2449 -1.01848,-2.25049 -2.26343,-2.25049 -0.13252,0 -0.26178,0.004 -0.38802,0.0259 l -0.12934,-0.25868 z m 7.32058,0.21988 -0.8019,0.20694 0.10347,0.40095 0.8019,-0.20694 -0.10347,-0.40095 z m -1.20285,0.31041 -0.8019,0.19401 0.10347,0.401 0.8019,-0.1941 -0.10347,-0.40091 z m -1.20285,0.29748 -0.8019,0.20693 0.10347,0.401 0.8019,-0.207 -0.10347,-0.40093 z m -1.20285,0.31043 -0.80191,0.2069 0.10348,0.401 0.8019,-0.207 -0.10347,-0.4009 z m 7.96726,1.9401 -0.40095,0.1035 0.21988,0.8019 0.40095,-0.1035 -0.21988,-0.8019 z m -41.64709,0.9959 c -0.8936,0 -1.61291,0.689 -1.6814,1.565 l -0.47855,0.039 0.0388,0.4139 0.45268,-0.039 c 0.13395,0.8051 0.8254,1.4227 1.66847,1.4227 0.48634,0 0.91888,-0.2158 1.22872,-0.5432 l 0.56909,0.4139 0.24575,-0.3363 -0.56909,-0.4139 c 0.13765,-0.2455 0.23281,-0.5263 0.23281,-0.8277 0,-0.9389 -0.76846,-1.6944 -1.70728,-1.6944 z m 41.97044,0.194 -0.38802,0.1164 0.21988,0.8019 0.40095,-0.1164 -0.23281,-0.8019 z m -46.70424,0.1682 c -0.898,0 -1.61673,0.7316 -1.61673,1.6296 0,0.898 0.71873,1.6297 1.61673,1.6297 0.85749,0 1.55511,-0.6715 1.61674,-1.5133 l 0.58202,-0.052 -0.0388,-0.4138 -0.55615,0.052 c -0.14172,-0.7535 -0.80913,-1.3322 -1.60381,-1.3322 z m 34.06784,0.09 -0.33628,0.7631 0.37508,0.1681 0.33628,-0.7631 -0.37508,-0.1681 z m 12.97268,0.9441 -0.40095,0.1035 0.21988,0.8019 0.40095,-0.1164 -0.21988,-0.789 z m -13.4771,0.194 -0.33628,0.7631 0.37508,0.1682 0.33628,-0.7631 -0.37508,-0.1682 z m 13.81338,0.996 -0.40095,0.1164 0.21988,0.8019 0.40095,-0.1164 -0.21988,-0.8019 z m -14.3178,0.1422 -0.33628,0.7631 0.38801,0.1552 0.32335,-0.7501 -0.37508,-0.1682 z m -25.9583,0.4527 -0.24574,0.3363 0.67256,0.4915 0.24575,-0.3363 -0.67257,-0.4915 z m 4.02244,0.2846 c -1.53068,0 -2.76785,1.2501 -2.76785,2.7807 0,1.5307 1.23717,2.7679 2.76785,2.7679 0.90884,0 1.7192,-0.4365 2.22463,-1.1123 l 0.40095,0.2199 0.20694,-0.3622 -0.37508,-0.2069 c 0.20832,-0.3892 0.32334,-0.8341 0.32334,-1.3064 0,-1.5306 -1.2501,-2.7807 -2.78078,-2.7807 z m 36.58994,0.3233 -0.40095,0.1035 0.21988,0.8019 0.40095,-0.1164 -0.21988,-0.789 z m -15.1585,0.078 -0.32335,0.7502 0.37508,0.1681 0.33628,-0.7502 -0.38801,-0.1681 z m -24.45797,0.065 -0.24574,0.3234 0.67256,0.4914 0.24574,-0.3233 -0.67256,-0.4915 z m 39.93982,1.0477 -0.38802,0.1164 0.21988,0.8019 0.40095,-0.1164 -0.23281,-0.8019 z m -15.97334,0.026 -0.33628,0.7501 0.37508,0.1682 0.33628,-0.7502 -0.37508,-0.1681 z m -0.50442,1.1252 -0.33628,0.7631 0.37508,0.1681 0.33628,-0.7631 -0.37508,-0.1681 z m 16.81404,0.052 -0.40095,0.1035 0.21988,0.8019 0.40095,-0.1164 -0.21988,-0.789 z m -17.31846,1.0864 -0.33628,0.7631 0.37508,0.1682 0.33628,-0.7631 -0.37508,-0.1682 z m 17.65474,0.1035 -0.40095,0.1164 0.21988,0.8019 0.40095,-0.1164 -0.21988,-0.8019 z m -34.40412,0.595 -0.194,0.3621 0.72429,0.401 0.19401,-0.3492 -0.7243,-0.4139 z m 16.24496,0.4397 -0.33628,0.7631 0.38801,0.1682 0.33628,-0.7631 -0.38801,-0.1682 z m -15.15851,0.1682 -0.20694,0.3621 0.7243,0.401 0.20694,-0.3493 -0.7243,-0.4138 z m 33.65395,0 -0.40095,0.1034 0.21988,0.8019 0.40095,-0.1164 -0.21988,-0.7889 z m -32.5675,0.6079 -0.20695,0.3621 0.7243,0.4139 0.20694,-0.3622 -0.72429,-0.4138 z m 13.56764,0.3621 -0.32335,0.7502 0.37508,0.1681 0.33628,-0.7502 -0.38801,-0.1681 z m 19.32321,0.2199 -0.38802,0.1164 0.21988,0.7889 0.38802,-0.1034 -0.21988,-0.8019 z m -31.81734,0.026 -0.19401,0.3621 0.7243,0.4139 0.19401,-0.3621 -0.7243,-0.4139 z m 1.08644,0.6079 -0.20694,0.3621 0.7243,0.4139 0.20694,-0.3621 -0.7243,-0.4139 z m 10.9162,0.2845 -0.33628,0.7502 0.37508,0.1681 0.33628,-0.7501 -0.37508,-0.1682 z m 20.15098,0.2846 -0.40095,0.1034 0.21988,0.8019 0.40095,-0.1164 -0.21988,-0.7889 z m -29.98073,0.039 -0.20694,0.3621 0.7243,0.4139 0.20694,-0.3622 -0.7243,-0.4138 z m 1.07351,0.6208 -0.19401,0.3492 0.7243,0.4139 0.19401,-0.3622 -0.7243,-0.4009 z m 8.25182,0.194 -0.33628,0.7502 0.37508,0.1681 0.33628,-0.7631 -0.37508,-0.1552 z m 20.99168,0.3363 -0.40095,0.1164 0.21988,0.7889 0.40095,-0.1034 -0.21988,-0.8019 z m -28.15705,0.078 -0.20694,0.3492 0.72429,0.4139 0.20695,-0.3622 -0.7243,-0.4009 z m 1.08644,0.6079 -0.20694,0.3621 0.7243,0.401 0.20694,-0.3622 -0.7243,-0.4009 z m 5.57451,0.1034 -0.31042,0.6985 c -0.22037,-0.078 -0.45122,-0.1164 -0.69843,-0.1164 -0.72052,0 -1.35334,0.3535 -1.73314,0.9053 l -0.67256,-0.375 -0.20694,0.3621 0.68549,0.3751 c -0.11092,0.2563 -0.18107,0.5307 -0.18107,0.8278 0,1.1633 0.94491,2.1082 2.10822,2.1082 1.16332,0 2.10823,-0.9449 2.10823,-2.1082 0,-0.764 -0.41306,-1.4286 -1.02178,-1.7979 l 0.29748,-0.7113 -0.37508,-0.1682 z m 21.83238,0.4139 -0.40095,0.1035 0.21988,0.8019 0.40095,-0.1164 -0.21988,-0.789 z m -26.33337,0.091 -0.19401,0.3622 0.72429,0.4009 0.19401,-0.3621 -0.72429,-0.401 z m 26.65672,1.0994 -0.40095,0.1164 0.23281,0.789 0.38802,-0.1035 -0.21988,-0.8019 z m 0.33628,1.2029 -0.40095,0.1034 0.21988,0.8019 0.40095,-0.1164 -0.21988,-0.7889 z m 0.33628,1.1899 -0.40095,0.1164 0.21988,0.7889 0.40095,-0.1034 -0.21988,-0.8019 z m 0.33628,1.2028 -0.40095,0.1035 0.21988,0.8019 0.40095,-0.1164 -0.21988,-0.789 z m 0.32335,1.1899 -0.40095,0.1164 0.23281,0.789 0.38802,-0.1035 -0.21988,-0.8019 z m 0.33628,1.2029 -0.40095,0.1035 0.21988,0.8019 c -1.23154,0.2976 -2.14703,1.3931 -2.14703,2.7161 0,1.5511 1.25556,2.8196 2.80665,2.8196 0.66173,0 1.26609,-0.238 1.74608,-0.6209 l 0.43975,0.5691 0.32335,-0.2457 -0.45269,-0.6079 c 0.46629,-0.5014 0.75017,-1.1755 0.75017,-1.9142 0,-1.5511 -1.25556,-2.8067 -2.80666,-2.8067 -0.19388,0 -0.38626,0.027 -0.56909,0.065 l 0.31042,-0.091 -0.21988,-0.7889 z m -1.84954,5.3675 -0.63376,0.5303 0.27161,0.3234 0.63376,-0.5303 -0.27161,-0.3234 z m -0.94418,0.8019 -0.63376,0.5174 0.25868,0.3234 0.63376,-0.5303 -0.25868,-0.3105 z m 6.04012,0.2975 -0.33628,0.2587 0.50442,0.6596 0.32335,-0.2586 -0.49149,-0.6597 z m -6.99722,0.4915 -0.63376,0.5303 0.25867,0.3234 0.63376,-0.5303 -0.25867,-0.3234 z m 7.73445,0.5044 -0.32334,0.2458 0.28454,0.3751 c -0.52553,0.3752 -0.8795,0.9864 -0.8795,1.6814 0,1.1429 0.92651,2.0694 2.06942,2.0694 1.14291,0 2.06942,-0.9265 2.06942,-2.0694 0,-1.1429 -0.92651,-2.0695 -2.06942,-2.0695 -0.30235,0 -0.58179,0.065 -0.8407,0.1811 l -0.31042,-0.4139 z m -8.69156,0.2846 -0.63376,0.5303 0.27161,0.3233 0.63376,-0.5303 -0.27161,-0.3233 z m -0.95711,0.8019 -0.63376,0.5303 0.27161,0.3104 0.63376,-0.5303 -0.27161,-0.3104 z m -0.94417,0.7889 -0.63376,0.5303 0.25868,0.3234 0.63376,-0.5303 -0.25868,-0.3234 z m -0.95711,0.8019 -0.63376,0.5303 0.25868,0.3105 0.63376,-0.5303 -0.25868,-0.3105 z m -0.95711,0.789 -0.63376,0.5303 0.27162,0.3234 0.63376,-0.5303 -0.27162,-0.3234 z m -0.9571,0.8019 -0.63376,0.5303 0.27161,0.3104 0.63376,-0.5303 -0.27161,-0.3104 z m -0.94418,0.789 -0.63376,0.5303 0.25868,0.3233 0.63376,-0.5303 -0.25868,-0.3233 z m -0.9571,0.8019 -0.63376,0.5303 0.25867,0.3104 0.63376,-0.5303 -0.25867,-0.3104 z m -0.95711,0.789 -0.63376,0.5302 0.27161,0.3234 0.63376,-0.5303 -0.27161,-0.3233 z m -0.95711,0.8019 -0.63376,0.5302 0.27161,0.3105 0.63376,-0.5303 -0.27161,-0.3104 z m -0.94417,0.7889 -0.63376,0.5303 0.25868,0.3234 0.63376,-0.5303 -0.25868,-0.3234 z m -0.95711,0.789 -0.63376,0.5303 0.25868,0.3233 0.63376,-0.5303 -0.25868,-0.3233 z m -0.9571,0.8019 -0.63376,0.5303 0.27161,0.3104 0.63376,-0.5174 -0.27161,-0.3233 z m -0.95711,0.789 -0.63376,0.5302 0.27161,0.3234 0.63376,-0.5303 -0.27161,-0.3233 z m -0.94417,0.8019 -0.63376,0.5302 0.25867,0.3105 0.63376,-0.5303 -0.25867,-0.3104 z m -0.95711,0.7889 -0.63376,0.5303 0.25868,0.3234 0.63376,-0.5303 -0.25868,-0.3234 z m -0.95711,0.8019 -0.63376,0.5303 0.27161,0.3104 0.63376,-0.5303 -0.27161,-0.3104 z m -0.95711,0.789 -0.63376,0.5303 0.27162,0.3233 0.63376,-0.5303 -0.27162,-0.3233 z m -4.1647,0.7631 c -1.51028,0 -2.72905,1.2317 -2.72905,2.742 0,1.5102 1.21877,2.729 2.72905,2.729 1.51027,0 2.72904,-1.2188 2.72904,-2.729 0,-0.5224 -0.14683,-1.0076 -0.40095,-1.4228 l 0.19401,-0.1681 -0.25868,-0.3233 -0.16814,0.1422 c -0.50162,-0.5951 -1.25606,-0.97 -2.09528,-0.97 z m 3.22053,0.039 -0.63376,0.5303 0.25868,0.3104 0.63376,-0.5303 -0.25868,-0.3104 z" id="path2997" inkscape:connector-curvature="0"/>
  </g>
</svg>