<svg xmlns:dc="http://purl.org/dc/elements/1.1/" xmlns:cc="http://creativecommons.org/ns#" xmlns:rdf="http://www.w3.org/1999/02/22-rdf-syntax-ns#" xmlns:svg="http://www.w3.org/2000/svg" xmlns="http://www.w3.org/2000/svg" xmlns:sodipodi="http://sodipodi.sourceforge.net/DTD/sodipodi-0.dtd" xmlns:inkscape="http://www.inkscape.org/namespaces/inkscape" width="100" height="100" id="svg2" version="1.1" inkscape:version="0.48.2 r9819" sodipodi:docname="New document 1">
  <defs id="defs4"/>
  <sodipodi:namedview id="base" pagecolor="#ffffff" bordercolor="#666666" borderopacity="1.0" inkscape:pageopacity="0.0" inkscape:pageshadow="2" inkscape:zoom="4.688118" inkscape:cx="59.430763" inkscape:cy="43.966746" inkscape:document-units="px" inkscape:current-layer="layer3" showgrid="false" inkscape:window-width="1600" inkscape:window-height="853" inkscape:window-x="-4" inkscape:window-y="-4" inkscape:window-maximized="1"/>
  <metadata id="metadata7">
    <rdf:RDF>
      <cc:Work rdf:about="">
        <dc:format>image/svg+xml</dc:format>
        <dc:type rdf:resource="http://purl.org/dc/dcmitype/StillImage"/>
        <dc:title/>
      </cc:Work>
    </rdf:RDF>
  </metadata>
  <g inkscape:groupmode="layer" id="layer3" inkscape:label="lines" style="display:inline" transform="translate(0,-952.36218)">
    <path style="font-size:medium;font-style:normal;font-variant:normal;font-weight:normal;font-stretch:normal;text-indent:0;text-align:start;text-decoration:none;line-height:normal;letter-spacing:normal;word-spacing:normal;text-transform:none;direction:ltr;block-progression:tb;writing-mode:lr-tb;text-anchor:start;baseline-shift:baseline;color:#000000;fill:#000000;fill-opacity:1;stroke:none;stroke-width:0.33159462;marker:none;visibility:visible;display:inline;overflow:visible;enable-background:accumulate;font-family:Sans;-inkscape-font-specification:Sans" d="M 23.59375 0.96875 C 22.90256 0.96875 22.40625 1.50805 22.40625 2.09375 C 22.40625 2.67945 22.90256 3.21875 23.59375 3.21875 C 23.68015 3.21875 23.763774 3.2035107 23.84375 3.1875 L 23.9375 3.65625 L 24.28125 3.59375 L 24.1875 3.0625 C 24.551718 2.860161 24.78125 2.4902915 24.78125 2.09375 C 24.78125 1.50805 24.28495 0.96875 23.59375 0.96875 z M 24.34375 3.9375 L 24 3.96875 L 24.03125 4.0625 C 24.000831 4.0663132 23.966969 4.0565883 23.9375 4.0625 C 23.378815 4.1745752 23 4.6437625 23 5.15625 C 23 5.6226832 23.303234 6.0589067 23.78125 6.21875 L 23.71875 6.5 L 24.0625 6.59375 L 24.125 6.28125 C 24.146216 6.2822966 24.1659 6.28125 24.1875 6.28125 C 24.8787 6.28125 25.375 5.74205 25.375 5.15625 C 25.375 4.6437625 24.997333 4.1745752 24.4375 4.0625 C 24.417814 4.0585589 24.395104 4.0655157 24.375 4.0625 L 24.34375 3.9375 z M 15.3125 5.1875 C 14.6213 5.1875 14.125 5.7268 14.125 6.3125 C 14.125 6.8983 14.6213 7.4375 15.3125 7.4375 L 15.375 7.96875 L 15.71875 7.9375 L 15.65625 7.40625 C 16.163071 7.2609384 16.5 6.794775 16.5 6.3125 C 16.5 5.7268 16.0037 5.1875 15.3125 5.1875 z M 23.65625 6.84375 L 23.53125 7.5 L 23.84375 7.5625 L 24 6.90625 L 23.65625 6.84375 z M 23.4375 7.8125 L 23.3125 8.46875 L 23.625 8.53125 L 23.78125 7.875 L 23.4375 7.8125 z M 15.75 8.25 L 15.40625 8.3125 L 15.5 8.96875 L 15.8125 8.9375 L 15.75 8.25 z M 23.25 8.78125 L 23.09375 9.4375 L 23.4375 9.5 L 23.5625 8.84375 L 23.25 8.78125 z M 15.875 9.25 L 15.53125 9.28125 L 15.625 9.9375 L 15.9375 9.90625 L 15.875 9.25 z M 23.03125 9.75 L 22.875 10.40625 L 23.21875 10.46875 L 23.34375 9.8125 L 23.03125 9.75 z M 15.96875 10.25 L 15.65625 10.28125 L 15.71875 10.9375 L 16.0625 10.90625 L 15.96875 10.25 z M 22.8125 10.71875 L 22.6875 11.375 L 23 11.4375 L 23.15625 10.8125 L 22.8125 10.71875 z M 16.09375 11.21875 L 15.78125 11.28125 L 15.84375 11.9375 L 16.1875 11.875 L 16.09375 11.21875 z M 22.59375 11.6875 L 22.46875 12.34375 L 22.78125 12.40625 L 22.9375 11.78125 L 22.59375 11.6875 z M 16.21875 12.21875 L 15.875 12.25 L 15.96875 12.90625 L 16.28125 12.875 L 16.21875 12.21875 z M 22.40625 12.6875 L 22.25 13.3125 L 22.59375 13.375 L 22.71875 12.75 L 22.40625 12.6875 z M 16.34375 13.21875 L 16 13.25 L 16.09375 13.90625 L 16.40625 13.875 L 16.34375 13.21875 z M 22.1875 13.65625 L 22.0625 14.28125 L 22.375 14.375 L 22.5 13.71875 L 22.1875 13.65625 z M 16.4375 14.1875 L 16.125 14.21875 L 16.1875 14.875 L 16.53125 14.84375 L 16.4375 14.1875 z M 21.96875 14.625 L 21.84375 15.25 L 22.15625 15.34375 L 22.3125 14.6875 L 21.96875 14.625 z M 16.5625 15.1875 L 16.25 15.21875 L 16.3125 15.875 L 16.65625 15.84375 L 16.5625 15.1875 z M 21.78125 15.59375 L 21.625 16.25 L 21.9375 16.3125 L 22.09375 15.65625 L 21.78125 15.59375 z M 16.6875 16.15625 L 16.34375 16.21875 L 16.4375 16.875 L 16.75 16.8125 L 16.6875 16.15625 z M 21.5625 16.5625 L 21.40625 17.21875 L 21.75 17.28125 L 21.875 16.625 L 21.5625 16.5625 z M 16.8125 17.15625 L 16.46875 17.1875 L 16.5625 17.84375 L 16.875 17.8125 L 16.8125 17.15625 z M 21.34375 17.53125 L 21.21875 18.1875 L 21.53125 18.25 L 21.65625 17.59375 L 21.34375 17.53125 z M 16.90625 18.15625 L 16.59375 18.1875 L 16.65625 18.84375 L 17 18.8125 L 16.90625 18.15625 z M 21.125 18.5 L 21 19.15625 L 21.3125 19.21875 L 21.46875 18.5625 L 21.125 18.5 z M 17.03125 19.125 L 16.71875 19.15625 L 16.78125 19.84375 L 17.125 19.78125 L 17.03125 19.125 z M 20.9375 19.46875 L 20.875 19.6875 C 20.843921 19.685233 20.813152 19.6875 20.78125 19.6875 C 20.09005 19.6875 19.59375 20.25805 19.59375 20.84375 C 19.59375 20.899688 19.616153 20.945266 19.625 21 L 19.4375 21.0625 L 19.5625 21.375 L 19.71875 21.3125 C 19.905625 21.682303 20.289435 21.96875 20.78125 21.96875 C 21.47245 21.96875 21.96875 21.42945 21.96875 20.84375 C 21.96875 20.385136 21.653867 19.947531 21.1875 19.78125 L 21.25 19.5625 L 20.9375 19.46875 z M 17.15625 20.125 L 16.8125 20.15625 L 16.90625 20.8125 C 16.192981 20.92352 15.6875 21.514345 15.6875 22.15625 C 15.6875 22.86745 16.28568 23.53125 17.125 23.53125 C 17.96431 23.53125 18.59375 22.86745 18.59375 22.15625 C 18.59375 21.47136 18.01027 20.827646 17.21875 20.78125 L 17.15625 20.125 z M 19.125 21.1875 L 18.5 21.40625 L 18.625 21.71875 L 19.25 21.5 L 19.125 21.1875 z M 18.4375 23.03125 L 18.125 23.1875 L 18.4375 23.78125 L 18.71875 23.625 L 18.4375 23.03125 z M 18.875 23.9375 L 18.5625 24.09375 L 18.875 24.6875 L 19.15625 24.53125 L 18.875 23.9375 z M 19.3125 24.8125 L 19 24.96875 L 19.3125 25.5625 L 19.59375 25.40625 L 19.3125 24.8125 z M 19.75 25.71875 L 19.4375 25.875 L 19.75 26.46875 L 20.03125 26.3125 L 19.75 25.71875 z M 20.1875 26.625 L 19.90625 26.75 L 20.1875 27.34375 L 20.46875 27.21875 L 20.1875 26.625 z M 20.625 27.5 L 20.34375 27.65625 L 20.625 28.25 L 20.9375 28.09375 L 20.625 27.5 z M 21.0625 28.40625 L 20.78125 28.53125 L 21.0625 29.125 L 21.375 29 L 21.0625 28.40625 z M 21.5 29.28125 L 21.21875 29.4375 L 21.5 30.03125 L 21.8125 29.875 L 21.5 29.28125 z M 21.9375 30.1875 L 21.65625 30.3125 L 21.9375 30.90625 L 22.25 30.78125 L 21.9375 30.1875 z M 22.40625 31.0625 L 22.09375 31.21875 L 22.375 31.8125 L 22.6875 31.65625 L 22.40625 31.0625 z M 22.84375 31.96875 L 22.53125 32.09375 L 22.84375 32.6875 L 23.125 32.5625 L 22.84375 31.96875 z M 23.28125 32.84375 L 22.96875 33 L 23.28125 33.59375 L 23.5625 33.4375 L 23.28125 32.84375 z M 76.25 33.46875 C 75.50943 33.46875 74.96875 34.0599 74.96875 34.6875 C 74.96875 35.3151 75.50943 35.875 76.25 35.875 C 76.578073 35.875 76.842278 35.744409 77.0625 35.5625 L 77.46875 36.03125 L 77.71875 35.8125 L 77.3125 35.3125 C 77.443461 35.119857 77.53125 34.919712 77.53125 34.6875 C 77.53125 34.0599 76.99057 33.46875 76.25 33.46875 z M 23.71875 33.75 L 23.40625 33.90625 L 23.71875 34.5 L 24 34.34375 L 23.71875 33.75 z M 24.15625 34.625 L 23.84375 34.78125 L 24.15625 35.375 L 24.4375 35.21875 L 24.15625 34.625 z M 45.34375 34.875 C 44.62786 34.875 44.125 35.42455 44.125 36.03125 C 44.125 36.197482 44.178839 36.350995 44.25 36.5 L 44 36.625 L 44.15625 36.90625 L 44.40625 36.78125 C 44.626893 37.034003 44.951387 37.21875 45.34375 37.21875 C 46.05963 37.21875 46.59375 36.63785 46.59375 36.03125 C 46.59375 35.42455 46.05963 34.875 45.34375 34.875 z M 24.75 35.375 C 23.91069 35.375 23.3125 36.0388 23.3125 36.75 C 23.3125 37.4613 23.91069 38.125 24.75 38.125 C 25.112882 38.125 25.440272 37.978844 25.6875 37.78125 L 25.78125 37.90625 L 26.03125 37.71875 L 25.90625 37.5625 C 26.094136 37.326884 26.21875 37.048804 26.21875 36.75 C 26.21875 36.0388 25.58932 35.375 24.75 35.375 z M 77.9375 36.0625 L 77.6875 36.28125 L 78.125 36.78125 L 78.375 36.5625 L 77.9375 36.0625 z M 43.71875 36.78125 L 43.125 37.09375 L 43.28125 37.40625 L 43.875 37.0625 L 43.71875 36.78125 z M 78.59375 36.84375 L 78.34375 37.03125 L 78.75 37.5625 L 79 37.34375 L 78.59375 36.84375 z M 42.84375 37.25 L 42.25 37.5625 L 42.40625 37.875 L 43 37.5625 L 42.84375 37.25 z M 45.875 37.28125 L 45.5625 37.34375 L 45.65625 38 L 46 37.9375 L 45.875 37.28125 z M 79.21875 37.59375 L 78.96875 37.8125 L 79.21875 38.09375 C 78.94361 38.322488 78.78125 38.619232 78.78125 38.96875 C 78.78125 39.59635 79.32193 40.1875 80.0625 40.1875 C 80.80307 40.1875 81.34375 39.59635 81.34375 38.96875 C 81.34375 38.34125 80.80307 37.78125 80.0625 37.78125 C 79.861065 37.78125 79.664428 37.830864 79.5 37.90625 L 79.21875 37.59375 z M 41.96875 37.75 L 41.375 38.0625 L 41.53125 38.34375 L 42.125 38.03125 L 41.96875 37.75 z M 26.25 37.96875 L 25.96875 38.15625 L 26.375 38.6875 L 26.625 38.5 L 26.25 37.96875 z M 41.09375 38.21875 L 40.5 38.53125 L 40.65625 38.8125 L 41.25 38.5 L 41.09375 38.21875 z M 46.03125 38.28125 L 45.71875 38.3125 L 45.75 38.46875 C 45.137998 38.560709 44.71875 39.04431 44.71875 39.59375 C 44.71875 40.20035 45.22161 40.78125 45.9375 40.78125 C 46.29544 40.78125 46.59209 40.622875 46.8125 40.40625 L 47 40.625 L 47.25 40.40625 L 47 40.125 C 47.096391 39.956809 47.1875 39.787862 47.1875 39.59375 C 47.1875 39.024479 46.71095 38.500704 46.0625 38.4375 L 46.03125 38.28125 z M 40.21875 38.6875 L 39.625 39 L 39.78125 39.28125 L 40.375 38.96875 L 40.21875 38.6875 z M 26.84375 38.78125 L 26.5625 38.96875 L 26.96875 39.5 L 27.21875 39.3125 L 26.84375 38.78125 z M 39.34375 39.15625 L 38.75 39.46875 L 38.9375 39.78125 L 39.5 39.4375 L 39.34375 39.15625 z M 27.4375 39.5625 L 27.15625 39.75 L 27.5625 40.28125 L 27.8125 40.09375 L 27.4375 39.5625 z M 38.46875 39.625 L 37.875 39.96875 L 38.0625 40.25 L 38.625 39.9375 L 38.46875 39.625 z M 37.59375 40.125 L 37.03125 40.4375 L 37.1875 40.71875 L 37.75 40.40625 L 37.59375 40.125 z M 80.5 40.25 L 80.15625 40.3125 L 80.21875 40.96875 L 80.5625 40.90625 L 80.5 40.25 z M 28.03125 40.375 L 27.75 40.5625 L 28.15625 41.09375 L 28.40625 40.90625 L 28.03125 40.375 z M 36.71875 40.59375 L 36.15625 40.90625 L 36.3125 41.1875 L 36.875 40.875 L 36.71875 40.59375 z M 47.46875 40.65625 L 47.21875 40.875 L 47.6875 41.34375 L 47.9375 41.125 L 47.46875 40.65625 z M 35.84375 41.0625 L 35.28125 41.375 L 35.4375 41.6875 L 36 41.34375 L 35.84375 41.0625 z M 28.625 41.15625 L 28.34375 41.375 L 28.75 41.90625 L 29 41.6875 L 28.625 41.15625 z M 80.59375 41.25 L 80.28125 41.28125 L 80.34375 41.9375 L 80.65625 41.90625 L 80.59375 41.25 z M 48.15625 41.375 L 47.90625 41.59375 L 48.34375 42.09375 L 48.59375 41.875 L 48.15625 41.375 z M 34.96875 41.53125 L 34.40625 41.84375 L 34.5625 42.15625 L 35.125 41.84375 L 34.96875 41.53125 z M 30.21875 41.9375 C 29.896105 41.9375 29.607043 42.004146 29.34375 42.125 L 29.21875 41.96875 L 28.9375 42.15625 L 29.03125 42.28125 C 28.50257 42.643877 28.1875 43.255091 28.1875 43.875 C 28.1875 44.8791 29.03383 45.8125 30.21875 45.8125 C 30.514978 45.8125 30.81461 45.759323 31.0625 45.65625 L 31.15625 45.90625 L 31.46875 45.78125 L 31.375 45.5 C 31.938985 45.141485 32.28125 44.516153 32.28125 43.875 C 32.28125 43.71559 32.260249 43.558589 32.21875 43.40625 L 32.5 43.25 L 32.34375 42.96875 L 32.09375 43.09375 C 31.779842 42.437999 31.081017 41.9375 30.21875 41.9375 z M 34.09375 42.03125 L 33.53125 42.34375 L 33.6875 42.625 L 34.25 42.3125 L 34.09375 42.03125 z M 48.8125 42.09375 L 48.5625 42.34375 L 49.03125 42.8125 L 49.28125 42.59375 L 48.8125 42.09375 z M 80.71875 42.25 L 80.375 42.28125 L 80.4375 42.9375 L 80.78125 42.90625 L 80.71875 42.25 z M 33.21875 42.5 L 32.65625 42.8125 L 32.8125 43.09375 L 33.375 42.78125 L 33.21875 42.5 z M 49.5 42.84375 L 49.25 43.0625 L 49.6875 43.5625 L 49.9375 43.34375 L 49.5 42.84375 z M 80.8125 43.21875 L 80.5 43.25 L 80.53125 43.59375 C 79.748211 43.624629 79.1875 44.23311 79.1875 44.90625 C 79.1875 44.992537 79.201056 45.072664 79.21875 45.15625 L 79.21875 45.25 L 79.25 45.25 C 79.382659 45.701343 79.737042 46.104195 80.25 46.21875 L 80.0625 46.71875 L 80.375 46.84375 L 80.5625 46.25 C 80.572512 46.250195 80.583668 46.25 80.59375 46.25 C 81.40838 46.25 82 45.59655 82 44.90625 C 82 44.30215 81.534801 43.725842 80.875 43.59375 L 80.8125 43.21875 z M 50.15625 43.5625 L 49.90625 43.8125 L 50.375 44.28125 L 50.625 44.0625 L 50.15625 43.5625 z M 50.84375 44.3125 L 50.59375 44.53125 L 51.03125 45.03125 L 51.28125 44.8125 L 50.84375 44.3125 z M 78.875 44.9375 L 78.21875 45 L 78.25 45.3125 L 78.90625 45.28125 L 78.875 44.9375 z M 51.5 45.03125 L 51.28125 45.28125 L 51.71875 45.75 L 51.96875 45.53125 L 51.5 45.03125 z M 77.875 45.03125 L 77.21875 45.0625 L 77.25 45.40625 L 77.90625 45.34375 L 77.875 45.03125 z M 76.90625 45.09375 L 76.21875 45.15625 L 76.25 45.5 L 76.90625 45.4375 L 76.90625 45.09375 z M 75.90625 45.1875 L 75.25 45.25 L 75.28125 45.5625 L 75.9375 45.53125 L 75.90625 45.1875 z M 74.90625 45.28125 L 74.25 45.34375 L 74.28125 45.65625 L 74.9375 45.59375 L 74.90625 45.28125 z M 73.90625 45.34375 L 73.25 45.40625 L 73.28125 45.75 L 73.9375 45.6875 L 73.90625 45.34375 z M 72.9375 45.4375 L 72.25 45.5 L 72.28125 45.8125 L 72.96875 45.78125 L 72.9375 45.4375 z M 71.9375 45.53125 L 71.28125 45.59375 L 71.3125 45.90625 L 71.96875 45.84375 L 71.9375 45.53125 z M 70.9375 45.59375 L 70.28125 45.65625 L 70.3125 46 L 70.96875 45.9375 L 70.9375 45.59375 z M 53.34375 45.65625 C 52.957083 45.65625 52.620073 45.773559 52.34375 45.96875 L 52.1875 45.78125 L 51.9375 46 L 52.09375 46.1875 C 51.810834 46.482797 51.65625 46.877513 51.65625 47.28125 C 51.65625 48.013634 52.201874 48.683603 53 48.84375 L 53.21875 48.90625 L 53.21875 48.875 C 53.262112 48.878092 53.299235 48.875 53.34375 48.875 C 54.33118 48.875 55.0625 48.11826 55.0625 47.28125 L 55.125 47.28125 L 55.09375 46.9375 L 55.03125 46.9375 C 54.868356 46.240591 54.196428 45.65625 53.34375 45.65625 z M 69.9375 45.6875 L 69.28125 45.75 L 69.3125 46.0625 L 69.96875 46.03125 L 69.9375 45.6875 z M 68.96875 45.78125 L 68.3125 45.84375 L 68.34375 46.15625 L 69 46.09375 L 68.96875 45.78125 z M 67.96875 45.84375 L 67.3125 45.90625 L 67.34375 46.25 L 68 46.1875 L 67.96875 45.84375 z M 66.96875 45.9375 L 66.3125 46 L 66.34375 46.3125 L 67 46.28125 L 66.96875 45.9375 z M 66 46.03125 L 65.3125 46.09375 L 65.34375 46.40625 L 66 46.34375 L 66 46.03125 z M 31.59375 46.09375 L 31.28125 46.21875 L 31.5 46.84375 L 31.8125 46.71875 L 31.59375 46.09375 z M 65 46.09375 L 64.34375 46.15625 L 64.375 46.5 L 65.03125 46.4375 L 65 46.09375 z M 64 46.1875 L 63.34375 46.25 L 63.375 46.59375 L 64.03125 46.53125 L 64 46.1875 z M 63 46.28125 L 62.34375 46.34375 L 62.375 46.65625 L 63.03125 46.59375 L 63 46.28125 z M 62.03125 46.375 L 61.375 46.40625 L 61.375 46.75 L 62.0625 46.6875 L 62.03125 46.375 z M 61.03125 46.4375 L 60.375 46.5 L 60.40625 46.84375 L 61.0625 46.78125 L 61.03125 46.4375 z M 60.03125 46.53125 L 59.375 46.59375 L 59.40625 46.90625 L 60.0625 46.84375 L 60.03125 46.53125 z M 59.0625 46.625 L 58.375 46.65625 L 58.40625 47 L 59.0625 46.9375 L 59.0625 46.625 z M 58.0625 46.6875 L 57.40625 46.75 L 57.4375 47.09375 L 58.09375 47.03125 L 58.0625 46.6875 z M 57.0625 46.78125 L 56.40625 46.84375 L 56.4375 47.15625 L 57.09375 47.09375 L 57.0625 46.78125 z M 56.0625 46.875 L 55.40625 46.90625 L 55.4375 47.25 L 56.09375 47.1875 L 56.0625 46.875 z M 31.9375 47.03125 L 31.625 47.15625 L 31.84375 47.78125 L 32.15625 47.65625 L 31.9375 47.03125 z M 79.9375 47.03125 L 79.71875 47.65625 L 80.03125 47.78125 L 80.25 47.15625 L 79.9375 47.03125 z M 32.25 47.96875 L 31.9375 48.09375 L 32.15625 48.71875 L 32.46875 48.59375 L 32.25 47.96875 z M 79.625 47.96875 L 79.5625 48.15625 C 79.503407 48.148375 79.43709 48.125 79.375 48.125 C 78.63443 48.125 78.125 48.71635 78.125 49.34375 C 78.125 49.835216 78.439444 50.321912 78.9375 50.5 L 78.9375 50.5625 L 79.25 50.625 L 79.25 50.5625 C 79.293942 50.566787 79.329426 50.5625 79.375 50.5625 C 80.11557 50.5625 80.65625 49.97135 80.65625 49.34375 C 80.65625 48.864605 80.354189 48.437369 79.875 48.25 L 79.9375 48.09375 L 79.625 47.96875 z M 32.59375 48.90625 L 32.28125 49.03125 L 32.5 49.65625 L 32.8125 49.53125 L 32.59375 48.90625 z M 52.8125 49.15625 L 52.65625 49.78125 L 52.96875 49.875 L 53.15625 49.21875 L 52.8125 49.15625 z M 32.90625 49.84375 L 32.59375 49.96875 L 32.84375 50.59375 L 33.15625 50.46875 L 32.90625 49.84375 z M 52.59375 50.09375 L 52.40625 50.75 L 52.71875 50.84375 L 52.90625 50.1875 L 52.59375 50.09375 z M 33.25 50.78125 L 32.9375 50.90625 L 33.15625 51.53125 L 33.46875 51.40625 L 33.25 50.78125 z M 78.875 50.875 L 78.75 51.53125 L 79.0625 51.59375 L 79.1875 50.9375 L 78.875 50.875 z M 52.34375 51.0625 L 52.15625 51.71875 L 52.5 51.78125 L 52.65625 51.15625 L 52.34375 51.0625 z M 33.59375 51.71875 L 33.28125 51.84375 L 33.5 52.46875 L 33.8125 52.34375 L 33.59375 51.71875 z M 78.6875 51.84375 L 78.5625 52.5 L 78.875 52.5625 L 79 51.90625 L 78.6875 51.84375 z M 52.09375 52.03125 L 51.90625 52.6875 L 52.25 52.75 L 52.40625 52.125 L 52.09375 52.03125 z M 33.90625 52.65625 L 33.59375 52.78125 L 33.84375 53.40625 L 34.15625 53.28125 L 33.90625 52.65625 z M 78.5 52.84375 L 78.375 53.5 L 78.6875 53.5625 L 78.8125 52.90625 L 78.5 52.84375 z M 51.84375 53 L 51.65625 53.625 L 52 53.71875 L 52.15625 53.09375 L 51.84375 53 z M 34.25 53.59375 L 33.9375 53.71875 L 34.15625 54.34375 L 34.46875 54.21875 L 34.25 53.59375 z M 78.3125 53.8125 L 78.1875 54.46875 L 78.53125 54.53125 L 78.625 53.875 L 78.3125 53.8125 z M 51.59375 53.96875 L 51.40625 54.59375 L 51.75 54.6875 L 51.90625 54.03125 L 51.59375 53.96875 z M 34.59375 54.53125 L 34.28125 54.65625 L 34.5 55.28125 L 34.8125 55.15625 L 34.59375 54.53125 z M 78.125 54.78125 L 78 55.4375 L 78.34375 55.5 L 78.46875 54.84375 L 78.125 54.78125 z M 51.34375 54.9375 L 51.15625 55.5625 L 51.5 55.65625 L 51.65625 55 L 51.34375 54.9375 z M 34.90625 55.46875 L 34.59375 55.59375 L 34.8125 56.21875 L 35.125 56.09375 L 34.90625 55.46875 z M 77.9375 55.78125 L 77.8125 56.40625 L 78.15625 56.46875 L 78.28125 55.84375 L 77.9375 55.78125 z M 51.09375 55.875 L 50.90625 56.53125 L 51.25 56.625 L 51.40625 55.96875 L 51.09375 55.875 z M 35.25 56.40625 L 34.9375 56.53125 L 35.15625 57.15625 L 35.46875 57.03125 L 35.25 56.40625 z M 77.75 56.75 L 77.625 57.40625 L 77.96875 57.46875 L 78.09375 56.8125 L 77.75 56.75 z M 50.84375 56.84375 L 50.6875 57.5 L 51 57.5625 L 51.15625 56.9375 L 50.84375 56.84375 z M 35.59375 57.34375 L 35.28125 57.46875 L 35.5 58.09375 L 35.8125 57.96875 L 35.59375 57.34375 z M 77.5625 57.5 C 76.82193 57.5 76.28125 58.09115 76.28125 58.71875 C 76.28125 58.969123 76.38176 59.204329 76.53125 59.40625 L 76.1875 59.625 L 76.40625 59.90625 L 76.78125 59.625 C 76.996948 59.795614 77.246248 59.9375 77.5625 59.9375 C 78.30307 59.9375 78.84375 59.34625 78.84375 58.71875 C 78.84375 58.09115 78.30307 57.5 77.5625 57.5 z M 50.59375 57.8125 L 50.4375 58.46875 L 50.75 58.53125 L 50.90625 57.90625 L 50.59375 57.8125 z M 35.90625 58.28125 L 35.59375 58.40625 L 35.8125 59.03125 L 36.125 58.90625 L 35.90625 58.28125 z M 50.34375 58.78125 L 50.1875 59.40625 L 50.5 59.5 L 50.65625 58.875 L 50.34375 58.78125 z M 36.25 59.21875 L 35.9375 59.34375 L 36.15625 59.96875 L 36.46875 59.84375 L 36.25 59.21875 z M 50.09375 59.75 L 49.9375 60.375 L 50.25 60.46875 L 50.40625 59.8125 L 50.09375 59.75 z M 75.9375 59.84375 L 75.40625 60.21875 L 75.59375 60.5 L 76.125 60.09375 L 75.9375 59.84375 z M 36.59375 60.15625 L 36.28125 60.28125 L 36.5 60.90625 L 36.8125 60.78125 L 36.59375 60.15625 z M 73.90625 60.15625 C 73.16568 60.15625 72.65625 60.7475 72.65625 61.375 C 72.65625 62.0026 73.16568 62.5625 73.90625 62.5625 C 74.64682 62.5625 75.1875 62.0026 75.1875 61.375 C 75.1875 61.218125 75.15611 61.049111 75.09375 60.90625 C 75.090152 60.898008 75.097536 60.883166 75.09375 60.875 L 75.34375 60.6875 L 75.125 60.40625 L 74.875 60.59375 C 74.645063 60.339858 74.305018 60.15625 73.90625 60.15625 z M 49.84375 60.71875 L 49.6875 61.34375 L 50 61.4375 L 50.15625 60.78125 L 49.84375 60.71875 z M 36.90625 61.09375 L 36.59375 61.21875 L 36.8125 61.84375 L 37.125 61.71875 L 36.90625 61.09375 z M 49.59375 61.65625 L 49.4375 62.3125 L 49.75 62.40625 L 49.90625 61.75 L 49.59375 61.65625 z M 37.25 62.03125 L 36.9375 62.15625 L 37.15625 62.78125 L 37.46875 62.65625 L 37.25 62.03125 z M 49.34375 62.625 L 49.1875 63.28125 L 49.5 63.34375 L 49.65625 62.71875 L 49.34375 62.625 z M 37.5625 62.96875 L 37.25 63.09375 L 37.5 63.71875 L 37.8125 63.59375 L 37.5625 62.96875 z M 49.09375 63.59375 L 48.9375 64.25 L 49.25 64.3125 L 49.40625 63.6875 L 49.09375 63.59375 z M 37.90625 63.90625 L 37.59375 64.03125 L 37.8125 64.65625 L 38.125 64.53125 L 37.90625 63.90625 z M 48.84375 64.5625 L 48.6875 65.1875 L 49 65.28125 L 49.15625 64.625 L 48.84375 64.5625 z M 38.25 64.84375 L 37.9375 64.96875 L 38.15625 65.59375 L 38.46875 65.46875 L 38.25 64.84375 z M 48.59375 65.53125 L 48.46875 66.03125 C 48.31028 65.984717 48.147247 65.96875 47.96875 65.96875 C 46.98132 65.96875 46.28125 66.75705 46.28125 67.59375 C 46.28125 68.43055 46.98132 69.1875 47.96875 69.1875 C 48.215608 69.1875 48.449674 69.148391 48.65625 69.0625 L 48.9375 68.90625 C 49.390192 68.605154 49.6875 68.11675 49.6875 67.59375 C 49.6875 67.011612 49.326579 66.438946 48.78125 66.15625 L 48.9375 65.59375 L 48.59375 65.53125 z M 38.5625 65.78125 L 38.25 65.90625 L 38.46875 66.53125 L 38.78125 66.40625 L 38.5625 65.78125 z M 38.90625 66.71875 L 38.59375 66.84375 L 38.8125 67.46875 L 39.125 67.34375 L 38.90625 66.71875 z M 39.25 67.65625 L 38.9375 67.78125 L 39.15625 68.40625 L 39.46875 68.28125 L 39.25 67.65625 z M 39.5625 68.59375 L 39.25 68.71875 L 39.46875 69.34375 L 39.78125 69.21875 L 39.5625 68.59375 z M 44.3125 68.875 C 43.32507 68.875 42.625 69.6632 42.625 70.5 C 42.625 71.3367 43.32507 72.09375 44.3125 72.09375 C 45.29993 72.09375 46.03125 71.3367 46.03125 70.5 C 46.03125 69.6632 45.29993 68.875 44.3125 68.875 z M 49.125 69.1875 L 48.8125 69.34375 L 49.15625 69.9375 L 49.4375 69.78125 L 49.125 69.1875 z M 39.90625 69.53125 L 39.59375 69.65625 L 39.8125 70.28125 L 40.125 70.15625 L 39.90625 69.53125 z M 49.59375 70.0625 L 49.3125 70.21875 L 49.625 70.8125 L 49.90625 70.625 L 49.59375 70.0625 z M 40.25 70.46875 L 39.9375 70.59375 L 40.15625 71.21875 L 40.46875 71.09375 L 40.25 70.46875 z M 50.0625 70.9375 L 49.78125 71.09375 L 50.09375 71.65625 L 50.375 71.5 L 50.0625 70.9375 z M 40.84375 71.34375 C 39.85632 71.34375 39.125 72.13205 39.125 72.96875 C 39.125 73.70095 39.670618 74.402394 40.46875 74.5625 L 40.40625 74.875 L 40.75 74.96875 L 40.8125 74.59375 C 40.822656 74.593915 40.833535 74.59375 40.84375 74.59375 C 41.83117 74.59375 42.5625 73.80555 42.5625 72.96875 C 42.5625 72.654987 42.460296 72.35286 42.28125 72.09375 C 41.982841 71.661899 41.460887 71.34375 40.84375 71.34375 z M 42.28125 72.09375 L 42.34375 72.15625 L 42.90625 71.8125 L 42.75 71.53125 L 42.15625 71.84375 L 42.28125 72.09375 z M 50.5625 71.8125 L 50.25 71.96875 L 50.5625 72.53125 L 50.875 72.375 L 50.5625 71.8125 z M 51.03125 72.6875 L 50.75 72.84375 L 51.0625 73.40625 L 51.34375 73.25 L 51.03125 72.6875 z M 51.5 73.5625 L 51.21875 73.71875 L 51.53125 74.28125 L 51.8125 74.125 L 51.5 73.5625 z M 51.96875 74.40625 L 51.6875 74.59375 L 52 75.15625 L 52.3125 75 L 51.96875 74.40625 z M 40.34375 75.21875 L 40.1875 75.84375 L 40.53125 75.9375 L 40.65625 75.28125 L 40.34375 75.21875 z M 52.46875 75.28125 L 52.15625 75.4375 L 52.5 76.03125 L 52.78125 75.875 L 52.46875 75.28125 z M 52.9375 76.15625 L 52.65625 76.3125 L 52.96875 76.90625 L 53.25 76.75 L 52.9375 76.15625 z M 40.125 76.1875 L 40 76.84375 L 40.3125 76.90625 L 40.46875 76.25 L 40.125 76.1875 z M 53.40625 77.03125 L 53.125 77.1875 L 53.4375 77.78125 L 53.75 77.625 L 53.40625 77.03125 z M 39.90625 77.15625 L 39.78125 77.8125 L 40.09375 77.875 L 40.25 77.21875 L 39.90625 77.15625 z M 53.90625 77.90625 L 53.59375 78.0625 L 53.90625 78.65625 L 54.21875 78.5 L 53.90625 77.90625 z M 39.6875 78.125 L 39.5625 78.78125 L 39.875 78.84375 L 40.03125 78.1875 L 39.6875 78.125 z M 54.375 78.78125 L 54.09375 78.9375 L 54.40625 79.53125 L 54.6875 79.375 L 54.375 78.78125 z M 39.5 79.09375 L 39.34375 79.75 L 39.65625 79.8125 L 39.8125 79.15625 L 39.5 79.09375 z M 54.84375 79.65625 L 54.5625 79.8125 L 54.875 80.40625 L 55.15625 80.25 L 54.84375 79.65625 z M 39.28125 80.0625 L 39.125 80.71875 L 39.4375 80.78125 L 39.59375 80.125 L 39.28125 80.0625 z M 55.3125 80.53125 L 55.03125 80.6875 L 55.34375 81.28125 L 55.65625 81.09375 L 55.3125 80.53125 z M 39.0625 81.03125 L 38.90625 81.6875 L 39.25 81.75 L 39.375 81.125 L 39.0625 81.03125 z M 55.8125 81.40625 L 55.5 81.5625 L 55.84375 82.15625 L 56.125 81.96875 L 55.8125 81.40625 z M 38.84375 82 L 38.6875 82.65625 L 39.03125 82.71875 L 39.15625 82.09375 L 38.84375 82 z M 56.28125 82.28125 L 56 82.4375 L 56.3125 83 L 56.59375 82.84375 L 56.28125 82.28125 z M 38.625 82.96875 L 38.46875 83.625 L 38.8125 83.6875 L 38.9375 83.0625 L 38.625 82.96875 z M 56.75 83.15625 L 56.46875 83.3125 L 56.78125 83.875 L 57.09375 83.71875 L 56.75 83.15625 z M 38.40625 83.9375 L 38.28125 84.59375 L 38.59375 84.65625 L 38.75 84.03125 L 38.40625 83.9375 z M 57.25 84.03125 L 56.9375 84.1875 L 57.28125 84.75 L 57.5625 84.59375 L 57.25 84.03125 z M 57.71875 84.875 L 57.4375 85.0625 L 57.75 85.625 L 58.03125 85.46875 L 57.71875 84.875 z M 38.1875 84.9375 L 38.0625 85.5625 L 38.375 85.65625 L 38.53125 85 L 38.1875 84.9375 z M 58.1875 85.75 L 57.90625 85.90625 L 58.21875 86.5 L 58.5 86.34375 L 58.1875 85.75 z M 37.96875 85.90625 L 37.84375 86.53125 L 38.15625 86.625 L 38.3125 85.96875 L 37.96875 85.90625 z M 58.6875 86.625 L 58.375 86.78125 L 58.6875 87.375 C 58.252688 87.611627 57.96875 88.027843 57.96875 88.5 C 57.96875 89.1904 58.56037 89.84375 59.375 89.84375 C 59.602682 89.84375 59.814722 89.805957 60 89.71875 L 60.15625 89.96875 L 60.46875 89.8125 L 60.28125 89.5 C 60.586201 89.248377 60.78125 88.884813 60.78125 88.5 C 60.78125 87.8097 60.18962 87.1875 59.375 87.1875 C 59.249212 87.1875 59.113688 87.19037 59 87.21875 L 58.6875 86.625 z M 37.78125 86.875 L 37.625 87.5 L 37.9375 87.59375 L 38.09375 86.9375 L 37.78125 86.875 z M 37.5625 87.84375 L 37.40625 88.5 L 37.71875 88.5625 L 37.875 87.90625 L 37.5625 87.84375 z M 37.34375 88.8125 L 37.1875 89.46875 L 37.53125 89.53125 L 37.65625 88.875 L 37.34375 88.8125 z M 37.125 89.78125 L 36.96875 90.4375 L 37.3125 90.5 L 37.4375 89.84375 L 37.125 89.78125 z M 60.625 90.09375 L 60.34375 90.25 L 60.65625 90.84375 L 60.96875 90.65625 L 60.625 90.09375 z M 36.90625 90.75 L 36.75 91.40625 L 37.09375 91.46875 L 37.21875 90.8125 L 36.90625 90.75 z M 61.71875 90.9375 C 61.516482 90.9375 61.335691 90.979223 61.15625 91.03125 L 61.125 90.96875 L 60.84375 91.125 C 60.189472 91.441187 59.78125 92.093277 59.78125 92.78125 C 59.78125 93.74355 60.58321 94.625 61.71875 94.625 C 62.8543 94.625 63.6875 93.74355 63.6875 92.78125 C 63.6875 91.81905 62.8543 90.9375 61.71875 90.9375 z M 36.6875 91.71875 L 36.5625 92.375 L 36.875 92.4375 L 37.03125 91.78125 L 36.6875 91.71875 z M 36.46875 92.6875 L 36.34375 93.34375 L 36.65625 93.40625 L 36.8125 92.75 L 36.46875 92.6875 z M 36.25 93.65625 L 36.125 94.3125 L 36.4375 94.375 L 36.59375 93.75 L 36.25 93.65625 z M 36.0625 94.625 L 35.90625 95.28125 L 36.21875 95.34375 L 36.375 94.71875 L 36.0625 94.625 z M 35.84375 95.59375 L 35.6875 96.25 C 35.608282 96.237342 35.521639 96.21875 35.4375 96.21875 C 34.59818 96.21875 34 96.88255 34 97.59375 C 34 98.30505 34.59818 98.96875 35.4375 98.96875 C 36.27681 98.96875 36.90625 98.30505 36.90625 97.59375 C 36.90625 97.048497 36.546633 96.523304 36 96.3125 L 36.15625 95.6875 L 35.84375 95.59375 z " transform="translate(0,952.36218)" id="path3046"/>
  </g>
</svg>