<svg xmlns:dc="http://purl.org/dc/elements/1.1/" xmlns:cc="http://creativecommons.org/ns#" xmlns:rdf="http://www.w3.org/1999/02/22-rdf-syntax-ns#" xmlns:svg="http://www.w3.org/2000/svg" xmlns="http://www.w3.org/2000/svg" xmlns:sodipodi="http://sodipodi.sourceforge.net/DTD/sodipodi-0.dtd" xmlns:inkscape="http://www.inkscape.org/namespaces/inkscape" width="100" height="100" id="svg2" version="1.1" inkscape:version="0.48.2 r9819" sodipodi:docname="New document 1">
  <defs id="defs4"/>
  <sodipodi:namedview id="base" pagecolor="#ffffff" bordercolor="#666666" borderopacity="1.0" inkscape:pageopacity="0.0" inkscape:pageshadow="2" inkscape:zoom="1.6575" inkscape:cx="230.04033" inkscape:cy="97.332754" inkscape:document-units="px" inkscape:current-layer="layer2" showgrid="false" inkscape:window-width="1600" inkscape:window-height="853" inkscape:window-x="-4" inkscape:window-y="-4" inkscape:window-maximized="1"/>
  <metadata id="metadata7">
    <rdf:RDF>
      <cc:Work rdf:about="">
        <dc:format>image/svg+xml</dc:format>
        <dc:type rdf:resource="http://purl.org/dc/dcmitype/StillImage"/>
        <dc:title/>
      </cc:Work>
    </rdf:RDF>
  </metadata>
  <g inkscape:groupmode="layer" id="layer2" inkscape:label="lines" transform="translate(0,-952.36218)">
    <path style="font-size:medium;font-style:normal;font-variant:normal;font-weight:normal;font-stretch:normal;text-indent:0;text-align:start;text-decoration:none;line-height:normal;letter-spacing:normal;word-spacing:normal;text-transform:none;direction:ltr;block-progression:tb;writing-mode:lr-tb;text-anchor:start;baseline-shift:baseline;color:#000000;fill:#000000;fill-opacity:1;stroke:none;stroke-width:1;marker:none;visibility:visible;display:inline;overflow:visible;enable-background:accumulate;font-family:Sans;-inkscape-font-specification:Sans" d="m 69.268519,957.18419 c -1.23375,0 -2.22916,0.9954 -2.22916,2.22916 0,0.3946 0.10326,0.75958 0.28281,1.08131 l -0.2329,0.14972 0.2828,0.44916 0.26617,-0.16636 c 0.40796,0.43952 0.98331,0.71533 1.63028,0.71533 0.36346,0 0.69483,-0.0955 0.99814,-0.24953 l 0.5157,0.78187 0.44916,-0.29944 -0.5157,-0.76524 c 0.48031,-0.40974 0.78187,-1.016 0.78187,-1.69682 0,-1.23376 -0.99541,-2.22916 -2.22917,-2.22916 z m -2.62841,3.74299 -0.89832,0.58225 0.29944,0.44916 0.89832,-0.58225 -0.29944,-0.44916 z m -1.33085,0.88169 -0.89832,0.58224 0.28281,0.44916 0.89832,-0.58224 -0.28281,-0.44916 z m 6.20506,0.5157 -0.43252,0.29944 0.58224,0.88168 0.44916,-0.29944 -0.59888,-0.88168 z m -7.55253,0.34935 -0.88169,0.58224 0.28281,0.44916 0.89832,-0.58224 -0.29944,-0.44916 z m -1.33085,0.86504 -0.89832,0.58225 0.29944,0.44916 0.88169,-0.58225 -0.28281,-0.44916 z m 9.7817,0.11645 -0.44916,0.28281 0.59888,0.89832 0.43253,-0.29944 -0.58225,-0.88169 z m -11.12918,0.76524 -0.88168,0.58224 0.2828,0.44916 0.89832,-0.58224 -0.29944,-0.44916 z m 12.01087,0.54897 -0.44916,0.29944 0.59888,0.88168 0.44916,-0.2828 -0.59888,-0.89832 z m -13.34171,0.31608 -0.89832,0.58224 0.29944,0.44916 0.88168,-0.58224 -0.2828,-0.44916 z m -1.34748,0.88168 -0.88168,0.56561 0.2828,0.44916 0.89832,-0.58225 -0.29944,-0.43252 z m 15.57087,0.13308 -0.43252,0.29944 0.58224,0.88169 0.44916,-0.28281 -0.59888,-0.89832 z m -16.90171,0.73197 -0.89832,0.58224 0.29944,0.44916 0.88168,-0.58224 -0.2828,-0.44916 z m 17.80003,0.59888 -0.44916,0.29944 0.59888,0.88168 0.43252,-0.29944 -0.58224,-0.88168 z m -19.14751,0.26617 -0.88169,0.58224 0.28281,0.44916 0.89832,-0.58224 -0.29944,-0.44916 z m -1.33085,0.88168 -0.89832,0.58225 0.29944,0.43252 0.88169,-0.58224 -0.28281,-0.43253 z m 21.36004,0.18299 -0.44916,0.29944 0.59888,0.88169 0.44916,-0.29944 -0.59888,-0.88169 z m -25.21948,0.38262 c -1.23376,0 -2.22917,0.9954 -2.22917,2.22916 0,0.0402 0.0145,0.0768 0.0166,0.11645 l -0.19963,0.0499 0.14972,0.5157 0.13309,-0.0333 c 0.27821,0.91697 1.1215,1.59701 2.12935,1.59701 1.23375,0 2.22916,-1.01204 2.22916,-2.2458 0,-0.34754 -0.0747,-0.67152 -0.21626,-0.96486 l 0.7985,-0.5157 -0.29944,-0.44916 -0.7985,0.5157 c -0.40974,-0.49648 -1.01948,-0.81514 -1.71346,-0.81514 z m -45.8641996,0.0998 c -1.47001,0 -2.66169,1.19168 -2.66169,2.66169 0,1.39429 1.06399,2.53091 2.42879,2.64505 l 0.0166,0.28281 0.53234,-0.0166 -0.0166,-0.26617 c 0.99288,-0.11331 1.80957,-0.78228 2.16262,-1.68019 l 0,0.0998 1.06467,0.0665 0.0333,-0.53234 -0.94822,-0.0665 c 0.0354,-0.17327 0.0499,-0.34859 0.0499,-0.53234 0,-1.47001 -1.19168,-2.66169 -2.66168,-2.66169 z m 71.9653696,0.84842 -0.43253,0.29944 0.58225,0.88168 0.44916,-0.29944 -0.59888,-0.88168 z m 0.89832,1.33084 -0.44916,0.2828 0.59888,0.89832 0.43252,-0.29944 -0.58224,-0.88168 z m -29.92735,0.26617 -1.01477,0.2828 0.13309,0.5157 1.0314,-0.2828 -0.14972,-0.5157 z m -1.53047,0.41589 -1.0314,0.2828 0.14972,0.5157 1.01476,-0.2828 -0.13308,-0.5157 z m -9.04974,0.18299 c -1.23457,0 -2.24635,0.89061 -2.46206,2.06281 l -0.31607,-0.0166 -0.0333,0.53234 0.29944,0.0166 c 0.0438,1.35282 1.14849,2.42879 2.51196,2.42879 0.0506,0 0.0999,-0.0137 0.14972,-0.0166 l 0,0.0166 0.53234,-0.0499 0,-0.0499 c 0.15804,-0.0443 0.30533,-0.0936 0.44916,-0.16636 l 0.26617,0.48243 0.44916,-0.26616 -0.28281,-0.49907 c 0.58072,-0.46148 0.96487,-1.16361 0.96487,-1.96299 0,-0.11594 -0.0181,-0.22094 -0.0333,-0.33272 l 0.53233,-0.14972 -0.13308,-0.5157 -0.53234,0.14972 c -0.35047,-0.9697 -1.27165,-1.66355 -2.36225,-1.66355 z m -28.2637896,0.24953 -0.0333,0.53234 1.06467,0.0832 0.0333,-0.53234 -1.0646796,-0.0832 z m 35.7664196,0 -1.0314,0.28281 0.14972,0.5157 1.0314,-0.28281 -0.14972,-0.5157 z m -34.16941,0.11645 -0.0333,0.53234 1.06468,0.0665 0.0333,-0.5157 -1.06468,-0.0832 z m 68.05602,0.0998 -0.44916,0.28281 0.59888,0.89832 0.43253,-0.29944 -0.58225,-0.88169 z m -66.459,0.0166 -0.0499,0.53234 1.06467,0.0665 0.0499,-0.53234 -1.06467,-0.0665 z m 1.58037,0.11645 -0.0333,0.5157 1.06468,0.0832 0.0333,-0.53234 -1.06468,-0.0665 z m 29.46155,0.0665 -1.0314,0.2828 0.13308,0.51571 1.03141,-0.28281 -0.13309,-0.5157 z m -27.86454,0.0333 -0.0333,0.53234 1.06468,0.0832 0.0333,-0.53234 -1.06468,-0.0832 z m 1.59702,0.11645 -0.0333,0.53234 1.06467,0.0665 0.0333,-0.53234 -1.06467,-0.0665 z m 1.59701,0.11645 -0.0333,0.53234 1.04804,0.0665 0.0499,-0.53234 -1.06467,-0.0665 z m 1.59701,0.0998 -0.0499,0.53234 1.06467,0.0832 0.0333,-0.53234 -1.04804,-0.0832 z m 21.5264,0.0665 -1.03141,0.28281 0.14972,0.49906 1.03141,-0.2828 -0.14972,-0.49907 z m -19.94602,0.0499 -0.0333,0.53234 1.06467,0.0665 0.0333,-0.5157 -1.06467,-0.0832 z m 1.59701,0.11645 -0.0333,0.53234 1.06468,0.0665 0.0333,-0.53234 -1.06468,-0.0665 z m 1.59701,0.11645 -0.0333,0.5157 1.04804,0.0832 0.0499,-0.53234 -1.06468,-0.0665 z m 1.59702,0.0998 -0.0499,0.53234 1.06467,0.0832 0.0333,-0.53234 -1.04804,-0.0832 z m 1.58037,0.11645 -0.0333,0.53234 1.06468,0.0665 0.0333,-0.53234 -1.06468,-0.0665 z m 1.59702,0.11645 -0.0333,0.53234 1.06468,0.0665 0.0333,-0.53234 -1.06467,-0.0665 z m 49.82345,0.0665 -0.43252,0.29944 0.58224,0.88168 0.44916,-0.2828 -0.59888,-0.89832 z m -48.22644,0.0333 -0.0333,0.53234 1.04804,0.0832 0.0499,-0.53234 -1.06467,-0.0832 z m 1.59701,0.11645 -0.0499,0.53234 1.06468,0.0665 0.0333,-0.5157 -1.04804,-0.0832 z m -27.6649096,1.13122 -0.53234,0.0166 0.0166,0.88169 c -0.87967,0.22814 -1.53047,1.02861 -1.53047,1.97963 0,0.93932 0.634,1.72384 1.49719,1.96299 l -0.0499,0.99813 0.53234,0.0333 0.0499,-0.94823 c 0.006,4e-5 0.0111,0 0.0166,0 1.12876,0 2.04617,-0.91741 2.04617,-2.04617 0,-1.12315 -0.90852,-2.03715 -2.02954,-2.04617 l -0.0166,-0.83178 z m 75.1926596,0.0499 -0.44916,0.29944 0.58225,0.88169 0.44916,-0.29944 -0.58225,-0.88169 z m 0.88169,1.33085 -0.44916,0.29944 0.59888,0.88168 0.43252,-0.29944 -0.58224,-0.88168 z m -41.93821,0.99813 -0.4658,0.24953 0.53234,0.93159 0.46579,-0.26616 -0.53233,-0.91496 z m -1.39739,0.0665 -0.53234,0.0499 0.0832,1.06467 0.53234,-0.0499 -0.0832,-1.06468 z m 44.21728,0.26617 -0.44916,0.29944 0.59888,0.88169 0.44916,-0.29944 -0.59888,-0.88169 z m -42.02139,1.04804 -0.46579,0.26617 0.53234,0.93159 0.44916,-0.26617 -0.51571,-0.93159 z m -2.07944,0.28281 -0.53234,0.0333 0.0666,1.06467 0.53233,-0.0333 -0.0665,-1.06467 z m 44.98252,0 -0.43253,0.2828 0.58225,0.89832 0.44916,-0.29944 -0.59888,-0.88168 z m -42.12121,1.11458 -0.46579,0.24953 0.53234,0.93159 0.46579,-0.26617 -0.53234,-0.91495 z m 43.93448,0.13308 c -0.30284,0 -0.58505,0.0738 -0.84841,0.18299 l -0.0665,-0.0998 -0.44916,0.2828 0.0499,0.0666 c -0.55648,0.40629 -0.91495,1.07149 -0.91495,1.81327 0,1.23376 0.9954,2.22916 2.22916,2.22916 1.23376,0 2.2458,-0.9954 2.2458,-2.22916 0,-1.23376 -1.01204,-2.2458 -2.2458,-2.2458 z m -46.67934,0.34935 -0.53234,0.0333 0.0665,1.06467 0.53234,-0.0333 -0.0665,-1.06467 z m -33.6037996,0.73196 -0.0499,1.06468 0.53234,0.0333 0.0499,-1.06468 -0.53233,-0.0333 z m 37.1471696,0.16636 -0.46579,0.26617 0.5157,0.91495 0.46579,-0.24953 -0.5157,-0.93159 z m -3.44356,0.69869 -0.53233,0.0333 0.0832,1.06468 0.53234,-0.0333 -0.0832,-1.06468 z m 4.22543,0.68206 -0.46579,0.26617 0.53233,0.93159 0.4658,-0.26617 -0.53234,-0.93159 z m -38.0122196,0.0499 -0.0499,1.06468 0.53234,0.0166 0.0499,-1.04804 -0.53234,-0.0333 z m 33.9032396,0.84842 -0.53234,0.0499 0.0832,1.06468 0.53234,-0.0499 -0.0832,-1.06467 z m 4.90749,0.49906 -0.4658,0.26617 0.5157,0.91496 0.4658,-0.24954 -0.5157,-0.93159 z m -38.8772696,0.24954 -0.0499,1.06467 0.53234,0.0166 0.0499,-1.06468 -0.53233,-0.0166 z m 39.6924096,0.78187 -0.14972,0.5157 1.01477,0.29944 0.14972,-0.49907 -1.01477,-0.31607 z m -5.60618,0.0665 -0.53234,0.0333 0.0665,1.06468 0.53234,-0.0333 -0.0665,-1.06467 z m 7.13665,0.39925 -0.16636,0.5157 1.03141,0.31608 0.14972,-0.5157 -1.01477,-0.31608 z m -41.3060596,0.34935 -0.0499,1.06467 0.53234,0.0166 0.0499,-1.06468 -0.53234,-0.0166 z m 42.8365296,0.13308 -0.16636,0.49907 1.01477,0.31608 0.16636,-0.49907 -1.01477,-0.31608 z m 1.51383,0.4658 -0.14972,0.5157 1.01477,0.29944 0.14972,-0.49907 -1.01477,-0.31607 z m -10.0645,0.24953 -0.53234,0.0333 0.0665,1.06468 0.53234,-0.0333 -0.0665,-1.06468 z m 11.59497,0.21626 -0.14972,0.51571 1.01477,0.31607 0.14972,-0.5157 -1.01477,-0.31608 z m 1.53047,0.48244 -0.16635,0.49906 1.01477,0.31608 0.16635,-0.51571 -1.01477,-0.29943 z m -47.4944796,0.0499 -0.0499,1.06468 0.53234,0.0166 0.0499,-1.06467 -0.53234,-0.0166 z m 49.0083196,0.41589 -0.14972,0.49907 1.01477,0.31607 0.16635,-0.49906 -1.0314,-0.31608 z m -14.53947,0.43252 -0.53234,0.0333 0.0832,1.06467 0.53234,-0.0333 -0.0832,-1.06468 z m 16.06994,0.0333 -0.14972,0.5157 1.01477,0.31607 0.14972,-0.5157 -1.01477,-0.31607 z m 1.53047,0.46579 -0.16636,0.5157 1.03141,0.31608 0.14972,-0.5157 -1.01477,-0.31608 z m -52.1357996,0.24953 -0.0499,1.04804 0.53234,0.0333 0.0499,-1.06467 -0.53234,-0.0166 z m 53.6662696,0.2329 -0.16636,0.49907 1.01477,0.31607 0.16636,-0.49906 -1.01477,-0.31608 z m 1.51383,0.4658 -0.14972,0.5157 1.01477,0.29944 0.16636,-0.49907 -1.03141,-0.31607 z m -20.52826,0.14972 -0.53234,0.0333 0.0832,1.06467 0.53234,-0.0499 -0.0832,-1.04804 z m 22.05873,0.31607 -0.14972,0.5157 1.01477,0.31608 0.14972,-0.5157 -1.01477,-0.31608 z m -56.7937496,0.41589 -0.0499,1.06468 0.53234,0.0333 0.0499,-1.06468 -0.53234,-0.0333 z m 58.3242196,0.0665 -0.16635,0.49907 1.0314,0.31607 0.14972,-0.5157 -1.01477,-0.29944 z m 1.53048,0.4658 -0.16636,0.5157 1.01477,0.29948 0.16635,-0.49911 -1.01476,-0.31607 z m -25.00323,0.31607 -0.53234,0.0499 0.0665,1.04801 0.53234,-0.033 -0.0665,-1.06465 z m 26.51706,0.14972 -0.14972,0.51569 1.01477,0.3161 0.14972,-0.5157 -1.01477,-0.31609 z m 1.53047,0.48239 -0.14972,0.4991 1.01477,0.3161 0.14972,-0.5157 -1.01477,-0.2995 z m -62.9821796,0.1165 -0.0499,1.0647 0.53233,0.033 0.0499,-1.0647 -0.53234,-0.033 z m 64.5126496,0.3493 -0.16636,0.4991 1.03141,0.3161 0.14972,-0.4991 -1.01477,-0.3161 z m 1.53047,0.4658 -0.16635,0.5157 1.01476,0.3161 0.16636,-0.5157 -1.01477,-0.3161 z m -30.99202,0.033 -0.53234,0.033 0.0665,1.0647 0.53234,-0.033 -0.0665,-1.0647 z m 32.50586,0.4326 -0.14972,0.5157 1.01476,0.316 0.14972,-0.5157 -1.01476,-0.316 z m -67.6234996,0.316 -0.0499,1.0647 0.53233,0.033 0.0499,-1.0647 -0.53234,-0.033 z m 69.1539696,0.1664 -0.14972,0.4991 1.01476,0.316 0.14972,-0.499 -1.01476,-0.3161 z m 1.53047,0.4658 -0.16636,0.5157 1.01477,0.2994 0.16635,-0.499 -1.01476,-0.3161 z m -35.46699,0.2162 -0.53234,0.033 0.0832,1.0647 0.53234,-0.033 -0.0832,-1.0647 z m 36.98082,0.2496 -0.14972,0.5157 1.01477,0.3161 0.16635,-0.5157 -1.0314,-0.3161 z m 1.53047,0.4824 -0.14972,0.4991 1.01477,0.316 0.14972,-0.5157 -1.01477,-0.2994 z m -73.8119196,0.017 -0.0499,1.0647 0.53233,0.033 0.0499,-1.0647 -0.53234,-0.033 z m 75.3423896,0.4492 -0.14972,0.499 1.01477,0.3161 0.14972,-0.4991 -1.01477,-0.316 z m -39.92531,0.3992 -0.53234,0.033 0.0832,1.0647 0.53234,-0.05 -0.0832,-1.048 z m 41.45578,0.067 -0.16635,0.5157 1.01476,0.3161 0.16636,-0.5157 -1.01477,-0.3161 z m 1.51384,0.4824 -0.14972,0.4991 1.01476,0.3161 0.16636,-0.5157 -1.0314,-0.2995 z m -78.4698696,0.1997 -0.0499,1.0647 0.53234,0.017 0.0499,-1.0481 -0.53233,-0.033 z m 80.0003396,0.2661 -0.14972,0.4991 1.01476,0.3161 0.14972,-0.4991 -1.01476,-0.3161 z m 1.53047,0.4658 -0.16636,0.5157 1.0314,0.3161 0.14972,-0.5157 -1.01476,-0.3161 z m -45.91411,0.1 -0.53234,0.05 0.0665,1.0481 0.53234,-0.033 -0.0665,-1.0647 z m 47.44458,0.366 -0.16636,0.5157 1.01477,0.3161 0.16635,-0.5157 -1.01476,-0.3161 z m -83.1278296,0.3993 -0.0499,1.06465 0.53233,0.017 0.0499,-1.06465 -0.53234,-0.017 z m 84.6416596,0.083 -0.14972,0.49905 1.01477,0.3161 0.14972,-0.49915 -1.01477,-0.316 z m 1.53047,0.46585 -0.14972,0.5157 1.01477,0.2994 0.14972,-0.4991 -1.01477,-0.316 z m 6.654216,0.033 c -1.44376,0 -2.61178,1.168 -2.61178,2.6117 0,1.4438 1.16802,2.6118 2.61178,2.6118 1.44376,0 2.61178,-1.168 2.61178,-2.6118 0,-1.4437 -1.16802,-2.6117 -2.61178,-2.6117 z m -57.026646,0.2495 -0.53234,0.033 0.0665,1.0647 0.53234,-0.033 -0.0665,-1.0647 z m 51.902896,0.183 -0.16635,0.5157 1.0314,0.3161 0.14972,-0.5157 -1.01477,-0.3161 z m 1.53047,0.4824 -0.16635,0.4991 1.01476,0.3161 0.16636,-0.5157 -1.01477,-0.2995 z m -89.3162356,0.1 -0.0499,1.0647 0.53234,0.017 0.0499,-1.0647 -0.53233,-0.017 z m 35.9826796,0.8318 -0.53234,0.033 0.0832,1.0647 0.53234,-0.033 -0.0832,-1.0647 z m -36.0658596,0.7652 -0.0499,1.0647 0.53234,0.017 0.0499,-1.0647 -0.53234,-0.017 z m 36.1823096,0.8318 -0.53234,0.033 0.0832,1.0647 0.53234,-0.05 -0.0832,-1.0481 z m -36.2488496,0.7652 -0.0499,1.0481 0.53234,0.033 0.0499,-1.0647 -0.53233,-0.017 z m 36.3652996,0.8152 -0.53234,0.05 0.0665,1.048 0.53234,-0.033 -0.0665,-1.0647 z m -36.4484796,0.7652 -0.0499,1.0647 0.53234,0.033 0.0499,-1.0647 -0.53234,-0.033 z m 36.5649296,0.8318 -0.53234,0.033 0.0665,1.0647 0.53234,-0.033 -0.0665,-1.0647 z m -36.6481096,0.7652 -0.0499,1.0647 0.53234,0.033 0.0499,-1.0647 -0.53234,-0.033 z m 36.7479196,0.8318 -0.53234,0.033 0.0832,1.0647 0.53234,-0.033 -0.0832,-1.0647 z m -36.8144596,0.7652 -0.0499,1.0647 0.53234,0.033 0.0499,-1.0647 -0.53234,-0.033 z m 36.9309096,0.8318 -0.53234,0.033 0.0832,1.0647 0.53234,-0.033 -0.0832,-1.0647 z m -36.8477296,0.732 c -1.20751,0 -2.1792597,0.9717 -2.1792597,2.1792 0,1.2075 0.9717497,2.1959 2.1792597,2.1959 1.2075,0 2.19589,-0.9884 2.19589,-2.1959 0,-1.2075 -0.98839,-2.1792 -2.19589,-2.1792 z m 36.4651096,0.4824 c -1.39126,0 -2.5286,1.1207 -2.5286,2.512 0,1.3912 1.13734,2.5119 2.5286,2.5119 0.4675,0 0.88909,-0.1274 1.2643,-0.3493 l 0.49907,0.5989 0.41589,-0.3327 -0.48243,-0.5823 c 0.49966,-0.4603 0.81514,-1.1136 0.81514,-1.8465 0,-1.3913 -1.12071,-2.512 -2.51197,-2.512 z m -34.1694096,1.8299 -0.0166,0.5324 1.06467,0.033 0.0166,-0.5324 -1.06468,-0.033 z m 1.59701,0.05 -0.0166,0.5324 1.06467,0.033 0.0166,-0.5324 -1.06468,-0.033 z m 1.59702,0.05 -0.0166,0.5323 1.06468,0.017 0.0166,-0.5323 -1.06467,-0.017 z m 1.5970096,0.033 -0.0166,0.5324 1.06468,0.033 0.0166,-0.5324 -1.06467,-0.033 z m 1.59701,0.05 -0.0166,0.5324 1.06467,0.033 0.0166,-0.5324 -1.06468,-0.033 z m 1.59701,0.033 -0.0166,0.5323 1.06467,0.033 0.0166,-0.5323 -1.06468,-0.033 z m 1.59702,0.05 -0.0166,0.5324 1.06468,0.033 0.0166,-0.5324 -1.06467,-0.033 z m 1.59701,0.05 -0.0166,0.5324 1.06468,0.017 0.0166,-0.5324 -1.06467,-0.017 z m 1.59701,0.033 -0.0166,0.5324 1.06467,0.033 0.0166,-0.5324 -1.06468,-0.033 z m 1.59701,0.05 -0.0166,0.5323 1.06467,0.033 0.0166,-0.5323 -1.06468,-0.033 z m 1.59702,0.05 -0.0166,0.5324 1.06468,0.017 0.0166,-0.5324 -1.06467,-0.017 z m 1.59701,0.033 -0.0166,0.5324 1.06468,0.033 0.0166,-0.5324 -1.06467,-0.033 z m 1.59701,0.05 -0.0166,0.5324 1.06468,0.033 0.0166,-0.5324 -1.06468,-0.033 z m 1.59701,0.033 -0.0166,0.5324 1.06467,0.033 0.0166,-0.5324 -1.06468,-0.033 z m 1.59702,0.05 -0.0166,0.5324 1.06467,0.033 0.0166,-0.5324 -1.06467,-0.033 z m 1.59701,0.05 -0.0166,0.5323 1.06468,0.017 0.0166,-0.5323 -1.06467,-0.017 z m 1.59701,0.033 -0.0166,0.5323 1.06468,0.033 0.0166,-0.5323 -1.06468,-0.033 z m 1.59701,0.05 -0.0166,0.5324 1.06467,0.033 0.0166,-0.5324 -1.06468,-0.033 z m 1.59701,0.05 -0.0166,0.5324 1.06467,0.017 0.0166,-0.5324 -1.06468,-0.017 z m 1.59702,0.033 -0.0166,0.5324 1.06468,0.033 0.0166,-0.5324 -1.06467,-0.033 z m 6.33814,2.695 -0.41589,0.3327 0.66542,0.8318 0.41589,-0.3494 -0.66542,-0.8151 z m 0.99813,1.231 -0.39925,0.3327 0.66542,0.8318 0.41589,-0.3327 -0.68206,-0.8318 z m 1.01477,1.2477 -0.41589,0.3327 0.68206,0.8151 0.41589,-0.3327 -0.68206,-0.8151 z m 1.01477,1.231 -0.41589,0.3327 0.66542,0.8318 0.41589,-0.3327 -0.66542,-0.8318 z m 0.99813,1.231 -0.39925,0.3494 0.66542,0.8151 0.41589,-0.3327 -0.68206,-0.8318 z m 1.78001,0.6322 c -0.99751,0 -1.81328,0.7991 -1.81328,1.7966 0,0.9975 0.81577,1.8133 1.81328,1.8133 0.43695,0 0.83547,-0.1577 1.14785,-0.4159 l -0.14972,0.1331 0.73196,0.7652 0.38262,-0.3826 -0.73196,-0.7652 c 0.25968,-0.3128 0.41588,-0.7096 0.41588,-1.1479 0,-0.9975 -0.79913,-1.7966 -1.79663,-1.7966 z m 4.04243,3.7097 c -0.54928,0 -1.05744,0.1745 -1.46392,0.4824 l -0.0998,-0.1 -0.38262,0.3827 0.0998,0.1 c -0.35465,0.4215 -0.58225,0.9531 -0.58225,1.5471 0,1.3387 1.09003,2.4288 2.42879,2.4288 0.67809,0 1.29016,-0.2832 1.7301,-0.732 l 0.69869,0.5822 0.34935,-0.4159 -0.71533,-0.5988 c 0.22256,-0.3665 0.34935,-0.8043 0.34935,-1.2643 0,-1.3388 -1.0734,-2.4122 -2.41216,-2.4122 z m 32.22306,3.5101 c -1.33876,0 -2.42879,1.09 -2.42879,2.4288 0,1.3388 1.09003,2.4122 2.42879,2.4122 1.33875,0 2.41215,-1.0734 2.41215,-2.4122 0,-1.3388 -1.0734,-2.4288 -2.41215,-2.4288 z m -29.04567,1.1146 -0.33271,0.3992 0.81514,0.6821 0.34935,-0.3993 -0.83178,-0.682 z m 1.23103,1.0148 -0.33271,0.4158 0.81514,0.6821 0.33271,-0.4159 -0.81514,-0.682 z m 1.23103,1.0314 -0.34934,0.3992 0.81514,0.6821 0.34935,-0.3993 -0.81515,-0.682 z m 24.12154,0.8317 -0.7985,0.6987 0.34934,0.3993 0.79851,-0.6987 -0.34935,-0.3993 z m -22.90714,0.183 -0.33271,0.4159 0.81514,0.6821 0.34935,-0.4159 -0.83178,-0.6821 z m 21.70939,0.8651 -0.81515,0.6987 0.34935,0.3992 0.81514,-0.6987 -0.34934,-0.3992 z m -20.47836,0.1663 -0.33271,0.3993 0.81514,0.682 0.33271,-0.3992 -0.81514,-0.6821 z m 19.26396,0.8817 -0.79851,0.6987 0.34935,0.3993 0.79851,-0.6987 -0.34935,-0.3993 z m -18.03293,0.1331 -0.34935,0.4159 0.81514,0.682 0.34935,-0.4158 -0.81514,-0.6821 z m 16.83517,0.915 -0.79851,0.6987 0.34935,0.3992 0.79851,-0.6987 -0.34935,-0.3992 z m -15.60414,0.1164 -0.34935,0.3993 0.81514,0.682 0.34935,-0.3992 -0.81514,-0.6821 z m 14.40638,0.9316 -0.81514,0.6987 0.34935,0.3992 0.81514,-0.6986 -0.34935,-0.3993 z m -13.19199,0.083 -0.33271,0.4159 0.81514,0.682 0.33272,-0.4158 -0.81515,-0.6821 z m 11.9776,0.9649 -0.79851,0.6987 0.34935,0.3992 0.7985,-0.6987 -0.34934,-0.3992 z m -10.74657,0.066 -0.34934,0.3992 0.83178,0.6821 0.33271,-0.3993 -0.81515,-0.682 z m 9.54881,0.9815 -0.79851,0.6986 0.34935,0.4159 0.7985,-0.7153 -0.34934,-0.3992 z m -8.31778,0.033 -0.34934,0.4158 0.81514,0.6821 0.34935,-0.4159 -0.81515,-0.682 z m 1.2144,1.0314 -0.33271,0.3992 0.81514,0.6821 0.33271,-0.3993 -0.81514,-0.682 z m 5.90562,0 -0.81514,0.6987 0.36598,0.3992 0.7985,-0.6987 -0.34934,-0.3992 z m -2.7116,0.4491 c -0.6905,0 -1.30522,0.2853 -1.74673,0.7486 l -0.21626,-0.183 -0.34935,0.4159 0.2329,0.1996 c -0.21802,0.3638 -0.34935,0.7761 -0.34935,1.2311 0,1.3387 1.09003,2.4288 2.42879,2.4288 1.33876,0 2.41216,-1.0901 2.41216,-2.4288 0,-1.3388 -1.0734,-2.4122 -2.41216,-2.4122 z" id="path3003" inkscape:connector-curvature="0"/>
  </g>
</svg>