<svg xmlns="http://www.w3.org/2000/svg" xmlns:xlink="http://www.w3.org/1999/xlink" version="1.1" id="Your_Icon" x="0px" y="0px" width="100px" height="100px" viewBox="0 0 100 100" enable-background="new 0 0 100 100" xml:space="preserve">
<g>
	<g>
		<path fill="#000000" d="M33.561,2.162c8.041-0.817,16.216,0.265,23.88,2.775c5.161,1.735,10.153,4.009,14.764,6.914    c1.793,1.105,3.512,2.326,5.2,3.585c0.57-0.477,1.27-0.839,2.029-0.827c1.339-0.061,2.622,0.953,2.886,2.264    c0.193,0.8-0.018,1.63-0.428,2.325c3.847,3.495,7.271,7.463,10.122,11.811c2.956,4.523,5.274,9.484,6.64,14.721    c1.445,5.672,1.848,11.675,0.614,17.427c-0.892,4.256-2.643,8.338-5.167,11.885c-2.032,2.879-4.55,5.408-7.391,7.492    c-5.611,4.148-12.399,6.527-19.294,7.369c-0.255,0.023-0.505,0.061-0.746,0.135c-0.46,2.746-1.95,5.299-4.073,7.092    c-1.83,1.559-4.135,2.551-6.526,2.799c-2.562,0.279-5.216-0.268-7.434-1.584c-3.668-2.113-6.064-6.262-5.977-10.502    c-0.037-0.217,0.106-0.592-0.193-0.656c-9.672-3.152-18.593-8.568-25.887-15.656c-4.064-3.963-7.617-8.467-10.405-13.414    C2.16,51.008-0.303,42.869,0.031,34.657c0.206-5.491,1.743-10.952,4.603-15.656c1.368-2.185,2.917-4.27,4.757-6.083    c0.165-0.125,0.03-0.33-0.003-0.483c-0.579-1.532-0.311-3.347,0.688-4.646c0.503-0.633,1.136-1.176,1.884-1.498    c1.632-0.759,3.679-0.507,5.074,0.633c0.116,0.146,0.29,0.113,0.426,0.018C22.426,4.264,27.964,2.736,33.561,2.162z M34.902,3.698    c-5.725,0.614-11.378,2.309-16.326,5.289c0.182,0.688,0.356,1.395,0.285,2.114c-0.115,1.894-1.436,3.641-3.232,4.255    c-1.387,0.514-2.961,0.306-4.233-0.418c-1.343,1.489-2.516,3.127-3.523,4.858c-2.565,4.393-3.906,9.455-4.04,14.53    c-0.147,5.301,0.958,10.593,2.909,15.51c2.418,6.077,6.087,11.62,10.525,16.411c7.17,7.707,16.308,13.582,26.304,16.889    c0.171-0.223,0.266-0.49,0.392-0.738c1.157-2.281,3.053-4.186,5.348-5.322c1.812-0.928,3.869-1.363,5.901-1.279    c3.023,0.08,5.987,1.383,8.113,3.531c1.77,1.75,2.963,4.066,3.373,6.52c1.062-0.018,2.11-0.252,3.156-0.42    c7.407-1.33,14.584-4.732,19.761-10.277c3.087-3.27,5.409-7.258,6.716-11.562c1.736-5.609,1.737-11.659,0.469-17.363    c-1.219-5.523-3.588-10.754-6.697-15.465c-2.603-3.923-5.678-7.55-9.172-10.707c-1.07,0.593-2.518,0.47-3.412-0.39    c-0.786-0.693-1.115-1.834-0.856-2.845c0.011-0.144,0.126-0.352-0.049-0.441c-5.724-4.395-12.188-7.821-19.045-10.07    C50.296,3.92,42.531,2.883,34.902,3.698z"/>
	</g>
	<g>
		<path fill="#000000" d="M33.041,15.598c4.092-2.309,8.841-3.263,13.509-3.24c6.08,0.014,12.062,1.722,17.482,4.413    c4.758,2.419,9.094,5.695,12.633,9.696c3.391,3.83,6.09,8.354,7.397,13.326c1.247,4.756,1.141,9.989-0.973,14.491    c0.831,1.23,1.046,2.865,0.468,4.244c-0.613,1.555-2.185,2.668-3.855,2.725c-0.646,0.045-1.283-0.104-1.894-0.301    c-1.884,1.473-3.997,2.648-6.244,3.465c-6.267,2.266-13.229,2.07-19.588,0.279c-5.12-1.373-9.949-3.766-14.202-6.92    c-4.146-3.086-7.768-6.921-10.42-11.368c-2.087-3.501-3.573-7.404-4.015-11.471c-0.408-3.67,0.076-7.491,1.7-10.829    C26.674,20.487,29.593,17.527,33.041,15.598z M44.908,14.187c-4.534,0.385-9.079,1.916-12.57,4.902    c-3.002,2.529-5.038,6.154-5.684,10.021c-0.675,3.824-0.051,7.789,1.335,11.387c1.215,3.146,3.002,6.057,5.152,8.649    c3.136,3.771,7.028,6.898,11.34,9.232c5.077,2.725,10.764,4.418,16.544,4.531c5.075,0.09,10.326-1.121,14.461-4.168    c-0.439-1.002-0.553-2.154-0.211-3.201c0.4-1.328,1.478-2.428,2.795-2.862c0.833-0.295,1.74-0.277,2.596-0.086l0.104-0.055    c1.699-3.417,2.122-7.378,1.516-11.123c-0.79-4.99-3.221-9.604-6.412-13.476c-3.511-4.248-7.977-7.683-12.928-10.095    C57.372,15.144,51.113,13.663,44.908,14.187z"/>
	</g>
	<g>
		<path fill="#000000" d="M49.689,23.08c2.942-0.435,5.983-0.026,8.751,1.041c4.397,1.566,8.292,4.642,10.684,8.668    c1.365,2.334,2.202,5.09,1.837,7.811c-0.208,2.333-1.459,4.532-3.297,5.97c-1.591,1.265-3.556,1.998-5.554,2.29    c-2.67,0.372-5.419,0.053-7.962-0.826c-2.308-0.72-4.47-1.881-6.384-3.355c-0.064-0.038-0.194-0.112-0.26-0.149    c-1.239,0.548-2.667,0.695-3.972,0.298c-1.757-0.502-3.201-1.946-3.72-3.696c-0.593-1.936-0.033-4.175,1.448-5.565    c-0.343-1.435-0.526-2.926-0.309-4.395c0.28-1.818,1.021-3.604,2.324-4.929C44.943,24.454,47.302,23.444,49.689,23.08z     M49.829,25.234c-1.949,0.505-3.799,1.62-4.92,3.325c-1.098,1.608-1.418,3.645-1.153,5.55c0.436,0.004,0.865-0.111,1.304-0.1    c1.262-0.02,2.525,0.416,3.508,1.208c1.326,1.054,2.13,2.751,2.046,4.45c0.018,1.169-0.443,2.289-1.103,3.236    c2.356,1.794,5.178,2.996,8.117,3.393c2.534,0.334,5.243,0,7.444-1.369c1.736-1.06,3.028-2.849,3.398-4.86    c0.421-2.13-0.069-4.35-1.034-6.266c-1.938-3.776-5.476-6.604-9.442-8.021C55.396,24.864,52.521,24.533,49.829,25.234z"/>
	</g>
</g>
</svg>