<svg xmlns="http://www.w3.org/2000/svg" xmlns:xlink="http://www.w3.org/1999/xlink" version="1.1" id="Layer_1" x="0px" y="0px" width="50px" height="50px" viewBox="0 0 50 50" enable-background="new 0 0 50 50" xml:space="preserve">
<g>
	<polygon fill-rule="evenodd" clip-rule="evenodd" fill="#000000" points="39.798,3.729 41.79,9.848 48.191,9.848 42.998,13.618    44.989,19.807 39.798,15.965 34.604,19.807 36.597,13.618 31.333,9.848 37.806,9.848  "/>
	<path fill-rule="evenodd" clip-rule="evenodd" fill="#000000" d="M29.91,31.547c4.055,0,7.398,3.271,7.398,7.397   c0,4.056-3.344,7.326-7.398,7.326c-4.057,0-7.398-3.271-7.398-7.326C22.512,34.818,25.854,31.547,29.91,31.547z"/>
	<path fill-rule="evenodd" clip-rule="evenodd" fill="#000000" d="M17.461,10.559c2.347,0,4.266,1.922,4.266,4.269   c0,2.346-1.918,4.267-4.266,4.267s-4.27-1.921-4.27-4.267C13.191,12.48,15.114,10.559,17.461,10.559z"/>
	<path fill-rule="evenodd" clip-rule="evenodd" fill="#000000" d="M22.724,16.532c6.26,2.778,12.663,6.76,17.784,11.101   c9.96,8.607,11.098,15.508,2.563,15.508c-1.566,0-3.345-0.214-5.265-0.64c0.498-1.137,0.783-2.349,0.783-3.557   c0-0.854-0.144-1.564-0.285-2.277c2.419-1.209,0.998-4.766-3.913-9.034c-3.983-3.414-9.392-6.404-14.014-8.039   C21.517,18.882,22.367,17.816,22.724,16.532z"/>
	<path fill-rule="evenodd" clip-rule="evenodd" fill="#000000" d="M6.931,12.194c1.565,0,3.341,0.214,5.334,0.642   c-0.213,0.641-0.356,1.281-0.356,1.992c0,1.28,0.427,2.491,1.211,3.484c-4.197,0.5-3.202,4.483,2.49,9.321   c2.348,1.992,5.121,3.841,7.968,5.407c-0.854,0.852-1.424,1.848-1.852,2.985c-4.338-2.417-8.606-5.261-12.235-8.393   C-0.467,19.095-1.606,12.194,6.931,12.194z"/>
</g>
</svg>