<svg xmlns="http://www.w3.org/2000/svg" xmlns:xlink="http://www.w3.org/1999/xlink" version="1.1" id="Layer_1" x="0px" y="0px" width="100px" height="100px" viewBox="0 0 100 100" enable-background="new 0 0 100 100" xml:space="preserve">
<circle cx="68.782" cy="76.217" r="6.746"/>
<circle cx="29.258" cy="50.099" r="3.742"/>
<g>
	<path d="M50,71.405c-11.803,0-21.405-9.603-21.405-21.405S38.197,28.596,50,28.596S71.405,38.197,71.405,50   S61.803,71.405,50,71.405z M50,29.596c-11.251,0-20.405,9.153-20.405,20.404c0,11.252,9.153,20.405,20.405,20.405   S70.405,61.252,70.405,50C70.405,38.749,61.251,29.596,50,29.596z"/>
</g>
<g>
	<path d="M50,83.938c-18.714,0-33.938-15.225-33.938-33.938S31.286,16.062,50,16.062S83.938,31.286,83.938,50   S68.714,83.938,50,83.938z M50,18.062c-17.611,0-31.938,14.327-31.938,31.938S32.389,81.938,50,81.938S81.938,67.611,81.938,50   S67.611,18.062,50,18.062z"/>
</g>
<g>
	<path d="M50,98.901C23.036,98.901,1.099,76.964,1.099,50S23.036,1.099,50,1.099S98.901,23.036,98.901,50S76.964,98.901,50,98.901z    M50,5.099C25.241,5.099,5.099,25.241,5.099,50S25.241,94.901,50,94.901S94.901,74.759,94.901,50S74.759,5.099,50,5.099z"/>
</g>
<g>
	<g>
		<g>
			<path d="M50,65.806c-0.32,0-0.624-0.145-0.825-0.395l-2.986-3.693l-4.586,1.234c-0.309,0.084-0.64,0.022-0.899-0.166     c-0.259-0.189-0.419-0.483-0.436-0.804l-0.244-4.744l-4.436-1.697c-0.299-0.114-0.53-0.359-0.629-0.663     c-0.1-0.304-0.055-0.638,0.119-0.906l2.59-3.981l-2.59-3.981c-0.174-0.268-0.219-0.602-0.119-0.906     c0.099-0.304,0.331-0.547,0.629-0.663l4.436-1.696l0.244-4.745c0.016-0.32,0.177-0.614,0.436-0.804     c0.259-0.189,0.59-0.25,0.899-0.165l4.586,1.232l2.986-3.693c0.403-0.498,1.248-0.498,1.65,0l2.986,3.693l4.586-1.232     c0.309-0.085,0.64-0.023,0.899,0.165c0.259,0.189,0.42,0.483,0.436,0.804l0.244,4.745l4.436,1.696     c0.299,0.116,0.53,0.359,0.629,0.663c0.1,0.305,0.055,0.639-0.12,0.906l-2.59,3.981l2.59,3.981     c0.175,0.269,0.219,0.603,0.12,0.906c-0.099,0.304-0.331,0.549-0.629,0.663l-4.436,1.697l-0.244,4.744     c-0.016,0.32-0.177,0.614-0.436,0.804c-0.259,0.188-0.59,0.248-0.899,0.166l-4.586-1.234l-2.986,3.693     C50.624,65.661,50.32,65.806,50,65.806z M46.581,59.455c0.315,0,0.62,0.14,0.825,0.394L50,63.058l2.595-3.209     c0.264-0.326,0.696-0.466,1.101-0.357l3.986,1.072l0.212-4.124c0.021-0.419,0.288-0.785,0.68-0.936l3.854-1.476l-2.25-3.459     c-0.229-0.353-0.229-0.806,0-1.157l2.25-3.459l-3.854-1.478c-0.393-0.149-0.659-0.516-0.68-0.935l-0.212-4.124l-3.986,1.073     c-0.405,0.109-0.837-0.031-1.101-0.357L50,36.923l-2.595,3.21c-0.264,0.326-0.694,0.468-1.101,0.357l-3.986-1.073l-0.212,4.124     c-0.021,0.419-0.288,0.785-0.68,0.935l-3.854,1.478l2.251,3.459c0.229,0.352,0.229,0.805,0,1.157l-2.251,3.459l3.854,1.476     c0.393,0.15,0.659,0.517,0.68,0.936l0.212,4.124l3.986-1.072C46.396,59.467,46.489,59.455,46.581,59.455z"/>
		</g>
	</g>
	<g>
		<g>
			<circle cx="50" cy="49.99" r="7.954"/>
		</g>
	</g>
</g>
<circle cx="82.142" cy="15.142" r="8.142"/>
</svg>