<svg xmlns="http://www.w3.org/2000/svg" xmlns:xlink="http://www.w3.org/1999/xlink" version="1.1" id="Layer_1" x="0px" y="0px" width="100px" height="100px" viewBox="0 0 100 100" enable-background="new 0 0 100 100" xml:space="preserve">
<path fill-rule="evenodd" clip-rule="evenodd" d="M94.406,40.817c1.143,9.305,0.922,18.194-3.255,26.673  c-5.366,10.893-9.545,13.144-20.917,9.586c-6.299-1.971-12.373-4.812-18.322-7.727c-9.872-4.835-19.529-10.234-30.845-10.708  c-3.873-0.161-7.803,0.269-11.661,0.777c-2.2,0.289-3.095-0.211-3.616-2.407c-1.875-7.915-0.728-10.421,6.856-13.822  c11.532-5.171,23.133-5.013,35.065-1.09c8.05,2.647,16.298,5.112,24.65,6.312C80.416,49.567,88.659,48.817,94.406,40.817z"/>
<path fill-rule="evenodd" clip-rule="evenodd" d="M67.818,6.561c9.84,4.273,17.036,11.02,22.212,20.082  c1.813,3.174,0.578,3.842-2.52,4.253c-9.778,1.298-18.507-2.149-27.186-5.717c-15.77-6.482-31.348-7.207-46.795,0.931  c-0.621,0.328-1.313,0.522-1.983,0.75c-0.101,0.034-0.252-0.086-1.668-0.626c3.516-4.132,6.71-7.999,10.024-11.756  C25.642,7.968,33.03,7.32,40.942,8.791c4.256,0.792,8.49,1.7,12.745,2.509C59.229,12.352,64.395,12.124,67.818,6.561z"/>
<path fill-rule="evenodd" clip-rule="evenodd" d="M71.58,87.576c-11.521,9.362-37.923,6.849-47.047-2.846  c3.212-0.741,5.853-1.937,8.436-1.826c6.02,0.261,12.024,1.063,18.013,1.812C57.914,85.583,64.824,86.63,71.58,87.576z"/>
</svg>