<svg xmlns="http://www.w3.org/2000/svg" xmlns:xlink="http://www.w3.org/1999/xlink" version="1.1" id="Layer_1" x="0px" y="0px" width="100px" height="100px" viewBox="0 0 100 100" enable-background="new 0 0 100 100" xml:space="preserve">
<g>
	<path d="M99.33,43.379c-0.514-1.312-2.234-2.356-4.973-3.023c-2.207-0.535-4.994-0.807-8.285-0.807   c-0.826,0-1.693,0.018-2.576,0.051c-4.041,0.158-8.621,0.665-13.615,1.509c-0.051,0.009-0.104,0.018-0.158,0.026   c0.045,0.056,0.086,0.112,0.129,0.168c0.158,0.199,0.312,0.4,0.463,0.604c0.07,0.094,0.139,0.188,0.207,0.281   c0.146,0.205,0.289,0.41,0.43,0.617c0.057,0.082,0.113,0.164,0.168,0.246c0.189,0.289,0.375,0.58,0.553,0.873   c0.025,0.043,0.049,0.084,0.074,0.127c0.152,0.256,0.301,0.514,0.443,0.773c0.02,0.037,0.043,0.074,0.062,0.111   c1.045,0.143,1.943,0.361,2.678,0.652c2.434,0.963,2.738,2.559,2.703,3.422c-0.055,1.312-0.916,2.76-2.561,4.305l0.002,0.014   l-0.463,0.404l0,0c0,0.002,0,0.002,0,0.002c-0.197,0.172-0.404,0.348-0.621,0.521c-0.002,0.002-0.004,0.004-0.008,0.008   c-0.555,0.449-1.176,0.904-1.846,1.365c-1.18,0.807-2.525,1.623-4.043,2.447c-0.387,0.209-0.783,0.42-1.186,0.627   c-2.824,1.455-6.033,2.855-9.562,4.168c-3.561,1.324-7.195,2.467-10.824,3.404c-0.519,0.135-1.037,0.264-1.555,0.391   c-3.962,0.959-7.662,1.611-10.997,1.939c-0.355,0.033-0.704,0.062-1.048,0.09c-0.113,0.01-0.225,0.016-0.336,0.025   c-0.227,0.016-0.453,0.031-0.675,0.043c-0.133,0.008-0.264,0.014-0.395,0.021c-0.197,0.008-0.392,0.016-0.584,0.023   c-0.134,0.004-0.268,0.01-0.399,0.012c-0.201,0.006-0.396,0.008-0.591,0.008c-0.091,0.002-0.187,0.006-0.277,0.006l0,0   c-0.023,0-0.046,0-0.068,0c-0.008-0.002-0.017-0.002-0.024-0.002c-0.232,0-0.459-0.004-0.684-0.01   c-0.062-0.002-0.123-0.004-0.184-0.004c-0.175-0.006-0.347-0.014-0.517-0.021c-0.064-0.004-0.128-0.006-0.191-0.01   c-0.22-0.012-0.438-0.027-0.647-0.045l-0.627-0.053l-0.005-0.012c-0.296-0.033-0.58-0.072-0.844-0.117   c-2.327-0.387-3.847-1.203-4.517-2.428c-0.482-0.879-0.736-2.35,0.792-4.365c0.497-0.654,1.163-1.342,1.986-2.049   c-0.003-0.035-0.005-0.072-0.009-0.107c-0.007-0.08-0.014-0.16-0.021-0.24c-0.014-0.164-0.026-0.326-0.037-0.49   c-0.006-0.086-0.011-0.172-0.016-0.258c-0.009-0.166-0.016-0.332-0.022-0.5c-0.003-0.076-0.006-0.15-0.009-0.227   c-0.007-0.24-0.011-0.48-0.011-0.719c0-0.312,0.006-0.625,0.018-0.939c0.003-0.111,0.013-0.223,0.018-0.334   c0.009-0.193,0.017-0.387,0.031-0.58c-4.503,2.084-8.529,4.227-11.969,6.367C8.398,64,5.5,66.223,3.494,68.299   c-2.079,2.148-3.112,4.07-2.99,5.557c0.126,1.533,1.541,2.715,4.205,3.518c2.304,0.693,5.391,1.045,9.177,1.045   c1.399,0,2.902-0.049,4.468-0.146c4.961-0.309,10.552-1.086,16.616-2.311c1.632-0.33,3.277-0.688,4.888-1.062   c8.33-1.936,17.043-4.598,25.2-7.701c2.562-0.977,5.064-1.992,7.438-3.02c5.045-2.186,9.582-4.455,13.486-6.744   c5.131-3.01,9.041-5.998,11.309-8.643C98.594,47.271,100.006,45.1,99.33,43.379z"/>
	<path d="M69.658,67.736c-0.553,0.225-1.113,0.447-1.674,0.668c-0.145,0.057-0.289,0.115-0.436,0.172   c-0.568,0.223-1.139,0.443-1.713,0.662c-0.518,0.197-1.033,0.391-1.553,0.584c-7.795,2.889-16.032,5.369-23.929,7.205   c-0.78,0.182-1.568,0.359-2.358,0.531c3.542,2.041,7.536,3.109,11.687,3.109c9.158,0,17.398-5.311,21.242-13.451   c-0.414,0.172-0.83,0.342-1.25,0.514C69.67,67.732,69.662,67.734,69.658,67.736z"/>
	<path d="M28.166,66.611L28.166,66.611c0.006,0,0.013,0,0.019,0c0.028,0.002,0.058,0.002,0.086,0.004   c0.189,0.01,0.383,0.018,0.581,0.023c0.059,0.002,0.121,0.002,0.181,0.004c0.171,0.002,0.343,0.006,0.52,0.006   c0.071,0,0.143,0,0.215,0c0.17-0.002,0.342-0.002,0.517-0.006c0.078-0.002,0.157-0.004,0.235-0.006   c0.173-0.004,0.349-0.01,0.526-0.018c0.084-0.002,0.167-0.006,0.252-0.01c0.178-0.008,0.358-0.018,0.54-0.029   c0.087-0.004,0.173-0.008,0.261-0.014c0.19-0.012,0.385-0.027,0.581-0.041c0.08-0.008,0.159-0.012,0.239-0.018   c0.276-0.023,0.554-0.049,0.837-0.076c3.234-0.316,6.833-0.953,10.696-1.889c0.507-0.123,1.015-0.25,1.523-0.381   c0.444-0.115,0.889-0.232,1.334-0.355c3.111-0.848,6.219-1.846,9.274-2.982c2.375-0.883,4.596-1.805,6.646-2.756   c1.35-0.625,2.627-1.264,3.822-1.91c0.033-0.018,0.064-0.035,0.098-0.055c0.27-0.148,0.537-0.295,0.797-0.441   c0.102-0.059,0.199-0.115,0.297-0.174c0.189-0.107,0.377-0.215,0.559-0.322c0.109-0.066,0.215-0.131,0.322-0.197   c0.164-0.098,0.328-0.197,0.486-0.297c0.109-0.068,0.215-0.135,0.32-0.203c0.15-0.096,0.301-0.191,0.445-0.287   c0.105-0.068,0.207-0.137,0.309-0.205c0.141-0.094,0.277-0.188,0.412-0.281c0.098-0.068,0.193-0.137,0.289-0.203   c0.133-0.096,0.26-0.189,0.389-0.283c0.088-0.066,0.178-0.131,0.262-0.195c0.129-0.098,0.252-0.195,0.373-0.291   c0.076-0.062,0.156-0.123,0.23-0.184c0.02-0.016,0.041-0.033,0.061-0.049v-0.002c-0.426-2.102-1.139-4.129-2.119-6.035   c-0.869-1.688-1.939-3.268-3.193-4.703c-0.18-0.205-0.363-0.408-0.549-0.607c-4.428-4.735-10.682-7.451-17.158-7.451   c-5.665,0-11.135,2.045-15.404,5.758c-4.228,3.677-7.007,8.735-7.826,14.247c-0.171,1.15-0.257,2.32-0.257,3.482   c0,0.953,0.059,1.918,0.175,2.871C26.646,62.32,27.25,64.523,28.166,66.611z M62.281,47.896c0.66-0.859,1.891-1.02,2.748-0.357   c0.857,0.66,1.018,1.889,0.357,2.746s-1.891,1.018-2.748,0.357S61.621,48.754,62.281,47.896z M58.342,41.271   c0.533-0.691,1.525-0.821,2.219-0.288c0.691,0.532,0.82,1.525,0.287,2.218c-0.531,0.691-1.525,0.82-2.217,0.287   C57.939,42.957,57.809,41.963,58.342,41.271z M53.945,47.844c0.801-1.039,2.291-1.232,3.33-0.432   c1.039,0.799,1.232,2.291,0.432,3.328c-0.799,1.041-2.289,1.234-3.328,0.434C53.34,50.375,53.145,48.883,53.945,47.844z"/>
	<polygon points="61.254,26.244 68.311,21.117 75.367,26.244 72.672,17.948 79.729,12.821 71.006,12.821 68.311,4.525    65.615,12.821 56.893,12.821 63.949,17.948  "/>
	<polygon points="5.318,46.805 10.754,42.854 16.191,46.805 14.115,40.412 19.551,36.462 12.832,36.462 10.754,30.071 8.678,36.462    1.958,36.462 7.395,40.412  "/>
	<polygon points="40.794,11.351 43.907,9.09 47.018,11.351 45.83,7.693 48.942,5.432 45.095,5.432 43.907,1.774 42.717,5.432    38.871,5.432 41.983,7.693  "/>
</g>
</svg>