<svg xmlns="http://www.w3.org/2000/svg" xmlns:xlink="http://www.w3.org/1999/xlink" version="1.1" id="Your_Icon" x="0px" y="0px" width="100px" height="100px" viewBox="0 0 100 100" enable-background="new 0 0 100 100" xml:space="preserve">
<path d="M44.447,5.03C38,14,34,26,40,36c4-15,18-23,32-26c-10,4-21,11-22,23c11-10,29-9,41-2c-10-4-23-3-31,5c15,0,28,9,34,22  c-6-9-17-15-28-13c12,8,19,24,15,38c1-11-4-23-15-27c6,14,0,29-10,39c6-8,10-21,3-30c-3,14-17,22-30,25c10-3,20-11,20-23  c-11,11-27,9-40,3c10,3,23,3,30-6c-15,0-27-9-34-22c7,9,17,15,28,13c-11-8-17-24-14-38c-1,11,4,22,14,27c-2-11-2-24,6.435-33.286  C42.206,7.2,44.447,5.03,44.447,5.03z"/>
</svg>