<svg xmlns="http://www.w3.org/2000/svg" xmlns:xlink="http://www.w3.org/1999/xlink" version="1.1" id="Layer_1" x="0px" y="0px" width="100px" height="100px" viewBox="0 0 100 100" enable-background="new 0 0 100 100" xml:space="preserve">
<g>
	<g>
		<path d="M50.373,83c-0.645,0-1.255-0.292-1.66-0.793l-6.009-7.433l-9.229,2.483c-0.621,0.167-1.288,0.045-1.809-0.334    c-0.521-0.38-0.844-0.974-0.877-1.617l-0.491-9.547l-8.926-3.416c-0.602-0.23-1.067-0.722-1.267-1.334    c-0.2-0.612-0.111-1.283,0.241-1.823l5.212-8.012l-5.212-8.012c-0.352-0.541-0.44-1.21-0.241-1.824    c0.199-0.613,0.665-1.103,1.267-1.333l8.926-3.417l0.491-9.547c0.033-0.643,0.356-1.238,0.877-1.617    c0.521-0.38,1.186-0.503,1.809-0.334l9.229,2.483l6.009-7.433c0.81-1.002,2.51-1.002,3.319,0l6.009,7.433l9.229-2.483    c0.622-0.168,1.287-0.044,1.809,0.334c0.521,0.379,0.844,0.974,0.877,1.617l0.491,9.547l8.926,3.417    c0.602,0.23,1.067,0.721,1.267,1.333c0.2,0.613,0.111,1.283-0.241,1.824l-5.212,8.012l5.212,8.012    c0.352,0.54,0.44,1.211,0.241,1.823c-0.199,0.612-0.665,1.104-1.267,1.334l-8.926,3.416l-0.491,9.547    c-0.033,0.644-0.356,1.237-0.877,1.617c-0.521,0.378-1.187,0.5-1.809,0.334l-9.229-2.483l-6.009,7.433    C51.627,82.708,51.017,83,50.373,83z M43.491,70.219c0.635,0,1.249,0.283,1.659,0.793l5.222,6.459l5.222-6.459    c0.531-0.657,1.4-0.937,2.214-0.72l8.021,2.158l0.427-8.297c0.043-0.844,0.58-1.581,1.369-1.884l7.756-2.969l-4.529-6.962    c-0.461-0.708-0.461-1.621,0-2.329l4.529-6.962l-7.756-2.97c-0.789-0.301-1.325-1.04-1.369-1.883l-0.427-8.297l-8.021,2.158    c-0.815,0.221-1.684-0.063-2.214-0.719l-5.222-6.459l-5.222,6.459c-0.53,0.657-1.397,0.941-2.214,0.719l-8.021-2.158l-0.427,8.297    c-0.043,0.843-0.58,1.582-1.369,1.883l-7.756,2.97l4.53,6.962c0.46,0.708,0.46,1.621,0,2.329l-4.53,6.962l7.756,2.969    c0.789,0.303,1.325,1.04,1.369,1.884l0.427,8.297l8.021-2.158C43.12,70.243,43.307,70.219,43.491,70.219z"/>
	</g>
</g>
<g>
	<g>
		<circle cx="50.373" cy="51.175" r="16.006"/>
	</g>
</g>
</svg>