<svg xmlns="http://www.w3.org/2000/svg" xmlns:xlink="http://www.w3.org/1999/xlink" version="1.1" x="0px" y="0px" width="100px" height="100px" viewBox="0 0 100 100" enable-background="new 0 0 100 100" xml:space="preserve">
<g id="Captions">
	<rect x="-192" width="185" height="99"/>
	<rect y="-36" width="100" height="30"/>
	<text transform="matrix(1 0 0 1 66 -19.5)" fill="#000000" font-family="'Helvetica'" font-size="2.4">http://thenounproject.com</text>
	<text transform="matrix(1 0 0 1 7.166 -24.5)"><tspan x="0" y="0" fill="#000000" font-family="'Helvetica-Bold'" font-size="6.1578">The Noun Project</tspan><tspan x="1.12" y="4.8" fill="#000000" font-family="'Helvetica-Bold'" font-size="4">Icon Template</tspan></text>
	<text transform="matrix(1 0 0 1 -178.5 10.5)" fill="#000000" font-family="'Helvetica-Bold'" font-size="6.1578">Reminders</text>
	<line fill="#000000" stroke="#FFFFFF" stroke-miterlimit="10" x1="8" y1="-14.5" x2="18" y2="-14.5"/>
	<line fill="#000000" stroke="#FFFFFF" stroke-miterlimit="10" x1="-179" y1="16.5" x2="-162" y2="16.5"/>
	<g>
		<g>
			<g>
				<rect x="-170.802" y="31.318" fill="#000000" width="8.721" height="8.642"/>
				<path fill="#000000" d="M-164.455,42.312h4.747v-4.703h-4.747V42.312z M-159.266,42.749h-5.63V37.17h5.63V42.749      L-159.266,42.749z M-166.221,44.062h8.279v-8.203h-8.279V44.062L-166.221,44.062z M-157.5,44.5h-9.163v-9.079h9.163V44.5      L-157.5,44.5z"/>
				<polygon fill="#000000" points="-166.149,44.133 -166.292,43.991 -158.013,35.787 -157.871,35.929     "/>
			</g>
		</g>
	</g>
	<rect x="-179" y="58" fill="none" width="35" height="32.5"/>
	<text transform="matrix(1 0 0 1 -179 60.1299)"><tspan x="0" y="0" fill="#000000" font-family="'Helvetica-Bold'" font-size="3">Strokes</tspan><tspan x="0" y="5" fill="#000000" font-family="'Helvetica'" font-size="2.4">Try to keep strokes at 4px</tspan><tspan x="0" y="10" fill="#000000" font-family="'Helvetica'" font-size="2.4">Minimum stroke weight is 2px</tspan><tspan x="0" y="14.5" fill="#000000" font-family="'Helvetica'" font-size="2.4">For thicker strokes use even </tspan><tspan x="0" y="17.5" fill="#000000" font-family="'Helvetica'" font-size="2.4">numbers: 6px, 8px etc.</tspan><tspan x="0" y="22" fill="#000000" font-family="'Helvetica-Bold'" font-size="2.4">Remember to expand strokes </tspan><tspan x="0" y="25" fill="#000000" font-family="'Helvetica-Bold'" font-size="2.4">before saving as an SVG </tspan></text>
	<rect x="-136.5" y="58" fill="none" width="35" height="32.5"/>
	<text transform="matrix(1 0 0 1 -136.5 60.1299)"><tspan x="0" y="0" fill="#000000" font-family="'Helvetica-Bold'" font-size="3">Size</tspan><tspan x="0" y="5" fill="#000000" font-family="'Helvetica'" font-size="2.4">Cannot be wider or taller than </tspan><tspan x="0" y="8.5" fill="#000000" font-family="'Helvetica'" font-size="2.4">100px (artboard size)</tspan><tspan x="0" y="13.5" fill="#000000" font-family="'Helvetica'" font-size="2.4">Scale your icon to fill as much of </tspan><tspan x="0" y="16.5" fill="#000000" font-family="'Helvetica'" font-size="2.4">the artboard as possible</tspan></text>
	<rect x="-94" y="58" fill="none" width="35" height="32.5"/>
	<text transform="matrix(1 0 0 1 -94 60.1299)"><tspan x="0" y="0" fill="#000000" font-family="'Helvetica-Bold'" font-size="3">Ungroup</tspan><tspan x="0" y="5" fill="#000000" font-family="'Helvetica'" font-size="2.4">If your design has more than one </tspan><tspan x="0" y="8" fill="#000000" font-family="'Helvetica'" font-size="2.4">shape, make sure to ungroup</tspan></text>
	<rect x="-50" y="58" fill="none" width="35" height="32.5"/>
	<text transform="matrix(1 0 0 1 -50 60.1299)"><tspan x="0" y="0" fill="#000000" font-family="'Helvetica-Bold'" font-size="3">Save as</tspan><tspan x="0" y="5" fill="#000000" font-family="'Helvetica'" font-size="2.4">Save as .SVG and make sure &#8220;Use </tspan><tspan x="0" y="8" fill="#000000" font-family="'Helvetica'" font-size="2.4">Artboards&#8221; is checked</tspan></text>
	<text transform="matrix(1.0074 0 0 1 -125.542 30.5933)" fill="#000000" font-family="'Helvetica'" font-size="2.5731">100px</text>
	<text transform="matrix(1.0074 0 0 1 -41 39)" fill="#000000" font-family="'Helvetica-Bold'" font-size="5.1462">.SVG</text>
	<rect x="-126.514" y="34.815" fill="#000000" width="10.261" height="10.185"/>
	<rect x="-126.477" y="31.766" fill="#000000" width="0.522" height="2.337"/>
	<rect x="-116.813" y="31.766" fill="#000000" width="0.523" height="2.337"/>
	<rect x="-127" y="32.337" fill="#000000" width="11.233" height="0.572"/>
	<g>
		<rect x="-83.805" y="33.844" fill="#000000" width="10.305" height="10.156"/>
		<rect x="-76.809" y="28.707" fill="#000000" width="3.308" height="3.261"/>
	</g>
	<rect x="-178.5" y="22.5" fill="#000000" stroke="#FFFFFF" stroke-miterlimit="10" width="30" height="30"/>
	<rect x="-136.5" y="22.5" fill="#000000" stroke="#FFFFFF" stroke-miterlimit="10" width="30" height="30"/>
	<rect x="-93.5" y="22.5" fill="#000000" stroke="#FFFFFF" stroke-miterlimit="10" width="30" height="30"/>
	<rect x="-49.5" y="22.5" fill="#000000" stroke="#FFFFFF" stroke-miterlimit="10" width="30" height="30"/>
</g>
<g id="Your_Icon">
	<g>
		<path d="M87.785,63.448c0.092,0.02,0.185,0.03,0.278,0.03c1.199,0,2.445-1.563,2.898-3.633c0.495-2.263-0.124-4.327-1.381-4.602    c-0.09-0.02-0.184-0.03-0.277-0.03c-0.118,0-0.237,0.017-0.356,0.046l1.648,1.331l-1.784-0.001l2.163,0.918l-2.59-0.156    l1.852,1.748l-2.425-0.387l2.796,1.733l-3.458-0.646l1.931,1.753l-2.026-0.439l1.559,1.439l-1.993-0.196    C86.896,62.96,87.301,63.342,87.785,63.448z"/>
		<path d="M64.738,47.758c0.473-1.931,0.186-3.926-0.809-5.616c-0.993-1.688-2.573-2.871-4.449-3.329    c-0.553-0.136-1.117-0.205-1.682-0.205c-3.366,0-6.291,2.348-7.114,5.71c-0.976,3.985,1.382,7.998,5.257,8.946    c0.551,0.136,1.117,0.204,1.682,0.204C60.99,53.469,63.915,51.12,64.738,47.758z M56.377,50.254l-1.869,1.18l0.588-1.591    l-2.146,0.173l1.315-0.831l-1.66,0.138l0.959-1.197c-0.005-0.009-0.011-0.018-0.017-0.026l-1.22-0.61l0.739-0.571    c-0.004-0.017-0.008-0.034-0.012-0.05l-0.728-0.694l0.626-0.106c-0.002-0.041-0.003-0.081-0.003-0.123    c-0.25-0.131-0.672-0.356-0.623-0.343c0.069,0.018,0.622,0,0.622,0l-0.625-0.881l1.041-0.415l-0.898-1.799l1.313,0.727    l-0.38-1.627l1.384,1.211l-0.276-2.25l1.314,1.626l0.589-2.214l0.969,2.076l1.35-3.012c0,0-0.865,2.908-0.692,2.874    c0.172-0.034,2.353-1.591,2.353-1.591l-0.796,2.491l2.804-0.795l-1.384,1.903l3.01,0.76l-1.004,0.415l1.004,1.212l-2.41,0.898    c-0.125,0.389-0.303,0.753-0.527,1.086l0.725,0.472l-1.281,0.657l0.172,0.828l-0.657-0.672l0.485,1.99l-1.264-1.729v2.11    l-1.263-1.418l-0.97,1.625L56.377,50.254z"/>
		<path d="M19.92,26.441l-0.972-2.339l1.827,0.993l-1.706-2.144l2.567,1.601l-0.925-2.822l2.271,1.746l-1.9-3.332l3.183,2.587    l-1.003-2.871l1.833,1.577l-0.796-2.343l2.004,1.36c0.027-0.628-0.138-1.171-0.518-1.544c-0.33-0.325-0.806-0.497-1.378-0.497    c-0.52,0-1.093,0.14-1.677,0.393c-0.352,0.163-0.623,0.312-0.797,0.414c-0.024,0.014-0.048,0.028-0.073,0.043    c-0.005,0.003-0.01,0.007-0.016,0.009c-0.524,0.328-1.038,0.738-1.51,1.217c-1.916,1.946-2.589,4.401-1.5,5.475    C19.106,26.23,19.479,26.393,19.92,26.441z"/>
		<path d="M47.696,88.333c-0.016-0.26-0.183-0.547-0.479-0.841l-0.915,1.394l-0.676-1.477l-0.225,1.789l-0.805-2.144l-1.29,1.525    l-0.48-2.007l-0.915,2.307l-0.575-2.86l-1.265,1.593l-0.268-1.677l-1.05,1.285l-0.551-1.712c-0.462,0.196-0.72,0.48-0.698,0.843    c0.02,0.317,0.258,0.673,0.688,1.029c0.391,0.325,0.919,0.639,1.535,0.917c0.377,0.165,0.685,0.283,0.888,0.359    c0.034,0.012,0.066,0.025,0.101,0.037c0.002,0,0.004,0,0.006,0.001c0.625,0.219,1.302,0.403,1.995,0.537    C45.527,89.778,47.76,89.376,47.696,88.333z"/>
		<path d="M78.502,11.57l0.672-0.168l0.36,0.78l0.878-0.05l0.109,1.062c1.205,0.707,2.138,1.073,2.561,1.073    c0.105,0,0.144-0.023,0.148-0.029c0.029-0.041-0.013-0.384-0.767-1.199c-0.658-0.714-1.624-1.542-2.721-2.33    c-2.02-1.455-3.694-2.216-4.304-2.216c-0.105,0-0.145,0.023-0.149,0.028c-0.029,0.042,0.015,0.385,0.768,1.2    c0.206,0.224,0.442,0.458,0.702,0.7l1.195-0.347l-0.348,0.806L78.502,11.57z"/>
		<path d="M82.904,16.43l0.395-1.757c-0.065,0.017-0.136,0.025-0.217,0.025c-0.817,0-2.648-0.923-4.557-2.297    c-1.428-1.027-3.925-3.121-3.643-4.013l-1.82,0.833C66.494,5.636,58.96,3.597,50.949,3.597c-25.516,0-46.202,20.685-46.202,46.201    c0,1.497,0.072,2.977,0.211,4.436l-1.674,1.363c0.863,0.304,1.868,3.094,2.348,4.78c0.001,0.006,0.003,0.014,0.006,0.021    L5.646,60.4l0.022,0.109c0.176,0.63,0.323,1.247,0.437,1.826l0.122,0.395l-0.05-0.018c0.081,0.452,0.138,0.876,0.171,1.257    c0.09,1.044-0.027,1.497-0.187,1.701l1.522,0.369C14.258,83.544,31.149,96,50.949,96c25.516,0,46.202-20.686,46.202-46.202    C97.151,36.681,91.685,24.841,82.904,16.43z M62.026,36.235l0.986-1.675l0.636,2.485l1.35,0.055c0,0,0.487,2.647-0.377,1.512    c-0.171-0.224-0.42-0.444-0.711-0.654c-1.175-0.847-3.019-1.507-3.019-1.507L62.026,36.235z M52.246,36.83l3.134-0.757    l-3.489,1.514l-1.265-1.514L52.246,36.83z M47.579,81.914c1.23,0.571,2.366,1.332,2.366,1.332l-1.769,2.605l1.185-2.83    C49.361,83.021,47.61,81.97,47.579,81.914z M48.086,42.828c0,0-0.973,0.973-0.325,5.674c0.648,4.701-0.972-3.621-0.972-3.621    h-0.757L48.086,42.828z M40.508,79.398c0.322-0.026,0.769-0.013,1.355,0.113c1.077,0.232,0,0.002,0,0    C41.333,79.467,40.884,79.43,40.508,79.398c-0.438,0.036-0.645,0.146-0.645,0.146l1.772,4.421l-2.583-4.686    C39.052,79.279,39.521,79.316,40.508,79.398z M34.813,80.449c-0.088,0.069-0.128,0.116-0.128,0.116l2.048,2.98l-2.473-2.872    C34.26,80.674,34.364,80.665,34.813,80.449z M17.664,29.113c0.6,2.333,1.913,4.002,1.926,4.02l-0.254,0.201    c-0.055-0.069-1.365-1.732-1.983-4.129c-0.547-2.124-0.613-5.21,2.02-8.101c0.219-0.287,0.463-0.57,0.731-0.842    c0.446-0.452,0.929-0.846,1.425-1.169l-0.002-0.002c0.007-0.004,0.123-0.083,0.333-0.202c0.24-0.141,0.482-0.265,0.722-0.37    c1.602-0.742,4.828-1.762,8.284-0.137l-0.138,0.293c-2.229-1.048-4.361-0.956-5.992-0.565c0.515,0.058,0.953,0.25,1.277,0.57    c1.217,1.199,0.545,3.859-1.496,5.932c-1.321,1.34-2.97,2.173-4.304,2.173c-0.658,0-1.213-0.204-1.605-0.591    c-0.688-0.678-0.772-1.825-0.345-3.069C17.315,24.939,17.113,26.967,17.664,29.113z M22.909,33.805l-1.787-4.427l2.298,4.143    c0,0,1.917-0.44,1.989-0.407C24.231,33.604,22.909,33.805,22.909,33.805z M31.39,29.457c-0.129,0.32-0.359,0.71-0.772,1.103    c-0.756,0.72-0.001-0.002,0,0C30.921,30.128,31.176,29.763,31.39,29.457c0.176-0.434,0.165-0.739,0.165-0.739l-5.348-3.199    l6.009,2.752C32.216,28.271,31.951,28.655,31.39,29.457z M33.084,23.174c-0.029-0.157-0.056-0.242-0.056-0.242l-4.019-1.385    l4.113,0.883C33.123,22.43,33.081,22.534,33.084,23.174z M51.091,88.172c-1.082,1.056-3.205,2.134-7.218,1.457    c-0.367-0.041-0.749-0.099-1.142-0.176c-0.654-0.126-1.293-0.298-1.895-0.498v0.002c-0.009-0.002-0.152-0.049-0.397-0.142    c-0.277-0.102-0.544-0.212-0.797-0.326c-1.727-0.753-4.873-2.429-6.331-5.139l0.311-0.012c0.94,1.746,2.609,3.05,4.11,3.939    c-0.347-0.341-0.542-0.681-0.56-0.99c-0.072-1.165,2.305-1.638,5.298-1.057c1.937,0.377,3.763,1.129,4.766,1.963    c0.495,0.413,0.769,0.829,0.792,1.203c0.042,0.659-0.704,1.097-1.899,1.247c1.989-0.017,3.568-0.571,4.663-1.637    c1.19-1.159,1.378-2.542,1.38-2.556l0.332,0.091C52.496,85.601,52.312,86.979,51.091,88.172z M50.264,44.216    c0.871-3.557,3.968-6.04,7.535-6.04c0.599,0,1.199,0.072,1.783,0.216c1.99,0.487,3.667,1.741,4.72,3.531    c1.052,1.788,1.355,3.896,0.855,5.938c-0.869,3.557-3.967,6.04-7.533,6.04c-0.599,0-1.199-0.072-1.784-0.215    C51.733,52.681,49.232,48.432,50.264,44.216z M64.176,55.434c-2.044,1.47-4.349,1.754-5.822,1.754    c-0.877,0-1.461-0.102-1.522-0.112l0.076-0.426c0.039,0.008,3.911,0.667,7.021-1.568c2.032-1.462,3.303-3.823,3.777-7.021    l0.428,0.063C67.641,51.443,66.31,53.902,64.176,55.434z M84.941,51.279c0.74-0.479,1.372-0.566,1.372-0.566l-0.843,0.728    l-0.746,0.512l3.003,2.289l-3.572-2.02C84.155,52.223,84.318,51.682,84.941,51.279z M89.304,54.844    c0.12,0,0.241,0.013,0.358,0.038c1.456,0.319,2.2,2.581,1.662,5.042c-0.49,2.238-1.893,3.925-3.261,3.925    c-0.12,0-0.24-0.012-0.357-0.038c-0.725-0.158-1.293-0.784-1.601-1.761c-0.298-0.94-0.32-2.107-0.062-3.282    C86.533,56.53,87.936,54.844,89.304,54.844z M83.093,52.623l-0.262,0.701l3.657,1.704l-4.201-1.529L83.093,52.623z M80.634,61.889    c-0.142-1.033,0.456-2.543,0.456-2.543s-0.376,1.845-0.194,2.543c0.181,0.699,0.674,2.229,0.674,2.229l2.916-0.455l-2.939,0.768    C81.546,64.431,80.774,62.921,80.634,61.889z M83.084,66.874c-0.084,0-0.169-0.001-0.256-0.001l0.006-0.433    c3.684,0.048,6.363-0.935,7.954-2.916c1.765-2.199,1.848-5.296,1.381-7.279c-0.779-3.321-3.479-5.097-3.508-5.114l0.234-0.364    c0.117,0.076,2.873,1.883,3.694,5.379c0.489,2.078,0.397,5.329-1.465,7.65C89.485,65.839,86.78,66.874,83.084,66.874z"/>
		<path d="M3.134,56c-0.231,0.146-0.238,1.968,0.6,4.916c0.835,2.938,1.794,4.482,2.079,4.493c0.173-0.113,0.22-1.14-0.105-2.859    l-0.981-0.343l0.751-0.455l-0.33-1.083l-0.645-0.252l0.158-0.844l-0.743-0.468l0.518-0.916C3.853,56.747,3.329,56.001,3.134,56z"/>
	</g>
</g>
</svg>