<svg xmlns="http://www.w3.org/2000/svg" xmlns:xlink="http://www.w3.org/1999/xlink" version="1.1" id="Layer_1" x="0px" y="0px" width="100px" height="100px" viewBox="0 0 100 100" enable-background="new 0 0 100 100" xml:space="preserve">
<path fill-rule="evenodd" clip-rule="evenodd" d="M28.771,17.173c5.02,1.652,10.008,3.406,15.067,4.925  c5.057,1.516,10.115,3.476,15.299,4.009c6.457,0.665,12.558-4.046,14.61-10.262c1.062-3.222,2.696-2.23,4.53-1.064  c7.34,4.669,11.965,11.562,14.427,19.615c1.563,5.117,1.782,10.681,2.272,16.075c0.271,2.974-1.71,4.844-4.278,6.18  c-14.588,7.593-27.94,4.734-41.068-4.049c-7.153-4.785-14.787-9.067-22.696-12.418c-4.031-1.708-9.145-1.073-13.771-1.102  c-5.128-0.03-6.927-1.898-4.908-6.463C12.407,23.226,16.86,18.049,28.771,17.173z"/>
<path fill-rule="evenodd" clip-rule="evenodd" d="M5.006,54.279c-0.057-7.91,0.199-7.67,5.821-8.992  c11.541-2.715,20.914,1.757,29.956,7.999c6.697,4.621,13.166,9.583,21.258,11.819c8.952,2.476,17.654,2.253,26.341-1.026  c1.229-0.463,2.712-0.253,4.077-0.354c-0.207,1.363-0.17,2.824-0.66,4.075c-5.368,13.711-21.246,16.426-34.401,10.659  c-3.896-1.708-7.819-3.488-11.901-4.616c-8.061-2.228-15.919,1.389-19.252,8.956c-1.49,3.38-2.824,3.047-5.266,1.246  C10.23,76.111,6.221,64.851,5.006,54.279z"/>
<path fill-rule="evenodd" clip-rule="evenodd" d="M72.867,89.96c-5.53,1.722-10.052,3.428-14.719,4.514  c-7.909,1.84-15.677,0.96-23.056-2.482c-4.632-2.162-5.158-7.041-1.304-10.342c3.779-3.238,8.233-3.479,12.464-1.9  c7.835,2.926,15.173,7.26,23.797,7.833C70.636,87.621,71.17,88.493,72.867,89.96z"/>
<path fill-rule="evenodd" clip-rule="evenodd" d="M28.966,9.381c4.194-1.357,8.302-3.201,12.601-3.964  c7.153-1.27,14.361-1.303,21.349,1.462c3.164,1.251,5.53,3.192,5.36,6.673c-0.173,3.499-2.896,5.705-6.016,6.109  c-3.469,0.449-7.273,0.376-10.602-0.593c-7.012-2.042-13.809-4.815-20.69-7.3c-0.586-0.213-1.14-0.517-1.71-0.778  C29.162,10.453,29.063,9.917,28.966,9.381z"/>
</svg>