<svg xmlns="http://www.w3.org/2000/svg" xmlns:xlink="http://www.w3.org/1999/xlink" version="1.1" id="Layer_1" x="0px" y="0px" width="100px" height="100px" viewBox="0 0 100 100" enable-background="new 0 0 100 100" xml:space="preserve">
<g>
	<polygon points="32.311,40.266 17.622,30.609 16.807,31.869 32.597,41.935  "/>
	<polygon points="30.269,44.867 32.322,44.422 18.978,39.33 18.537,40.5  "/>
	<polygon points="63.046,67.588 74.031,78.816 75.095,77.759 62.867,65.576  "/>
	<polygon points="75.61,57.31 76.701,58.373 89.018,61.392 89.313,60.177 75.055,56.77  "/>
	<polygon points="67.426,49.333 67.74,49.639 94.196,47.745 94.081,46.249 68.138,48.382  "/>
	<polygon points="42.948,31.438 39.888,18.968 38.917,19.207 41.766,30.817  "/>
	<polygon points="65.692,23.494 64.647,22.808 59.521,30.68 59.877,32.275  "/>
	<polygon points="60.651,35.737 76.677,17.187 75.537,16.212 60.315,34.235  "/>
	<polygon points="27.909,59.697 5.875,70.748 6.554,72.085 26.949,61.577  "/>
	<polygon points="35.635,68.752 30.416,77.424 31.273,77.94 36.983,68.453  "/>
	<polygon points="40.305,67.716 34.835,82.566 36.009,82.994 41.035,69.037 40.547,67.662  "/>
	<polygon points="49.802,73.992 50.651,80.259 51.641,80.125 50.632,72.678  "/>
	<polygon points="74.563,58.384 65.436,49.488 73.667,38.502 59.712,38.414 57.025,26.385 48,35.79 31.584,27.159 34.72,45.438    18.04,49.048 31.296,56.363 24.491,69.688 41.517,65.911 45.695,77.682 51.14,69.068 62.324,76.335 60.894,60.371  "/>
	<circle cx="81.178" cy="44.252" r="1.011"/>
	<circle cx="67.383" cy="64.146" r="1.011"/>
	<circle cx="19.769" cy="58.25" r="1.011"/>
	<circle cx="27.688" cy="33.656" r="1.011"/>
	<circle cx="43.271" cy="22.139" r="1.011"/>
	<circle cx="24.382" cy="28.572" r="1.011"/>
	<circle cx="92.606" cy="52.034" r="2.022"/>
	<circle cx="43.271" cy="16.7" r="2.022"/>
	<circle cx="43.271" cy="84.802" r="2.022"/>
	<circle cx="17.215" cy="71.417" r="2.022"/>
	<circle cx="76.585" cy="25.172" r="2.022"/>
	<circle cx="13.17" cy="38.903" r="2.022"/>
	<circle cx="78.13" cy="82.214" r="2.022"/>
</g>
</svg>