<svg xmlns="http://www.w3.org/2000/svg" xmlns:xlink="http://www.w3.org/1999/xlink" version="1.1" id="Calque_1" x="0px" y="0px" width="100px" height="100px" viewBox="0 0 100 100" enable-background="new 0 0 100 100" xml:space="preserve">
<path d="M92.802,29.023c-2.137-1.003-4.689-0.086-5.693,2.051c-1.007,2.139-0.087,4.691,2.051,5.694  c2.139,1.005,4.688,0.088,5.693-2.051C95.854,32.581,94.939,30.03,92.802,29.023z"/>
<path d="M82.585,80.495c-1.637-0.459-3.34,0.495-3.795,2.132c-0.462,1.637,0.495,3.336,2.131,3.795  c1.639,0.458,3.337-0.497,3.797-2.134C85.176,82.653,84.22,80.954,82.585,80.495z"/>
<path d="M61.674,60.653l7.567,6.597l7.02-0.604l-7.989-7.311l10.948-5.017l-10.402-4.133l-7.654,3.208l25.224-15.423  c-0.825-0.744-1.456-1.684-1.844-2.758c-0.004-0.016-0.009-0.031-0.015-0.046L60.848,52.915l11.095-10.879l-7.724-0.262l2.211-8.345  l-5.161,2.278l-3.691,14.645l5.271-28.916c-0.181,0.017-0.361,0.027-0.544,0.027c-0.889,0-1.74-0.201-2.507-0.563l-2.785,29.352  l-0.634-15.722l-2.276-4.063l-3.418,6.923l-8.743-3.328l2.64,8.22l5.62,7.377l4.277,3.821L26.156,34.693  c-0.283,2.803-1.447,5.432-3.396,7.542c-0.276,0.298-0.566,0.58-0.865,0.85L53.78,54.847l-16.891-2.304l-6.641,3.044l11.194,4.445  l-7.594,7.712l5.452,0.187l15.651-10.507l-26.97,24.9c1.009,0.526,1.886,1.275,2.559,2.211L55.358,57.82L44.113,76.003l7.485-3.299  l3.77,6.736l3.421-6.922l8.736,3.324l-2.004-6.255l-4.378-8.494l15.741,19.553c0.54-0.934,1.323-1.692,2.268-2.187L61.674,60.653z"/>
<path d="M63.526,18.661c1.675-0.674,2.485-2.582,1.811-4.254c-0.679-1.676-2.586-2.487-4.261-1.811  c-1.67,0.678-2.483,2.58-1.809,4.254C59.945,18.527,61.854,19.339,63.526,18.661z"/>
<path d="M25.585,85.03c-2.115-0.57-4.294,0.688-4.862,2.8c-0.569,2.12,0.688,4.296,2.804,4.867c2.113,0.565,4.292-0.685,4.862-2.804  C28.958,87.777,27.702,85.596,25.585,85.03z"/>
<path d="M21.959,32.996c-0.184-4.88-4.303-8.681-9.174-8.493c-4.883,0.192-8.687,4.303-8.496,9.187  c0.193,4.865,4.299,8.674,9.182,8.484C18.351,41.985,22.157,37.871,21.959,32.996z"/>
<path d="M63.251,28.813l-0.832,2.234c-0.077,0.206-0.023,0.438,0.137,0.59c0.161,0.151,0.395,0.192,0.598,0.103l7.578-3.342  l-2.367,8.931c-0.11,0.415-0.025,0.851,0.229,1.195c0.258,0.345,0.65,0.551,1.078,0.565l5.605,0.19c0.006,0,0.013,0,0.019,0  c0.144,0,0.281-0.057,0.385-0.158l1.677-1.654c0.156-0.154,0.207-0.385,0.127-0.589c-0.081-0.204-0.274-0.341-0.492-0.348  l-5.466-0.185l2.66-10.048c0.137-0.517-0.036-1.076-0.445-1.426c-0.405-0.344-1-0.429-1.475-0.215l-8.724,3.848  C63.408,28.563,63.303,28.675,63.251,28.813z"/>
<path d="M36.266,34.946c0.024,0.074,0.063,0.142,0.114,0.199l2.789,3.093c0.106,0.119,0.256,0.181,0.407,0.181  c0.093,0,0.187-0.023,0.272-0.073c0.224-0.129,0.328-0.396,0.249-0.642l-2.712-8.444l10.69,4.069c0.16,0.061,0.327,0.09,0.496,0.09  c0.538,0,1.021-0.299,1.258-0.78l4.112-8.327l1.917,3.421c0.1,0.178,0.29,0.293,0.484,0.28c0.303,0,0.548-0.245,0.548-0.547  c0-0.032-0.003-0.063-0.008-0.093l-0.02-3.441c-0.001-0.092-0.024-0.184-0.07-0.265l-1.707-3.047  c-0.246-0.443-0.71-0.718-1.211-0.718c-0.004,0-0.043,0-0.049,0c-0.521,0.013-0.989,0.313-1.221,0.781l-4.725,9.571l-12.223-4.651  c-0.495-0.19-1.076-0.075-1.466,0.293c-0.387,0.369-0.532,0.936-0.369,1.445L36.266,34.946z"/>
<path d="M70.085,80.085c-0.055-0.147-0.171-0.263-0.316-0.318l-8.372-3.188c-0.159-0.061-0.325-0.092-0.496-0.092  c-0.53,0-1.024,0.308-1.259,0.782l-4.114,8.327l-4.537-8.104c-0.248-0.442-0.717-0.718-1.223-0.718  c-0.197,0-0.388,0.041-0.565,0.119l-8.139,3.589c-0.108,0.047-0.197,0.129-0.255,0.23l-1.416,2.49  c-0.116,0.205-0.088,0.463,0.07,0.638s0.411,0.229,0.627,0.134l9.079-4.002l5.212,9.316c0.249,0.443,0.718,0.717,1.224,0.717h0.022  c0.005,0,0.011,0,0.016,0c0.521-0.015,0.987-0.313,1.22-0.78l4.729-9.573l8.597,3.272c0.201,0.077,0.429,0.029,0.583-0.124  c0.151-0.152,0.2-0.38,0.124-0.581L70.085,80.085z"/>
<path d="M22.98,70.698c-0.39,0.397-0.508,0.986-0.303,1.503c0.205,0.516,0.697,0.861,1.254,0.882l8.295,0.281  c0.006,0.001,0.013,0.001,0.019,0.001c0.111,0,0.22-0.035,0.312-0.098l2.351-1.627c0.194-0.135,0.28-0.379,0.214-0.605  c-0.066-0.226-0.271-0.385-0.506-0.393l-7.398-0.253l7.661-7.782c0.332-0.336,0.471-0.812,0.373-1.272  c-0.098-0.46-0.417-0.839-0.854-1.014L22.95,55.775l7.499-3.437c0.224-0.103,0.352-0.343,0.312-0.587  c-0.04-0.243-0.237-0.43-0.482-0.455l-3.336-0.351c-0.097-0.009-0.196,0.005-0.285,0.047l-7.858,3.601  c-0.51,0.234-0.831,0.748-0.817,1.311c0.015,0.562,0.362,1.06,0.884,1.266l12.533,4.977L22.98,70.698z"/>
<path d="M90.602,52.737l-12.898-5.124c-0.105-0.042-0.219-0.05-0.329-0.024l-2.62,0.624c-0.173,0.041-0.316,0.164-0.382,0.33  c-0.067,0.166-0.049,0.353,0.049,0.502c0.162,0.249,0.388,0.436,0.651,0.54l11.445,4.547l-11.194,5.129  c-0.428,0.195-0.726,0.59-0.801,1.059c-0.072,0.465,0.093,0.933,0.438,1.25l8.059,7.376l-9.105,0.783  c-0.233,0.02-0.428,0.187-0.484,0.414c-0.058,0.229,0.037,0.467,0.235,0.593l2.359,1.511c0.088,0.057,0.191,0.087,0.295,0.087  c0.017,0,0.032-0.001,0.049-0.003l10.073-0.865c0.555-0.047,1.029-0.418,1.209-0.944c0.18-0.527,0.029-1.11-0.382-1.487  l-8.854-8.104l12.255-5.614c0.511-0.234,0.831-0.748,0.816-1.312C91.471,53.441,91.125,52.945,90.602,52.737z"/>
</svg>