<svg xmlns:dc="http://purl.org/dc/elements/1.1/" xmlns:cc="http://creativecommons.org/ns#" xmlns:rdf="http://www.w3.org/1999/02/22-rdf-syntax-ns#" xmlns:svg="http://www.w3.org/2000/svg" xmlns="http://www.w3.org/2000/svg" xmlns:sodipodi="http://sodipodi.sourceforge.net/DTD/sodipodi-0.dtd" xmlns:inkscape="http://www.inkscape.org/namespaces/inkscape" width="100" height="100" viewBox="0 0 80 80" version="1.1" id="svg2" inkscape:version="0.48.2 r9819" sodipodi:docname="desert.svg">
  <metadata id="metadata10">
    <rdf:RDF>
      <cc:Work rdf:about="">
        <dc:format>image/svg+xml</dc:format>
        <dc:type rdf:resource="http://purl.org/dc/dcmitype/StillImage"/>
        <dc:title/>
      </cc:Work>
    </rdf:RDF>
  </metadata>
  <defs id="defs8"/>
  <sodipodi:namedview pagecolor="#ffffff" bordercolor="#666666" borderopacity="1" objecttolerance="10" gridtolerance="10" guidetolerance="10" inkscape:pageopacity="0" inkscape:pageshadow="2" inkscape:window-width="1366" inkscape:window-height="706" id="namedview6" showgrid="true" inkscape:zoom="3.8604222" inkscape:cx="7.5453192" inkscape:cy="64.337252" inkscape:window-x="-8" inkscape:window-y="-8" inkscape:window-maximized="1" inkscape:current-layer="svg2" inkscape:snap-grids="true">
    <inkscape:grid type="xygrid" id="grid3807"/>
  </sodipodi:namedview>
  <path style="fill:#000000;stroke:none;stroke-width:1px;stroke-linecap:butt;stroke-linejoin:miter;stroke-opacity:1" d="M 68.09375 34.9375 C 58.531337 35.211336 48.156223 44.686762 40 45 C 31.300029 45.334121 26.31191 38.903129 20 40 C 13.68809 41.096871 5.1875 49.90625 5.1875 49.90625 L 5 95 L 95 95 L 95 50 C 95 50 80.069105 36.105308 70 35 C 69.370681 34.930918 68.731244 34.919244 68.09375 34.9375 z M 18.5 45.59375 L 18.96875 45.59375 L 19.6875 45.6875 L 20.0625 45.625 C 20.0625 45.625 21.531887 47.976755 22.84375 49.1875 C 23.0697 49.285286 23.382649 48.998309 23.59375 49.125 C 23.766404 49.543745 23.9375 49.96875 23.9375 49.96875 C 23.9375 49.96875 23.327552 50.496237 23.1875 50.53125 C 23.047449 50.566261 21.90625 50.90625 21.90625 50.90625 L 21.0625 51.4375 C 21.0625 51.4375 20.869625 51.157032 20.875 51 C 20.881506 50.812196 21.1205 51.011697 21.125 50.5 C 21.12944 49.988304 20.50342 48.888742 20.0625 48.21875 C 19.621579 47.548759 18.53125 46.5 18.53125 46.5 L 18.5 45.59375 z M 25.125 45.84375 C 25.125 45.84375 25.359468 47.290627 25.625 47.96875 C 25.752205 48.293609 25.878692 48.627924 26.125 48.875 C 26.324294 49.074914 26.834038 49.239125 26.875 49.3125 C 27.013795 49.561189 27 50.09375 27 50.09375 L 26.875 50.25 L 26.53125 49.65625 L 25.6875 49.96875 L 25.03125 50.03125 L 24.53125 49.96875 C 24.53125 49.96875 24.426212 50.492438 24.28125 50.40625 C 24.006127 50.242671 23.893695 49.569991 24.1875 49.40625 C 24.30335 49.341686 24.550875 49.100988 24.59375 49.125 L 23.96875 46.6875 L 24.1875 46.5625 L 24.5 46.15625 L 25.125 45.84375 z M 26.375 50 L 26.75 50.625 L 26.84375 50.6875 C 26.84375 50.6875 27.175579 51.627284 27.5 51.96875 C 27.646799 52.123263 27.866283 52.19805 28.0625 52.28125 C 28.417543 52.431795 28.888392 52.31631 29.15625 52.59375 C 29.386585 52.832369 29.32 53.242229 29.40625 53.5625 C 29.52997 54.021935 29.694086 54.606286 30 55 C 30.395414 55.5089 31.068166 55.770549 31.53125 56.21875 C 31.874623 56.551086 32.34375 57.21875 32.34375 57.21875 C 32.34375 57.21875 33.181205 58.71752 33.65625 59.59375 C 33.643896 59.753604 33.53036 59.929138 33.375 59.96875 C 32.774763 59.982226 32.04708 59.130615 31.5 58.6875 C 31.381358 58.817969 32.0068 59.619135 32.125 59.75 C 32.520964 60.188372 33.017069 60.463128 33.53125 60.78125 C 33.744993 60.913491 34.170725 61.027188 34.21875 61.09375 C 34.1472 61.275366 33.841164 61.33875 33.59375 61.34375 C 33.241466 61.350988 32.671302 61.253763 32.53125 61.21875 C 32.391199 61.183737 31.793769 60.794121 31.4375 60.5625 C 31.247631 60.439061 31.045154 60.3848 30.84375 60.28125 C 30.479849 60.094141 30.062329 59.78685 29.5625 59.71875 C 29.118526 59.658261 28.8125 59.8125 28.8125 59.8125 L 27.5625 60.125 L 27.0625 60.15625 L 26.28125 60.46875 C 26.28125 60.46875 26.024116 60.590585 25.875 60.75 C 25.671366 60.636268 25.63084 60.275438 25.40625 60.1875 C 25.33002 60.157652 24.9375 59.65625 24.9375 59.65625 L 24.625 59.53125 L 24.3125 59.21875 L 23.90625 58.75 C 23.90625 58.75 23.827846 58.221818 23.6875 58 C 23.51509 57.727506 22.96875 57.34375 22.96875 57.34375 C 22.96875 57.34375 22.450481 56.899337 22.125 56.84375 C 22.020367 56.825875 21.871175 56.817788 21.8125 56.90625 C 21.602571 57.222771 22.323426 57.788579 22.03125 58.03125 C 21.983033 58.0713 21.913775 58.007525 21.84375 57.9375 C 21.773725 57.867475 21.081193 57.141312 20.90625 56.625 C 20.696736 56.006656 20.7572 55.303364 20.84375 54.65625 C 20.921541 54.074594 21.070712 53.488196 21.34375 52.96875 C 21.503105 52.66558 22 52.15625 22 52.15625 L 21.625 51.5 L 22.03125 51.15625 L 23.625 50.625 L 24.15625 51.1875 L 24.375 50.875 L 24.625 50.90625 L 24.75 50.28125 L 25.625 50.25 L 26.375 50 z M 23.4375 53.59375 C 22.625886 53.626097 21.93705 54.144479 21.90625 54.96875 L 21.96875 55.21875 C 22.153881 56.055194 22.643911 56.749263 23.5 56.78125 C 24.379224 56.814107 25.123388 56.129224 25.15625 55.25 C 25.189107 54.370778 24.472973 53.626613 23.59375 53.59375 C 23.538802 53.59175 23.4916 53.591625 23.4375 53.59375 z " transform="scale(0.8,0.8)" id="path8491"/>
  <path style="font-size:medium;font-style:normal;font-variant:normal;font-weight:normal;font-stretch:normal;text-indent:0;text-align:start;text-decoration:none;line-height:normal;letter-spacing:normal;word-spacing:normal;text-transform:none;direction:ltr;block-progression:tb;writing-mode:lr-tb;text-anchor:start;baseline-shift:baseline;color:#000000;fill:#000000;fill-opacity:1;fill-rule:nonzero;stroke:none;stroke-width:6;marker:none;visibility:visible;display:inline;overflow:visible;enable-background:accumulate;font-family:Sans;-inkscape-font-specification:Sans" d="M 27.9,1.625 A 2.40024,2.40024 0 0 0 25.6,4 l 0,28 0,12 4.8,0 0,-12 0,-28 A 2.40024,2.40024 0 0 0 27.9,1.625 z" id="path8493" inkscape:connector-curvature="0"/>
  <path style="font-size:medium;font-style:normal;font-variant:normal;font-weight:normal;font-stretch:normal;text-indent:0;text-align:start;text-decoration:none;line-height:normal;letter-spacing:normal;word-spacing:normal;text-transform:none;direction:ltr;block-progression:tb;writing-mode:lr-tb;text-anchor:start;baseline-shift:baseline;color:#000000;fill:#000000;fill-opacity:1;stroke:none;stroke-width:5;marker:none;visibility:visible;display:inline;overflow:visible;enable-background:accumulate;font-family:Sans;-inkscape-font-specification:Sans" d="m 35.825,9.975 a 2.0002,2.0002 0 0 0 -1.75,2.55 c 0,0 0.296605,1.108031 0.45,2.575 0.153395,1.466969 0.06168,3.223861 -0.325,4.05 -0.02451,0.05237 0.06775,0.02972 -0.35,0.1 -0.417754,0.07028 -1.19774,0.0302 -1.975,-0.125 -1.55452,-0.310403 -3.075,-0.95 -3.075,-0.95 a 2.0002,2.0002 0 1 0 -1.6,3.65 c 0,0 1.796405,0.804959 3.9,1.225 1.051798,0.21002 2.189547,0.353637 3.4,0.15 1.210453,-0.203637 2.640741,-0.941481 3.3,-2.35 0.980865,-2.095635 0.88849,-4.347412 0.7,-6.15 -0.18849,-1.802588 -0.575,-3.225 -0.575,-3.225 a 2.0002,2.0002 0 0 0 -2.1,-1.5 z" id="path9263" inkscape:connector-curvature="0"/>
  <path style="font-size:medium;font-style:normal;font-variant:normal;font-weight:normal;font-stretch:normal;text-indent:0;text-align:start;text-decoration:none;line-height:normal;letter-spacing:normal;word-spacing:normal;text-transform:none;direction:ltr;block-progression:tb;writing-mode:lr-tb;text-anchor:start;baseline-shift:baseline;color:#000000;fill:#000000;fill-opacity:1;stroke:none;stroke-width:5;marker:none;visibility:visible;display:inline;overflow:visible;enable-background:accumulate;font-family:Sans;-inkscape-font-specification:Sans" d="m 19.75,5.975 a 2.0002,2.0002 0 0 0 -1.725,1.65 c 0,0 -0.279381,1.4798544 -0.425,3.3 -0.145619,1.820146 -0.298798,3.938614 0.575,5.9 0.671869,1.508122 2.065246,2.524752 3.4,2.825 1.334754,0.300248 2.548102,0.07797 3.625,-0.225 2.153798,-0.605935 3.875,-1.75 3.875,-1.75 a 2.0002,2.0002 0 1 0 -2.15,-3.35 c 0,0 -1.399298,0.855935 -2.8,1.25 -0.700351,0.197032 -1.342691,0.224752 -1.675,0.15 -0.332309,-0.07475 -0.405868,-0.05812 -0.625,-0.55 -0.211386,-0.474489 -0.375677,-2.354114 -0.25,-3.925 0.125677,-1.5708856 0.4,-2.875 0.4,-2.875 a 2.0002,2.0002 0 0 0 -2.225,-2.4 z" id="path9265" inkscape:connector-curvature="0"/>
</svg>