<svg xmlns="http://www.w3.org/2000/svg" xmlns:xlink="http://www.w3.org/1999/xlink" version="1.1" id="Your_Icon" x="0px" y="0px" width="100px" height="100px" viewBox="0 0 100 100" enable-background="new 0 0 100 100" xml:space="preserve">
<polygon points="69.633,28.282 64.85,46.545 59.213,22.838 52.795,42.094 43.54,8.455 32.218,56.082 25.511,42.129 2.424,96.18   27.187,96.18 27.187,93.893 18.789,93.893 22.697,86.428 20.404,86.428 25.341,78.965 23.048,78.965 28.5,71.5 33.788,78.965   31.495,78.965 36.432,86.428 34.14,86.428 38.047,93.893 29.761,93.893 29.761,96.18 59.438,96.18 59.438,90.473 43.545,90.473   50.939,76.348 46.601,76.348 55.943,62.221 51.605,62.221 61.924,48.094 71.93,62.221 67.592,62.221 76.934,76.348 72.596,76.348   79.992,90.473 64.309,90.473 64.309,96.18 97.424,96.18 "/>
</svg>