<svg xmlns="http://www.w3.org/2000/svg" xmlns:xlink="http://www.w3.org/1999/xlink" version="1.1" id="Your_Icon" x="0px" y="0px" width="100px" height="100px" viewBox="0 0 100 100" enable-background="new 0 0 100 100" xml:space="preserve">
<g display="none">
	<g display="inline">
		<g>
		</g>
	</g>
	<g display="inline">
	</g>
</g>
<path d="M11.98,69.25c0,0-0.37-1.56,1.76-3c2.12-1.44,6.14-0.26,6.14-0.26c0.15,2.47,0.22,4.5,0.25,5.89h-1.36l-0.35-2.18  c-0.02-0.05-0.28-2.47-2.36-2.45C13.3,67.28,11.98,69.25,11.98,69.25z"/>
<path d="M14.56,31.09c-1.39,0-2.73-0.75-3.42-2.06L5.15,17.64c-0.85-1.63-0.44-3.57,0.88-4.7c-0.19-0.31-0.28-0.48-0.29-0.49  c-0.37-0.61-0.18-1.41,0.43-1.77c0.6-0.37,1.4-0.18,1.76,0.43c0.01,0.02,0.19,0.32,0.5,0.87c0.04-0.01,0.09-0.01,0.13-0.01  c1.39,0,2.73,0.75,3.43,2.06l5.98,11.4c0.84,1.57,0.47,3.45-0.76,4.61c1.4,3.49,2.71,7.22,3.74,11.02  c3.22,11.79,3.79,25.97,3.88,30.82h-2.57c-0.11-4.8-0.7-18.82-3.78-30.15c-1.01-3.67-2.27-7.28-3.62-10.65  C14.76,31.09,14.66,31.09,14.56,31.09z"/>
<path d="M28.73,71.88h-2.57c0.08-5.63,0.6-23.7,3.91-34.72c1.14-3.81,2.4-7.56,3.65-11.08c-0.72-0.71-1.13-1.7-1.13-2.73  c0-0.45,0.08-0.9,0.24-1.35L37.4,9.95c0.6-1.57,2.11-2.54,3.71-2.5c0.38-0.86,0.59-1.34,0.61-1.36c0.29-0.65,1.05-0.93,1.7-0.63  c0.65,0.29,0.94,1.05,0.64,1.7c-0.01,0.02-0.21,0.46-0.55,1.23c0.86,0.74,1.36,1.82,1.36,2.95c0,0.45-0.07,0.9-0.24,1.35  l-4.56,12.04c-0.64,1.67-2.32,2.65-4.02,2.47c-1.2,3.4-2.41,7.03-3.51,10.7C29.36,48.44,28.83,66.32,28.73,71.88z"/>
<path d="M42.89,58.13c2.49,1.25,3.78,4.91,3.85,5.14c-0.24-0.189-4.53-3.55-6.71-2.51c-1.8,3.2-2.19,8.311-2.26,11.12h-1.3  c0.07-2.95,0.35-8.3,1.38-14.47C37.85,57.41,40.31,56.84,42.89,58.13z"/>
<path d="M46.75,50.41c3.75,3.74,3.79,4.979,3.85,5.13c-0.31-0.23-3.96-3.88-7.71-5.13c-2.14-0.71-5.18-0.25-6.31,0.32  c-2.19,9.13-2.61,17.54-2.69,21.15h-2.57c0.06-4.09,0.37-14.84,1.8-24.28c0.05-0.39,0.11-0.76,0.18-1.15  C34.12,46.39,40.31,43.97,46.75,50.41z"/>
<path d="M94.36,72.96v6.01h-0.12c-3.21,0.141-5.03,1.45-6.37,2.431c-1.03,0.72-1.64,1.159-2.86,1.279  c-0.18,0.011-0.37,0.011-0.569,0.011c-0.19,0-0.4,0-0.58-0.011c-1.21-0.12-1.83-0.56-2.86-1.279c-1.34-0.98-3.14-2.29-6.35-2.431  c-0.181-0.01-0.37-0.01-0.57-0.01c-0.19,0-0.39,0-0.57,0.01c-3.2,0.141-5.02,1.45-6.359,2.431c-1.021,0.72-1.641,1.159-2.86,1.279  c-0.18,0.011-0.37,0.011-0.57,0.011c-0.189,0-0.39,0-0.55-0.011c-1.22-0.12-1.85-0.56-2.86-1.279c-1.35-0.98-3.159-2.29-6.369-2.431  c-0.19-0.01-0.37-0.01-0.58-0.01c-0.19,0-0.37,0-0.551,0.01c-3.2,0.141-5.02,1.45-6.37,2.431c-1.01,0.72-1.64,1.159-2.86,1.279  c-0.16,0.011-0.36,0.011-0.55,0.011c-0.21,0-0.39,0-0.57-0.011c-1.22-0.12-1.84-0.56-2.86-1.279c-1.34-0.98-3.16-2.29-6.36-2.431  c-0.18-0.01-0.38-0.01-0.57-0.01s-0.39,0-0.57,0.01c-3.2,0.141-5.01,1.45-6.36,2.431c-1,0.72-1.64,1.159-2.86,1.279  c-0.18,0.011-0.36,0.011-0.57,0.011c-0.19,0-0.39,0-0.55-0.011c-1.22-0.12-1.85-0.56-2.86-1.279c-1.35-0.98-3.15-2.29-6.36-2.431  c-0.18-0.01-0.37-0.01-0.56-0.01v-6.01h41.38c3.569,0,5.52,1.39,6.949,2.43c1.16,0.83,1.801,1.3,3.41,1.3  c1.63,0,2.261-0.47,3.431-1.3c1.409-1.04,3.369-2.43,6.93-2.43c3.57,0,5.51,1.39,6.92,2.43c1.18,0.83,1.82,1.3,3.44,1.3  c1.63,0,2.25-0.47,3.43-1.3C89.23,74.39,91.09,73.06,94.36,72.96z"/>
<path d="M94.36,84.988v6.015c-1.304,0.075-1.938,0.529-2.996,1.282c-1.41,1.028-3.358,2.426-6.928,2.426  c-3.559,0-5.518-1.397-6.926-2.426c-1.176-0.825-1.801-1.303-3.432-1.303c-1.619,0-2.256,0.478-3.42,1.303  c-1.42,1.028-3.367,2.426-6.938,2.426c-3.548,0-5.496-1.397-6.926-2.426c-1.153-0.825-1.801-1.303-3.431-1.303  c-1.602,0-2.257,0.478-3.411,1.303c-1.43,1.028-3.379,2.426-6.927,2.426c-3.559,0-5.518-1.397-6.947-2.426  c-1.154-0.825-1.79-1.303-3.409-1.303c-1.621,0-2.256,0.478-3.411,1.303c-1.431,1.028-3.39,2.426-6.948,2.426  c-3.547,0-5.496-1.397-6.926-2.426c-1.164-0.825-1.789-1.303-3.41-1.303v-6.004c0.201,0,0.382,0,0.563,0.01  c1.217,0.105,1.842,0.562,2.848,1.281c1.346,0.974,3.167,2.277,6.365,2.415c0.19,0.021,0.371,0.021,0.561,0.021  c0.191,0,0.393,0,0.572-0.021c3.199-0.138,5.021-1.441,6.376-2.415c1.007-0.72,1.62-1.176,2.838-1.281  c0.181-0.01,0.382-0.01,0.573-0.01c0.189,0,0.392,0,0.571,0.01c1.218,0.105,1.831,0.562,2.838,1.281  c1.355,0.974,3.178,2.277,6.376,2.415c0.18,0.021,0.371,0.021,0.571,0.021c0.191,0,0.371,0,0.551-0.021  c3.21-0.138,5.021-1.441,6.376-2.415c1.006-0.72,1.642-1.176,2.858-1.281c0.16-0.01,0.361-0.01,0.553-0.01c0.21,0,0.39,0,0.571,0.01  c1.217,0.105,1.853,0.562,2.859,1.281c1.354,0.974,3.165,2.277,6.376,2.415c0.18,0.021,0.359,0.021,0.55,0.021  c0.201,0,0.393,0,0.572-0.021c3.207-0.138,5.02-1.441,6.365-2.415c1.017-0.72,1.631-1.176,2.849-1.281  c0.181-0.01,0.36-0.01,0.571-0.01c0.213,0,0.393,0,0.572,0.01c1.219,0.105,1.833,0.562,2.859,1.281  c1.335,0.974,3.156,2.277,6.354,2.415c0.18,0.021,0.382,0.021,0.572,0.021c0.202,0,0.392,0,0.571-0.021  c3.199-0.138,5.021-1.441,6.356-2.415c1.025-0.72,1.651-1.176,2.879-1.281H94.36z"/>
</svg>