<svg xmlns="http://www.w3.org/2000/svg" xmlns:xlink="http://www.w3.org/1999/xlink" version="1.1" x="0px" y="0px" width="100px" height="100px" viewBox="0 0 100 100" enable-background="new 0 0 100 100" xml:space="preserve">
<g id="Captions">
	<rect x="-192" width="185" height="99"/>
	<rect y="-36" width="100" height="30"/>
	<text transform="matrix(1 0 0 1 66 -19.5)" fill="#000000" font-family="'Helvetica'" font-size="2.4">http://thenounproject.com</text>
	<text transform="matrix(1 0 0 1 7.166 -24.5)"><tspan x="0" y="0" fill="#000000" font-family="'Helvetica-Bold'" font-size="6.1578">The Noun Project</tspan><tspan x="1.12" y="4.8" fill="#000000" font-family="'Helvetica-Bold'" font-size="4">Icon Template</tspan></text>
	<text transform="matrix(1 0 0 1 -178.5 10.5)" fill="#000000" font-family="'Helvetica-Bold'" font-size="6.1578">Reminders</text>
	<line fill="#000000" stroke="#FFFFFF" stroke-miterlimit="10" x1="8" y1="-14.5" x2="18" y2="-14.5"/>
	<line fill="#000000" stroke="#FFFFFF" stroke-miterlimit="10" x1="-179" y1="16.5" x2="-162" y2="16.5"/>
	<g>
		<g>
			<g>
				<rect x="-170.802" y="31.318" fill="#000000" width="8.721" height="8.642"/>
				<path fill="#000000" d="M-164.455,42.312h4.747v-4.703h-4.747V42.312z M-159.266,42.749h-5.63V37.17h5.63V42.749      L-159.266,42.749z M-166.221,44.062h8.279v-8.203h-8.279V44.062L-166.221,44.062z M-157.5,44.5h-9.163v-9.079h9.163V44.5      L-157.5,44.5z"/>
				<polygon fill="#000000" points="-166.149,44.133 -166.292,43.991 -158.013,35.787 -157.871,35.929     "/>
			</g>
		</g>
	</g>
	<rect x="-179" y="58" fill="none" width="35" height="32.5"/>
	<text transform="matrix(1 0 0 1 -179 60.1572)"><tspan x="0" y="0" fill="#000000" font-family="'Helvetica-Bold'" font-size="3">Strokes</tspan><tspan x="0" y="5" fill="#000000" font-family="'Helvetica'" font-size="2.4">Try to keep strokes at 4px</tspan><tspan x="0" y="10" fill="#000000" font-family="'Helvetica'" font-size="2.4">Minimum stroke weight is 2px</tspan><tspan x="0" y="14.5" fill="#000000" font-family="'Helvetica'" font-size="2.4">For thicker strokes use even </tspan><tspan x="0" y="17.5" fill="#000000" font-family="'Helvetica'" font-size="2.4">numbers: 6px, 8px etc.</tspan><tspan x="0" y="22" fill="#000000" font-family="'Helvetica-Bold'" font-size="2.4">Remember to expand strokes </tspan><tspan x="0" y="25" fill="#000000" font-family="'Helvetica-Bold'" font-size="2.4">before saving as an SVG </tspan></text>
	<rect x="-136.5" y="58" fill="none" width="35" height="32.5"/>
	<text transform="matrix(1 0 0 1 -136.5 60.1572)"><tspan x="0" y="0" fill="#000000" font-family="'Helvetica-Bold'" font-size="3">Size</tspan><tspan x="0" y="5" fill="#000000" font-family="'Helvetica'" font-size="2.4">Cannot be wider or taller than </tspan><tspan x="0" y="8.5" fill="#000000" font-family="'Helvetica'" font-size="2.4">100px (artboard size)</tspan><tspan x="0" y="13.5" fill="#000000" font-family="'Helvetica'" font-size="2.4">Scale your icon to fill as much of </tspan><tspan x="0" y="16.5" fill="#000000" font-family="'Helvetica'" font-size="2.4">the artboard as possible</tspan></text>
	<rect x="-94" y="58" fill="none" width="35" height="32.5"/>
	<text transform="matrix(1 0 0 1 -94 60.1572)"><tspan x="0" y="0" fill="#000000" font-family="'Helvetica-Bold'" font-size="3">Ungroup</tspan><tspan x="0" y="5" fill="#000000" font-family="'Helvetica'" font-size="2.4">If your design has more than one </tspan><tspan x="0" y="8" fill="#000000" font-family="'Helvetica'" font-size="2.4">shape, make sure to ungroup</tspan></text>
	<rect x="-50" y="58" fill="none" width="35" height="32.5"/>
	<text transform="matrix(1 0 0 1 -50 60.1572)"><tspan x="0" y="0" fill="#000000" font-family="'Helvetica-Bold'" font-size="3">Save as</tspan><tspan x="0" y="5" fill="#000000" font-family="'Helvetica'" font-size="2.4">Save as .SVG and make sure </tspan><tspan x="0" y="8" fill="#000000" font-family="'Helvetica'" font-size="2.4">&#8220;Use Artboards&#8221; is checked</tspan></text>
	<text transform="matrix(1.0074 0 0 1 -125.542 30.5933)" fill="#000000" font-family="'Helvetica'" font-size="2.5731">100px</text>
	<text transform="matrix(1.0074 0 0 1 -41 39)" fill="#000000" font-family="'Helvetica-Bold'" font-size="5.1462">.SVG</text>
	<rect x="-126.514" y="34.815" fill="#000000" width="10.261" height="10.185"/>
	<rect x="-126.477" y="31.766" fill="#000000" width="0.522" height="2.337"/>
	<rect x="-116.812" y="31.766" fill="#000000" width="0.523" height="2.337"/>
	<rect x="-127" y="32.337" fill="#000000" width="11.233" height="0.572"/>
	<g>
		<rect x="-83.805" y="33.844" fill="#000000" width="10.305" height="10.156"/>
		<rect x="-76.809" y="28.707" fill="#000000" width="3.308" height="3.261"/>
	</g>
	<rect x="-178.5" y="22.5" fill="#000000" stroke="#FFFFFF" stroke-miterlimit="10" width="30" height="30"/>
	<rect x="-136.5" y="22.5" fill="#000000" stroke="#FFFFFF" stroke-miterlimit="10" width="30" height="30"/>
	<rect x="-93.5" y="22.5" fill="#000000" stroke="#FFFFFF" stroke-miterlimit="10" width="30" height="30"/>
	<rect x="-49.5" y="22.5" fill="#000000" stroke="#FFFFFF" stroke-miterlimit="10" width="30" height="30"/>
</g>
<g id="Your_Icon">
	<g>
		<path fill-rule="evenodd" clip-rule="evenodd" d="M57.851,34.273c-0.039,0.302-0.071,0.629,0.067,0.765    c0.287-0.111,0.066-0.315,0.064-0.617c0.052-0.453-0.295-0.931-0.271-1.384l0.223-1.551c-0.1-0.534-0.27-1.246-0.671-1.71    c-0.506,0.195-0.689-0.571-0.828-0.817c0.176-0.398-0.184-0.685-0.31-1.081c-0.378-1.149-0.606-2.396-0.518-3.452    c0.326-0.414,0.86-0.582,1.342-0.366c0.251,0.588,0.589-0.072,0.867,0.446c0.369-0.153,1-0.157,1.345,0.128    c0.126,0.384,0.376,0.766,0.828,0.776c0.1,0.452,0.538,0.435,0.8,0.652l0.5,0.888c0.14,0.37,0.253,0.835,0.666,1.052    c0.657-0.128,1.427,0.059,1.832-0.739c-0.043-0.384,0.405-0.867,0.252-1.25c0.315-0.112-0.043-0.315-0.03-0.425    c0.26-0.181,0.575-0.169,0.724-0.54c0.025-0.261,0.228-0.77-0.048-0.946c0.327-0.317,0.473-1.004,0.955-0.638    c0.119-0.673,0.958-0.362,1.411-0.297c0.441,0.422,0.268,1.013,0.6,1.436l0.234,0.163c0.684-0.279,1.356-0.078,1.874-0.699    c0.34-0.345,0.82-0.335,1.175-0.598c0.764-0.608,1.101-1.53,0.972-2.311l-0.728-1.97c0.012-0.316-0.416-0.766-0.048-1.028    c0.009-0.741-0.955-1.256-0.246-1.878c0.234,0.149,0.589-0.113,0.821-0.17c0.374,0.532,0.781-0.143,1.06,0.527l0.097,0.027    c0.493-0.113,0.93-0.474,0.926-0.994c0.451-0.209,1.004,0.418,1.48-0.038c0.44,0.162,0.813,0.543,1.213,0.883l-0.214,0.688    c0.028,0.247,0.099,0.438,0.004,0.658c0.316,0.025,0.565,0.38,0.852,0.132c0.101,0.616,1.07,0.061,1.185,0.773    c0.129,0.78,0.313,1.588-0.409,2.279c0.098,0.232,0.373,0.408,0.564,0.229c0.22,0.122-0.106,0.481,0.031,0.686    c0.273-0.139,0.523,0.257,0.823-0.033c0.194,0.355,0.782,0.132,0.731,0.653c0.385,0.135,0.729,0.338,1.061,0.706    c0.917-0.253,0.295-0.976,0.388-1.442c-0.069-0.164,0.106-0.468,0.16-0.701c0.564,0.284,1.246-0.2,1.875-0.465    c0.038-0.453,0.505-0.429,0.653-0.828l0.214-0.797c0.312-0.523,0.804-0.719,1.31-0.955c0.578,0.243,1.048,0.829,1.621,0.345    l0.587-0.401l0.535,0.037c0.043,0.288-0.353,0.565-0.627,0.595c-0.848,0.321-1.735,0.903-2.526,1.567    c-0.287,0.125-0.561,0.277-0.612,0.689c0.209,0.438,0.623,0.888,0.435,1.41c-0.503,0.565-0.908,1.446-1.676,1.561l-0.257,0.469    c0.127,0.575,0.687,0.187,0.961,0.157c0.139,0.301,0.06,0.727-0.13,1.044c0.084,0.26,0.357,0.079,0.494,0.037    c0.428,0.367,0.741,0.118,1.193,0.115c0.097,0.137,0.306,0.574,0.523,0.271c0.396-0.359,0.352-0.743,0.843-0.993l0.564,0.257    c-0.039,0.302,0.497,0.504,0.267,0.821c0.757,0.406,0.378,1.122,0.574,1.737c-0.394,0.565-0.362,1.141-0.935,1.68    c0.14,0.383-0.41,0.25-0.531,0.607c-0.065,0.315-0.447,0.661,0.075,0.85l0.164-0.028c0.168,0.479-0.816,0.896-0.456,1.416    c0.288,0.094,0.546-0.375,0.82-0.404c0.328-0.016,0.464-0.25,0.696-0.361c0.825,0.352,1.599-0.902,2.326-0.784    c0.15-0.001,0.505-0.305,0.535,0.065c-0.147,0.494-0.596,1.143-0.153,1.646c1.199,0.855,2.195,2.124,3.661,1.854    c0.177-0.207,0.478-0.347,0.725-0.361l0.456,0.586l-0.286,0.263c0.14,0.314,0.357,0.066,0.523,0.257    c0.152,0.178,0.102,0.85,0.431,0.752c0.08-0.234,0.352-0.647,0.626-0.595c0.508,0.011-0.009,0.714,0.566,0.531l0.338,1.273    c-0.246,0.056-0.437,0.318-0.257,0.563c0.248,0.095,0.277,0.382,0.169,0.562c-0.562,0.127,0.1,0.507-0.104,0.728    c-0.341,0.399-0.722,0.745-1.177,0.461c-0.219,0.125-0.37,0.029-0.492,0.209c0.345,0.299,0.797,0.2,1.128,0.54    c-0.311,0.634-0.971,0.392-1.353,0.641c-0.272,0.249-0.973,0.186-0.818,0.732c0.604-0.031,1.338-0.873,2.014-0.411    c0.261,0.039,0.177-0.248,0.423-0.359c0.451-0.127,0.866,0.433,1.251,0.512c-0.216,0.509-0.457,1.334-1.142,1.421l-1.645,0.217    l-0.164,0.125c0.126,0.287,0.493-0.086,0.687,0.063c0.332,0.354,0.616-0.086,1.028-0.034c0.344,0.189,0.753-0.28,0.947,0.116    c0.112,0.452-0.407,0.647-0.749,0.828c0.167,0.246,0.357,0.053,0.496,0.326l-0.122,0.206c0.098,0.205,0.234,0.054,0.357,0.094    l0.195,0.396l0.204-0.207c0.312-0.537,0.281-0.921,0.58-1.39c0.208,0.396-0.119,0.673,0.035,1.152    c-0.039,0.315,0.06,0.699,0.444,0.765c0.043,0.274-0.407,0.565-0.461,0.854c-0.162,0.316-0.874,0.5-0.322,0.921    c-0.326,0.482-0.971,0.46-1.505,0.546c-0.413-0.244-0.856-0.913-1.365-1.143c-0.356,0.043-0.605-0.174-0.99-0.391    c-0.178,0.138-0.012,0.302,0.071,0.451c-0.135,0.248-0.616,0.087-0.821,0.239l-1.013,0.309c0.098,0.219,0.469,0.326,0.783,0.187    c0.463-0.441,1.028-0.021,1.413,0.087c1.056-0.104,1.368,1.485,2.45,1.299l0.137-0.056c0.207,0.136,0.141,0.396,0.128,0.548    c-1.055,0.213-2.099,0.069-2.894,0.089l0.098,0.205c0.591,0.188,1.604-0.039,2.239,0.643c0.099,0.342-0.228,0.715-0.445,0.99    c-0.192,0.002-0.617-0.022-0.822,0.033c0.044,0.479,0.741,0.159,0.594,0.682c-0.204,0.166-0.727-0.009-0.985,0.281    c-0.288-0.053-0.492,0.195-0.655,0.361l0.472,0.792c-0.367,0.469-0.899,0.856-1.475,1.025c-0.56,0.319-1.207-0.143-1.688-0.222    c-0.345-0.382-0.745-1.232-1.378-1.461c-0.285,0.858,1.016,0.627,0.816,1.438c0.207,0.218,0.605,0.366,0.471,0.655    c0.262,0.231,0.66,0.311,0.8,0.652l-0.438,0.168c-0.538-0.408-0.989-0.172-1.579-0.195l-0.095,0.11    c0.249,0.301,0.494,0.12,0.798,0.379l0.1,0.493c-0.449,0.497-0.902,0.362-1.408,0.668l-0.035,0.796    c0.838,0.199,1.186-1.01,1.869-1.303l0.069,0.041c-0.311,0.701-1.28,1.339-1.041,2.146c0.126,0.425-0.433,0.908-0.087,1.345    c-0.643,0.307,0.006,0.919-0.747,1.034l-0.908,0.084c0.287-0.099,0.496-0.219,0.741-0.385c-0.275-0.177-0.618-0.215-0.96-0.09    c-0.205,0.139-0.135,0.454-0.092,0.618c-0.587,0.415-1.311,0.955-1.703,1.63l-0.165-0.067c-0.04,0.179-0.396,0.373-0.134,0.536    l0.27-0.273c0.124,0.19,0.157,0.463,0.035,0.696c-0.149,0.139-0.327,0.249-0.326,0.455l-0.298,0.564l-1.837,0.054    c0.326-0.373,0.794-0.156,1.313-0.448c0.107-0.357-0.373-0.326-0.565-0.489c-0.263-0.204-0.383,0.249-0.615,0.306l-0.464,0.305    c-0.234-0.177-0.143-0.712-0.497-0.463c-0.373-0.312-0.812-0.31-0.664-0.79l-0.097-0.096c-0.519,0.333-0.364,0.894-0.416,1.292    c0.208,0.342,0.769,0.132,1.086,0.39l-0.26,0.167c-0.988-0.24-2.341,0.523-3.354,0.873c-0.558,0.718-1.175,0.694-1.87,1.234    l-1.99,1.824c-0.309,0.989-1.402,1.395-2.097,2.085c-0.583,1.006-1.771,1.781-2.285,2.813c-0.257,0.455-0.384,1.507-1.14,1.307    c0.355-0.194,0.704-0.905,0.879-1.332l-0.069-0.109c-0.397-0.052-0.794,0.226-1.122,0.337c-0.148,0.386-0.559,0.498-0.419,0.936    l0.492,0.205l-0.449,0.056c-1.548,0.299-3.413,0.243-5.332,0.435c-1.312,0.558-2.338,0.936-3.677,1.726    c-0.575,0.689-1.526,3.16-1.949,3.744c-0.832,0.637-1.597,1.149-2.458,1.43c-0.276-0.272-0.431-0.696-0.363-0.984    c-0.263-0.218-0.314,0.222-0.465,0.332l0.688,0.697c-1.56,0.505-2.869,1.046-4.389,1.399l-0.697,0.43l-2.597-0.667    c-0.298,0.536-0.616,0.059-0.958,0.294l-0.164,0.043c-2.531-1.066-4.804-2.449-7.33-2.912c-1.455-0.264-2.736,0.856-4.053-0.959    c-1.409-1.554-2.87-3.016-4.51-4.211l0.762-0.302l0.159-0.797c0-0.096-0.124-0.191-0.192-0.136    c-0.258,0.454-0.667,0.718-0.953,1.104c-0.798-0.392-1.585-1.223-2.284-1.177l-1.516-1.046c0.353-0.455-0.666-1.01,0.224-1.318    c-0.318-0.437-0.697,0.307-1.053,0.446c-0.19,0.221,0.181,0.424,0.36,0.546l0.165,0.137c-0.438,0.208-0.933-0.076-1.245,0.434    c0.152,0.19,0.045,0.507-0.188,0.468c-1.045-0.336-2.65,1.39-3.391-0.512c-0.606-0.324-1.081,0.446-1.643,0.45    c-0.356,0.058-1.03-0.157-1.425,0.202c-1.125,0.008-1.798-0.069-2.691-0.406c-0.329-0.053-0.708,0.731-1.096,0.172    c-0.315,0.099-0.633-0.188-0.876,0.294c-0.439-0.038-1.058-0.294-1.48,0.12c-0.948-0.336,0.405-0.921-0.05-1.288    c-0.206-0.081-0.305-0.451-0.292-0.629c0.917-0.213-0.076-1.001,0.869-1.158c-0.275-0.163-0.907-0.269-0.855-0.776    c-0.07-0.273,0.217-0.412,0.353-0.496l0.153-1.715c0.674,0.311,1.447,1.06,1.603,1.73c-0.174,0.577,0.552,0.462,0.882,0.625    c0.439,0.024,0.313-0.359,0.463-0.538c0.247,0.039,0.506-0.292,0.754-0.102c0.408-0.47,0.683-0.416,1.123-0.131    c0.534-0.169,1.01-0.789,1.602-0.505c0.066-0.344,0.433-0.881-0.036-1.221c0.096-0.097,0.121-0.303,0.3-0.263l0.223,0.424    c0.357,0.176,0.383-0.167,0.628-0.375l-0.897-0.844l0.095-0.193c0.427,0.135,0.758,0.406,1.126,0.157    c0.526,0.751,0.834-0.308,1.314-0.242c0.109-0.165-0.248-0.245-0.167-0.396l0.3-0.331c-0.358-0.189-0.878,0.061-0.867-0.488    c0.163-0.097,0.094-0.22-0.03-0.329c-0.301,0.112-0.561,0.292-0.754,0.074l0.095-0.233c0.64-0.649,0.979-1.241,1.632-1.959    l0.658-0.032c-0.044-0.466,0.682-0.622,0.982-0.733c0.333,0.546,0.754,0.008,1.114,0.526c0.66,0.242,0.133-0.646,0.724-0.54    l0.067-0.123c-0.29-0.327-0.491,0.332-0.849,0.225l0.053-0.356c-0.222-0.245-0.453,0.044-0.714,0.005    c-1.377-0.882-2.515,1.184-3.745,1.74c-0.411,0.099-0.905,0.034-1.346-0.224c-0.164,0.125-0.287,0.125-0.397,0.003l1.211-1.298    c0.246-0.07,0.714,0.104,0.986-0.199c-0.208-0.259-0.386-0.312-0.66-0.256c-0.243,0.496-0.549-0.064-0.797-0.159    c-0.097-0.219,0.161-0.494,0.188-0.7c0.009-0.686,0.482-1.677,1.412-2.013c0.411-0.003,0.777-0.608,1.035-0.994    c-0.469-0.354-0.915,0.459-1.312,0.667c0.056,0.123-0.054,0.233-0.19,0.263c-0.305-0.492-0.588,0.278-0.919,0.006    c-0.409,0.291-0.474,0.936-0.649,1.198l-0.863,0.129l-0.594-0.586l0.134-0.521c-0.277-0.341,0.254-0.88-0.27-1.191l-0.464,0.332    c-0.564-0.298-0.239-0.862-0.339-1.383l-0.402-0.655c0.371,0.066,0.546-0.47,0.421-0.716c-0.207-0.163-0.52,0.347-0.55-0.134    c0.122-0.247,0.71-0.443,0.447-0.798c0.438-0.031,0.079-0.439,0.461-0.662c-0.291-0.45-0.604-0.064-0.989-0.322    c-0.084-0.205,0.176-0.412,0.16-0.618c-0.235-0.354-0.63,0.142-0.824-0.228c-0.205,0.18-0.753,0.225-0.627,0.525    c-0.289-0.094-0.862,0.267-0.854-0.351c0.04-0.261-0.304-0.354-0.536-0.257c-0.205,0.084-0.012,0.233-0.025,0.357    c-0.48-0.065-1.032-0.583-1.552-0.277c-0.26,0.084-0.521-0.12-0.687-0.229l-0.494,0.031c-1.002-0.213-1.898-0.852-3.063-0.733    c-0.121,0.233-0.324,0.701-0.722,0.663c-0.441-0.258-0.704-0.612-1.223-0.293c-0.738,0.375-0.268,0.962-0.814,1.295    c-0.453-0.176-1.057-0.075-1.576,0.038c-1.018-0.295-1.177-1.583-1.663-2.389l-0.172-1.082c0.358,0.313,0.81,0.035,1.013-0.363    c0.244-0.345,0.642-0.334,1.08-0.378c0.606,0.421,1.174,1.116,1.953,0.74c0.066-0.315,0.354-0.455,0.683-0.389l0.626-0.73    c0.498,0.627,1.051-0.762,1.412-0.052c0.387,0.285,0.196,0.589,0.336,0.931l0.425-0.044c0.695-0.554-0.283-1.356,0.453-1.841    l0.962,0.157l-0.596,1.115c0.042,0.191,0.209,0.465,0.401,0.56l0.091-0.755c0.205-0.125,0.37,0.053,0.631-0.005    c0-0.027-0.18-0.231-0.194-0.327c0.176-0.303,0.528-0.95,0.914-0.665l0.4,0.326l1.148-0.474l-0.605-0.216    c0.354-0.317,0.778-0.567,1.091-1.036l0.22,0.04c0.277,0.437,0.58,0.668,0.309,1.081c0.058,0.397,0.238,0.685,0.664,0.818    c0.246-0.166-0.249-0.382-0.031-0.534l0.709-0.664c0.729,0.283,1.355-0.229,1.974-0.205c0.4,0.49,0.961,0.254,1.321,0.718    c0.247-0.002,0.398,0.106,0.561-0.169c1.071,0.144,1.91,0.508,2.966,0.377c0.148-0.248,0.256-0.633-0.129-0.726l-0.207-0.204    c0.149-0.262,0.724-0.458,0.557-0.759l0.623-1.225c-0.235-0.272,0.05-0.631-0.404-0.848c-0.288-0.025-0.589,0.142-0.628,0.43    c0.223,0.383-0.285,0.386-0.448,0.593c-0.559,0.58-1.311,0.846-1.94,1.001c-0.854-0.516-1.635-0.387-2.407-1.025    c-0.153-0.314-0.441-0.312-0.66-0.297c-0.188,0.453-0.427-0.148-0.59-0.023c-0.288,0.07-0.562-0.065-0.66-0.271    c0.122-0.233,0.385,0.066,0.52-0.223c-0.057-0.232-0.289-0.135-0.427-0.203c0.039-0.274,0.479-0.195,0.49-0.497l0.161-0.494    c0.493-0.045,0.655-0.43,0.941-0.761c0.191-0.002,0.382-0.223,0.367-0.359c0.641-0.553,1.507-0.367,2.133-0.975    c0.791-0.65,1.447-0.971,2.088-1.592c0.549,0.105,1.067-0.241,1.616-0.313c0.081-0.083,0.218-0.18,0.135-0.289    c-0.807,0.362-1.181-0.17-1.946,0.206c-0.138-0.026-0.289-0.204-0.235-0.328c0.656-0.319-0.292-0.601-0.239-0.917    c-0.357-0.107-0.202,0.509-0.615,0.293c-0.29-0.313,0.173-0.811-0.405-1.04c0.073,0.631-0.718,1.239-0.741,1.911    c-0.452-0.023-0.712,0.102-1.058-0.226c0.12-0.48-0.648-0.64-0.925-0.912l-0.001-0.138c0.449-0.469,1.108-0.392,1.71-0.629    c0.271-0.44,0.763-0.828,0.649-1.293c-0.574,0.319-0.635,1.444-1.515,1.162c0.189-0.399,0.489-0.703,0.295-1.058l-0.816,0.896    l-0.333-0.464c-0.149,0.152-0.065,0.426,0.004,0.604c-0.177,0.207-0.49,0.47-0.656,0.196c-0.085-0.383,0.132-0.673,0.116-0.988    c-0.333-0.56-0.104-1.027-0.464-1.573l-0.096-0.041c-0.258,0.399,0.115,0.863,0.063,1.262c0.044,0.356-0.119,0.659-0.487,0.949    c-0.345-0.34,0.036-0.782-0.2-1.178l-0.163,0.166l-0.062,1.083l-0.329,0.003c-0.237-0.644-0.763-1.243-0.109-1.906    c-0.152-0.272-0.342,0.112-0.521-0.16l-0.163,0.192l0.276,2.344l-0.591-0.105c0.054-0.151,0.176-0.427-0.112-0.452    c-0.248-0.121-0.603,0.155-0.688-0.256l0.787-1.198l-0.374-0.491c-0.135,0.385-0.282,0.77-0.678,1.088    c-0.249-0.286-0.06-0.63-0.308-0.875c-0.326,0.427-0.008,0.933-0.678,1.252c-0.165-0.04-0.534,0.114-0.632-0.133    c-0.369,0.182-0.827-0.611-1.015,0.049c-0.024,0.397,0.254,0.903-0.361,1.209c-0.439,0.003-0.905-0.048-1.278-0.443l-2.039,0.7    c-0.743-0.338-0.6,0.58-1.118,0.871c-0.945,0.186-1.617,0.189-2.333-0.12l-0.101-0.686c-0.719-0.9-1.693-0.948-2.381-1.204    l-2.071-0.026L0,36.799c0.354-0.358,0.613-0.621,0.885-0.897c0.275,0.122,0.711-0.266,0.682-0.567    c-0.112-0.383-0.088-0.794,0.432-0.963c-0.056-0.15,0.133-0.591,0.354-0.428c0.429,0.505,1.444,0.553,1.353,1.28    c0.126,0.26,0.247-0.002,0.371,0.094c0.499,0.723,1.416,0.388,1.587,1.374l0.495,0.188l0.492-0.265    c-0.14-0.273-0.453-0.065-0.688-0.256c-0.61-0.887-1.451-1.621-1.772-2.456l0.933,0.021c0.429,0.504,0.867,0.515,1.376,0.717    c-0.071-0.384-0.511-0.49-0.76-0.749c-0.372-0.326-1.087-0.596-1.283-1.143c-0.196-0.698-0.477-1.479-0.248-2.11l0.232-0.194    c0.592,0.325,1.195,0.308,1.516,1.005c0.357,0.094,0.593,0.407,0.854,0.625c0.646,0.229,1.143,0.678,1.763,1.071    c0.001,0.137-0.051,0.521,0.264,0.423c0.167,0.396,0.321,0.849,0.037,1.316l0.165,0.163c0.245-0.289,0.435-0.647,0.75-0.663    c0.233,0.081,0.43,0.614,0.633,0.325c-0.084-0.206-0.498-0.696,0.022-0.755c0.26-0.111,0.673,0.105,0.931-0.198    c-0.385-0.135-0.822-0.008-1.193-0.129c-0.387-0.312-0.895-0.378-0.925-0.844l0.231-0.235c0.617-0.031,1.275-0.05,1.932-0.273    c0.343-0.017,0.523,0.298,0.728,0.05c-0.399-0.271,0.052-0.467,0.2-0.715c-0.262-0.19-0.574,0.155-0.821,0.129    c-0.89,0.253-1.715-0.029-2.469,0.059c-0.742-0.311-1.884-0.714-2.151-1.74C6.792,29.4,6.184,28.761,6.989,28.22    c0.45-0.332,0.895,0.392,1.389,0.484c0.318,0.45,0.882,0.598,1.251,0.389c0.473,0.943,1.402,0.58,2.078,1.001    c-0.814-0.626-1.671-1.511-2.507-1.464l-1.299-1.376c-0.097-0.22-0.846-1.281-0.67-1.765c0.444-1.101,1.164-0.187,1.714-0.012    c0.51,0.38,1.06,0.582,1.61,0.839c0.057,0.205,0.003,0.397,0.278,0.561c0.19-0.193,0.052-0.494-0.074-0.727    c-0.662-0.64-1.393-1.17-2.084-1.919c0.284-0.537,0.672-0.06,1.149-0.379c0.193,0.149,0.372,0.244,0.591,0.161    c-0.304-0.286-0.689-0.627-1.06-0.583L9.354,23.17c0.327-0.235,0.807-0.32,0.982-0.706l0.823,0.035    c0.441,0.354,1.057,0.103,1.322,0.772c0.069,0.164,0.235,0.328,0.468,0.271c0.264,0.423,0.472,0.792,0.558,1.271l-0.427,0.806    c0.04,0.009,0.104,0.02,0.104,0.02l0.927-0.829c0.481,0.271,0.568,0.874,0.502,1.217c-0.217,0.44-0.569,0.937-0.924,1.323    l0.001,0.137c0.397-0.112,1.011-0.692,1.09-1.132c0.19-0.139,0.152,0.19,0.289,0.259c0.191-0.166,0.216-0.592,0.491-0.401    c0.252,0.684-0.498,1.293-0.877,2.05l0.042,0.137c0.519-0.347,0.817-0.76,0.91-1.296l0.191-0.069    c0.101,0.657-0.101,1.331-0.343,1.949l0.069,0.137c0.858-0.842,0.438-2.129,0.965-3.243c0.219-0.098,0.332,0.478,0.591,0.202    c0.249,0.286,0.021,0.904,0.595,0.75l0.337,1.081c-0.298,0.564-0.183,1.276-0.412,1.854l0.069,0.054    c0.518-0.456,0.28-1.03,0.716-1.541c0.081-0.233-0.153-0.383,0.16-0.604c0.193,0.163,0.236,0.41,0.266,0.656    c0.33,0.149,0.511,0.531,0.595,0.819c-0.117,0.81-0.716,1.568-1.3,2.354l0.028,0.123c1.312-0.6,1.101-1.53,1.861-2.481    c-0.442-0.56-0.311-1.301-0.507-1.862l-0.565-0.559c0.106-0.398-0.047-0.739,0.431-1.154c-0.167-0.342-0.438,0.112-0.659-0.133    c-0.425,0.044-0.539-0.586-0.896-0.68c-0.992-0.638-2.378-0.82-2.88-1.996l-0.197-0.712c0.712-0.169,1.242-0.858,1.998-0.645    c0.371,0.121,0.841,0.584,1.293,0.513c0.165,0.149,0.194,0.396,0.387,0.463l0.037-0.562c0.44,0.244,0.892-0.047,1.273-0.338    l-1.249-0.155c0.106-0.413,0.572-0.539,0.789-0.897l-0.138-0.122c-0.341,0.29-0.681,0.731-1.052,0.597    c-0.22,0.002-0.935-0.213-0.69-0.558l0.392-0.99c-0.358-0.217-0.327,0.305-0.491,0.47c-0.327,0.222-0.695,0.54-1.08,0.433    c-0.098-0.178,0.038-0.397,0.092-0.59l-0.165-0.095c-0.284,0.509-0.693,0.868-1.187,0.995c-0.755-0.118-1.432-0.744-1.942-1.207    c0.106-0.535,0.727-0.06,1.084-0.049l0.465-0.195c0.352-0.715-0.733-0.817-0.902-1.475c0.095-0.261,0.451-0.195,0.658-0.073    l0.234,0.163c0.05-0.7,0.81,0.132,0.915-0.459c-0.042-0.15-0.331-0.368-0.044-0.466c0.562-0.059,0.976,0.281,1.321,0.677    c0.575-0.114,0.374,0.587,0.868,0.597c0.217-0.316,0.846-0.637,0.61-0.991c0.752-0.266,0.666,1.134,1.363,0.772    c0.081-0.206,0.01-0.48-0.143-0.727c0.176-0.33,0.591,0.161,0.729,0.394l0.172,1.082l0.896,0.624    c-0.177,0.193,0.346,0.396,0.072,0.59c0.098,0.219,0.316,0.135,0.454,0.161c0.263,0.286-0.571,0.676,0.006,0.892    c-0.053,0.22-0.505,0.401-0.16,0.659c0.233-0.057,0.506-0.209,0.563,0.133c-0.014,0.028,0.014,0.042,0.027,0.055    c0.205-0.097,0.216-0.563,0.531-0.62c0.015,0.232-0.159,0.796,0.334,0.725c0.219-0.166,0.696-0.403,0.755,0.021    c-0.26,0.249,0.193,0.314,0.332,0.423l-0.258,0.496c0.221,0.108,0.496,0.271,0.594,0.558l1.086,0.322l-0.258,0.399    c0.549-0.004,0.346,0.45,0.307,0.752l-0.204,0.166l0.304,0.327c-0.546,0.319,0.223,0.479-0.062,0.892l0.193,0.163l0.3-0.304    c0.371,0.217,0.128,0.685,0.103,0.918l0.096,0.068c0.19-0.331,0.544-0.689,0.226-1.085c0.013-0.179,0.411-0.126,0.589-0.237    c0.412,0.175,0.292,0.574,0.472,0.819c-0.137,0.097-0.343,0.03-0.467-0.065l-0.096,0.11l0.431,0.683l1.027-0.171    c0.275,0.148,0.646,0.311,0.731,0.652c-0.08,0.371-0.714,0.006-0.932,0.199c-0.464,0.305-1.205,0.214-1.642,0.614    c0.291,0.327,0.507-0.058,0.892-0.047c0.398,0.134,0.793-0.28,1.083-0.008c0.057,0.205-0.313,0.276-0.449,0.47    c0.222,0.245,0.685-0.156,0.987-0.048c0.304,0.244,0.267,0.834,0.269,1.122l-0.23,0.358c0.413,0.271,0.114,0.74-0.021,1.029    l-0.461,0.784l-0.85,0.171l-0.095,0.138c0.111,0.205,0.358,0.217,0.495,0.161c0.029,0.343,0.55,0.216,0.593,0.517l-1.144,1.16    c-0.632-0.188-1.304-0.155-1.625-0.935c-0.14-0.314-0.074-0.905-0.597-0.983c-0.164,0.001-0.426-0.065-0.562,0.1    c0.743,0.352,0.926,0.954,0.93,1.571c-0.244,0.289,0.129,0.698,0.24,0.958c0.398,0.106,0.839,0.323,1.249,0.184    c0.303,0.176,0.92,0.158,0.896,0.556l-0.747,1.089l0.069,0.096c0.658-0.005,0.842-1.281,1.478-0.56    c0.323,1.137-0.343,2.032-1.269,2.999c0.509,0.147,0.914-0.747,1.478-0.572c-0.024,0.507,0.431,0.847,0.598,1.216    c0.239,0.89,0.138,1.96,0.13,2.797c0.129,0.809,0.325,1.383,0.631,2.066c0.016,0.22-0.036,0.714,0.144,0.863    c0.394-0.523-0.23-1.521-0.221-2.11c-0.046-0.645,0.499-1.225,0.384-1.978c-0.237-0.685-0.009-1.357-0.206-2.042l0.26-0.194    c0.622,0.682,0.449,1.574,1.195,2.296l0.163-0.234c-0.39-0.807-0.577-2.053-0.638-2.931c0.078-0.576,0.636-1.211,0.604-1.842    c0.432-0.922,1.459-1.23,2.001-2.153l0.452-0.03l0.4,0.326l-0.088,1.276l0.263,0.259c0.701,0.2,1.453-0.147,2.069-0.275    c0.682-0.471,0.607-1.307,0.618-1.842c0.64-0.69,0.003-1.454,0.054-2.112c-0.223-0.451-0.008-1.028-0.176-1.549    c-0.445-0.971-0.658-2.039-0.721-3.053c-0.304-0.327,0.022-0.728-0.008-1.111c-0.084-0.246-0.168-0.575,0.201-0.659    c0.274,0.025,0.632,0.091,0.726-0.28c0.452-0.003,0.864,0.063,1.245-0.337l0.453-0.004l0.735,1.257    c0.266,0.697,0.682,1.422,0.905,2.064c0.03,0.411,0.609,0.847,0.53,1.313c0.303,0.094,0.496,0.325,0.799,0.488l0.303,0.024    c0.335,0.862,0.781,1.915,0.704,2.697c0.208,0.287,0.55,0.134,0.756,0.187c0.231-0.125,0.079-0.426,0.326-0.427    c0.193,0.259,0.526,0.736,0.867,0.46c0.67-0.252,0.064-0.59,0.446-0.922c-0.141-0.425,0.05-0.687,0.13-0.988    c-0.623-0.874-0.329-1.932-1.17-2.529c-0.237-0.67,0.862-0.239,0.775-0.966c0.147-0.426-0.402-0.683-0.173-1.15    c0.327-0.263,0.68-0.869,1.053-0.501c0.521,0.023,0.889-0.404,1.289,0.032c0.287-0.235,0.783,0.2,0.779-0.335    c-0.153-0.451,0.075-1.07,0.224-1.428c0.533-0.182,0.584-0.8,1.188-0.666c0.262,0.217-0.052,0.452,0.128,0.698    c0.177-0.262,0.709-0.636,0.46-0.963l0.096-0.097c0.315-0.003,0.811,0.269,0.827,0.625l-0.093,0.521    c0.302,0.012,0.572-0.607,0.918-0.103l0.5,0.819c-0.148,0.357-0.71,0.54-0.584,0.923l0.165,0.026l0.682-0.553    c0.76,0.722,0.492,1.628,0.513,2.656c0.084,0.247,0.357,0.08,0.536,0.134l0.331,0.327c0.258-0.331,0.55,0.257,0.879,0.186    c-0.078,0.549,0.705,0.859,0.545,1.45c1.018,0.377,0.241,1.164,0.904,1.831l0.063,1.248L57.851,34.273z"/>
		<g>
			<path fill-rule="evenodd" clip-rule="evenodd" d="M16.763,44.776l0.121,0.093l-0.491,0.374l-0.11-0.109     C16.322,44.941,16.612,44.818,16.763,44.776z"/>
			<path fill-rule="evenodd" clip-rule="evenodd" d="M18.439,58.993c0.15-0.015,0.245,0.25,0.149,0.319     c-0.109,0.097-0.273,0.111-0.33-0.066L18.439,58.993z"/>
			<path fill-rule="evenodd" clip-rule="evenodd" d="M37.772,82.962c0.413,0.244-0.184,0.248,0.175,0.548     c-0.123,0.124-0.369,0.631-0.589,0.618l-0.032-0.657C37.366,83.319,37.464,83.102,37.772,82.962z"/>
			<path fill-rule="evenodd" clip-rule="evenodd" d="M44.738,27.203c0.233,0.08,0.249,0.341,0.224,0.52     c-0.261-0.025-0.112-0.273-0.291-0.423L44.738,27.203z"/>
			<path fill-rule="evenodd" clip-rule="evenodd" d="M54.778,27.325c0.303,0.148,0.731,0.667,0.556,0.983     c-0.424,0.223-0.414-0.354-0.498-0.586L54.778,27.325z"/>
			<path fill-rule="evenodd" clip-rule="evenodd" d="M58.012,15.552c0.371,0.162,0.363,0.434,0.434,0.694l-0.026,0.123l-0.469-0.354     L58.012,15.552z"/>
			<path fill-rule="evenodd" clip-rule="evenodd" d="M59.732,23.854c0.261,0.012,0.084,0.227,0.085,0.377     c-0.178-0.012-0.342,0.194-0.398-0.093L59.732,23.854z"/>
			<path fill-rule="evenodd" clip-rule="evenodd" d="M94.742,56.338l0.065,0.071c-0.108,0.193-0.246,0.14-0.37-0.024     C94.42,56.316,94.655,56.167,94.742,56.338z"/>
			<path fill-rule="evenodd" clip-rule="evenodd" d="M14.333,40.474l0.065,0.071c-0.171,0.104-0.304,0.136-0.484,0.089     C13.896,40.566,14.195,40.423,14.333,40.474z"/>
			<path fill-rule="evenodd" clip-rule="evenodd" d="M18.116,47.047l0.139,0.291c-0.171,0.104-0.581,0.243-0.644-0.044     C17.594,47.227,17.979,46.996,18.116,47.047z"/>
		</g>
	</g>
</g>
</svg>