<svg xmlns:dc="http://purl.org/dc/elements/1.1/" xmlns:cc="http://creativecommons.org/ns#" xmlns:rdf="http://www.w3.org/1999/02/22-rdf-syntax-ns#" xmlns:svg="http://www.w3.org/2000/svg" xmlns="http://www.w3.org/2000/svg" xmlns:sodipodi="http://sodipodi.sourceforge.net/DTD/sodipodi-0.dtd" xmlns:inkscape="http://www.inkscape.org/namespaces/inkscape" width="100" height="100" viewBox="0 0 80 80" version="1.1" id="svg2" inkscape:version="0.48.2 r9819" sodipodi:docname="blank.svg">
  <metadata id="metadata10">
    <rdf:RDF>
      <cc:Work rdf:about="">
        <dc:format>image/svg+xml</dc:format>
        <dc:type rdf:resource="http://purl.org/dc/dcmitype/StillImage"/>
        <dc:title/>
      </cc:Work>
    </rdf:RDF>
  </metadata>
  <defs id="defs8"/>
  <sodipodi:namedview pagecolor="#ffffff" bordercolor="#666666" borderopacity="1" objecttolerance="10" gridtolerance="10" guidetolerance="10" inkscape:pageopacity="0" inkscape:pageshadow="2" inkscape:window-width="1600" inkscape:window-height="853" id="namedview6" showgrid="true" inkscape:zoom="4.1944516" inkscape:cx="66.419603" inkscape:cy="59.30568" inkscape:window-x="-4" inkscape:window-y="-4" inkscape:window-maximized="1" inkscape:current-layer="svg2" inkscape:snap-grids="false">
    <inkscape:grid type="xygrid" id="grid3807"/>
  </sodipodi:namedview>
  <g id="g4706" transform="matrix(0.12497799,0,0,0.12497799,-22.647126,6.5738373)">
    <path id="path4602" d="m 466.7,7.9 c 4.6,-2.4 9.9,-3.2 14.4,-5.7 3.6,2.3 7.7,2.8 11.6,1 1.2,3.9 3.5,8.6 0.7,12.3 -2.2,2.7 -2.3,6.2 -2.5,9.5 2.2,-0.4 4.3,-0.7 6.4,-1 0.5,5.6 -0.2,11.3 -1.8,16.7 -2.6,4.3 -5.9,8.4 -6.2,13.7 2.3,0.6 4.7,1.2 7,1.8 -0.3,6.7 -1.1,13.4 -0.2,20.1 0.4,2.5 -1.6,4.5 -2.7,6.5 2,0.6 4.1,1.2 6.2,1.8 -2.2,3.1 -4.4,6.2 -6.6,9.3 -10.2,1.2 -20.5,1 -30.7,1.4 0.1,-6.7 3.3,-12.7 5,-19 2,1.5 4,3.1 5.9,4.8 1.6,-0.9 3.3,-1.8 4.9,-2.7 -5.5,-1.9 -10.6,-5 -16.2,-6.8 0.5,-6.4 6.3,-7.7 11.4,-7.3 -2,-2.7 -4,-5.3 -6.2,-7.9 -3.4,5.3 -6.9,10.5 -10,16 -1.4,3 -5.4,3.4 -8,4.6 -0.9,-4.7 -2,-9.5 -2.2,-14.3 -1.8,-1.5 -4.5,-2.6 -5.1,-5.2 -1.1,-5.7 -2.3,-11.5 -2.3,-17.4 0.3,-3.1 4.1,-5.2 6.9,-3.5 8.4,4.1 12,13.6 19.6,18.8 -1.7,-3.3 -4.2,-6.2 -4.9,-9.9 5.7,-3.5 11.4,-8 13.4,-14.7 -3.8,2.6 -7.3,5.7 -11.3,7.9 -3.2,0.7 -6.5,0.8 -9.6,0.4 -3.4,-2.5 -7.1,-5.6 -7.7,-9.9 6.9,-7.2 14.9,-13.3 20.8,-21.3 z" inkscape:connector-curvature="0" style="fill:#000000;stroke:#000000;stroke-width:0.09375"/>
    <path id="path4604" d="m 431.3,49.5 c 1.4,1.3 2.9,2.7 4.3,4 -0.9,0.2 -2.7,0.4 -3.7,0.5 -0.2,-1.5 -0.4,-3 -0.6,-4.5 z" inkscape:connector-curvature="0" style="fill:#000000;stroke:#000000;stroke-width:0.09375"/>
    <path id="path4606" d="m 414.3,55.1 c 11.6,1.3 23.6,13.1 19.7,25.1 -5.3,-3 -10.1,-6.9 -16.1,-8.5 -0.2,-5.8 -4.3,-10.6 -3.6,-16.6 z" inkscape:connector-curvature="0" style="fill:#000000;stroke:#000000;stroke-width:0.09375"/>
    <path id="path4608" d="m 396,63.9 c 3,-0.4 6,-0.7 9,-1.1 0,1.9 0,5.6 0,7.5 -3.1,-0.6 -6.1,-1.3 -9.1,-2.1 0.1,-1.4 0.1,-2.8 0.1,-4.3 z" inkscape:connector-curvature="0" style="fill:#000000;stroke:#000000;stroke-width:0.09375"/>
    <path id="path4610" d="m 438,67 c 2.4,0.2 4.8,1 7.1,1.7 -0.5,4.9 -3.5,9 -8.2,10.4 0.2,-4 0.6,-8.1 1.1,-12.1 z" inkscape:connector-curvature="0" style="fill:#000000;stroke:#000000;stroke-width:0.09375"/>
    <path id="path4612" d="m 377.2,76.7 c 4,0.4 7.5,-1.9 11.2,-3 -1.9,5 -3.6,11.8 -9.1,14 -8.1,0.4 -15.1,5.6 -23.3,5 0,-1.9 0.1,-5.6 0.1,-7.5 3.6,-2.4 7.1,-5.1 10.8,-7.2 3.1,-1.9 6.9,-1.1 10.3,-1.3 z" inkscape:connector-curvature="0" style="fill:#000000;stroke:#000000;stroke-width:0.09375"/>
    <path id="path4614" d="m 392,75.7 c 4.3,-0.9 8.6,-1.5 12.9,-1.8 -0.9,2 -1.6,4.2 -3.3,5.8 -3.1,1.4 -6.5,0.2 -9.6,-0.3 0,-1 0,-2.8 0,-3.7 z" inkscape:connector-curvature="0" style="fill:#000000;stroke:#000000;stroke-width:0.09375"/>
    <path id="path4616" d="m 415.4,84.8 c -1.3,-2.2 -1.7,-4.8 -1.2,-7.3 0.5,2.4 1,4.8 1.2,7.3 z" inkscape:connector-curvature="0" style="fill:#000000;stroke:#000000;stroke-width:0.09375"/>
    <path id="path4618" d="m 444,78.3 c 3.7,-0.4 7.1,0.7 9.1,3.9 -3.1,0 -6,0 -9.1,0 0,-1 0,-3 0,-3.9 z" inkscape:connector-curvature="0" style="fill:#000000;stroke:#000000;stroke-width:0.09375"/>
    <path id="path4620" d="m 389.2,84 c 1.9,-0.6 2.5,2.6 0.6,3 -1.9,0.6 -2.5,-2.6 -0.6,-3 z" inkscape:connector-curvature="0" style="fill:#000000;stroke:#000000;stroke-width:0.09375"/>
    <path id="path4622" d="m 395.4,89.9 c 2.4,-2.4 4.8,-4.8 7.5,-6.9 1.3,4.8 1.9,9.7 2.7,14.5 2.2,-0.6 4.3,-1.2 6.5,-1.8 1.2,6.3 2,16.1 -6.1,18 -6.7,-0.2 -12.9,2 -19.2,4 -2.8,0.8 -5.1,-1.7 -7.4,-3.1 0.7,-1.1 1.3,-2.2 2,-3.3 3.1,-1 6.2,-2 9.3,-3.2 -3.9,-0.8 -7.8,-1 -11.5,0.4 -5.4,3.1 -9.5,-3.5 -11.2,-7.6 -1.6,-4.8 2.8,-7.2 5.7,-9.6 -0.9,2.8 -1.9,5.6 -2.7,8.5 5.1,-2.6 8.1,-9 13.9,-9.7 5.8,3.2 8.6,10.6 15.3,12.7 -1.1,-4.5 -2.9,-8.7 -4.8,-12.9 z" inkscape:connector-curvature="0" style="fill:#000000;stroke:#000000;stroke-width:0.09375"/>
    <path id="path4624" d="m 438.5,87.3 c 8.5,-0.2 16.6,2.9 24.1,6.3 -0.7,2.3 -1.5,4.5 -2.4,6.8 5.6,1 11.8,3.9 17.4,0.9 2.7,-1.3 5.3,-3.7 8.5,-2.7 5,0.9 12.9,2.7 11.8,9.2 -2.7,4.2 -7.5,6.5 -11.4,9.6 -9.1,4.5 -18.3,-2.2 -27.6,-2.5 -3.4,-3.9 -3.5,-10.1 -6.4,-14.4 -2.9,-2.4 -7.5,-1.8 -9.4,-5.6 -2,-2.2 -3.4,-4.9 -4.6,-7.6 z" inkscape:connector-curvature="0" style="fill:#000000;stroke:#000000;stroke-width:0.09375"/>
    <path id="path4626" d="m 417.5,91.1 c 1,-1.3 3.2,0.3 2.2,1.6 -1,1.3 -3.2,-0.3 -2.2,-1.6 z" inkscape:connector-curvature="0" style="fill:#000000;stroke:#000000;stroke-width:0.09375"/>
    <path id="path4628" d="m 430.7,91.2 c 2.6,1.2 7.5,0.9 8.7,4.4 1.6,5.6 0.6,12.9 -4.8,16 -6.2,3.7 -7.3,-2.6 -7.4,-6.6 -2.8,0.5 -5.2,-0.8 -6.8,-3.1 1.7,0.1 3.4,0.2 5,0.4 1.7,-3.8 3.5,-7.4 5.3,-11.1 z" inkscape:connector-curvature="0" style="fill:#000000;stroke:#000000;stroke-width:0.09375"/>
    <path id="path4630" d="m 417.4,95.1 c 1.7,0.8 3.4,1.5 5,2.2 -1.4,0.7 -2.8,1.4 -4.2,2.1 -0.3,-1.4 -0.5,-2.9 -0.8,-4.3 z" inkscape:connector-curvature="0" style="fill:#000000;stroke:#000000;stroke-width:0.09375"/>
    <path id="path4632" d="m 445.5,115.6 c -5.7,-2.7 0,-13.4 5.4,-9.6 2.8,2.2 3.4,6.2 4.8,9.3 -3.2,1.6 -7.2,3.4 -10.2,0.3 z" inkscape:connector-curvature="0" style="fill:#000000;stroke:#000000;stroke-width:0.09375"/>
    <path id="path4634" d="m 344.4,110.3 c 3.4,-2 8.1,-5.6 12.1,-2.8 4.7,3.2 9.2,6.6 14.3,9 3.5,2 2.6,6.5 1.3,9.7 6.1,2.9 12.2,6.3 15.2,12.6 2.4,-1 4.8,-2 7.2,-3 1.1,1.5 2.1,3 3.2,4.5 0.1,-1.9 0.2,-5.7 0.2,-7.6 2.8,-1.8 5.2,-4.1 8.3,-5.4 2.6,-0.1 4.9,1.4 7.2,2.3 -4.2,9.5 -5.8,20.4 -2.3,30.4 3,6.4 9.3,10 13.8,15.1 1.7,1.7 -0.1,4 -0.7,5.8 -2,4 -4.5,9.8 -10.2,8 -4.4,-0.1 -7.8,-3.3 -11.9,-4.2 -9.1,1.7 -17.9,6.4 -27.3,5.5 -3.9,-0.1 -5.3,-4.3 -7.2,-7 -3.4,-5.7 -8.7,-9.9 -13.2,-14.8 8.4,-1 16.8,-1.8 25.2,-3 -7.4,-7.7 -20.7,0.1 -26.9,-9.4 0.8,-1.8 2,-3.3 3.2,-4.8 -1.6,-3.9 -3,-7.8 -4.2,-11.8 5.5,-3.4 10.8,-7.2 15.5,-11.8 -7.3,2.3 -14.4,6.3 -18.9,12.7 -2.9,3.9 -8.1,4.6 -12.2,6.5 -2.8,-5 -5.4,-10.1 -6.8,-15.7 4.7,-3.9 10.8,-6.1 15,-10.5 0,-2.6 0,-7.7 0.1,-10.3 z" inkscape:connector-curvature="0" style="fill:#000000;stroke:#000000;stroke-width:0.09375"/>
    <path id="path4636" d="m 414.5,108.8 c 2.1,-0.3 4.2,-0.6 6.4,-0.8 -1.3,2.5 -2.5,4.9 -4.2,7.2 -0.8,-2.1 -1.5,-4.3 -2.2,-6.4 z" inkscape:connector-curvature="0" style="fill:#000000;stroke:#000000;stroke-width:0.09375"/>
    <path id="path4638" d="m 502.2,119.9 c 2.7,-0.2 8.2,-0.7 10.9,-0.9 1.6,2.6 3.3,5.2 4.7,8 -4.5,1.6 -11.9,5.5 -15.1,0.2 -1.4,-2.2 -0.6,-4.9 -0.5,-7.3 z" inkscape:connector-curvature="0" style="fill:#000000;stroke:#000000;stroke-width:0.09375"/>
    <path id="path4640" d="m 445.5,125.2 c 4,-0.6 8.1,-1.3 12.1,-1.9 2.2,1.3 4.4,2.6 6.6,3.9 -0.6,6.4 -0.4,13.7 -7.4,16.6 -0.2,2.4 -0.5,4.8 -0.8,7.3 -10.2,-4 -10.7,-16.5 -10.5,-25.9 z" inkscape:connector-curvature="0" style="fill:#000000;stroke:#000000;stroke-width:0.09375"/>
    <path id="path4642" d="m 488.4,128.3 c 1.7,-2.6 4.4,-4.2 6.8,-6.1 2.8,2.7 5.8,5.6 7.5,9.3 0.6,3.7 1,7.6 2.3,11.2 6.8,-3.8 12.7,-9 19.7,-12.4 2.3,2.6 4.4,5.3 6.5,8.1 2.7,-0.1 5.6,-1.1 8.4,-0.6 3.5,1.2 5.9,4.7 9.6,5.5 7.3,1.5 14.8,2.7 22,4.7 -1.9,1.2 -3.7,2.5 -5.5,3.7 2.5,2.7 4.6,5.8 7.1,8.5 5.6,2.6 11.6,5.6 18,4.7 5.7,-0.9 9.9,3.9 14.9,5.8 1.7,-2.6 3.3,-5.1 4.9,-7.7 2.1,1.6 4.1,3.3 6,5 -1.5,2.1 -3.2,4.1 -4.8,6.2 2.4,2 4.8,4 7.2,6 -1.3,1 -2.6,2 -3.8,2.9 1,2.1 2,4.2 3.1,6.2 -4.1,-0.4 -8.1,-1.1 -12,-2.1 0.1,-2.9 0.2,-5.7 0.1,-8.5 -2.8,1.1 -5.5,2.9 -8.5,3.5 -3,-0.1 -5.9,-1.5 -8.8,-2.1 1.3,4 1.9,8.1 1.2,12.2 9.1,8.5 21.5,11.5 32.4,16.9 -0.6,1.2 -1.2,2.4 -1.8,3.6 2.8,1.7 5.7,3.2 8.5,5 -10,0.3 -20.3,-2.4 -30.2,0.8 5.7,3.4 12.4,4.6 18.5,7 3.2,2.4 5.9,5.4 8.7,8.3 -11.7,-1.7 -24,-1 -35.2,-5.2 -7.3,-3.8 -15.1,-6.8 -23.3,-8.2 -6.3,0.6 -10.9,5.7 -16.5,8.3 -0.8,-1.7 -2.5,-5.1 -3.3,-6.7 4.7,-5.5 10.3,-10.4 16.3,-14.4 -2.6,-6.2 -1.9,-12.9 1.1,-18.9 0.2,-6.6 -6.4,-11.5 -11.6,-14.5 -8.9,-4.8 -18.3,-9.1 -28.1,-11.6 -10.9,0.6 -21.3,6.6 -32.4,4.3 -6.7,-2.1 -15.1,-1.8 -19,-8.7 1.9,-0.7 3.9,-1.3 5.8,-2 -3,-2 -7.3,-3.4 -8.2,-7.3 -1.5,-5.8 -1.5,-12.3 1.3,-17.7 2.7,-2.7 6.4,-4.2 9.7,-6.1 -0.8,4.4 -2.2,8.6 -2,13 1.8,5.4 4,10.8 6,16.1 3.1,1.9 6,0.6 7,-2.4 -0.3,-4.3 -5.4,-6.4 -5.9,-10.6 -0.3,-4.4 -0.4,-8.7 0.3,-13 z" inkscape:connector-curvature="0" style="fill:#000000;stroke:#000000;stroke-width:0.09375"/>
    <path id="path4644" d="m 423.4,132.5 c 4.6,-5.6 12,-5.5 18.4,-4.2 2.4,3.1 -0.1,6.7 -1.9,9.4 2.8,3.1 9.4,7.1 5.9,12 -2.4,2.8 -3.9,9.4 -8.6,8.1 -7.3,-5.2 -15.4,-11.3 -17,-20.8 2.2,0.2 4.5,0.5 6.7,0.8 -1.2,-1.8 -2.3,-3.6 -3.5,-5.3 z" inkscape:connector-curvature="0" style="fill:#000000;stroke:#000000;stroke-width:0.09375"/>
    <path id="path4646" d="m 254.2,131 c 6,4.6 11.4,9.7 17.4,14.4 3.1,2.6 7,0.4 10.2,-0.9 5.6,3.7 12.5,3.2 19,3.7 -2,2 -3.9,4.2 -5.5,6.5 5.9,-1.1 11.9,-2.1 17.5,-4.5 1.2,4.5 2.3,8.9 4,13.2 2,-1 4,-2 6,-3.1 0.2,1.2 0.5,2.4 0.8,3.6 10.3,1 17.5,9.4 25.4,15 3.7,3 8.8,3 12.4,6.2 -1.1,2.6 -3.5,4.2 -5.6,6 3.3,3.8 6.2,8.7 11.4,10.1 4.8,0.3 9.5,-0.5 14.3,-0.2 3.8,1.2 7.1,3.4 10.3,5.5 2.8,-3.3 4.8,-8.4 9.6,-9.2 4,-2.1 7.2,0.8 10.5,2.3 7.3,2.6 13.8,9.4 22.2,6.7 5.6,0.3 6.5,-6.1 9,-9.9 -2.8,-1.7 -5.7,-3.3 -8.6,-4.9 1.3,-3.9 2.9,-7.7 5,-11.2 3.9,3.1 7.5,6.6 11.3,9.8 -2.4,2.3 -5.3,4.4 -6.4,7.6 1.1,2.3 2.9,4.3 4.6,6.3 4.6,-4 8.9,-8.4 12.3,-13.5 -3.8,-2.5 -6.2,-6.5 -5.3,-11.4 -2.8,-1.8 -6.3,-3.2 -7.7,-6.5 -1.1,-6.5 1.4,-12.6 3.9,-18.5 0.7,0 2,-0.1 2.7,-0.1 7.5,11.5 10.6,25.2 19,36.1 1.3,-0.1 2.6,-0.1 4,-0.2 1,-2.2 2.1,-4.4 3.2,-6.6 2.6,5 3.1,10.7 5.1,15.9 2.1,3.8 5.2,6.9 8.3,9.9 0.8,-1.3 1.7,-2.5 2.3,-3.9 1.9,-10.7 3.1,-21.8 1.4,-32.6 6,0.2 12.3,0 17.7,3 0.4,3.9 0.7,7.7 1.6,11.5 2.4,4.8 7.8,9.1 5.6,15.1 -1.3,4.2 -2.4,10.1 -7.7,10.6 -5.3,2 -10.9,2 -16.4,2.9 3.5,9.2 -1.8,18.1 -5,26.5 -1.2,2.5 -4.3,3 -6.5,4.4 -1.9,4.9 -0.9,11.9 -6,14.9 -8.4,5.9 -9.8,17.1 -14.1,25.8 -3.5,9.9 -5.9,21.9 -0.8,31.7 3.8,-0.3 7.5,-0.8 11.2,-0.7 3.3,5.7 2.7,12.9 4.7,19.2 6.9,0.1 14.6,-5.4 21.1,-1 4.4,2.7 10,3.2 13.8,7 8.4,7.6 20.3,11.5 31.5,9.5 4.1,-0.4 8.1,-0.6 12.2,-0.4 -1.1,4.7 -3.4,10.1 -0.7,14.8 3.7,6.2 4.3,16 12.1,18.8 5.2,0.8 8.7,4.5 10.5,9.2 5.1,0.5 11.4,-1.8 12.5,-7.3 0.1,-4.9 1.5,-10.6 -1.9,-14.7 -4.7,-6.9 -8.2,-14.4 -13.7,-20.6 4.1,-6.5 8.6,-12.7 13,-19 2.7,-3.8 2.3,-9 0.1,-12.9 -3.7,-6.9 -8.3,-13.4 -12.9,-19.7 -4.3,-1.1 -12.8,-0.5 -12.7,-7 2.1,-3.4 5.8,-5.7 7.5,-9.3 0.4,-2.7 -2,-4.5 -3.5,-6.3 -3.3,-3.1 -5.1,-7.5 -5.9,-11.9 -1,-4.9 -3.8,-9.1 -5.2,-13.9 6.1,-0.6 12.6,-0.4 18.1,-3.3 3.3,-2 6.5,0.8 9.7,1.6 8.2,1.6 16.5,2.3 24.9,2.3 3.2,5.8 6.3,11.7 9.1,17.6 1.6,3 -0.5,6.3 -1,9.3 2,0.8 3.9,1.5 5.9,2.2 0.9,-2.1 1.8,-4.3 2.6,-6.5 4.8,0.1 9.6,0.5 14.4,0.8 1.4,-6.2 6.1,-12.6 3.3,-19 -1.2,-3.5 -1.7,-7.1 -2.3,-10.7 6.6,5 14.3,8.6 19.3,15.4 1.4,-0.5 2.8,-1.1 4.3,-1.6 0.8,1.8 1.5,3.6 2.4,5.4 9.5,-0.4 13.2,11.1 21.3,14 5,2 9.7,4.6 14.9,6 6.4,0 12.7,-2.1 18.7,-4.2 2.9,2.7 5.7,5.3 8.5,8 4.8,0.6 11,-1.4 14.4,3.1 3.1,3.8 9.2,7.4 7.6,13.1 -1.2,5.3 -2.7,11.2 -7.7,14.4 -7,3.8 -5.1,12.9 -8.2,19.1 -4.3,5.4 -10.9,8 -17.5,9.7 -10.5,6 -22.9,8.4 -32.3,16.5 0.6,3.9 1.3,7.8 2,11.6 -5.4,4.3 -10.9,9.3 -12.7,16.3 -1.7,7.7 -2.6,15.5 -4,23.2 -2.8,5.9 -7.6,10.4 -11.2,15.7 -3.9,5.8 -5.5,12.8 -9.7,18.3 -6,8.5 -12.2,17 -19.9,24 -5,3 -10.9,4 -16.2,6.1 -3.1,1.5 -4.4,5 -5.9,7.9 3,0.8 6,1.5 9.1,2 -10.7,4.3 -21.6,8.5 -30.4,16.2 -1.4,-5.5 1.7,-10.1 4.1,-14.7 -0.1,-5.7 -0.2,-11.4 0.9,-17 4.4,-0.5 9.6,1 13.5,-1.7 -2.2,-7.8 -10.1,-13.1 -17.8,-14.5 -1.4,3.1 -2.8,6.1 -4.4,9.1 -7.2,-1.3 -14.8,-1.5 -21.7,-3.9 -3.6,-6.7 -5,-14.3 -7.3,-21.5 -2.6,0.6 -5.1,1.4 -7.7,1.4 -3.2,-2.3 -4.4,-7.3 -8.7,-7.9 -4.2,-0.6 -8.4,-0.3 -12.5,0 -5.6,2.9 -8.7,8.7 -12.5,13.4 -7.7,-0.7 -15.6,-3.4 -23.2,-1 -8.5,0.6 -16.1,-5.1 -24.5,-5.6 -22.7,-1.9 -45.4,2.1 -68,-0.1 -30.2,-2.6 -60.5,-5.1 -90.5,-9.8 -20.4,-4.1 -40.5,-9.8 -60.5,-15.4 -2.8,-1.2 -7,-1.2 -8.6,-4.2 -2.1,-4 -4.1,-8 -6.4,-11.8 -2.7,-4.4 -2.9,-9.6 -4,-14.5 -2,0 -4,0.1 -6,0.2 -3.3,-5.2 -7.5,-10 -9.9,-15.8 -1.2,-5 3,-9.1 2.5,-14.1 -0.6,-7 -1.5,-14.1 -4.8,-20.3 -3.8,-5.2 1.2,-10.2 3.3,-14.9 -0.8,-1.3 -1.6,-2.6 -2.4,-3.9 2.9,-2.4 6.5,-5.3 5,-9.8 -1.3,-15.3 -1.1,-30.7 -2.9,-45.9 -3,-6.3 -10.5,-8.2 -16.7,-9.7 -3.7,-9.8 -5.1,-20.5 -11.4,-29.2 -1.5,-2 -1.9,-4.6 -0.2,-6.6 21.7,-29 42.7,-58.6 65.7,-86.6 z" inkscape:connector-curvature="0" style="fill:#000000;stroke:#000000;stroke-width:0.09375"/>
    <path id="path4648" d="m 483.1,133.8 c 0.9,1.8 1.8,3.7 2.7,5.6 -0.6,0 -1.8,0.2 -2.5,0.2 -0.1,-1.9 -0.1,-3.9 -0.2,-5.8 z" inkscape:connector-curvature="0" style="fill:#000000;stroke:#000000;stroke-width:0.09375"/>
    <path id="path4650" d="m 489.2,149.5 c 1.8,-1.1 3,2 1.4,2.8 -1.8,1.1 -2.9,-2 -1.4,-2.8 z" inkscape:connector-curvature="0" style="fill:#000000;stroke:#000000;stroke-width:0.09375"/>
    <path id="path4652" d="m 525.6,171.1 c 1.2,0.7 2.4,1.3 3.6,2 -1.3,1.5 -2.5,2.9 -3.8,4.4 0.1,-1.6 0.2,-4.8 0.2,-6.4 z" inkscape:connector-curvature="0" style="fill:#000000;stroke:#000000;stroke-width:0.09375"/>
    <path id="path4654" d="m 538.3,171.2 c 0.9,-1.4 3.3,0 2.2,1.4 -0.9,1.4 -3.3,-0.1 -2.2,-1.4 z" inkscape:connector-curvature="0" style="fill:#000000;stroke:#000000;stroke-width:0.09375"/>
    <path id="path4656" d="m 541.2,177 c 3.7,-0.9 6.8,2.1 7.3,5.6 0.4,4.1 3,9.3 0.2,13.1 -3.9,3.1 -9.3,-0.8 -10.8,-4.6 -2.8,-4.8 0,-10.4 3.3,-14.1 z" inkscape:connector-curvature="0" style="fill:#000000;stroke:#000000;stroke-width:0.09375"/>
    <path id="path4658" d="m 552.1,178 c 0.7,0 2.1,0 2.8,0 0.3,0.5 1,1.5 1.3,2 -0.3,0.5 -1,1.5 -1.3,2 -0.7,0 -2.1,0 -2.8,0 -0.3,-0.5 -1,-1.5 -1.3,-2 0.3,-0.5 1,-1.5 1.3,-2 z" inkscape:connector-curvature="0" style="fill:#000000;stroke:#000000;stroke-width:0.09375"/>
    <path id="path4660" d="m 391.6,194.6 c 4.7,-2 9.8,-2.2 14.9,-2.4 -4.9,1.3 -9.9,2 -14.9,2.4 z" inkscape:connector-curvature="0" style="fill:#000000;stroke:#000000;stroke-width:0.09375"/>
    <path id="path4662" d="m 510.3,218.7 c 1,1.7 2.1,3.4 3.1,5.2 -0.8,-0.1 -2.3,-0.3 -3.1,-0.4 0,-1.6 0,-3.2 0,-4.8 z" inkscape:connector-curvature="0" style="fill:#000000;stroke:#000000;stroke-width:0.09375"/>
    <path id="path4664" d="m 513.6,218.6 c 3.1,1.1 6,2.9 8.1,5.6 -3.2,-1.1 -5.9,-3.1 -8.1,-5.6 z" inkscape:connector-curvature="0" style="fill:#000000;stroke:#000000;stroke-width:0.09375"/>
    <path id="path4666" d="m 507.2,241.9 c -0.2,-6.3 -3.6,-12.9 -0.5,-19 7.7,4.9 17.9,4.5 24.9,10.4 2.8,3.8 6.9,6.1 11.2,7.9 -2.3,2.2 -4.9,4.3 -7.9,5.7 -2.5,-0.6 -4.7,-2.1 -7.2,-3.1 -4.2,3.5 -6.6,8.7 -9.8,13 -1.3,-1.8 -2.7,-3.7 -3.7,-5.5 -3.4,0.6 -6.9,1.2 -10.3,1.8 0.6,-3.9 2.6,-7.4 3.3,-11.2 z" inkscape:connector-curvature="0" style="fill:#000000;stroke:#000000;stroke-width:0.09375"/>
    <path id="path4668" d="m 561.4,234.5 c 1,1 2.1,2.1 3.1,3.1 -0.9,0.1 -2.7,0.4 -3.6,0.5 0.1,-0.9 0.4,-2.7 0.5,-3.6 z" inkscape:connector-curvature="0" style="fill:#000000;stroke:#000000;stroke-width:0.09375"/>
    <path id="path4670" d="m 552.9,238.9 c 1.5,0.2 3.1,0.3 4.6,0.5 0.1,0.7 0.4,2 0.6,2.7 -1.5,-0.2 -3.1,-0.3 -4.6,-0.5 -0.1,-0.7 -0.4,-2 -0.6,-2.7 z" inkscape:connector-curvature="0" style="fill:#000000;stroke:#000000;stroke-width:0.09375"/>
    <path id="path4672" d="m 576.5,239.3 c 0.9,-1.2 2.9,0.3 2,1.4 -0.9,1.2 -2.9,-0.3 -2,-1.4 z" inkscape:connector-curvature="0" style="fill:#000000;stroke:#000000;stroke-width:0.09375"/>
    <path id="path4674" d="m 526.3,257.4 c 2.5,-2.3 5.9,-2.9 9,-3.9 -1,5.3 -2.6,10.4 -4.1,15.6 -0.8,-0.1 -2.4,-0.1 -3.3,-0.2 -0.9,-3.6 -4.1,-7.9 -1.6,-11.5 z" inkscape:connector-curvature="0" style="fill:#000000;stroke:#000000;stroke-width:0.09375"/>
    <path id="path4676" d="m 545.3,262.7 c -1.2,-4.2 2.7,-7.3 5.3,-9.9 0.7,4.7 1.6,9.4 1.8,14.1 -2.1,-1.5 -6.5,-1 -7.1,-4.2 z" inkscape:connector-curvature="0" style="fill:#000000;stroke:#000000;stroke-width:0.09375"/>
    <path id="path4678" d="m 758.6,312.4 c -0.1,-4 4.5,-4.9 7.3,-6.3 1.5,7 1.6,14 2.2,21.1 1.3,-1.5 2.6,-3 3.9,-4.5 2.8,1.5 5.7,3 8.7,4.3 3.7,-2.7 7.5,-5.5 12,-6.9 0.4,2.8 0.8,5.5 1.2,8.3 2.5,-0.8 4.9,-1.6 7.4,-2.4 -0.5,4.5 0,9 0.9,13.4 1.3,-2.8 2.5,-5.5 3.8,-8.2 2.3,2.2 4.9,4.2 6.8,6.9 1.1,3 1.2,6.4 1.8,9.6 -5.4,1 -10.9,0.3 -15.2,-3.3 -1.2,4.1 -2.3,8.3 -5.6,11.1 -1,-9.7 -9,-3.6 -13,-0.9 -7.4,3.9 -12.9,10.7 -20.6,13.8 -0.3,-6.6 -3.3,-12.8 -2.1,-19.4 0.9,-12.2 0.6,-24.4 0.5,-36.6 z" inkscape:connector-curvature="0" style="fill:#000000;stroke:#000000;stroke-width:0.09375"/>
    <path id="path4680" d="m 189.4,320.9 c 1.5,0 3,0.1 4.5,0.2 1.7,3 3.4,5.8 5.2,8.7 -0.9,1.7 -1.9,3.3 -2.7,4.9 -2.2,-1.4 -7.5,-0.4 -7.9,-4.1 -0.1,-3.3 0.3,-6.5 0.9,-9.7 z" inkscape:connector-curvature="0" style="fill:#000000;stroke:#000000;stroke-width:0.09375"/>
    <path id="path4682" d="m 569.6,332.9 c 1.7,-2.1 3.5,-4.1 5.3,-6.1 1.3,0.8 2.8,1.5 4.2,2.3 -0.4,2.5 -0.8,4.9 -1.2,7.3 -2.8,-1.1 -5.5,-2.3 -8.3,-3.5 z" inkscape:connector-curvature="0" style="fill:#000000;stroke:#000000;stroke-width:0.09375"/>
    <path id="path4684" d="m 190,335.4 c 1.8,0.2 3.6,0.4 5.5,0.6 -2.1,5.7 -1.4,11.9 -0.1,17.7 -4,-5.3 -4.7,-11.9 -5.4,-18.3 z" inkscape:connector-curvature="0" style="fill:#000000;stroke:#000000;stroke-width:0.09375"/>
    <path id="path4686" d="m 708,363.6 c 7.7,-6.8 18.3,-7.2 28,-6.1 0,1.7 0,3.3 0.1,5 -9.3,1.2 -18.8,3.1 -28.1,1.1 z" inkscape:connector-curvature="0" style="fill:#000000;stroke:#000000;stroke-width:0.09375"/>
    <path id="path4688" d="m 710,373 c 4.2,-1.4 11.1,0.5 10.9,5.9 -1.8,5.6 -8.9,6.6 -13,10.1 0.2,0.6 0.4,1.9 0.6,2.5 4,0 8,-0.8 12.1,-0.4 4.4,4.2 7.5,10.3 13.1,13.2 8.6,2 16.9,-1.9 25,-4.4 0.9,1 1.7,2.1 2.5,3.1 -4.2,5.9 -8.2,11.8 -14.1,16.2 -6.6,4.8 -8.4,13.2 -12.6,19.9 -2.9,-2 -5.3,-4.6 -7.2,-7.6 6.1,-6.5 11.7,-13.5 15.9,-21.3 -10.9,2.7 -18.6,11 -25.6,19.2 -3,-2.9 -7,-5.2 -8.7,-9.1 -1.8,-3.8 -3.3,-7.6 -5.5,-11.2 -5.6,0.6 -11.2,1 -16.7,1.4 -1.1,11 -3.8,21.7 -5.7,32.6 -6.8,2.3 -13.5,4.7 -20.5,6.2 2.7,-16.7 19.1,-26.4 23.6,-42.3 2.4,-6.4 3.7,-13.5 7.6,-19.3 5.5,-5.6 11.5,-10.9 18.3,-14.7 z" inkscape:connector-curvature="0" style="fill:#000000;stroke:#000000;stroke-width:0.09375"/>
    <path id="path4690" d="m 206.5,374 c 6.6,1.4 10.2,7.5 14.4,12.1 6.8,7.8 12.6,17 13.5,27.6 -4.3,-1.2 -9.1,-2.4 -12.6,-5.5 -7.3,-8.9 -11.4,-19.8 -17.8,-29.3 0.8,-1.6 1.7,-3.3 2.5,-4.9 z" inkscape:connector-curvature="0" style="fill:#000000;stroke:#000000;stroke-width:0.09375"/>
    <path id="path4692" d="m 569.4,379.1 c 1.8,-1.8 3.9,-3.2 6.2,-4.2 -1.8,1.8 -3.9,3.2 -6.2,4.2 z" inkscape:connector-curvature="0" style="fill:#000000;stroke:#000000;stroke-width:0.09375"/>
    <path id="path4694" d="m 760.1,379.1 c 1.4,2.4 3.1,4.8 3.3,7.7 -0.3,3.6 -2.6,6.6 -4.9,9.3 0,-5.7 -0.4,-11.6 1.6,-17 z" inkscape:connector-curvature="0" style="fill:#000000;stroke:#000000;stroke-width:0.09375"/>
    <path id="path4696" d="m 766.1,386.1 c 1,0 2.8,0.2 3.8,0.3 -1.9,3.6 -4.2,6.9 -6.5,10.2 0.8,-3.6 1.8,-7 2.7,-10.5 z" inkscape:connector-curvature="0" style="fill:#000000;stroke:#000000;stroke-width:0.09375"/>
    <path id="path4698" d="m 732.5,395.7 c 6.9,-0.1 13.8,-0.8 20.4,-2.8 -0.2,2 -0.3,4.1 -1,6.1 -6.5,2.4 -13.6,2.4 -20.1,0.4 0.2,-1.2 0.4,-2.5 0.7,-3.7 z" inkscape:connector-curvature="0" style="fill:#000000;stroke:#000000;stroke-width:0.09375"/>
  </g>
</svg>