<svg xmlns="http://www.w3.org/2000/svg" xmlns:xlink="http://www.w3.org/1999/xlink" version="1.1" id="Capa_1" x="0px" y="0px" width="100px" height="100px" viewBox="0 0 100 100" enable-background="new 0 0 100 100" xml:space="preserve">
<g id="Capa_6">
	<polygon points="56.887,0 69.175,9.755 75.74,11.233 77.857,16.111 86.122,18.012 88.665,22.25 97.984,23.938 94.169,40.679    83.58,54.883 89.514,59.963 90.146,77.962 94.381,79.873 95.654,83.052 84.424,91.104 64.938,86.448 59.212,91.746 59.43,100    48.41,98.313 29.977,94.702 22.354,87.08 26.166,82.84 28.283,57.633 21.293,52.334 17.906,43.226 3.92,38.99 2.015,30.934    9.854,26.698 17.482,29.875 23.628,29.455 22.354,15.682 27.227,15.891 31.462,19.919 38.033,19.5 41.208,15.042 48.41,10.594    50.316,2.337  "/>
</g>
</svg>