<svg xmlns="http://www.w3.org/2000/svg" xmlns:xlink="http://www.w3.org/1999/xlink" version="1.1" id="Your_Icon" x="0px" y="0px" width="100px" height="100px" viewBox="0 0 100 100" enable-background="new 0 0 100 100" xml:space="preserve">
<path d="M91.423,95.14V33.141l-34.694-13.21v-7.725h-1.792c-0.552-2.074-2.277-3.665-4.425-4.019V0h-1.808v8.186  c-2.148,0.354-3.873,1.945-4.425,4.019h-1.791v8.026L8.577,33.141V95.14H4.86V100H95.14v-4.86H91.423z M40.894,35.879h6.172v6.172  h-6.172V35.879z M40.894,47.919h6.172v6.172h-6.172V47.919z M40.894,59.959h6.172v6.172h-6.172V59.959z M22.985,90.212h-6.172V84.04  h6.172V90.212z M22.985,78.171h-6.172v-6.172h6.172V78.171z M22.985,66.131h-6.172v-6.172h6.172V66.131z M22.985,54.091h-6.172  v-6.172h6.172V54.091z M35.026,90.212h-6.172V84.04h6.172V90.212z M35.026,78.171h-6.172v-6.172h6.172V78.171z M35.026,66.131  h-6.172v-6.172h6.172V66.131z M35.026,54.091h-6.172v-6.172h6.172V54.091z M35.026,42.051h-6.172v-6.172h6.172V42.051z   M40.894,71.999h6.172l-6.172,6.172V71.999z M53.668,95.369h-7.335V83.833h7.335V95.369z M59.106,78.171l-6.172-6.172h6.172V78.171z   M59.106,66.131h-6.172v-6.172h6.172V66.131z M59.106,54.091h-6.172v-6.172h6.172V54.091z M59.106,42.051h-6.172v-6.172h6.172  V42.051z M71.146,90.212h-6.172V84.04h6.172V90.212z M71.146,78.171h-6.172v-6.172h6.172V78.171z M71.146,66.131h-6.172v-6.172  h6.172V66.131z M71.146,54.091h-6.172v-6.172h6.172V54.091z M71.146,42.051h-6.172v-6.172h6.172V42.051z M83.187,90.212h-6.172  V84.04h6.172V90.212z M83.187,78.171h-6.172v-6.172h6.172V78.171z M83.187,66.131h-6.172v-6.172h6.172V66.131z M83.187,54.091  h-6.172v-6.172h6.172V54.091z"/>
</svg>