<svg xmlns="http://www.w3.org/2000/svg" xmlns:xlink="http://www.w3.org/1999/xlink" version="1.1" id="Your_Icon" x="0px" y="0px" width="100px" height="100px" viewBox="0 0 100 100" enable-background="new 0 0 100 100" xml:space="preserve">
<path d="M94.785,22.603H100l-9.522-5.609v-6.612h-4.474v3.977l-8.397-4.946l-22.392,13.19h5.214v13.298H39.57V22.603h5.215  L22.392,9.414L0,22.603h5.214v63.919h-2.27v4.064h94.111v-4.064h-2.27V22.603z M47.419,50.44h5.162v5.162h-5.162V50.44z   M47.419,60.51h5.162v5.162h-5.162V60.51z M19.938,79.677h-5.162v-5.162h5.162V79.677z M19.938,69.607h-5.162v-5.162h5.162V69.607z   M19.938,59.537h-5.162v-5.162h5.162V59.537z M19.938,49.467h-5.162v-5.162h5.162V49.467z M19.938,39.397h-5.162v-5.162h5.162  V39.397z M18.558,22.45c0-2.118,1.717-3.834,3.834-3.834s3.834,1.717,3.834,3.834s-1.717,3.834-3.834,3.834  S18.558,24.568,18.558,22.45z M30.008,79.677h-5.162v-5.162h5.162L30.008,79.677z M30.008,69.607h-5.162v-5.162h5.162L30.008,69.607  z M30.008,59.537h-5.162v-5.162h5.162L30.008,59.537z M30.008,49.467h-5.162v-5.162h5.162L30.008,49.467z M30.008,39.397h-5.162  v-5.162h5.162L30.008,39.397z M40.057,65.672h-2.708V60.51h2.708V65.672z M40.057,55.602h-2.708V50.44h2.708V55.602z M53.067,86.715  h-6.135v-9.649h6.135V86.715z M62.651,65.672h-2.708V60.51h2.708V65.672z M62.651,55.602h-2.708V50.44h2.708V55.602z M75.153,79.677  h-5.162v-5.162h5.162V79.677z M75.153,69.607h-5.162v-5.162h5.162V69.607z M75.153,59.537h-5.162v-5.162h5.162V59.537z   M75.153,49.467h-5.162v-5.162h5.162V49.467z M75.153,39.397h-5.162v-5.162h5.162V39.397z M73.773,22.45  c0-2.118,1.717-3.834,3.834-3.834c2.118,0,3.834,1.717,3.834,3.834s-1.717,3.834-3.834,3.834S73.773,24.568,73.773,22.45z   M85.223,79.677h-5.162v-5.162h5.162V79.677z M85.223,69.607h-5.162v-5.162h5.162V69.607z M85.223,59.537h-5.162v-5.162h5.162  V59.537z M85.223,49.467h-5.162v-5.162h5.162V49.467z M85.223,39.397h-5.162v-5.162h5.162V39.397z"/>
</svg>