<svg xmlns="http://www.w3.org/2000/svg" xmlns:xlink="http://www.w3.org/1999/xlink" version="1.1" id="Your_Icon" x="0px" y="0px" width="96.001px" height="63.167px" viewBox="0 0 96.001 63.167" enable-background="new 0 0 96.001 63.167" xml:space="preserve">
<path fill-rule="evenodd" clip-rule="evenodd" d="M17.171,0c0.482,0,0.963,0,1.445,0c0,1.865,0,3.732,0,5.597  c1.6,0.074,3.324,0.011,4.972,0.032c0,19.178,0,38.356,0,57.533c-7.862,0-15.726,0-23.588,0C0,43.985,0,24.808,0,5.629  c5.724,0,11.447,0,17.171,0C17.171,3.753,17.171,1.876,17.171,0z M4.336,13.866c0,2.566,0,5.131,0,7.698c2.178,0,4.355,0,6.532,0  c0-2.597,0-5.194,0-7.792c-2.167,0-4.335,0-6.503,0C4.331,13.777,4.333,13.822,4.336,13.866z M13.124,13.866  c0,2.566,0,5.131,0,7.698c2.178,0,4.355,0,6.533,0c0-2.597,0-5.194,0-7.792c-2.167,0-4.336,0-6.504,0  C13.119,13.777,13.122,13.822,13.124,13.866z M4.336,24.361c0,2.576,0,5.152,0,7.729c2.178,0,4.355,0,6.532,0  c0-2.606,0-5.215,0-7.823c-2.167,0-4.335,0-6.503,0C4.331,24.272,4.333,24.316,4.336,24.361z M13.124,24.361  c0,2.576,0,5.152,0,7.729c2.178,0,4.355,0,6.533,0c0-2.606,0-5.215,0-7.823c-2.167,0-4.336,0-6.504,0  C13.119,24.272,13.122,24.316,13.124,24.361z M4.336,34.856c0,2.576,0,5.152,0,7.729c2.178,0,4.355,0,6.532,0  c0-2.609,0-5.218,0-7.824c-2.167,0-4.335,0-6.503,0C4.331,34.767,4.333,34.812,4.336,34.856z M13.124,34.856  c0,2.576,0,5.152,0,7.729c2.178,0,4.355,0,6.533,0c0-2.609,0-5.218,0-7.824c-2.167,0-4.336,0-6.504,0  C13.119,34.767,13.122,34.812,13.124,34.856z"/>
<path fill-rule="evenodd" clip-rule="evenodd" d="M96.001,34.157c0,9.669,0,19.338,0,29.005c-2.14,0-4.277,0-6.417,0  c0-5.948,0-11.895,0-17.842c-3.055-0.074-6.235-0.011-9.337-0.032c-0.021,5.947,0.038,11.981-0.03,17.874  c-8.517-0.021-17.112,0.042-25.582-0.032c0.02-14.491-0.039-29.067,0.029-43.508c0.675,0,1.349,0,2.023,0c0-2.024,0-4.049,0-6.073  c1.059,1.655,2.326,3.598,3.438,5.343c0.169,0.263,0.339,0.672,0.521,0.73c0.306,0.1,0.761,0,1.1,0c0.361,0,0.723,0.053,1.04-0.063  c0-2.077,0-4.155,0-6.234c1.096,1.725,2.403,3.733,3.557,5.534c0.183,0.286,0.353,0.701,0.548,0.763c0.333,0.105,0.781,0,1.129,0  c0.396,0,0.757,0,1.155,0c0-2.013,0-4.027,0-6.042c1.076,1.637,2.321,3.578,3.439,5.312c0.179,0.277,0.327,0.669,0.521,0.73  c0.313,0.103,0.741,0,1.069,0c0.381,0,0.716,0,1.098,0c0,4.847,0,9.69,0,14.535C82.203,34.157,89.101,34.157,96.001,34.157z   M59.26,23.693c0,2.133,0,4.263,0,6.393c1.513,0,3.026,0,4.537,0c0-2.162,0-4.325,0-6.487c-1.502,0-3.005,0-4.509,0  C59.254,23.604,59.256,23.648,59.26,23.693z M65.359,23.693c0,2.133,0,4.263,0,6.393c1.513,0,3.026,0,4.538,0  c0-2.162,0-4.325,0-6.487c-1.503,0-3.007,0-4.51,0C65.354,23.604,65.356,23.648,65.359,23.693z M59.26,32.441  c0,2.118,0,4.238,0,6.359c1.513,0,3.026,0,4.537,0c0-2.15,0-4.304,0-6.457c-1.502,0-3.005,0-4.509,0  C59.254,32.351,59.256,32.395,59.26,32.441z M65.359,32.441c0,2.118,0,4.238,0,6.359c1.513,0,3.026,0,4.538,0  c0-2.15,0-4.304,0-6.457c-1.503,0-3.007,0-4.51,0C65.354,32.351,65.356,32.395,65.359,32.441z M59.26,41.124c0,2.13,0,4.26,0,6.392  c1.513,0,3.026,0,4.537,0c0-2.164,0-4.325,0-6.488c-1.502,0-3.005,0-4.509,0C59.254,41.033,59.256,41.077,59.26,41.124z   M65.359,41.124c0,2.13,0,4.26,0,6.392c1.513,0,3.026,0,4.538,0c0-2.164,0-4.325,0-6.488c-1.503,0-3.007,0-4.51,0  C65.354,41.033,65.356,41.077,65.359,41.124z"/>
<path fill-rule="evenodd" clip-rule="evenodd" d="M25.207,40.2c9.193,0,18.386,0,27.578,0c0,7.654,0,15.307,0,22.962  c-9.202,0-18.403,0-27.606,0c0-7.623,0-15.244,0-22.866C25.176,40.25,25.173,40.205,25.207,40.2z M41.048,42.935  c0,1.326,0,2.651,0,3.977c1.349,0,2.698,0,4.047,0c0-1.357,0-2.714,0-4.071c-1.339,0-2.679,0-4.018,0  C41.043,42.845,41.046,42.89,41.048,42.935z M46.483,42.935c0,1.326,0,2.651,0,3.977c1.349,0,2.699,0,4.047,0  c0-1.357,0-2.714,0-4.071c-1.34,0-2.679,0-4.019,0C46.478,42.845,46.48,42.89,46.483,42.935z M27.346,43.125  c0,1.284,0,2.567,0,3.851c1.349,0,2.698,0,4.047,0c0-1.315,0-2.629,0-3.945c-1.339,0-2.679,0-4.018,0  C27.342,43.037,27.343,43.08,27.346,43.125z M32.752,43.125c0,1.284,0,2.567,0,3.851c1.349,0,2.698,0,4.047,0  c0-1.315,0-2.629,0-3.945c-1.339,0-2.679,0-4.018,0C32.747,43.037,32.75,43.08,32.752,43.125z M41.048,48.374  c0,1.283,0,2.564,0,3.848c1.349,0,2.698,0,4.047,0c0-1.313,0-2.629,0-3.943c-1.339,0-2.679,0-4.018,0  C41.043,48.285,41.046,48.328,41.048,48.374z M46.483,48.374c0,1.283,0,2.564,0,3.848c1.349,0,2.699,0,4.047,0  c0-1.313,0-2.629,0-3.943c-1.34,0-2.679,0-4.019,0C46.478,48.285,46.48,48.328,46.483,48.374z M27.346,48.438  c0,1.281,0,2.564,0,3.848c1.349,0,2.698,0,4.047,0c0-1.315,0-2.629,0-3.944c-1.339,0-2.679,0-4.018,0  C27.342,48.348,27.343,48.392,27.346,48.438z M32.752,48.438c0,1.281,0,2.564,0,3.848c1.349,0,2.698,0,4.047,0  c0-1.315,0-2.629,0-3.944c-1.339,0-2.679,0-4.018,0C32.747,48.348,32.75,48.392,32.752,48.438z"/>
</svg>