<svg xmlns="http://www.w3.org/2000/svg" xmlns:xlink="http://www.w3.org/1999/xlink" version="1.1" id="Layer_1" x="0px" y="0px" viewBox="0 0 90 90" enable-background="new 0 0 90 90" xml:space="preserve" height="100px" width="100px">
<g>
	<rect x="26.7" y="53.7" width="9.9" height="1.4"/>
	<path d="M37.5,56.5L37.5,56.5l-9.8,0l-3,0v8.6h13.5v-8.6H37.5z M29.1,62.8H27v-1.6h2.1V62.8z M29.1,59.8H27v-1.6h2.1V59.8z    M32.6,62.8h-2.1v-1.6h2.1V62.8z M32.6,59.8h-2.1v-1.6h2.1V59.8z M36.1,62.8H34v-1.6h2.1V62.8z M36.1,59.8H34v-1.6h2.1V59.8z"/>
	<path d="M32.4,49.1v-1h-0.7v-2.3h-0.3v2.3h-0.6c0,0,0,0.6,0,1c-1.1,0.3-2.1,1.4-3.1,3.1c1,0,7.9,0,7.9,0   C34.6,50.5,33.5,49.5,32.4,49.1z"/>
	<polygon points="56.9,40.6 56.9,39.3 54.1,39.3 54.1,37.7 51.9,37.7 51.9,40.6 51.7,40.6 51.7,43.8 56.4,43.8 56.4,45.2 51.7,45.2    51.7,46.6 56.4,46.6 56.4,48 51.7,48 51.7,49.4 56.4,49.4 56.4,50.8 51.7,50.8 51.7,52.3 56.4,52.3 56.4,53.7 51.7,53.7 51.7,55.1    56.4,55.1 56.4,56.5 51.7,56.5 51.7,57.9 56.4,57.9 56.4,59.4 51.7,59.4 51.7,60.8 56.4,60.8 56.4,62.2 51.7,62.2 51.7,65.1    58.8,65.1 58.8,46.1 58.8,46.1 58.8,40.6  "/>
	<path d="M49.6,29.2V25h-3.1v2.4h-4v1.8h-2.8V37h0v28.2h10.1v-36H49.6z M47.3,62.2h-4.9v-1.4h4.9V62.2z M47.3,59.4h-4.9v-1.4h4.9   V59.4z M47.3,56.5h-4.9v-1.4h4.9V56.5z M47.3,53.7h-4.9v-1.4h4.9V53.7z M47.3,50.8h-4.9v-1.4h4.9V50.8z M47.3,48h-4.9v-1.4h4.9V48z    M47.3,45.2h-4.9v-1.4h4.9V45.2z M47.3,42.3h-4.9v-1.4h4.9V42.3z M47.3,39.5h-4.9v-1.4h4.9V39.5z M47.3,36.7h-4.9v-1.4h4.9V36.7z    M47.3,33.8h-4.9v-1.4h4.9V33.8z"/>
	<path d="M66.9,52.5h-1.2v-1.2h-1V50h-1c-0.6-1.7-1.9-3-3.5-3.3v7.9h1.2v1.6h-1.2v1.4h1.2v1.6h-1.2v1.4h1.2v1.6h-1.2v3h6.6   L66.9,52.5z M65,62.1h-2.1v-1.6H65V62.1z M65,59.1h-2.1v-1.6H65V59.1z M65,56.1h-2.1v-1.6H65V56.1z"/>
</g>
</svg>