<?xml version="1.0" encoding="utf-8"?>
<!-- Generator: Adobe Illustrator 15.1.0, SVG Export Plug-In . SVG Version: 6.00 Build 0)  -->
<!DOCTYPE svg PUBLIC "-//W3C//DTD SVG 1.1//EN" "http://www.w3.org/Graphics/SVG/1.1/DTD/svg11.dtd">
<svg version="1.1" id="Layer_1" xmlns="http://www.w3.org/2000/svg" xmlns:xlink="http://www.w3.org/1999/xlink" x="0px" y="0px"
	 width="99.999px" height="100px" viewBox="0 0 99.999 100" enable-background="new 0 0 99.999 100" xml:space="preserve">
<path fill="#010101" d="M15.673,13.641C-4.403,32.595-5.313,64.235,13.641,84.312c0.333,0.354,0.672,0.702,1.016,1.044
	c19.523,19.524,51.178,19.524,70.699,0c19.524-19.521,19.524-51.175,0-70.699C66.231-4.484,35.349-4.935,15.673,13.641z
	 M25.262,35.16l9.898-9.898l14.847,14.847l14.847-14.847l9.898,9.898L59.905,50.012l14.848,14.842l-9.898,9.898L50.007,59.905
	L35.16,74.752l-9.898-9.898l14.847-14.842L25.262,35.16z"/>
</svg>
