<svg xmlns="http://www.w3.org/2000/svg" xmlns:xlink="http://www.w3.org/1999/xlink" version="1.1" id="Your_Icon" x="0px" y="0px" width="100px" height="100px" viewBox="0 0 100 100" enable-background="new 0 0 100 100" xml:space="preserve">
<g>
	<g>
		<g>
		</g>
	</g>
	<g>
	</g>
</g>
<polyline points="88.181,94.993 88.181,91.525 89.336,89.318 87.856,87.092 89.792,78.624 86.084,72.899 86.084,66.288   88.502,58.95 86.567,54.757 88.986,52.258 87.938,45.082 83.503,48.146 83.503,50.807 78.988,45.727 71.166,45.082 49.719,46.13   42.301,43.227 36.011,36.777 34.801,36.777 29.238,25.649 31.898,22.907 33.519,18.382 30.435,18.442 27.867,20.73 31.657,11.538   34.882,9.603 39.397,9.039 48.033,11.367 41.333,6.216 34.237,5.007 27.867,7.345 26.104,9.423 25.609,11.78 24.292,12.889   24.024,15.56 22.533,17.374 22.061,20.73 20.609,22.101 20.609,23.956 11.336,30.326 10.932,32.795 10.208,33.793 10.611,35.647   11.901,36.051 12.627,37.663 14.885,38.47 15.046,43.872 16.134,43.469 19.239,49.032 20.207,44.194 21.255,45.001 22.061,43.227   22.384,38.55 23.432,38.792 25.447,41.776 26.496,52.983 25.609,64.19 34.72,71.448 36.979,79.674 36.171,94.993 41.01,94.993   40.534,89.741 42.349,88.411 41.251,85.155 42.783,75.722 43.751,73.867 43.751,68.626 56.895,71.69 62.862,71.287 71.005,69.835   79.956,75.319 82.777,80.479 85.036,91.768 84.2,94.993 "/>
</svg>