<svg xmlns="http://www.w3.org/2000/svg" xmlns:xlink="http://www.w3.org/1999/xlink" version="1.1" id="Layer_1" x="0px" y="0px" width="90px" height="90px" viewBox="0 0 90 90" enable-background="new 0 0 90 90" xml:space="preserve">
<path d="M51.687,19.992H47.73c3.742-1.288,6.436-4.832,6.436-9.011c0-5.14-4.069-9.318-9.159-9.519v0c-0.003,0-0.005,0-0.007,0  c-0.002,0-0.005,0-0.007,0v0c-5.091,0.201-9.16,4.379-9.16,9.519c0,4.179,2.693,7.723,6.437,9.011h-3.956  c-4.509,0-8.262,4.178-8.262,9.149v18.162c0,1.342,1.444,2.426,2.785,2.426s2.785-1.084,2.785-2.426V29.141  c0-1.345,0.311-2.333,0.929-2.93v29.06v30.842c0,1.34,1.445,2.426,2.785,2.426c1.341,0,2.785-1.086,2.785-2.426V55.271h2.872h0.014  h2.872v30.842c0,1.34,1.443,2.426,2.785,2.426c1.341,0,2.785-1.086,2.785-2.426V55.271v-29.06c0.617,0.597,0.929,1.585,0.929,2.93  v18.162c0,1.342,1.444,2.426,2.785,2.426c1.34,0,2.785-1.084,2.785-2.426V29.141C59.948,24.17,56.195,19.992,51.687,19.992z   M45,42.568l-2.496-4.528L45,21.759l2.496,16.281L45,42.568z"/>
</svg>