<svg xmlns="http://www.w3.org/2000/svg" xmlns:xlink="http://www.w3.org/1999/xlink" version="1.1" id="Layer_1" x="0px" y="0px" width="64px" height="64px" viewBox="0 0 64 64" enable-background="new 0 0 64 64" xml:space="preserve">
<g>
	<circle cx="12.214" cy="19.152" r="2.916"/>
	<circle cx="27.412" cy="16.278" r="3.475"/>
	<path d="M14.985,32.293l0.972-1.64v-2.66l0.788,1.331l1.698-2.864l-1.606-2.708c-0.203-0.342-0.525-0.568-0.88-0.664v-0.052H8.472   v0.052c-0.356,0.096-0.678,0.322-0.881,0.664l-5.387,9.09c-0.411,0.694-0.182,1.59,0.511,2c0.233,0.139,0.491,0.205,0.743,0.205   c0.5,0,0.985-0.256,1.258-0.717l3.756-6.337v9.89v1.297v11.439c0,0.807,0.653,1.461,1.46,1.461c0.806,0,1.46-0.654,1.46-1.461   V39.18h1.645v11.439c0,0.807,0.654,1.461,1.46,1.461s1.46-0.654,1.46-1.461V39.18v-1.297v-2.344   c-0.052-0.025-0.109-0.037-0.159-0.066C14.699,34.82,14.334,33.395,14.985,32.293z"/>
	<path d="M21.14,31.012l-1.697,2.865l0.269,0.453c0.273,0.461,0.759,0.717,1.258,0.717c0.253,0,0.51-0.066,0.743-0.205   c0.341-0.203,0.566-0.521,0.661-0.877V33.27c-0.033-0.146-0.069-0.292-0.149-0.428L21.14,31.012z"/>
	<circle cx="46.141" cy="8.701" r="4.528"/>
	<path d="M30.1,29.66l3.752-6.332l-0.93-1.569c-0.242-0.409-0.627-0.678-1.051-0.792v-0.063h-8.917v0.063   c-0.425,0.114-0.808,0.383-1.05,0.792l-6.418,10.83c-0.49,0.827-0.218,1.893,0.609,2.383c0.278,0.166,0.584,0.244,0.886,0.244   c0.595,0,1.172-0.305,1.499-0.854l4.475-7.55v11.783v1.547v13.629c0,0.961,0.778,1.74,1.739,1.74s1.74-0.779,1.74-1.74V40.143h1.96   v13.629c0,0.961,0.779,1.74,1.74,1.74c0.96,0,1.738-0.779,1.738-1.74V40.143v-1.547v-4.727c-0.271-0.066-0.533-0.164-0.774-0.309   C29.747,32.762,29.301,31.01,30.1,29.66z"/>
	<path d="M37.162,28.916l-2.023,3.413l1.207,2.035c0.325,0.549,0.904,0.854,1.498,0.854c0.303,0,0.609-0.078,0.886-0.244   c0.825-0.49,1.099-1.557,0.61-2.383L37.162,28.916z"/>
	<path d="M61.685,29.957L53.32,15.844c-0.314-0.533-0.816-0.883-1.369-1.032v-0.082h-11.62v0.082   c-0.554,0.148-1.053,0.499-1.368,1.032L30.6,29.957c-0.638,1.077-0.283,2.467,0.794,3.106c0.362,0.215,0.762,0.317,1.153,0.317   c0.776,0,1.528-0.397,1.953-1.111l5.831-9.839v15.354v2.016v17.762c0,1.25,1.013,2.266,2.267,2.266   c1.252,0,2.267-1.016,2.267-2.266V39.799h2.556v17.762c0,1.25,1.014,2.266,2.267,2.266c1.251,0,2.265-1.016,2.265-2.266V39.799   v-2.016V22.429l5.83,9.839c0.426,0.714,1.179,1.111,1.953,1.111c0.395,0,0.793-0.103,1.154-0.317   C61.965,32.423,62.32,31.034,61.685,29.957z"/>
</g>
</svg>